<svg width="865" height="433" viewBox="0 0 865 433" fill="none" xmlns="http://www.w3.org/2000/svg">
<g clip-path="url(#clip0_1_2)">
<path d="M447.27 205V148.3H458.75V197.16H472.12V205H447.27ZM477.693 205V148.3H489.173V205H477.693ZM497.578 205L498.558 148.3H510.808L517.808 184.07L525.228 148.3H537.058L538.108 205H529.708L528.798 166.5L521.518 205H514.378L506.888 166.29L506.048 205H497.578ZM546.599 205V148.3H558.079V205H546.599ZM572.014 205V156.84H563.264V148.3H592.244V156.84H583.634V205H572.014ZM597.387 205V148.3H622.097V156.28H608.867V171.33H619.087V179.38H608.867V197.16H622.237V205H597.387ZM628.149 205V148.3H642.009C656.359 148.3 660.629 153.76 660.629 166.08V186.73C660.629 199.33 656.359 205 642.289 205H628.149ZM639.629 196.95H642.149C648.449 196.95 648.799 193.94 648.799 187.99V164.54C648.799 158.8 648.169 156.42 642.079 156.42H639.629V196.95ZM700.406 205.77C689.906 205.77 684.866 200.17 684.376 188.13L694.316 186.45C694.526 193.52 696.206 196.95 699.916 196.95C702.856 196.95 703.766 194.78 703.766 192.33C703.766 187.5 701.316 184.77 697.536 181.48L691.656 176.37C687.456 172.8 684.446 168.67 684.446 162.02C684.446 152.71 690.396 147.6 699.846 147.6C711.256 147.6 713.566 156.07 713.986 163.35L703.976 164.82C703.836 159.64 703.276 156.07 699.496 156.07C696.836 156.07 695.506 158.45 695.506 160.9C695.506 164.96 697.466 167.13 700.616 169.86L706.356 174.9C711.116 179.03 715.036 184 715.036 191.7C715.036 199.82 709.226 205.77 700.406 205.77ZM721.118 205V148.3H745.828V156.28H732.598V171.33H742.818V179.38H732.598V197.16H745.968V205H721.118ZM749.079 205L760.069 148.3H772.879L783.799 205H773.159L771.059 192.54H762.099L759.929 205H749.079ZM763.149 185.4H769.939L766.509 162.58L763.149 185.4ZM791.994 205V156.84H783.244V148.3H812.224V156.84H803.614V205H791.994ZM831.998 205.77C821.498 205.77 816.458 200.17 815.968 188.13L825.908 186.45C826.118 193.52 827.798 196.95 831.508 196.95C834.448 196.95 835.358 194.78 835.358 192.33C835.358 187.5 832.908 184.77 829.128 181.48L823.248 176.37C819.048 172.8 816.038 168.67 816.038 162.02C816.038 152.71 821.988 147.6 831.438 147.6C842.848 147.6 845.158 156.07 845.578 163.35L835.568 164.82C835.428 159.64 834.868 156.07 831.088 156.07C828.428 156.07 827.098 158.45 827.098 160.9C827.098 164.96 829.058 167.13 832.208 169.86L837.948 174.9C842.708 179.03 846.628 184 846.628 191.7C846.628 199.82 840.818 205.77 831.998 205.77ZM851.729 205V194.78H861.809V205H851.729ZM447.27 309V252.3H461.97C473.38 252.3 480.38 255.66 480.38 267.28C480.38 274.21 478.84 278.9 473.38 281.35L481.22 309H469.39L462.95 283.31H458.75V309H447.27ZM458.75 276.45H462.18C467.71 276.45 469.53 273.72 469.53 268.19C469.53 262.94 468.06 260.07 462.74 260.07H458.75V276.45ZM488.081 309V252.3H512.791V260.28H499.561V275.33H509.781V283.38H499.561V301.16H512.931V309H488.081ZM533.472 309.77C522.972 309.77 517.932 304.17 517.442 292.13L527.382 290.45C527.592 297.52 529.272 300.95 532.982 300.95C535.922 300.95 536.832 298.78 536.832 296.33C536.832 291.5 534.382 288.77 530.602 285.48L524.722 280.37C520.522 276.8 517.512 272.67 517.512 266.02C517.512 256.71 523.462 251.6 532.912 251.6C544.322 251.6 546.632 260.07 547.052 267.35L537.042 268.82C536.902 263.64 536.342 260.07 532.562 260.07C529.902 260.07 528.572 262.45 528.572 264.9C528.572 268.96 530.532 271.13 533.682 273.86L539.422 278.9C544.182 283.03 548.102 288 548.102 295.7C548.102 303.82 542.292 309.77 533.472 309.77ZM554.184 309V252.3H578.894V260.28H565.664V275.33H575.884V283.38H565.664V301.16H579.034V309H554.184ZM584.946 309V252.3H599.646C611.056 252.3 618.056 255.66 618.056 267.28C618.056 274.21 616.516 278.9 611.056 281.35L618.896 309H607.066L600.626 283.31H596.426V309H584.946ZM596.426 276.45H599.856C605.386 276.45 607.206 273.72 607.206 268.19C607.206 262.94 605.736 260.07 600.416 260.07H596.426V276.45ZM633.465 309L622.685 252.3H632.695L639.415 291.5L645.715 252.3H656.145L645.365 309H633.465ZM661.918 309V252.3H686.628V260.28H673.398V275.33H683.618V283.38H673.398V301.16H686.768V309H661.918ZM717.6 309V286.53L706.54 252.3H717.39L723.48 272.25L729.08 252.3H739.65L728.73 286.53V309H717.6ZM759.635 309.77C747.105 309.77 742.905 302.77 742.905 291.15V270.01C742.905 258.39 747.105 251.6 759.635 251.6C772.095 251.6 776.365 258.46 776.365 270.01V291.22C776.365 302.77 772.095 309.77 759.635 309.77ZM759.635 301.51C763.975 301.51 764.605 297.87 764.605 294.02V267.21C764.605 263.29 763.975 259.86 759.635 259.86C755.295 259.86 754.665 263.29 754.665 267.21V294.02C754.665 297.87 755.155 301.51 759.635 301.51ZM800.037 309.77C787.157 309.77 783.657 302.98 783.657 291.08V252.3H794.997V292.69C794.997 297.03 795.487 301.37 800.037 301.37C804.587 301.37 805.077 297.03 805.077 292.69V252.3H816.487V291.08C816.487 302.98 812.917 309.77 800.037 309.77ZM824.545 309V252.3H839.245C850.655 252.3 857.655 255.66 857.655 267.28C857.655 274.21 856.115 278.9 850.655 281.35L858.495 309H846.665L840.225 283.31H836.025V309H824.545ZM836.025 276.45H839.455C844.985 276.45 846.805 273.72 846.805 268.19C846.805 262.94 845.335 260.07 840.015 260.07H836.025V276.45ZM447.27 413V356.3H465.26C475.41 356.3 479.96 362.18 479.96 372.61C479.96 384.79 473.24 388.43 464.07 388.43H458.75V413H447.27ZM458.75 380.31H462.88C467.99 380.31 469.11 378 469.11 372.4C469.11 367.36 468.48 364.42 462.81 364.42H458.75V380.31ZM485.825 413V356.3H497.305V405.16H510.675V413H485.825ZM513.308 413L524.298 356.3H537.108L548.028 413H537.388L535.288 400.54H526.328L524.158 413H513.308ZM527.378 393.4H534.168L530.738 370.58L527.378 393.4ZM568.772 413.77C556.032 413.77 552.182 406.21 552.182 394.87V374.57C552.182 362.88 556.032 355.6 568.772 355.6C580.952 355.6 584.662 362.18 584.662 371.98V376.74H573.462V371.49C573.462 367.5 573.322 363.86 568.842 363.86C564.222 363.86 563.872 367.64 563.872 371.84V397.6C563.872 402.43 564.782 405.51 568.842 405.51C573.252 405.51 573.462 401.73 573.462 397.6V392.07H584.662V396.76C584.662 406.63 581.162 413.77 568.772 413.77ZM591.713 413V356.3H616.423V364.28H603.193V379.33H613.413V387.38H603.193V405.16H616.563V413H591.713ZM639.975 413V356.3H648.025L660.625 385.77V356.3H670.215V413H662.445L649.845 381.64V413H639.975ZM694.625 413.77C682.095 413.77 677.895 406.77 677.895 395.15V374.01C677.895 362.39 682.095 355.6 694.625 355.6C707.085 355.6 711.355 362.46 711.355 374.01V395.22C711.355 406.77 707.085 413.77 694.625 413.77ZM694.625 405.51C698.965 405.51 699.595 401.87 699.595 398.02V371.21C699.595 367.29 698.965 363.86 694.625 363.86C690.285 363.86 689.655 367.29 689.655 371.21V398.02C689.655 401.87 690.145 405.51 694.625 405.51ZM724.177 413L716.827 356.3H726.557L730.547 390.95L735.517 356.37H743.287L748.467 390.81L752.457 356.3H762.047L754.767 413H744.897L739.437 377.09L734.187 413H724.177ZM766.827 413V402.78H776.907V413H766.827Z" fill="#00DEFF"/>
<path d="M457.304 37.576C458.499 37.7893 459.512 38.4187 460.344 39.464C461.176 40.5093 461.592 41.6933 461.592 43.016C461.592 44.1467 461.293 45.1707 460.696 46.088C460.12 46.984 459.277 47.6987 458.168 48.232C457.059 48.744 455.768 49 454.296 49H445.4V26.76H453.88C455.395 26.76 456.696 27.016 457.784 27.528C458.872 28.04 459.693 28.7333 460.248 29.608C460.803 30.4613 461.08 31.4213 461.08 32.488C461.08 33.768 460.739 34.8347 460.056 35.688C459.373 36.5413 458.456 37.1707 457.304 37.576ZM449.048 36.104H453.56C454.755 36.104 455.683 35.8373 456.344 35.304C457.027 34.7493 457.368 33.96 457.368 32.936C457.368 31.9333 457.027 31.1547 456.344 30.6C455.683 30.024 454.755 29.736 453.56 29.736H449.048V36.104ZM453.976 46.024C455.213 46.024 456.184 45.7253 456.888 45.128C457.592 44.5307 457.944 43.6987 457.944 42.632C457.944 41.544 457.571 40.68 456.824 40.04C456.077 39.4 455.085 39.08 453.848 39.08H449.048V46.024H453.976ZM481.716 39.752C481.716 40.4133 481.674 41.0107 481.588 41.544H468.116C468.223 42.952 468.746 44.0827 469.684 44.936C470.623 45.7893 471.775 46.216 473.14 46.216C475.103 46.216 476.49 45.3947 477.3 43.752H481.236C480.703 45.3733 479.732 46.7067 478.324 47.752C476.938 48.776 475.21 49.288 473.14 49.288C471.455 49.288 469.94 48.9147 468.596 48.168C467.274 47.4 466.228 46.3333 465.46 44.968C464.714 43.5813 464.34 41.9813 464.34 40.168C464.34 38.3547 464.703 36.7653 465.428 35.4C466.175 34.0133 467.21 32.9467 468.532 32.2C469.876 31.4533 471.412 31.08 473.14 31.08C474.804 31.08 476.287 31.4427 477.588 32.168C478.89 32.8933 479.903 33.9173 480.628 35.24C481.354 36.5413 481.716 38.0453 481.716 39.752ZM477.908 38.6C477.887 37.256 477.407 36.1787 476.468 35.368C475.53 34.5573 474.367 34.152 472.98 34.152C471.722 34.152 470.644 34.5573 469.748 35.368C468.852 36.1573 468.319 37.2347 468.148 38.6H477.908ZM509.171 33.384C509.171 34.5147 508.904 35.5813 508.371 36.584C507.837 37.5867 506.984 38.408 505.811 39.048C504.637 39.6667 503.133 39.976 501.299 39.976H497.267V49H493.619V26.76H501.299C503.005 26.76 504.445 27.0587 505.619 27.656C506.813 28.232 507.699 29.0213 508.275 30.024C508.872 31.0267 509.171 32.1467 509.171 33.384ZM501.299 37C502.685 37 503.72 36.6907 504.403 36.072C505.085 35.432 505.427 34.536 505.427 33.384C505.427 30.952 504.051 29.736 501.299 29.736H497.267V37H501.299ZM511.434 40.104C511.434 38.3333 511.797 36.7653 512.522 35.4C513.269 34.0347 514.271 32.9787 515.53 32.232C516.81 31.464 518.218 31.08 519.754 31.08C521.141 31.08 522.346 31.3573 523.37 31.912C524.415 32.4453 525.247 33.1173 525.866 33.928V31.368H529.546V49H525.866V46.376C525.247 47.208 524.405 47.9013 523.338 48.456C522.271 49.0107 521.055 49.288 519.69 49.288C518.175 49.288 516.789 48.904 515.53 48.136C514.271 47.3467 513.269 46.2587 512.522 44.872C511.797 43.464 511.434 41.8747 511.434 40.104ZM525.866 40.168C525.866 38.952 525.61 37.896 525.098 37C524.607 36.104 523.957 35.4213 523.146 34.952C522.335 34.4827 521.461 34.248 520.522 34.248C519.583 34.248 518.709 34.4827 517.898 34.952C517.087 35.4 516.426 36.072 515.914 36.968C515.423 37.8427 515.178 38.888 515.178 40.104C515.178 41.32 515.423 42.3867 515.914 43.304C516.426 44.2213 517.087 44.9253 517.898 45.416C518.73 45.8853 519.605 46.12 520.522 46.12C521.461 46.12 522.335 45.8853 523.146 45.416C523.957 44.9467 524.607 44.264 525.098 43.368C525.61 42.4507 525.866 41.384 525.866 40.168ZM537.986 33.928C538.519 33.032 539.223 32.3387 540.098 31.848C540.994 31.336 542.05 31.08 543.266 31.08V34.856H542.338C540.908 34.856 539.82 35.2187 539.074 35.944C538.348 36.6693 537.986 37.928 537.986 39.72V49H534.338V31.368H537.986V33.928ZM550.875 34.344V44.104C550.875 44.7653 551.024 45.2453 551.323 45.544C551.643 45.8213 552.176 45.96 552.923 45.96H555.163V49H552.283C550.64 49 549.381 48.616 548.507 47.848C547.632 47.08 547.195 45.832 547.195 44.104V34.344H545.115V31.368H547.195V26.984H550.875V31.368H555.163V34.344H550.875ZM574.486 49.288C572.822 49.288 571.318 48.9147 569.974 48.168C568.63 47.4 567.574 46.3333 566.806 44.968C566.038 43.5813 565.654 41.9813 565.654 40.168C565.654 38.376 566.048 36.7867 566.838 35.4C567.627 34.0133 568.704 32.9467 570.07 32.2C571.435 31.4533 572.96 31.08 574.646 31.08C576.331 31.08 577.856 31.4533 579.222 32.2C580.587 32.9467 581.664 34.0133 582.454 35.4C583.243 36.7867 583.638 38.376 583.638 40.168C583.638 41.96 583.232 43.5493 582.422 44.936C581.611 46.3227 580.502 47.4 579.094 48.168C577.707 48.9147 576.171 49.288 574.486 49.288ZM574.486 46.12C575.424 46.12 576.299 45.896 577.11 45.448C577.942 45 578.614 44.328 579.126 43.432C579.638 42.536 579.894 41.448 579.894 40.168C579.894 38.888 579.648 37.8107 579.158 36.936C578.667 36.04 578.016 35.368 577.206 34.92C576.395 34.472 575.52 34.248 574.582 34.248C573.643 34.248 572.768 34.472 571.958 34.92C571.168 35.368 570.539 36.04 570.07 36.936C569.6 37.8107 569.366 38.888 569.366 40.168C569.366 42.0667 569.846 43.5387 570.806 44.584C571.787 45.608 573.014 46.12 574.486 46.12ZM594.636 34.344H591.372V49H587.692V34.344H585.612V31.368H587.692V30.12C587.692 28.0933 588.225 26.6213 589.292 25.704C590.38 24.7653 592.076 24.296 594.38 24.296V27.336C593.27 27.336 592.492 27.5493 592.044 27.976C591.596 28.3813 591.372 29.096 591.372 30.12V31.368H594.636V34.344ZM610.437 34.344V44.104C610.437 44.7653 610.587 45.2453 610.885 45.544C611.205 45.8213 611.739 45.96 612.485 45.96H614.725V49H611.845C610.203 49 608.944 48.616 608.069 47.848C607.195 47.08 606.757 45.832 606.757 44.104V34.344H604.677V31.368H606.757V26.984H610.437V31.368H614.725V34.344H610.437ZM627.208 31.08C628.552 31.08 629.746 31.368 630.792 31.944C631.858 32.52 632.69 33.3733 633.288 34.504C633.906 35.6347 634.216 37 634.216 38.6V49H630.6V39.144C630.6 37.5653 630.205 36.36 629.416 35.528C628.626 34.6747 627.549 34.248 626.184 34.248C624.818 34.248 623.73 34.6747 622.92 35.528C622.13 36.36 621.736 37.5653 621.736 39.144V49H618.088V25.32H621.736V33.416C622.354 32.6693 623.133 32.0933 624.072 31.688C625.032 31.2827 626.077 31.08 627.208 31.08ZM655.029 39.752C655.029 40.4133 654.986 41.0107 654.901 41.544H641.429C641.535 42.952 642.058 44.0827 642.997 44.936C643.935 45.7893 645.087 46.216 646.453 46.216C648.415 46.216 649.802 45.3947 650.613 43.752H654.549C654.015 45.3733 653.045 46.7067 651.637 47.752C650.25 48.776 648.522 49.288 646.453 49.288C644.767 49.288 643.253 48.9147 641.909 48.168C640.586 47.4 639.541 46.3333 638.773 44.968C638.026 43.5813 637.653 41.9813 637.653 40.168C637.653 38.3547 638.015 36.7653 638.741 35.4C639.487 34.0133 640.522 32.9467 641.845 32.2C643.189 31.4533 644.725 31.08 646.453 31.08C648.117 31.08 649.599 31.4427 650.901 32.168C652.202 32.8933 653.215 33.9173 653.941 35.24C654.666 36.5413 655.029 38.0453 655.029 39.752ZM651.221 38.6C651.199 37.256 650.719 36.1787 649.781 35.368C648.842 34.5573 647.679 34.152 646.293 34.152C645.034 34.152 643.957 34.5573 643.061 35.368C642.165 36.1573 641.631 37.2347 641.461 38.6H651.221ZM670.547 26.76V40.936C670.547 42.6213 670.985 43.8907 671.859 44.744C672.755 45.5973 673.993 46.024 675.571 46.024C677.171 46.024 678.409 45.5973 679.283 44.744C680.179 43.8907 680.627 42.6213 680.627 40.936V26.76H684.275V40.872C684.275 42.6853 683.881 44.2213 683.091 45.48C682.302 46.7387 681.246 47.6773 679.923 48.296C678.601 48.9147 677.139 49.224 675.539 49.224C673.939 49.224 672.478 48.9147 671.155 48.296C669.854 47.6773 668.819 46.7387 668.051 45.48C667.283 44.2213 666.899 42.6853 666.899 40.872V26.76H670.547ZM701.281 49L692.673 39.048V49H689.025V26.76H692.673V36.904L701.313 26.76H705.889L696.225 37.896L706.049 49H701.281ZM709.851 26.76H713.819L710.459 34.376H707.899L709.851 26.76ZM723.425 49.288C722.038 49.288 720.79 49.0427 719.681 48.552C718.593 48.04 717.729 47.3573 717.089 46.504C716.449 45.6293 716.108 44.6587 716.065 43.592H719.841C719.905 44.3387 720.257 44.968 720.897 45.48C721.558 45.9707 722.38 46.216 723.361 46.216C724.385 46.216 725.174 46.024 725.729 45.64C726.305 45.2347 726.593 44.7227 726.593 44.104C726.593 43.4427 726.273 42.952 725.633 42.632C725.014 42.312 724.022 41.96 722.657 41.576C721.334 41.2133 720.257 40.8613 719.425 40.52C718.593 40.1787 717.868 39.656 717.249 38.952C716.652 38.248 716.353 37.32 716.353 36.168C716.353 35.2293 716.63 34.376 717.185 33.608C717.74 32.8187 718.529 32.2 719.553 31.752C720.598 31.304 721.793 31.08 723.137 31.08C725.142 31.08 726.753 31.592 727.969 32.616C729.206 33.6187 729.868 34.9947 729.953 36.744H726.305C726.241 35.9547 725.921 35.3253 725.345 34.856C724.769 34.3867 723.99 34.152 723.009 34.152C722.049 34.152 721.313 34.3333 720.801 34.696C720.289 35.0587 720.033 35.5387 720.033 36.136C720.033 36.6053 720.204 37 720.545 37.32C720.886 37.64 721.302 37.896 721.793 38.088C722.284 38.2587 723.009 38.4827 723.969 38.76C725.249 39.1013 726.294 39.4533 727.105 39.816C727.937 40.1573 728.652 40.6693 729.249 41.352C729.846 42.0347 730.156 42.9413 730.177 44.072C730.177 45.0747 729.9 45.9707 729.345 46.76C728.79 47.5493 728.001 48.168 726.977 48.616C725.974 49.064 724.79 49.288 723.425 49.288ZM754.335 37.576C755.53 37.7893 756.543 38.4187 757.375 39.464C758.207 40.5093 758.623 41.6933 758.623 43.016C758.623 44.1467 758.325 45.1707 757.727 46.088C757.151 46.984 756.309 47.6987 755.199 48.232C754.09 48.744 752.799 49 751.327 49H742.431V26.76H750.911C752.426 26.76 753.727 27.016 754.815 27.528C755.903 28.04 756.725 28.7333 757.279 29.608C757.834 30.4613 758.111 31.4213 758.111 32.488C758.111 33.768 757.77 34.8347 757.087 35.688C756.405 36.5413 755.487 37.1707 754.335 37.576ZM746.079 36.104H750.591C751.786 36.104 752.714 35.8373 753.375 35.304C754.058 34.7493 754.399 33.96 754.399 32.936C754.399 31.9333 754.058 31.1547 753.375 30.6C752.714 30.024 751.786 29.736 750.591 29.736H746.079V36.104ZM751.007 46.024C752.245 46.024 753.215 45.7253 753.919 45.128C754.623 44.5307 754.975 43.6987 754.975 42.632C754.975 41.544 754.602 40.68 753.855 40.04C753.109 39.4 752.117 39.08 750.879 39.08H746.079V46.024H751.007ZM764.444 29.032C763.782 29.032 763.228 28.808 762.78 28.36C762.332 27.912 762.108 27.3573 762.108 26.696C762.108 26.0347 762.332 25.48 762.78 25.032C763.228 24.584 763.782 24.36 764.444 24.36C765.084 24.36 765.628 24.584 766.076 25.032C766.524 25.48 766.748 26.0347 766.748 26.696C766.748 27.3573 766.524 27.912 766.076 28.36C765.628 28.808 765.084 29.032 764.444 29.032ZM766.236 31.368V49H762.588V31.368H766.236ZM778.129 31.08C779.494 31.08 780.7 31.3573 781.745 31.912C782.812 32.4453 783.644 33.1173 784.241 33.928V31.368H787.921V49.288C787.921 50.9093 787.58 52.3493 786.897 53.608C786.214 54.888 785.222 55.8907 783.921 56.616C782.641 57.3413 781.105 57.704 779.313 57.704C776.924 57.704 774.94 57.1387 773.361 56.008C771.782 54.8987 770.886 53.384 770.673 51.464H774.289C774.566 52.3813 775.153 53.1173 776.049 53.672C776.966 54.248 778.054 54.536 779.313 54.536C780.785 54.536 781.969 54.088 782.865 53.192C783.782 52.296 784.241 50.9947 784.241 49.288V46.344C783.622 47.176 782.78 47.88 781.713 48.456C780.668 49.0107 779.473 49.288 778.129 49.288C776.593 49.288 775.185 48.904 773.905 48.136C772.646 47.3467 771.644 46.2587 770.897 44.872C770.172 43.464 769.809 41.8747 769.809 40.104C769.809 38.3333 770.172 36.7653 770.897 35.4C771.644 34.0347 772.646 32.9787 773.905 32.232C775.185 31.464 776.593 31.08 778.129 31.08ZM784.241 40.168C784.241 38.952 783.985 37.896 783.473 37C782.982 36.104 782.332 35.4213 781.521 34.952C780.71 34.4827 779.836 34.248 778.897 34.248C777.958 34.248 777.084 34.4827 776.273 34.952C775.462 35.4 774.801 36.072 774.289 36.968C773.798 37.8427 773.553 38.888 773.553 40.104C773.553 41.32 773.798 42.3867 774.289 43.304C774.801 44.2213 775.462 44.9253 776.273 45.416C777.105 45.8853 777.98 46.12 778.897 46.12C779.836 46.12 780.71 45.8853 781.521 45.416C782.332 44.9467 782.982 44.264 783.473 43.368C783.985 42.4507 784.241 41.384 784.241 40.168ZM799.817 31.08C801.182 31.08 802.387 31.3573 803.433 31.912C804.499 32.4453 805.331 33.1173 805.929 33.928V31.368H809.609V49.288C809.609 50.9093 809.267 52.3493 808.585 53.608C807.902 54.888 806.91 55.8907 805.609 56.616C804.329 57.3413 802.793 57.704 801.001 57.704C798.611 57.704 796.627 57.1387 795.049 56.008C793.47 54.8987 792.574 53.384 792.361 51.464H795.977C796.254 52.3813 796.841 53.1173 797.737 53.672C798.654 54.248 799.742 54.536 801.001 54.536C802.473 54.536 803.657 54.088 804.553 53.192C805.47 52.296 805.929 50.9947 805.929 49.288V46.344C805.31 47.176 804.467 47.88 803.401 48.456C802.355 49.0107 801.161 49.288 799.817 49.288C798.281 49.288 796.873 48.904 795.593 48.136C794.334 47.3467 793.331 46.2587 792.585 44.872C791.859 43.464 791.497 41.8747 791.497 40.104C791.497 38.3333 791.859 36.7653 792.585 35.4C793.331 34.0347 794.334 32.9787 795.593 32.232C796.873 31.464 798.281 31.08 799.817 31.08ZM805.929 40.168C805.929 38.952 805.673 37.896 805.161 37C804.67 36.104 804.019 35.4213 803.209 34.952C802.398 34.4827 801.523 34.248 800.585 34.248C799.646 34.248 798.771 34.4827 797.961 34.952C797.15 35.4 796.489 36.072 795.977 36.968C795.486 37.8427 795.241 38.888 795.241 40.104C795.241 41.32 795.486 42.3867 795.977 43.304C796.489 44.2213 797.15 44.9253 797.961 45.416C798.793 45.8853 799.667 46.12 800.585 46.12C801.523 46.12 802.398 45.8853 803.209 45.416C804.019 44.9467 804.67 44.264 805.161 43.368C805.673 42.4507 805.929 41.384 805.929 40.168ZM830.56 39.752C830.56 40.4133 830.517 41.0107 830.432 41.544H816.96C817.067 42.952 817.589 44.0827 818.528 44.936C819.467 45.7893 820.619 46.216 821.984 46.216C823.947 46.216 825.333 45.3947 826.144 43.752H830.08C829.547 45.3733 828.576 46.7067 827.168 47.752C825.781 48.776 824.053 49.288 821.984 49.288C820.299 49.288 818.784 48.9147 817.44 48.168C816.117 47.4 815.072 46.3333 814.304 44.968C813.557 43.5813 813.184 41.9813 813.184 40.168C813.184 38.3547 813.547 36.7653 814.272 35.4C815.019 34.0133 816.053 32.9467 817.376 32.2C818.72 31.4533 820.256 31.08 821.984 31.08C823.648 31.08 825.131 31.4427 826.432 32.168C827.733 32.8933 828.747 33.9173 829.472 35.24C830.197 36.5413 830.56 38.0453 830.56 39.752ZM826.752 38.6C826.731 37.256 826.251 36.1787 825.312 35.368C824.373 34.5573 823.211 34.152 821.824 34.152C820.565 34.152 819.488 34.5573 818.592 35.368C817.696 36.1573 817.163 37.2347 816.992 38.6H826.752ZM840.55 49.288C839.163 49.288 837.915 49.0427 836.806 48.552C835.718 48.04 834.854 47.3573 834.214 46.504C833.574 45.6293 833.233 44.6587 833.19 43.592H836.966C837.03 44.3387 837.382 44.968 838.022 45.48C838.683 45.9707 839.505 46.216 840.486 46.216C841.51 46.216 842.299 46.024 842.854 45.64C843.43 45.2347 843.718 44.7227 843.718 44.104C843.718 43.4427 843.398 42.952 842.758 42.632C842.139 42.312 841.147 41.96 839.782 41.576C838.459 41.2133 837.382 40.8613 836.55 40.52C835.718 40.1787 834.993 39.656 834.374 38.952C833.777 38.248 833.478 37.32 833.478 36.168C833.478 35.2293 833.755 34.376 834.31 33.608C834.865 32.8187 835.654 32.2 836.678 31.752C837.723 31.304 838.918 31.08 840.262 31.08C842.267 31.08 843.878 31.592 845.094 32.616C846.331 33.6187 846.993 34.9947 847.078 36.744H843.43C843.366 35.9547 843.046 35.3253 842.47 34.856C841.894 34.3867 841.115 34.152 840.134 34.152C839.174 34.152 838.438 34.3333 837.926 34.696C837.414 35.0587 837.158 35.5387 837.158 36.136C837.158 36.6053 837.329 37 837.67 37.32C838.011 37.64 838.427 37.896 838.918 38.088C839.409 38.2587 840.134 38.4827 841.094 38.76C842.374 39.1013 843.419 39.4533 844.23 39.816C845.062 40.1573 845.777 40.6693 846.374 41.352C846.971 42.0347 847.281 42.9413 847.302 44.072C847.302 45.0747 847.025 45.9707 846.47 46.76C845.915 47.5493 845.126 48.168 844.102 48.616C843.099 49.064 841.915 49.288 840.55 49.288ZM855.5 34.344V44.104C855.5 44.7653 855.649 45.2453 855.948 45.544C856.268 45.8213 856.801 45.96 857.548 45.96H859.788V49H856.908C855.265 49 854.006 48.616 853.132 47.848C852.257 47.08 851.82 45.832 851.82 44.104V34.344H849.74V31.368H851.82V26.984H855.5V31.368H859.788V34.344H855.5ZM458.488 74.76V77.736H449.048V84.296H456.408V87.272H449.048V97H445.4V74.76H458.488ZM463.725 77.032C463.063 77.032 462.509 76.808 462.061 76.36C461.613 75.912 461.389 75.3573 461.389 74.696C461.389 74.0347 461.613 73.48 462.061 73.032C462.509 72.584 463.063 72.36 463.725 72.36C464.365 72.36 464.909 72.584 465.357 73.032C465.805 73.48 466.029 74.0347 466.029 74.696C466.029 75.3573 465.805 75.912 465.357 76.36C464.909 76.808 464.365 77.032 463.725 77.032ZM465.517 79.368V97H461.869V79.368H465.517ZM479.202 79.08C480.589 79.08 481.826 79.368 482.914 79.944C484.024 80.52 484.888 81.3733 485.506 82.504C486.125 83.6347 486.434 85 486.434 86.6V97H482.818V87.144C482.818 85.5653 482.424 84.36 481.634 83.528C480.845 82.6747 479.768 82.248 478.402 82.248C477.037 82.248 475.949 82.6747 475.138 83.528C474.349 84.36 473.954 85.5653 473.954 87.144V97H470.306V79.368H473.954V81.384C474.552 80.6587 475.309 80.0933 476.226 79.688C477.165 79.2827 478.157 79.08 479.202 79.08ZM495.344 82.344V92.104C495.344 92.7653 495.493 93.2453 495.792 93.544C496.112 93.8213 496.645 93.96 497.392 93.96H499.632V97H496.752C495.109 97 493.85 96.616 492.976 95.848C492.101 95.08 491.664 93.832 491.664 92.104V82.344H489.584V79.368H491.664V74.984H495.344V79.368H499.632V82.344H495.344ZM519.154 87.752C519.154 88.4133 519.111 89.0107 519.026 89.544H505.554C505.66 90.952 506.183 92.0827 507.122 92.936C508.06 93.7893 509.212 94.216 510.578 94.216C512.54 94.216 513.927 93.3947 514.738 91.752H518.674C518.14 93.3733 517.17 94.7067 515.762 95.752C514.375 96.776 512.647 97.288 510.578 97.288C508.892 97.288 507.378 96.9147 506.034 96.168C504.711 95.4 503.666 94.3333 502.898 92.968C502.151 91.5813 501.778 89.9813 501.778 88.168C501.778 86.3547 502.14 84.7653 502.866 83.4C503.612 82.0133 504.647 80.9467 505.97 80.2C507.314 79.4533 508.85 79.08 510.578 79.08C512.242 79.08 513.724 79.4427 515.026 80.168C516.327 80.8933 517.34 81.9173 518.066 83.24C518.791 84.5413 519.154 86.0453 519.154 87.752ZM515.346 86.6C515.324 85.256 514.844 84.1787 513.906 83.368C512.967 82.5573 511.804 82.152 510.418 82.152C509.159 82.152 508.082 82.5573 507.186 83.368C506.29 84.1573 505.756 85.2347 505.586 86.6H515.346ZM521.528 88.168C521.528 86.3547 521.89 84.7653 522.616 83.4C523.362 82.0133 524.386 80.9467 525.688 80.2C526.989 79.4533 528.482 79.08 530.168 79.08C532.301 79.08 534.061 79.592 535.448 80.616C536.856 81.6187 537.805 83.0587 538.296 84.936H534.36C534.04 84.0613 533.528 83.3787 532.824 82.888C532.12 82.3973 531.234 82.152 530.168 82.152C528.674 82.152 527.48 82.6853 526.584 83.752C525.709 84.7973 525.272 86.2693 525.272 88.168C525.272 90.0667 525.709 91.5493 526.584 92.616C527.48 93.6827 528.674 94.216 530.168 94.216C532.28 94.216 533.677 93.288 534.36 91.432H538.296C537.784 93.224 536.824 94.6533 535.416 95.72C534.008 96.7653 532.258 97.288 530.168 97.288C528.482 97.288 526.989 96.9147 525.688 96.168C524.386 95.4 523.362 94.3333 522.616 92.968C521.89 91.5813 521.528 89.9813 521.528 88.168ZM551.051 79.08C552.395 79.08 553.59 79.368 554.635 79.944C555.702 80.52 556.534 81.3733 557.131 82.504C557.75 83.6347 558.059 85 558.059 86.6V97H554.443V87.144C554.443 85.5653 554.049 84.36 553.259 83.528C552.47 82.6747 551.393 82.248 550.027 82.248C548.662 82.248 547.574 82.6747 546.763 83.528C545.974 84.36 545.579 85.5653 545.579 87.144V97H541.931V73.32H545.579V81.416C546.198 80.6693 546.977 80.0933 547.915 79.688C548.875 79.2827 549.921 79.08 551.051 79.08ZM569.809 85.832C569.809 83.656 570.31 81.704 571.313 79.976C572.337 78.248 573.713 76.904 575.441 75.944C577.19 74.9627 579.1 74.472 581.169 74.472C583.537 74.472 585.638 75.0587 587.473 76.232C589.329 77.384 590.673 79.0267 591.505 81.16H587.121C586.545 79.9867 585.745 79.112 584.721 78.536C583.697 77.96 582.513 77.672 581.169 77.672C579.697 77.672 578.385 78.0027 577.233 78.664C576.081 79.3253 575.174 80.2747 574.513 81.512C573.873 82.7493 573.553 84.1893 573.553 85.832C573.553 87.4747 573.873 88.9147 574.513 90.152C575.174 91.3893 576.081 92.3493 577.233 93.032C578.385 93.6933 579.697 94.024 581.169 94.024C582.513 94.024 583.697 93.736 584.721 93.16C585.745 92.584 586.545 91.7093 587.121 90.536H591.505C590.673 92.6693 589.329 94.312 587.473 95.464C585.638 96.616 583.537 97.192 581.169 97.192C579.078 97.192 577.169 96.712 575.441 95.752C573.713 94.7707 572.337 93.416 571.313 91.688C570.31 89.96 569.809 88.008 569.809 85.832ZM611.935 87.752C611.935 88.4133 611.892 89.0107 611.807 89.544H598.335C598.442 90.952 598.964 92.0827 599.903 92.936C600.842 93.7893 601.994 94.216 603.359 94.216C605.322 94.216 606.708 93.3947 607.519 91.752H611.455C610.922 93.3733 609.951 94.7067 608.543 95.752C607.156 96.776 605.428 97.288 603.359 97.288C601.674 97.288 600.159 96.9147 598.815 96.168C597.492 95.4 596.447 94.3333 595.679 92.968C594.932 91.5813 594.559 89.9813 594.559 88.168C594.559 86.3547 594.922 84.7653 595.647 83.4C596.394 82.0133 597.428 80.9467 598.751 80.2C600.095 79.4533 601.631 79.08 603.359 79.08C605.023 79.08 606.506 79.4427 607.807 80.168C609.108 80.8933 610.122 81.9173 610.847 83.24C611.572 84.5413 611.935 86.0453 611.935 87.752ZM608.127 86.6C608.106 85.256 607.626 84.1787 606.687 83.368C605.748 82.5573 604.586 82.152 603.199 82.152C601.94 82.152 600.863 82.5573 599.967 83.368C599.071 84.1573 598.538 85.2347 598.367 86.6H608.127ZM619.173 73.32V97H615.525V73.32H619.173ZM640.123 87.752C640.123 88.4133 640.08 89.0107 639.995 89.544H626.523C626.629 90.952 627.152 92.0827 628.091 92.936C629.029 93.7893 630.181 94.216 631.547 94.216C633.509 94.216 634.896 93.3947 635.707 91.752H639.642C639.109 93.3733 638.139 94.7067 636.731 95.752C635.344 96.776 633.616 97.288 631.547 97.288C629.861 97.288 628.347 96.9147 627.003 96.168C625.68 95.4 624.635 94.3333 623.867 92.968C623.12 91.5813 622.747 89.9813 622.747 88.168C622.747 86.3547 623.109 84.7653 623.835 83.4C624.581 82.0133 625.616 80.9467 626.939 80.2C628.283 79.4533 629.819 79.08 631.547 79.08C633.211 79.08 634.693 79.4427 635.995 80.168C637.296 80.8933 638.309 81.9173 639.035 83.24C639.76 84.5413 640.123 86.0453 640.123 87.752ZM636.315 86.6C636.293 85.256 635.813 84.1787 634.875 83.368C633.936 82.5573 632.773 82.152 631.387 82.152C630.128 82.152 629.051 82.5573 628.155 83.368C627.259 84.1573 626.725 85.2347 626.555 86.6H636.315ZM647.361 81.992C647.979 81.1387 648.822 80.4453 649.889 79.912C650.977 79.3573 652.182 79.08 653.505 79.08C655.062 79.08 656.47 79.4533 657.729 80.2C658.987 80.9467 659.979 82.0133 660.705 83.4C661.43 84.7653 661.793 86.3333 661.793 88.104C661.793 89.8747 661.43 91.464 660.705 92.872C659.979 94.2587 658.977 95.3467 657.697 96.136C656.438 96.904 655.041 97.288 653.505 97.288C652.139 97.288 650.923 97.0213 649.857 96.488C648.811 95.9547 647.979 95.272 647.361 94.44V97H643.713V73.32H647.361V81.992ZM658.081 88.104C658.081 86.888 657.825 85.8427 657.312 84.968C656.822 84.072 656.161 83.4 655.329 82.952C654.518 82.4827 653.643 82.248 652.705 82.248C651.787 82.248 650.913 82.4827 650.081 82.952C649.27 83.4213 648.609 84.104 648.097 85C647.606 85.896 647.361 86.952 647.361 88.168C647.361 89.384 647.606 90.4507 648.097 91.368C648.609 92.264 649.27 92.9467 650.081 93.416C650.913 93.8853 651.787 94.12 652.705 94.12C653.643 94.12 654.518 93.8853 655.329 93.416C656.161 92.9253 656.822 92.2213 657.312 91.304C657.825 90.3867 658.081 89.32 658.081 88.104ZM669.048 81.928C669.581 81.032 670.285 80.3387 671.16 79.848C672.056 79.336 673.112 79.08 674.328 79.08V82.856H673.4C671.971 82.856 670.883 83.2187 670.136 83.944C669.411 84.6693 669.048 85.928 669.048 87.72V97H665.4V79.368H669.048V81.928ZM676.465 88.104C676.465 86.3333 676.828 84.7653 677.553 83.4C678.3 82.0347 679.303 80.9787 680.561 80.232C681.841 79.464 683.249 79.08 684.785 79.08C686.172 79.08 687.377 79.3573 688.401 79.912C689.447 80.4453 690.279 81.1173 690.897 81.928V79.368H694.577V97H690.897V94.376C690.279 95.208 689.436 95.9013 688.369 96.456C687.303 97.0107 686.087 97.288 684.721 97.288C683.207 97.288 681.82 96.904 680.561 96.136C679.303 95.3467 678.3 94.2587 677.553 92.872C676.828 91.464 676.465 89.8747 676.465 88.104ZM690.897 88.168C690.897 86.952 690.641 85.896 690.129 85C689.639 84.104 688.988 83.4213 688.177 82.952C687.367 82.4827 686.492 82.248 685.553 82.248C684.615 82.248 683.74 82.4827 682.929 82.952C682.119 83.4 681.457 84.072 680.945 84.968C680.455 85.8427 680.209 86.888 680.209 88.104C680.209 89.32 680.455 90.3867 680.945 91.304C681.457 92.2213 682.119 92.9253 682.929 93.416C683.761 93.8853 684.636 94.12 685.553 94.12C686.492 94.12 687.367 93.8853 688.177 93.416C688.988 92.9467 689.639 92.264 690.129 91.368C690.641 90.4507 690.897 89.384 690.897 88.168ZM703.625 82.344V92.104C703.625 92.7653 703.774 93.2453 704.073 93.544C704.393 93.8213 704.926 93.96 705.673 93.96H707.913V97H705.033C703.39 97 702.131 96.616 701.257 95.848C700.382 95.08 699.945 93.832 699.945 92.104V82.344H697.865V79.368H699.945V74.984H703.625V79.368H707.913V82.344H703.625ZM713.131 77.032C712.47 77.032 711.915 76.808 711.467 76.36C711.019 75.912 710.795 75.3573 710.795 74.696C710.795 74.0347 711.019 73.48 711.467 73.032C711.915 72.584 712.47 72.36 713.131 72.36C713.771 72.36 714.315 72.584 714.763 73.032C715.211 73.48 715.435 74.0347 715.435 74.696C715.435 75.3573 715.211 75.912 714.763 76.36C714.315 76.808 713.771 77.032 713.131 77.032ZM714.923 79.368V97H711.275V79.368H714.923ZM727.361 97.288C725.697 97.288 724.193 96.9147 722.849 96.168C721.505 95.4 720.449 94.3333 719.681 92.968C718.913 91.5813 718.529 89.9813 718.529 88.168C718.529 86.376 718.923 84.7867 719.713 83.4C720.502 82.0133 721.579 80.9467 722.945 80.2C724.31 79.4533 725.835 79.08 727.521 79.08C729.206 79.08 730.731 79.4533 732.097 80.2C733.462 80.9467 734.539 82.0133 735.329 83.4C736.118 84.7867 736.513 86.376 736.513 88.168C736.513 89.96 736.107 91.5493 735.297 92.936C734.486 94.3227 733.377 95.4 731.969 96.168C730.582 96.9147 729.046 97.288 727.361 97.288ZM727.361 94.12C728.299 94.12 729.174 93.896 729.985 93.448C730.817 93 731.489 92.328 732.001 91.432C732.513 90.536 732.769 89.448 732.769 88.168C732.769 86.888 732.523 85.8107 732.033 84.936C731.542 84.04 730.891 83.368 730.081 82.92C729.27 82.472 728.395 82.248 727.457 82.248C726.518 82.248 725.643 82.472 724.833 82.92C724.043 83.368 723.414 84.04 722.945 84.936C722.475 85.8107 722.241 86.888 722.241 88.168C722.241 90.0667 722.721 91.5387 723.681 92.584C724.662 93.608 725.889 94.12 727.361 94.12ZM749.015 79.08C750.401 79.08 751.639 79.368 752.727 79.944C753.836 80.52 754.7 81.3733 755.319 82.504C755.937 83.6347 756.247 85 756.247 86.6V97H752.631V87.144C752.631 85.5653 752.236 84.36 751.447 83.528C750.657 82.6747 749.58 82.248 748.215 82.248C746.849 82.248 745.761 82.6747 744.951 83.528C744.161 84.36 743.767 85.5653 743.767 87.144V97H740.119V79.368H743.767V81.384C744.364 80.6587 745.121 80.0933 746.039 79.688C746.977 79.2827 747.969 79.08 749.015 79.08ZM762.372 97.224C761.711 97.224 761.156 97 760.708 96.552C760.26 96.104 760.036 95.5493 760.036 94.888C760.036 94.2267 760.26 93.672 760.708 93.224C761.156 92.776 761.711 92.552 762.372 92.552C763.012 92.552 763.556 92.776 764.004 93.224C764.452 93.672 764.676 94.2267 764.676 94.888C764.676 95.5493 764.452 96.104 764.004 96.552C763.556 97 763.012 97.224 762.372 97.224Z" fill="white"/>
<path d="M92.7806 210.587C96.7733 210.506 100.811 210.64 104.812 210.587V222.61C100.811 222.583 96.7822 222.646 92.7806 222.61C92.7269 218.62 92.7358 214.577 92.7806 210.587Z" fill="white"/>
<path d="M34.3585 128.168C38.3602 128.204 42.3887 128.141 46.3903 128.168V116.145H69.5855L70.3911 127.792L80.7578 128.168C81.5635 127.354 79.3075 117.648 82.038 116.145H115.546L116.835 114.857V92.9659H128.867V116.145H140.039V92.9659H152.071L152.877 103.755L163.243 104.13V92.957L175.75 93.7621L175.383 126.755C176.251 129.412 184.004 127.694 186.439 128.168L186.806 116.95L198.515 115.769L198.945 105.785L186.806 104.175L186.439 81.7925L175.642 80.9963L175.759 69.7692H186.439V80.9426H210.493V69.7781H222.525L223.375 57.7548H234.548V80.5132L233.294 81.5957C230.779 80.6742 225.237 80.3075 223.357 82.2129C221.961 83.6264 222.068 102.878 223.322 103.755L233.688 104.13V92.9659H246.57V69.7871H258.602V80.9516H269.775V69.7781L281.421 68.9819L281.788 57.7637H292.961V23.8498C294.169 21.9264 303.032 22.1322 304.187 22.9373L304.984 45.7494C307.508 46.2504 316.013 44.4433 316.899 47.1539L316.648 69.8407L304.993 70.6459V58.6226C300.687 58.7031 297.24 57.1018 292.961 58.6226C293.104 59.9555 293.758 61.1274 293.784 62.5051C294.116 77.1674 295.503 100.06 293.731 113.935C293.605 114.946 293.283 115.975 292.835 116.887C290.929 118.086 283.794 115.393 281.788 118.292V140.182H292.961L293.328 128.964L304.984 128.159V150.05C307.965 152.68 313.202 150.801 317.015 151.338V140.165C317.812 139.359 327.534 141.614 329.038 138.885V116.136L340.264 116.512L341.061 128.159H352.242L353.039 139.798C353.907 140.406 360.684 140.433 362.108 140.165C365.769 139.494 363.432 136.443 363.361 133.768C363.289 131.093 363.083 117.308 364.355 116.225L375.437 116.127L375.804 127.345L386.654 127.774L387.46 116.127H410.655V162.923C407.809 165.616 402.992 163.889 399.581 163.263L399.492 152.188L387.577 151.213L386.654 140.549C385.5 139.744 376.637 139.538 375.428 141.462V174.517L398.624 175.376V187.399C395.061 187.891 390.182 186.111 387.451 188.687V222.601H410.646V234.624L398.74 235.608L399.599 246.531L410.646 246.648V316.193H399.474V293.014H387.442V281.85L364.247 281V259.109L362.886 257.911C359.449 258.948 355.689 259.217 352.332 257.696L352.215 246.657H329.02L328.904 257.696C325.01 259.548 320.981 258.528 316.997 257.821V235.931L315.708 234.642H292.943V222.619C289.38 223.111 284.501 221.331 281.771 223.907V245.368L283.06 246.657H304.966V279.712C307.311 282.709 314.67 279.712 317.051 281.376L317.848 292.165H329.02V270.265C331.867 267.572 336.683 269.299 340.094 269.925L340.184 281H352.215V302.891C353.424 304.814 362.287 304.608 363.441 303.803L364.238 292.156H375.411V329.075H364.238V339.381H385.285C385.527 339.381 387.29 340.258 387.46 340.83L387.433 351.404H409.339L410.628 352.693V375.442L400.262 375.066L398.597 363.419H375.831C373.316 363.419 375.742 372.785 375.778 374.637L387.442 375.433L387.487 386.07C383.888 388.512 380.048 386.803 376.225 386.955C374.784 388.029 375.437 396.179 375.411 398.621C379.412 398.558 383.45 398.666 387.442 398.621L386.637 410.268L375.411 410.644C375.446 406.645 375.375 402.62 375.411 398.621C373.19 398.657 366.27 398.138 365.044 398.997L363.432 410.268L352.206 410.644L351.41 398.997L341.598 398.737C338.894 399.623 340.694 408.121 340.193 410.644H329.02V398.621L339.817 397.816L339.79 387.421L318.242 386.821C315.914 387.224 317.391 396.402 316.997 398.63L305.771 398.997L304.975 410.644L293.749 410.268L292.952 398.621C289.237 398.585 285.495 398.675 281.779 398.621C281.744 396.313 282.397 388.825 280.974 387.832L270.124 388.262L269.748 398.621C273.749 398.657 277.787 398.558 281.779 398.621C281.842 402.62 281.735 406.654 281.779 410.644L270.553 410.268L268.942 398.997L235.926 398.737C232.829 399.748 235.64 407.889 234.521 410.635H199.724C196.993 409.132 199.249 399.417 198.443 398.612L187.647 399.417L187.155 409.222L185.131 410.635L118.232 410.51C115.528 409.624 117.319 401.135 116.817 398.603L127.873 398.487L128.858 387.438L116.826 386.589V363.41L128.052 363.034L128.858 352.245H116.826V305.449C118.035 303.526 126.897 303.732 128.052 304.537L128.849 316.184H152.053V305.011L140.827 304.644L140.397 293.802L152.053 292.996V304.161H174.819C177.451 307.131 175.571 312.364 176.108 316.184H153.342C150.666 319.414 152.626 324.996 152.053 329.066H128.858V351.386H140.03L140.827 363.034C141.982 363.839 150.845 364.045 152.053 362.122V340.231L162.42 339.855L163.225 329.066H175.257L176.117 351.395H186.43V330.355C186.43 327.707 195.185 327.68 197.208 328.852L198.058 328.261C199.607 325.604 196.823 317.311 199.867 316.31L222.435 316.113L222.632 305.583C223.366 303.338 233.294 303.732 234.163 304.975L234.53 316.193L257.788 316.56L258.71 327.653L259.999 328.941L292.961 328.208V317.034L281.788 316.184V281.841H247.851C245.398 284.167 246.946 288.407 246.535 291.556C246.705 292.12 248.477 293.005 248.71 293.005H269.757V305.029H247.851C245.219 302.059 247.099 296.825 246.562 293.005H222.507V281.841C219.982 281.34 211.487 283.147 210.601 280.436L210.081 258.617L199.437 257.687L198.515 247.023L187.289 246.648V279.703C189.393 282.673 197.289 279.524 198.945 281.832C197.87 285.768 199.142 289.042 199.321 293.014C201.792 293.059 209.857 292.352 210.994 293.855L210.404 304.939L199.321 305.038C199.195 301.048 199.509 296.995 199.321 293.014C187.316 292.782 175.239 293.184 163.225 293.014V281.841L152.178 280.866L152.062 269.827H128.867V293.005H116.835V268.968L128.061 268.592C129.368 267.689 129.341 259.923 128.061 259.038L104.803 257.803V269.827H92.7716V280.991L104.427 281.787L104.803 293.005L94.1771 292.88C91.5094 292.012 93.2372 284.274 92.7716 281.841H69.5765V292.147L80.8026 292.513L81.4919 304.036L69.5765 305.011V316.175H57.5537V281.832H24.4753C21.2078 281.832 23.2041 275.221 23.231 273.709C23.3205 268.404 23.0877 263.081 23.1862 257.785H34.3585V223.871C31.6281 221.295 26.7492 223.075 23.1862 222.583V210.56H46.3813V198.537H57.5537V210.56L46.7573 211.365L46.3813 222.583H69.5765V187.381H34.3496V175.358H23.1772V163.334H34.3496C34.2601 151.615 34.457 139.851 34.3496 128.132C30.6344 128.097 26.8924 128.159 23.1772 128.132V116.109H34.3496C34.3675 120.099 34.3048 124.133 34.3496 128.132L34.3585 128.168ZM281.806 81.8014C277.993 82.3382 272.756 80.4595 269.775 83.0896V104.98H258.602L257.805 94.1915C255.934 94.2631 246.579 91.8924 246.579 94.2452V126.871C247.788 128.794 256.651 128.589 257.805 127.783L258.611 116.136H281.806V81.7925V81.8014ZM210.493 93.8158H199.312V104.13H210.493V93.8158ZM128.867 117.004L116.781 117.379L115.985 128.168L82.1633 128.284L80.9726 129.412C82.029 133.115 82.0827 137.347 80.6325 140.916L69.5765 141.032L69.9525 150.533L80.6235 151.454C82.4856 152.617 81.3307 170.634 81.4829 173.971L80.1938 175.259L69.6929 176.36L69.5765 186.54H103.514C105.412 185.377 105.251 177.362 104.427 176.181L92.7716 175.376V163.352L104.427 162.547L104.803 152.188L93.1476 151.392L92.7716 140.173H115.537C118.223 141.596 116.047 150.569 116.817 151.338C120.631 150.801 125.877 152.671 128.849 150.05V116.995L128.867 117.004ZM152.071 128.168L151.265 117.379L140.415 117.809L140.845 127.792L152.071 128.168ZM57.5537 128.168C53.8922 129.975 50.7858 127.309 47.187 128.544C45.692 129.599 46.2202 139.35 47.3661 140.066L57.5537 140.182V128.159V128.168ZM175.266 151.347V129.456C174.729 128.606 174.084 128.347 173.118 128.168C167.907 127.211 159.206 129.233 153.477 128.284C150.773 129.17 152.572 137.669 152.071 140.191C151.265 140.997 141.543 138.742 140.039 141.471V163.361L129.279 164.14L128.867 174.517H152.062V163.352H163.234L162.858 174.571L152.062 175.376V197.266L153.351 198.555H173.968C176.6 195.576 174.72 190.342 175.248 186.531C176.269 185.511 184.979 188.025 186.421 186.111V164.65C188.56 161.653 197.342 164.846 198.936 162.556L199.303 151.338H210.475V129.447C209.311 127.551 201.29 127.712 200.109 128.535L198.497 140.666L187.235 141.435L186.519 142.392C190.243 152.957 183.189 152.233 175.248 151.338L175.266 151.347ZM246.579 128.168H235.407L234.521 138.044L235.971 140.057L246.579 140.182V128.159V128.168ZM388.902 128.284C386.449 129.081 387.496 137.069 387.863 139.377L398.713 139.807L399.143 128.964L388.902 128.275V128.284ZM92.7806 222.61C92.8343 226.412 91.7869 231.762 94.0697 234.633H115.976L116.835 246.657H152.062V268.977H163.234L164.031 258.188L175.257 257.821L175.624 247.462L186.421 246.666L186.788 235.447L198.927 233.837L199.294 222.619L210.95 223.424L211.317 234.642H222.489V222.619L234.145 221.814L233.715 198.948L222.865 199.378L222.489 210.596H210.457L210.833 199.378L222.489 198.572V164.658C225.014 161.885 229.919 164.238 233.097 163.236L234.521 162.082V141.48C233.267 139.18 223.277 140.102 222.614 141.175L222.498 151.365L211.379 151.401L209.661 163.871L198.434 164.238L199.195 186.066C198.443 189.26 187.62 185.529 186.528 188.83L186.403 222.628H164.067L162.715 234.66H152.035L151.668 223.433C150.683 222.029 142.331 222.637 140.012 222.628C140.057 226.627 139.977 230.652 140.012 234.651H128.84V222.628C132.555 222.637 136.297 222.61 140.012 222.628C139.986 220.32 140.496 212.635 139.636 211.41L128.84 210.614L128.043 175.778L117.193 176.208L115.958 199.44H92.7627C92.7358 203.153 92.8075 206.892 92.7627 210.605C81.0622 210.837 79.7014 208.708 81.5456 222.225C85.207 223.013 89.0475 222.601 92.7627 222.628L92.7806 222.61ZM281.806 141.041L247.376 140.558L246.946 150.542L258.226 152.152V163.424C256.024 166.582 238.111 160.704 234.548 164.658V197.284C237.09 199.351 243.939 199.378 246.579 197.284V175.823C249.793 172.799 255.129 175.313 259.005 175.429C264.663 175.599 273.517 176.064 278.843 175.429C280.096 175.286 281.054 175.322 281.806 174.096V141.041ZM340.103 140.308L329.056 140.182V151.356L340.712 150.515C339.405 146.838 341.876 143.636 340.103 140.308ZM329.065 163.37C329.029 159.658 329.092 155.918 329.065 152.206C326.505 152.939 318.143 150.926 316.971 152.599L317.033 163.379C321.035 163.406 325.063 163.334 329.065 163.379C329.101 167.36 329.092 171.377 329.02 175.358L317.033 176.252V187.417H305.01V152.215H293.838V172.388C293.838 172.62 292.818 175.34 292.442 175.447L281.806 175.394V209.307C284.537 211.884 289.416 210.104 292.979 210.596V199.431H305.001L305.377 209.791C306.273 211.079 315.323 211.392 316.048 209.182L316.971 198.948L329.056 198.581L329.423 187.363L339.817 186.603L340.13 163.46C336.451 163.263 332.726 163.415 329.038 163.379L329.065 163.37ZM364.292 153.065L352.341 153.154L352.636 162.574L363.307 163.263L364.292 153.073V153.065ZM57.5537 164.22H46.3724V174.535H57.5537V164.22ZM364.292 176.243H352.26V187.408L341.034 187.775L340.345 198.009C341.231 200.71 349.736 198.912 352.26 199.413L352.627 209.773L363.307 210.47L364.274 176.226L364.292 176.243ZM268.879 198.528C268.933 196.121 271.108 189.278 268.978 187.784L258.128 188.213L258.557 198.197L268.879 198.528ZM246.579 199.861V222.61H234.548V245.36C236.052 248.088 245.774 245.834 246.579 246.639L246.696 267.563C247.501 270.014 255.523 268.959 257.797 268.592L258.593 246.639C261.028 246.174 268.772 247.9 269.649 245.234L268.96 235L258.593 234.633L258.235 199.404C257.188 198.027 247.161 197.919 246.562 199.852L246.579 199.861ZM305.01 210.587C302.781 211.016 293.677 209.424 293.077 211.938L294.178 221.787L305.01 222.601V210.578V210.587ZM352.26 210.587H341.088V233.336C343.424 235.394 349.825 235.43 352.26 233.336V210.587ZM69.5855 234.633C62.1372 234.714 54.6263 234.258 47.187 235.009L46.7573 245.852L68.7798 246.281C70.239 245.27 69.5138 237.004 69.5855 234.633C73.3006 234.589 77.0426 234.66 80.7578 234.633V222.61L69.9614 223.415C69.1737 227.092 69.6929 230.912 69.5855 234.633ZM375.455 223.469L376.261 234.258L387.111 233.828L386.654 222.977L375.455 223.469ZM92.7806 234.633L81.1069 235.447L81.4829 257.267C80.5967 259.968 72.0921 258.17 69.5675 258.671V268.977H92.7716V257.812L103.998 257.445L104.427 247.462L92.7716 246.657V234.633H92.7806ZM375.464 234.633C371.901 235.125 367.022 233.345 364.292 235.922V257.812H386.198C388.096 256.649 387.935 248.634 387.111 247.453L375.455 246.648V234.624L375.464 234.633ZM222.525 257.821L222.149 247.462L212.158 247.032L211.352 257.821H222.534H222.525ZM281.806 257.812L281.001 247.023L269.775 246.648V257.812H281.806ZM292.979 257.812C289.416 258.304 284.537 256.524 281.806 259.1V280.991H292.979V257.812ZM234.431 269.943L223.322 270.211L222.892 280.195L233.742 280.624C234.718 279.944 235.497 270.605 234.431 269.943ZM388.902 269.952C386.502 270.739 387.46 277.923 387.863 280.186L398.713 280.615L399.143 270.632L388.902 269.943V269.952ZM317.033 293.014H293.838V304.179H317.033V293.014ZM234.548 317.052H222.516L222.892 327.411C223.93 328.905 231.62 328.279 233.742 327.841L234.548 317.052ZM352.26 317.052H318.322L317.239 318.304L317.463 350.537C317.696 350.921 319.799 352.254 320.041 352.254H350.971L352.26 350.966V317.052ZM210.493 329.075H199.321V351.395C202.973 352.818 206.608 350.787 210.493 351.395V329.075ZM246.579 329.075H234.548V340.24L223.322 340.607L222.14 351.449L210.493 352.263C210.162 353.194 211.352 354.142 211.352 354.401V374.145L212.642 375.433H246.579V386.598C250.393 386.061 255.63 387.931 258.611 385.309V352.684C255.8 350.59 250.393 353.185 246.579 352.254L245.783 363.043L234.557 363.419L234.959 352.209L245.138 352.281C245.702 352.111 246.588 350.349 246.588 350.107V329.075H246.579ZM268.799 340.356L258.602 340.231V351.404L269.399 350.599L268.79 340.365L268.799 340.356ZM375.464 352.254H364.283L364.292 362.551L374.65 363.043L375.455 352.254H375.464ZM173.977 363.419H152.071L151.955 374.458L140.424 376.247V397.825L152.08 398.63V386.607H163.252L163.619 397.825L175.275 398.63V386.607H198.47C199.634 383.511 200.001 364.582 198.345 363.544L188.104 363.803L186.349 375.353L176.26 375.326C174.093 373.948 178.373 364.653 173.986 363.428L173.977 363.419ZM269.775 374.583C279.434 374.825 284.376 377.16 281.036 364.626C279.425 362.578 273.159 363.329 270.589 363.794L269.784 374.583H269.775ZM305.01 386.607V364.716C302.674 362.658 296.273 362.623 293.838 364.716V386.607H305.01ZM317.033 374.583H339.799C341.634 372.418 339.602 367.865 340.112 364.823L339.423 363.794H317.83L317.024 374.583H317.033ZM352.26 364.707V385.309L353.549 386.598H375.455V375.433L364.417 375.317C362.063 372.66 366.038 365.584 363.477 363.794C362.26 362.936 352.815 362.9 352.251 364.707H352.26ZM222.525 387.465H201.478C201.138 387.465 200.207 386.276 199.339 386.607C199.285 390.579 198.103 394.783 199.339 398.63H222.534V387.465H222.525Z" fill="white"/>
<path d="M23.1862 104.121V22.5616H103.523L104.812 23.8498V103.701C101.008 106.778 94.947 104.22 90.6679 104.095C68.2158 103.442 45.6383 104.649 23.1862 104.13V104.121ZM92.7806 34.5759H35.6387L34.3496 35.8642V91.6688L35.6387 92.957H92.7806V34.5759Z" fill="white"/>
<path d="M104.812 329.075V409.356L103.523 410.644H23.6159C21.0645 410.644 23.1683 403.219 23.222 401.662C23.9919 377.517 22.5774 353.22 23.1862 329.075H104.812ZM92.7806 340.24H35.6387L34.3496 341.528V398.621H92.7716V340.24H92.7806Z" fill="white"/>
<path d="M410.691 104.121H329.065V22.5616H409.402L410.691 23.8498V104.13V104.121ZM341.097 34.576L340.193 89.9959L341.526 92.957H398.239L399.528 91.6688V35.8642L398.239 34.576H341.097Z" fill="white"/>
<path d="M140.039 22.5616L140.845 34.2092L152.071 34.576V45.7404H187.298V34.576L198.372 34.6744L199.321 39.2994L198.515 58.211C197.101 59.0788 177.451 58.721 173.95 58.6405C172.008 58.5957 163.243 56.234 163.243 59.8929V81.7835L128.867 80.9337L128.07 70.1449L116.844 69.7692V57.7459L128.07 57.3701L128.5 47.3865L127.461 46.7066C124.382 45.6778 119.333 48.1022 116.844 45.3021V22.5526H140.039V22.5616ZM152.071 57.7638L151.695 47.4044C150.657 45.9104 142.967 46.5366 140.845 46.975L140.039 57.7638H152.071ZM140.039 58.6136H128.858V69.7871C131.203 69.4024 138.473 70.6727 139.654 68.9819L140.03 58.6226L140.039 58.6136Z" fill="white"/>
<path d="M281.806 46.5993H269.775L268.978 58.2558L258.611 57.7638V45.7404H269.783C269.282 42.18 271.073 37.3134 268.494 34.576H234.986C232.426 31.5522 233.751 26.1489 234.557 22.5526H280.526L281.815 23.8409V46.5903L281.806 46.5993Z" fill="white"/>
<path d="M317.033 80.9426V115.715C314.061 118.345 308.824 116.467 305.001 117.004V82.2308C307.974 79.6007 313.211 81.4794 317.033 80.9426Z" fill="white"/>
<path d="M46.3813 292.156V304.179L34.3496 305.029L33.5528 316.676C31.9862 317.768 22.282 316.766 22.3089 315.728L23.1862 304.17L33.526 304.662L35.1642 292.531L46.3903 292.156H46.3813Z" fill="white"/>
<path d="M104.812 305.029L104.007 316.685L92.8791 316.104L93.64 304.17L104.812 305.029Z" fill="white"/>
<path d="M222.525 34.5759C220.448 38.4585 224.145 42.3857 220.842 46.1967L210.878 45.7852L210.502 34.567H222.534L222.525 34.5759Z" fill="white"/>
<path d="M399.519 386.607L410.315 387.403L410.691 398.63L399.519 398.621V386.607Z" fill="white"/>
<path d="M340.237 329.075H329.056V340.249H340.237V329.075Z" fill="white"/>
<path d="M81.6083 80.9426H46.3813V45.7404H80.3191L81.6083 47.0287V80.9426Z" fill="white"/>
<path d="M46.3813 387.465V351.404L79.4597 352.263L81.6083 353.542V386.177L80.3191 387.465H46.3813Z" fill="white"/>
<path d="M387.487 80.9426H352.26V47.0287L353.549 45.7404H386.198L387.487 47.0287V80.9426Z" fill="white"/>
</g>
<defs>
<clipPath id="clip0_1_2">
<rect width="865" height="433" fill="white"/>
</clipPath>
</defs>
</svg>
