<?xml version="1.0" encoding="UTF-8"?>
<!DOCTYPE svg PUBLIC "-//W3C//DTD SVG 1.1//EN" "http://www.w3.org/Graphics/SVG/1.1/DTD/svg11.dtd">
<!-- Creator: CorelDRAW 2021 (64-Bit) -->
<svg xmlns="http://www.w3.org/2000/svg" xml:space="preserve" width="183.492mm" height="72.0739mm" version="1.1" style="shape-rendering:geometricPrecision; text-rendering:geometricPrecision; image-rendering:optimizeQuality; fill-rule:evenodd; clip-rule:evenodd"
viewBox="0 0 2854.6 1121.26"
 xmlns:xlink="http://www.w3.org/1999/xlink"
 xmlns:xodm="http://www.corel.com/coreldraw/odm/2003">
 <defs>
  <style type="text/css">
   <![CDATA[
    .str0 {stroke:black;stroke-width:1.19;stroke-linecap:round;stroke-linejoin:round;stroke-miterlimit:22.9256}
    .fil2 {fill:none;fill-rule:nonzero}
    .fil1 {fill:black;fill-rule:nonzero}
    .fil0 {fill:url(#id0)}
   ]]>
  </style>
  <linearGradient id="id0" gradientUnits="userSpaceOnUse" x1="1207.3" y1="-100.82" x2="1647.3" y2="1222.08">
   <stop offset="0" style="stop-opacity:1; stop-color:#936729"/>
   <stop offset="0.239216" style="stop-opacity:1; stop-color:#FBF6A1"/>
   <stop offset="0.388235" style="stop-opacity:1; stop-color:#FBF6A1"/>
   <stop offset="0.568627" style="stop-opacity:1; stop-color:#F4E1AE"/>
   <stop offset="1" style="stop-opacity:1; stop-color:#936729"/>
  </linearGradient>
 </defs>
 <g id="Layer_x0020_1">
  <metadata id="CorelCorpID_0Corel-Layer"/>
  <path class="fil0" d="M-0 0l2854.6 0 0 560.63c0,308.35 -252.28,560.63 -560.63,560.63l-1733.34 0c-308.35,0 -560.63,-252.28 -560.63,-560.63l0 -560.63z"/>
  <path class="fil1" d="M1227.73 335.54l0 120.29 -48.45 -45.07c-3.39,8.36 -8.02,15.81 -13.89,22.36 -5.2,5.65 -12.03,10.73 -20.5,15.25 -8.47,4.52 -19.14,6.78 -32.02,6.78 -10.84,0 -21.57,-2.26 -32.19,-6.78 -10.62,-4.52 -20.16,-11.18 -28.63,-19.99 -8.47,-8.81 -15.36,-19.88 -20.67,-33.21 -5.31,-13.33 -7.96,-28.8 -7.96,-46.42 0,-16.04 2.54,-30.66 7.62,-43.88 5.08,-13.21 12.31,-24.51 21.69,-33.88 9.37,-9.37 20.73,-16.6 34.05,-21.69 13.33,-5.08 28.12,-7.62 44.39,-7.62 9.49,0 18.58,0.96 27.28,2.88 8.7,1.92 16.77,4.52 24.23,7.79 7.45,3.28 14.06,7.12 19.82,11.52 5.76,4.41 10.22,9.09 13.38,14.06 3.61,4.29 5.42,9.26 5.42,14.91l0 0.34 0 0.34c-0.45,6.55 -2.99,12.14 -7.62,16.77 -4.63,4.63 -10.22,6.95 -16.77,6.95 -6.78,0 -12.54,-2.37 -17.28,-7.12 -4.74,-4.74 -7.12,-10.5 -7.12,-17.28 0,-5.19 -0.68,-10.56 -2.03,-16.09 -1.36,-5.54 -3.62,-10.62 -6.78,-15.25 -3.16,-4.63 -7.51,-8.41 -13.05,-11.35 -5.53,-2.94 -12.48,-4.4 -20.84,-4.4 -7.91,0 -15.25,2.09 -22.03,6.27 -6.78,4.18 -12.71,10.17 -17.79,17.96 -5.08,7.79 -9.26,17.22 -12.54,28.29 -3.27,11.07 -5.25,23.49 -5.93,37.27l156.2 0zm-156.54 11.86c0,20.33 2.77,37.1 8.3,50.32 5.54,13.21 12.42,23.21 20.67,29.99 8.25,6.78 17.17,10.45 26.77,11.01 9.6,0.56 18.52,-1.52 26.77,-6.27 8.24,-4.74 15.13,-11.97 20.67,-21.69 5.54,-9.71 8.3,-21.57 8.3,-35.58l0 -35.58 -111.48 0 0 7.79z"/>
  <path id="_1" class="fil1" d="M1459.15 348.42c0,17.85 -3.05,33.49 -9.15,46.93 -6.1,13.44 -14.23,24.62 -24.4,33.54 -10.17,8.92 -21.69,15.64 -34.56,20.16 -12.88,4.52 -25.98,6.78 -39.31,6.78 -13.33,0 -26.43,-2.26 -39.31,-6.78 -12.88,-4.52 -24.4,-11.24 -34.56,-20.16 -10.17,-8.92 -18.3,-20.1 -24.4,-33.54 -6.1,-13.44 -9.15,-29.08 -9.15,-46.93 0,-17.85 3.05,-33.43 9.15,-46.76 6.1,-13.33 14.23,-24.45 24.4,-33.37 10.17,-8.92 21.69,-15.64 34.56,-20.16 12.88,-4.52 25.98,-6.78 39.31,-6.78 13.33,0 26.43,2.26 39.31,6.78 12.88,4.52 24.4,11.24 34.56,20.16 10.17,8.92 18.3,20.05 24.4,33.37 6.1,13.33 9.15,28.91 9.15,46.76zm-45.74 0c0,-23.04 -3.05,-42.19 -9.15,-57.43 -6.1,-15.25 -13.72,-26.71 -22.87,-34.39 -9.15,-7.68 -19.03,-11.52 -29.65,-11.52 -10.62,0 -20.5,3.84 -29.65,11.52 -9.15,7.68 -16.77,19.14 -22.87,34.39 -6.1,15.25 -9.15,34.39 -9.15,57.43 0,23.04 3.05,42.24 9.15,57.6 6.1,15.36 13.72,26.88 22.87,34.56 9.15,7.68 19.03,11.52 29.65,11.52 10.62,0 20.5,-3.84 29.65,-11.52 9.15,-7.68 16.77,-19.2 22.87,-34.56 6.1,-15.36 9.15,-34.56 9.15,-57.6z"/>
  <path id="_2" class="fil1" d="M1636.7 453.46l-164 0 0 -1.69c0.68,-1.13 1.47,-3.16 2.37,-6.1 0.68,-2.49 1.3,-6.27 1.86,-11.35 0.56,-5.08 0.85,-11.92 0.85,-20.5l0 -128.42c0,-8.58 -0.28,-15.47 -0.85,-20.67 -0.56,-5.2 -1.19,-9.04 -1.86,-11.52 -0.9,-2.94 -1.69,-4.86 -2.37,-5.76l0 -2.03 55.23 0 0 2.03c-0.9,0.9 -1.81,2.82 -2.71,5.76 -0.68,2.48 -1.24,6.32 -1.69,11.52 -0.45,5.19 -0.68,12.08 -0.68,20.67l0 164 26.43 0c17.17,0 31.4,-2.09 42.69,-6.27 11.29,-4.18 20.22,-8.87 26.77,-14.06 7.68,-5.87 13.67,-12.65 17.96,-20.33l1.69 0 0 44.73 -1.69 0z"/>
  <path id="_3" class="fil1" d="M1701.76 453.46l-50.15 0 0 -1.69c0.68,-1.13 1.47,-3.16 2.37,-6.1 0.68,-2.49 1.3,-6.27 1.86,-11.35 0.56,-5.08 0.85,-11.92 0.85,-20.5l0 -128.42c0,-8.58 -0.28,-15.47 -0.85,-20.67 -0.56,-5.2 -1.19,-9.04 -1.86,-11.52 -0.9,-2.94 -1.69,-4.86 -2.37,-5.76l0 -2.03 65.73 0c19.2,0 35.97,2.99 50.32,8.98 14.34,5.99 26.2,13.83 35.58,23.55 9.37,9.71 16.38,20.84 21.01,33.37 4.63,12.54 6.95,25.36 6.95,38.46 0,12.88 -2.09,25.47 -6.27,37.78 -4.18,12.31 -10.73,23.38 -19.77,33.21 -8.98,9.83 -20.5,17.73 -34.45,23.72 -14,5.99 -30.78,8.98 -50.37,8.98l-18.58 0zm0 -4.07l4.07 0c14.63,0 26.94,-2.88 36.93,-8.64 10,-5.76 18.07,-13.27 24.12,-22.53 6.1,-9.26 10.39,-19.88 12.99,-31.85 2.6,-11.97 3.9,-24.28 3.9,-36.93 0,-12.42 -1.3,-24.62 -3.9,-36.59 -2.6,-11.97 -6.89,-22.59 -12.99,-31.85 -6.04,-9.26 -14.12,-16.77 -24.12,-22.53 -10,-5.76 -22.31,-8.64 -36.93,-8.64l-4.07 0 0 199.57z"/>
  <path id="_4" class="fil1" d="M1052.94 832.82c0,1.83 -0.14,3.32 -0.43,4.53 -0.29,1.25 -0.63,2.22 -1.11,2.99 -0.48,0.77 -1.01,1.3 -1.64,1.68 -0.63,0.39 -1.2,0.58 -1.73,0.58l-112.29 0c-0.63,0 -1.25,-0.19 -1.83,-0.58 -0.53,-0.38 -1.11,-0.91 -1.59,-1.68 -0.53,-0.77 -0.91,-1.73 -1.2,-2.99 -0.29,-1.2 -0.43,-2.7 -0.43,-4.53 0,-1.68 0.1,-3.18 0.34,-4.43 0.24,-1.25 0.63,-2.31 1.06,-3.13 0.48,-0.77 1.06,-1.35 1.64,-1.73 0.63,-0.38 1.3,-0.58 2.07,-0.58l17.44 0 0 -64.16 -17.44 0c-0.67,0 -1.3,-0.14 -1.83,-0.48 -0.58,-0.34 -1.11,-0.87 -1.64,-1.64 -0.53,-0.77 -0.91,-1.73 -1.2,-2.89 -0.29,-1.2 -0.43,-2.7 -0.43,-4.63 0,-1.59 0.1,-2.99 0.34,-4.19 0.24,-1.25 0.63,-2.27 1.06,-3.08 0.48,-0.77 1.06,-1.35 1.64,-1.69 0.63,-0.34 1.3,-0.48 2.07,-0.48l17.44 0 0 -16.91c0,-11.56 1.3,-21.48 3.95,-29.77 2.65,-8.29 6.36,-15.03 11.22,-20.33 4.82,-5.25 10.65,-9.1 17.53,-11.46 6.84,-2.41 14.5,-3.61 22.98,-3.61 3.95,0 7.8,0.34 11.61,1.06 3.81,0.72 7.32,1.68 10.55,2.89 3.27,1.2 6.17,2.65 8.77,4.24 2.6,1.59 4.53,2.99 5.78,4.24 1.25,1.2 2.12,2.17 2.6,2.94 0.48,0.77 0.87,1.59 1.11,2.55 0.29,0.91 0.48,1.98 0.58,3.08 0.1,1.16 0.14,2.55 0.14,4.24 0,1.59 -0.1,2.99 -0.29,4.24 -0.19,1.2 -0.48,2.22 -0.82,3.04 -0.39,0.77 -0.82,1.4 -1.35,1.83 -0.53,0.43 -1.11,0.63 -1.78,0.63 -1.3,0 -2.84,-0.82 -4.67,-2.41 -1.83,-1.59 -4.14,-3.37 -6.99,-5.25 -2.79,-1.88 -6.21,-3.66 -10.16,-5.25 -4,-1.59 -8.77,-2.41 -14.31,-2.41 -5.59,0 -10.45,0.96 -14.55,2.89 -4.09,1.93 -7.42,4.77 -10.07,8.53 -2.6,3.81 -4.58,8.43 -5.88,14.02 -1.3,5.54 -1.98,11.95 -1.98,19.22l0 17.78 45.96 0c0.77,0 1.44,0.14 2.02,0.48 0.63,0.34 1.16,0.92 1.54,1.69 0.43,0.82 0.77,1.83 1.01,3.08 0.24,1.2 0.34,2.6 0.34,4.19 0,1.93 -0.14,3.42 -0.43,4.63 -0.29,1.16 -0.63,2.12 -1.11,2.89 -0.48,0.77 -0.96,1.3 -1.54,1.64 -0.58,0.34 -1.16,0.48 -1.83,0.48l-45.96 0 0 64.16 70.81 0c0.67,0 1.3,0.19 1.88,0.58 0.63,0.39 1.16,0.96 1.64,1.73 0.48,0.82 0.82,1.88 1.06,3.13 0.24,1.25 0.34,2.75 0.34,4.43z"/>
  <path id="_5" class="fil1" d="M1261.86 833.06c0,1.78 -0.14,3.28 -0.43,4.48 -0.29,1.2 -0.63,2.22 -1.11,2.94 -0.48,0.77 -1.01,1.3 -1.64,1.64 -0.63,0.34 -1.25,0.48 -1.88,0.48l-95.38 0c-0.63,0 -1.25,-0.14 -1.83,-0.48 -0.53,-0.34 -1.11,-0.87 -1.59,-1.64 -0.53,-0.72 -0.92,-1.73 -1.21,-2.94 -0.29,-1.2 -0.43,-2.7 -0.43,-4.48 0,-1.69 0.14,-3.13 0.43,-4.34 0.29,-1.25 0.63,-2.26 1.06,-3.03 0.38,-0.82 0.91,-1.4 1.54,-1.83 0.63,-0.43 1.3,-0.63 2.02,-0.63l38.01 0 0 -139.02 -35.31 21.1c-1.78,0.91 -3.23,1.49 -4.34,1.68 -1.06,0.19 -1.93,0 -2.6,-0.63 -0.67,-0.63 -1.11,-1.64 -1.35,-3.04 -0.24,-1.4 -0.34,-3.18 -0.34,-5.35 0,-1.59 0.05,-2.99 0.19,-4.09 0.14,-1.16 0.39,-2.07 0.68,-2.84 0.29,-0.72 0.67,-1.4 1.2,-1.97 0.48,-0.53 1.16,-1.11 2.02,-1.69l42.1 -26.93c0.38,-0.29 0.82,-0.53 1.4,-0.72 0.58,-0.14 1.3,-0.34 2.12,-0.53 0.87,-0.19 1.83,-0.34 2.99,-0.38 1.11,-0.05 2.5,-0.05 4.24,-0.05 2.22,0 4.14,0.1 5.63,0.29 1.49,0.19 2.65,0.43 3.52,0.77 0.87,0.34 1.4,0.77 1.68,1.25 0.29,0.53 0.43,1.06 0.43,1.64l0 160.5 33.04 0c0.77,0 1.49,0.19 2.12,0.63 0.68,0.43 1.21,1.01 1.64,1.83 0.43,0.77 0.77,1.78 1.01,3.03 0.24,1.21 0.34,2.65 0.34,4.34z"/>
  <path id="_6" class="fil1" d="M1632.43 750.83c0,14.02 -1.11,26.83 -3.32,38.39 -2.22,11.56 -5.88,21.48 -10.98,29.82 -5.15,8.33 -11.85,14.74 -20.14,19.32 -8.29,4.58 -18.5,6.84 -30.64,6.84 -11.46,0 -21.1,-2.02 -29,-6.12 -7.85,-4.09 -14.16,-10.12 -18.98,-18.06 -4.77,-7.95 -8.19,-17.73 -10.21,-29.34 -2.02,-11.61 -3.04,-24.95 -3.04,-39.98 0,-13.92 1.11,-26.69 3.37,-38.3 2.26,-11.61 5.92,-21.58 11.03,-29.91 5.06,-8.33 11.75,-14.74 20.04,-19.32 8.29,-4.58 18.45,-6.84 30.49,-6.84 11.56,0 21.24,2.02 29.14,6.12 7.85,4.09 14.16,10.12 18.98,18.06 4.77,7.95 8.19,17.73 10.21,29.34 2.02,11.61 3.04,24.95 3.04,39.98zm-24.86 1.69c0,-9.1 -0.34,-17.29 -0.96,-24.52 -0.68,-7.22 -1.64,-13.63 -2.94,-19.17 -1.25,-5.54 -2.89,-10.31 -4.91,-14.31 -2.02,-3.95 -4.43,-7.27 -7.27,-9.83 -2.79,-2.6 -6.02,-4.48 -9.63,-5.64 -3.66,-1.2 -7.71,-1.78 -12.24,-1.78 -7.99,0 -14.45,1.88 -19.46,5.63 -4.96,3.76 -8.91,8.91 -11.75,15.51 -2.89,6.55 -4.82,14.26 -5.88,23.12 -1.01,8.82 -1.54,18.3 -1.54,28.47 0,13.58 0.72,25.19 2.12,34.73 1.4,9.54 3.66,17.29 6.7,23.31 3.04,6.02 6.94,10.4 11.71,13.1 4.77,2.75 10.5,4.09 17.29,4.09 5.25,0 9.88,-0.87 13.87,-2.55 4,-1.69 7.42,-4.09 10.31,-7.23 2.84,-3.18 5.25,-6.94 7.13,-11.37 1.88,-4.43 3.37,-9.3 4.53,-14.64 1.11,-5.35 1.88,-11.17 2.31,-17.39 0.43,-6.26 0.63,-12.76 0.63,-19.56z"/>
  <path id="_7" class="fil1" d="M1778.92 750.83c0,14.02 -1.11,26.83 -3.32,38.39 -2.22,11.56 -5.88,21.48 -10.98,29.82 -5.15,8.33 -11.85,14.74 -20.14,19.32 -8.29,4.58 -18.5,6.84 -30.64,6.84 -11.46,0 -21.1,-2.02 -29,-6.12 -7.85,-4.09 -14.16,-10.12 -18.98,-18.06 -4.77,-7.95 -8.19,-17.73 -10.21,-29.34 -2.02,-11.61 -3.04,-24.95 -3.04,-39.98 0,-13.92 1.11,-26.69 3.37,-38.3 2.26,-11.61 5.92,-21.58 11.03,-29.91 5.06,-8.33 11.75,-14.74 20.04,-19.32 8.29,-4.58 18.45,-6.84 30.49,-6.84 11.56,0 21.24,2.02 29.14,6.12 7.85,4.09 14.16,10.12 18.98,18.06 4.77,7.95 8.19,17.73 10.21,29.34 2.02,11.61 3.04,24.95 3.04,39.98zm-24.86 1.69c0,-9.1 -0.34,-17.29 -0.96,-24.52 -0.68,-7.22 -1.64,-13.63 -2.94,-19.17 -1.25,-5.54 -2.89,-10.31 -4.91,-14.31 -2.02,-3.95 -4.43,-7.27 -7.27,-9.83 -2.79,-2.6 -6.02,-4.48 -9.63,-5.64 -3.66,-1.2 -7.71,-1.78 -12.24,-1.78 -7.99,0 -14.45,1.88 -19.46,5.63 -4.96,3.76 -8.91,8.91 -11.75,15.51 -2.89,6.55 -4.82,14.26 -5.88,23.12 -1.01,8.82 -1.54,18.3 -1.54,28.47 0,13.58 0.72,25.19 2.12,34.73 1.4,9.54 3.66,17.29 6.7,23.31 3.04,6.02 6.94,10.4 11.71,13.1 4.77,2.75 10.5,4.09 17.29,4.09 5.25,0 9.88,-0.87 13.87,-2.55 4,-1.69 7.42,-4.09 10.31,-7.23 2.84,-3.18 5.25,-6.94 7.13,-11.37 1.88,-4.43 3.37,-9.3 4.53,-14.64 1.11,-5.35 1.88,-11.17 2.31,-17.39 0.43,-6.26 0.63,-12.76 0.63,-19.56z"/>
  <path id="_8" class="fil1" d="M1925.41 750.83c0,14.02 -1.11,26.83 -3.32,38.39 -2.22,11.56 -5.88,21.48 -10.98,29.82 -5.15,8.33 -11.85,14.74 -20.14,19.32 -8.29,4.58 -18.5,6.84 -30.64,6.84 -11.46,0 -21.1,-2.02 -29,-6.12 -7.85,-4.09 -14.16,-10.12 -18.98,-18.06 -4.77,-7.95 -8.19,-17.73 -10.21,-29.34 -2.02,-11.61 -3.04,-24.95 -3.04,-39.98 0,-13.92 1.11,-26.69 3.37,-38.3 2.26,-11.61 5.92,-21.58 11.03,-29.91 5.06,-8.33 11.75,-14.74 20.04,-19.32 8.29,-4.58 18.45,-6.84 30.49,-6.84 11.56,0 21.24,2.02 29.14,6.12 7.85,4.09 14.16,10.12 18.98,18.06 4.77,7.95 8.19,17.73 10.21,29.34 2.02,11.61 3.04,24.95 3.04,39.98zm-24.86 1.69c0,-9.1 -0.34,-17.29 -0.96,-24.52 -0.68,-7.22 -1.64,-13.63 -2.94,-19.17 -1.25,-5.54 -2.89,-10.31 -4.91,-14.31 -2.02,-3.95 -4.43,-7.27 -7.27,-9.83 -2.79,-2.6 -6.02,-4.48 -9.63,-5.64 -3.66,-1.2 -7.71,-1.78 -12.24,-1.78 -7.99,0 -14.45,1.88 -19.46,5.63 -4.96,3.76 -8.91,8.91 -11.75,15.51 -2.89,6.55 -4.82,14.26 -5.88,23.12 -1.01,8.82 -1.54,18.3 -1.54,28.47 0,13.58 0.72,25.19 2.12,34.73 1.4,9.54 3.66,17.29 6.7,23.31 3.04,6.02 6.94,10.4 11.71,13.1 4.77,2.75 10.5,4.09 17.29,4.09 5.25,0 9.88,-0.87 13.87,-2.55 4,-1.69 7.42,-4.09 10.31,-7.23 2.84,-3.18 5.25,-6.94 7.13,-11.37 1.88,-4.43 3.37,-9.3 4.53,-14.64 1.11,-5.35 1.88,-11.17 2.31,-17.39 0.43,-6.26 0.63,-12.76 0.63,-19.56z"/>
  <path id="_9" class="fil1" d="M1408.34 833.06c0,1.78 -0.14,3.28 -0.43,4.48 -0.29,1.2 -0.63,2.22 -1.11,2.94 -0.48,0.77 -1.01,1.3 -1.64,1.64 -0.63,0.34 -1.25,0.48 -1.88,0.48l-95.38 0c-0.63,0 -1.25,-0.14 -1.83,-0.48 -0.53,-0.34 -1.11,-0.87 -1.59,-1.64 -0.53,-0.72 -0.92,-1.73 -1.21,-2.94 -0.29,-1.2 -0.43,-2.7 -0.43,-4.48 0,-1.69 0.14,-3.13 0.43,-4.34 0.29,-1.25 0.63,-2.26 1.06,-3.03 0.38,-0.82 0.91,-1.4 1.54,-1.83 0.63,-0.43 1.3,-0.63 2.02,-0.63l38.01 0 0 -139.02 -35.31 21.1c-1.78,0.91 -3.23,1.49 -4.34,1.68 -1.06,0.19 -1.93,0 -2.6,-0.63 -0.67,-0.63 -1.11,-1.64 -1.35,-3.04 -0.24,-1.4 -0.34,-3.18 -0.34,-5.35 0,-1.59 0.05,-2.99 0.19,-4.09 0.14,-1.16 0.39,-2.07 0.68,-2.84 0.29,-0.72 0.67,-1.4 1.2,-1.97 0.48,-0.53 1.16,-1.11 2.02,-1.69l42.1 -26.93c0.38,-0.29 0.82,-0.53 1.4,-0.72 0.58,-0.14 1.3,-0.34 2.12,-0.53 0.87,-0.19 1.83,-0.34 2.99,-0.38 1.11,-0.05 2.5,-0.05 4.24,-0.05 2.22,0 4.14,0.1 5.63,0.29 1.49,0.19 2.65,0.43 3.52,0.77 0.87,0.34 1.4,0.77 1.68,1.25 0.29,0.53 0.43,1.06 0.43,1.64l0 160.5 33.04 0c0.77,0 1.49,0.19 2.12,0.63 0.68,0.43 1.21,1.01 1.64,1.83 0.43,0.77 0.77,1.78 1.01,3.03 0.24,1.21 0.34,2.65 0.34,4.34z"/>
  <path id="_10" class="fil1" d="M1476.27 822.51c0,2.94 -0.14,5.64 -0.43,8.04 -0.29,2.46 -0.77,4.77 -1.4,6.94 -0.68,2.17 -1.54,4.29 -2.6,6.41 -1.11,2.12 -2.46,4.38 -4.05,6.7l-19.32 29.09c-0.48,0.68 -1.01,1.2 -1.64,1.69 -0.63,0.48 -1.35,0.91 -2.27,1.25 -0.87,0.39 -1.93,0.67 -3.08,0.82 -1.2,0.14 -2.65,0.19 -4.48,0.19 -1.59,0 -2.94,-0.05 -4,-0.19 -1.11,-0.14 -1.88,-0.39 -2.31,-0.72 -0.48,-0.34 -0.72,-0.77 -0.77,-1.35 -0.05,-0.58 0.1,-1.2 0.48,-1.98l18.74 -38.82 0 -18.06c0,-2.5 0.29,-4.53 0.82,-6.07 0.48,-1.49 1.3,-2.6 2.46,-3.37 1.11,-0.77 2.55,-1.25 4.24,-1.54 1.69,-0.29 3.76,-0.43 6.22,-0.43 2.31,0 4.33,0.14 6.07,0.43 1.69,0.29 3.08,0.77 4.14,1.54 1.06,0.77 1.88,1.88 2.41,3.37 0.53,1.54 0.77,3.56 0.77,6.07z"/>
  <path id="_11" class="fil2 str0" d="M1227.73 335.54l0 120.29 -48.45 -45.07c-3.39,8.36 -8.02,15.81 -13.89,22.36 -5.2,5.65 -12.03,10.73 -20.5,15.25 -8.47,4.52 -19.14,6.78 -32.02,6.78 -10.84,0 -21.57,-2.26 -32.19,-6.78 -10.62,-4.52 -20.16,-11.18 -28.63,-19.99 -8.47,-8.81 -15.36,-19.88 -20.67,-33.21 -5.31,-13.33 -7.96,-28.8 -7.96,-46.42 0,-16.04 2.54,-30.66 7.62,-43.88 5.08,-13.21 12.31,-24.51 21.69,-33.88 9.37,-9.37 20.73,-16.6 34.05,-21.69 13.33,-5.08 28.12,-7.62 44.39,-7.62 9.49,0 18.58,0.96 27.28,2.88 8.7,1.92 16.77,4.52 24.23,7.79 7.45,3.28 14.06,7.12 19.82,11.52 5.76,4.41 10.22,9.09 13.38,14.06 3.61,4.29 5.42,9.26 5.42,14.91l0 0.34 0 0.34c-0.45,6.55 -2.99,12.14 -7.62,16.77 -4.63,4.63 -10.22,6.95 -16.77,6.95 -6.78,0 -12.54,-2.37 -17.28,-7.12 -4.74,-4.74 -7.12,-10.5 -7.12,-17.28 0,-5.19 -0.68,-10.56 -2.03,-16.09 -1.36,-5.54 -3.62,-10.62 -6.78,-15.25 -3.16,-4.63 -7.51,-8.41 -13.05,-11.35 -5.53,-2.94 -12.48,-4.4 -20.84,-4.4 -7.91,0 -15.25,2.09 -22.03,6.27 -6.78,4.18 -12.71,10.17 -17.79,17.96 -5.08,7.79 -9.26,17.22 -12.54,28.29 -3.27,11.07 -5.25,23.49 -5.93,37.27l156.2 0zm-156.54 11.86c0,20.33 2.77,37.1 8.3,50.32 5.54,13.21 12.42,23.21 20.67,29.99 8.25,6.78 17.17,10.45 26.77,11.01 9.6,0.56 18.52,-1.52 26.77,-6.27 8.24,-4.74 15.13,-11.97 20.67,-21.69 5.54,-9.71 8.3,-21.57 8.3,-35.58l0 -35.58 -111.48 0 0 7.79z"/>
  <path id="_12" class="fil2 str0" d="M1459.15 348.42c0,17.85 -3.05,33.49 -9.15,46.93 -6.1,13.44 -14.23,24.62 -24.4,33.54 -10.17,8.92 -21.69,15.64 -34.56,20.16 -12.88,4.52 -25.98,6.78 -39.31,6.78 -13.33,0 -26.43,-2.26 -39.31,-6.78 -12.88,-4.52 -24.4,-11.24 -34.56,-20.16 -10.17,-8.92 -18.3,-20.1 -24.4,-33.54 -6.1,-13.44 -9.15,-29.08 -9.15,-46.93 0,-17.85 3.05,-33.43 9.15,-46.76 6.1,-13.33 14.23,-24.45 24.4,-33.37 10.17,-8.92 21.69,-15.64 34.56,-20.16 12.88,-4.52 25.98,-6.78 39.31,-6.78 13.33,0 26.43,2.26 39.31,6.78 12.88,4.52 24.4,11.24 34.56,20.16 10.17,8.92 18.3,20.05 24.4,33.37 6.1,13.33 9.15,28.91 9.15,46.76zm-45.74 0c0,-23.04 -3.05,-42.19 -9.15,-57.43 -6.1,-15.25 -13.72,-26.71 -22.87,-34.39 -9.15,-7.68 -19.03,-11.52 -29.65,-11.52 -10.62,0 -20.5,3.84 -29.65,11.52 -9.15,7.68 -16.77,19.14 -22.87,34.39 -6.1,15.25 -9.15,34.39 -9.15,57.43 0,23.04 3.05,42.24 9.15,57.6 6.1,15.36 13.72,26.88 22.87,34.56 9.15,7.68 19.03,11.52 29.65,11.52 10.62,0 20.5,-3.84 29.65,-11.52 9.15,-7.68 16.77,-19.2 22.87,-34.56 6.1,-15.36 9.15,-34.56 9.15,-57.6z"/>
  <path id="_13" class="fil2 str0" d="M1636.7 453.46l-164 0 0 -1.69c0.68,-1.13 1.47,-3.16 2.37,-6.1 0.68,-2.49 1.3,-6.27 1.86,-11.35 0.56,-5.08 0.85,-11.92 0.85,-20.5l0 -128.42c0,-8.58 -0.28,-15.47 -0.85,-20.67 -0.56,-5.2 -1.19,-9.04 -1.86,-11.52 -0.9,-2.94 -1.69,-4.86 -2.37,-5.76l0 -2.03 55.23 0 0 2.03c-0.9,0.9 -1.81,2.82 -2.71,5.76 -0.68,2.48 -1.24,6.32 -1.69,11.52 -0.45,5.19 -0.68,12.08 -0.68,20.67l0 164 26.43 0c17.17,0 31.4,-2.09 42.69,-6.27 11.29,-4.18 20.22,-8.87 26.77,-14.06 7.68,-5.87 13.67,-12.65 17.96,-20.33l1.69 0 0 44.73 -1.69 0z"/>
  <path id="_14" class="fil2 str0" d="M1701.76 453.46l-50.15 0 0 -1.69c0.68,-1.13 1.47,-3.16 2.37,-6.1 0.68,-2.49 1.3,-6.27 1.86,-11.35 0.56,-5.08 0.85,-11.92 0.85,-20.5l0 -128.42c0,-8.58 -0.28,-15.47 -0.85,-20.67 -0.56,-5.2 -1.19,-9.04 -1.86,-11.52 -0.9,-2.94 -1.69,-4.86 -2.37,-5.76l0 -2.03 65.73 0c19.2,0 35.97,2.99 50.32,8.98 14.34,5.99 26.2,13.83 35.58,23.55 9.37,9.71 16.38,20.84 21.01,33.37 4.63,12.54 6.95,25.36 6.95,38.46 0,12.88 -2.09,25.47 -6.27,37.78 -4.18,12.31 -10.73,23.38 -19.77,33.21 -8.98,9.83 -20.5,17.73 -34.45,23.72 -14,5.99 -30.78,8.98 -50.37,8.98l-18.58 0zm0 -4.07l4.07 0c14.63,0 26.94,-2.88 36.93,-8.64 10,-5.76 18.07,-13.27 24.12,-22.53 6.1,-9.26 10.39,-19.88 12.99,-31.85 2.6,-11.97 3.9,-24.28 3.9,-36.93 0,-12.42 -1.3,-24.62 -3.9,-36.59 -2.6,-11.97 -6.89,-22.59 -12.99,-31.85 -6.04,-9.26 -14.12,-16.77 -24.12,-22.53 -10,-5.76 -22.31,-8.64 -36.93,-8.64l-4.07 0 0 199.57z"/>
  <path id="_15" class="fil2" d="M1052.94 832.82c0,1.83 -0.14,3.32 -0.43,4.53 -0.29,1.25 -0.63,2.22 -1.11,2.99 -0.48,0.77 -1.01,1.3 -1.64,1.68 -0.63,0.39 -1.2,0.58 -1.73,0.58l-112.29 0c-0.63,0 -1.25,-0.19 -1.83,-0.58 -0.53,-0.38 -1.11,-0.91 -1.59,-1.68 -0.53,-0.77 -0.91,-1.73 -1.2,-2.99 -0.29,-1.2 -0.43,-2.7 -0.43,-4.53 0,-1.68 0.1,-3.18 0.34,-4.43 0.24,-1.25 0.63,-2.31 1.06,-3.13 0.48,-0.77 1.06,-1.35 1.64,-1.73 0.63,-0.38 1.3,-0.58 2.07,-0.58l17.44 0 0 -64.16 -17.44 0c-0.67,0 -1.3,-0.14 -1.83,-0.48 -0.58,-0.34 -1.11,-0.87 -1.64,-1.64 -0.53,-0.77 -0.91,-1.73 -1.2,-2.89 -0.29,-1.2 -0.43,-2.7 -0.43,-4.63 0,-1.59 0.1,-2.99 0.34,-4.19 0.24,-1.25 0.63,-2.27 1.06,-3.08 0.48,-0.77 1.06,-1.35 1.64,-1.69 0.63,-0.34 1.3,-0.48 2.07,-0.48l17.44 0 0 -16.91c0,-11.56 1.3,-21.48 3.95,-29.77 2.65,-8.29 6.36,-15.03 11.22,-20.33 4.82,-5.25 10.65,-9.1 17.53,-11.46 6.84,-2.41 14.5,-3.61 22.98,-3.61 3.95,0 7.8,0.34 11.61,1.06 3.81,0.72 7.32,1.68 10.55,2.89 3.27,1.2 6.17,2.65 8.77,4.24 2.6,1.59 4.53,2.99 5.78,4.24 1.25,1.2 2.12,2.17 2.6,2.94 0.48,0.77 0.87,1.59 1.11,2.55 0.29,0.91 0.48,1.98 0.58,3.08 0.1,1.16 0.14,2.55 0.14,4.24 0,1.59 -0.1,2.99 -0.29,4.24 -0.19,1.2 -0.48,2.22 -0.82,3.04 -0.39,0.77 -0.82,1.4 -1.35,1.83 -0.53,0.43 -1.11,0.63 -1.78,0.63 -1.3,0 -2.84,-0.82 -4.67,-2.41 -1.83,-1.59 -4.14,-3.37 -6.99,-5.25 -2.79,-1.88 -6.21,-3.66 -10.16,-5.25 -4,-1.59 -8.77,-2.41 -14.31,-2.41 -5.59,0 -10.45,0.96 -14.55,2.89 -4.09,1.93 -7.42,4.77 -10.07,8.53 -2.6,3.81 -4.58,8.43 -5.88,14.02 -1.3,5.54 -1.98,11.95 -1.98,19.22l0 17.78 45.96 0c0.77,0 1.44,0.14 2.02,0.48 0.63,0.34 1.16,0.92 1.54,1.69 0.43,0.82 0.77,1.83 1.01,3.08 0.24,1.2 0.34,2.6 0.34,4.19 0,1.93 -0.14,3.42 -0.43,4.63 -0.29,1.16 -0.63,2.12 -1.11,2.89 -0.48,0.77 -0.96,1.3 -1.54,1.64 -0.58,0.34 -1.16,0.48 -1.83,0.48l-45.96 0 0 64.16 70.81 0c0.67,0 1.3,0.19 1.88,0.58 0.63,0.39 1.16,0.96 1.64,1.73 0.48,0.82 0.82,1.88 1.06,3.13 0.24,1.25 0.34,2.75 0.34,4.43z"/>
  <path id="_16" class="fil2" d="M1261.86 833.06c0,1.78 -0.14,3.28 -0.43,4.48 -0.29,1.2 -0.63,2.22 -1.11,2.94 -0.48,0.77 -1.01,1.3 -1.64,1.64 -0.63,0.34 -1.25,0.48 -1.88,0.48l-95.38 0c-0.63,0 -1.25,-0.14 -1.83,-0.48 -0.53,-0.34 -1.11,-0.87 -1.59,-1.64 -0.53,-0.72 -0.92,-1.73 -1.21,-2.94 -0.29,-1.2 -0.43,-2.7 -0.43,-4.48 0,-1.69 0.14,-3.13 0.43,-4.34 0.29,-1.25 0.63,-2.26 1.06,-3.03 0.38,-0.82 0.91,-1.4 1.54,-1.83 0.63,-0.43 1.3,-0.63 2.02,-0.63l38.01 0 0 -139.02 -35.31 21.1c-1.78,0.91 -3.23,1.49 -4.34,1.68 -1.06,0.19 -1.93,0 -2.6,-0.63 -0.67,-0.63 -1.11,-1.64 -1.35,-3.04 -0.24,-1.4 -0.34,-3.18 -0.34,-5.35 0,-1.59 0.05,-2.99 0.19,-4.09 0.14,-1.16 0.39,-2.07 0.68,-2.84 0.29,-0.72 0.67,-1.4 1.2,-1.97 0.48,-0.53 1.16,-1.11 2.02,-1.69l42.1 -26.93c0.38,-0.29 0.82,-0.53 1.4,-0.72 0.58,-0.14 1.3,-0.34 2.12,-0.53 0.87,-0.19 1.83,-0.34 2.99,-0.38 1.11,-0.05 2.5,-0.05 4.24,-0.05 2.22,0 4.14,0.1 5.63,0.29 1.49,0.19 2.65,0.43 3.52,0.77 0.87,0.34 1.4,0.77 1.68,1.25 0.29,0.53 0.43,1.06 0.43,1.64l0 160.5 33.04 0c0.77,0 1.49,0.19 2.12,0.63 0.68,0.43 1.21,1.01 1.64,1.83 0.43,0.77 0.77,1.78 1.01,3.03 0.24,1.21 0.34,2.65 0.34,4.34z"/>
  <path id="_17" class="fil2" d="M1632.43 750.83c0,14.02 -1.11,26.83 -3.32,38.39 -2.22,11.56 -5.88,21.48 -10.98,29.82 -5.15,8.33 -11.85,14.74 -20.14,19.32 -8.29,4.58 -18.5,6.84 -30.64,6.84 -11.46,0 -21.1,-2.02 -29,-6.12 -7.85,-4.09 -14.16,-10.12 -18.98,-18.06 -4.77,-7.95 -8.19,-17.73 -10.21,-29.34 -2.02,-11.61 -3.04,-24.95 -3.04,-39.98 0,-13.92 1.11,-26.69 3.37,-38.3 2.26,-11.61 5.92,-21.58 11.03,-29.91 5.06,-8.33 11.75,-14.74 20.04,-19.32 8.29,-4.58 18.45,-6.84 30.49,-6.84 11.56,0 21.24,2.02 29.14,6.12 7.85,4.09 14.16,10.12 18.98,18.06 4.77,7.95 8.19,17.73 10.21,29.34 2.02,11.61 3.04,24.95 3.04,39.98zm-24.86 1.69c0,-9.1 -0.34,-17.29 -0.96,-24.52 -0.68,-7.22 -1.64,-13.63 -2.94,-19.17 -1.25,-5.54 -2.89,-10.31 -4.91,-14.31 -2.02,-3.95 -4.43,-7.27 -7.27,-9.83 -2.79,-2.6 -6.02,-4.48 -9.63,-5.64 -3.66,-1.2 -7.71,-1.78 -12.24,-1.78 -7.99,0 -14.45,1.88 -19.46,5.63 -4.96,3.76 -8.91,8.91 -11.75,15.51 -2.89,6.55 -4.82,14.26 -5.88,23.12 -1.01,8.82 -1.54,18.3 -1.54,28.47 0,13.58 0.72,25.19 2.12,34.73 1.4,9.54 3.66,17.29 6.7,23.31 3.04,6.02 6.94,10.4 11.71,13.1 4.77,2.75 10.5,4.09 17.29,4.09 5.25,0 9.88,-0.87 13.87,-2.55 4,-1.69 7.42,-4.09 10.31,-7.23 2.84,-3.18 5.25,-6.94 7.13,-11.37 1.88,-4.43 3.37,-9.3 4.53,-14.64 1.11,-5.35 1.88,-11.17 2.31,-17.39 0.43,-6.26 0.63,-12.76 0.63,-19.56z"/>
  <path id="_18" class="fil2" d="M1778.92 750.83c0,14.02 -1.11,26.83 -3.32,38.39 -2.22,11.56 -5.88,21.48 -10.98,29.82 -5.15,8.33 -11.85,14.74 -20.14,19.32 -8.29,4.58 -18.5,6.84 -30.64,6.84 -11.46,0 -21.1,-2.02 -29,-6.12 -7.85,-4.09 -14.16,-10.12 -18.98,-18.06 -4.77,-7.95 -8.19,-17.73 -10.21,-29.34 -2.02,-11.61 -3.04,-24.95 -3.04,-39.98 0,-13.92 1.11,-26.69 3.37,-38.3 2.26,-11.61 5.92,-21.58 11.03,-29.91 5.06,-8.33 11.75,-14.74 20.04,-19.32 8.29,-4.58 18.45,-6.84 30.49,-6.84 11.56,0 21.24,2.02 29.14,6.12 7.85,4.09 14.16,10.12 18.98,18.06 4.77,7.95 8.19,17.73 10.21,29.34 2.02,11.61 3.04,24.95 3.04,39.98zm-24.86 1.69c0,-9.1 -0.34,-17.29 -0.96,-24.52 -0.68,-7.22 -1.64,-13.63 -2.94,-19.17 -1.25,-5.54 -2.89,-10.31 -4.91,-14.31 -2.02,-3.95 -4.43,-7.27 -7.27,-9.83 -2.79,-2.6 -6.02,-4.48 -9.63,-5.64 -3.66,-1.2 -7.71,-1.78 -12.24,-1.78 -7.99,0 -14.45,1.88 -19.46,5.63 -4.96,3.76 -8.91,8.91 -11.75,15.51 -2.89,6.55 -4.82,14.26 -5.88,23.12 -1.01,8.82 -1.54,18.3 -1.54,28.47 0,13.58 0.72,25.19 2.12,34.73 1.4,9.54 3.66,17.29 6.7,23.31 3.04,6.02 6.94,10.4 11.71,13.1 4.77,2.75 10.5,4.09 17.29,4.09 5.25,0 9.88,-0.87 13.87,-2.55 4,-1.69 7.42,-4.09 10.31,-7.23 2.84,-3.18 5.25,-6.94 7.13,-11.37 1.88,-4.43 3.37,-9.3 4.53,-14.64 1.11,-5.35 1.88,-11.17 2.31,-17.39 0.43,-6.26 0.63,-12.76 0.63,-19.56z"/>
  <path id="_19" class="fil2" d="M1925.41 750.83c0,14.02 -1.11,26.83 -3.32,38.39 -2.22,11.56 -5.88,21.48 -10.98,29.82 -5.15,8.33 -11.85,14.74 -20.14,19.32 -8.29,4.58 -18.5,6.84 -30.64,6.84 -11.46,0 -21.1,-2.02 -29,-6.12 -7.85,-4.09 -14.16,-10.12 -18.98,-18.06 -4.77,-7.95 -8.19,-17.73 -10.21,-29.34 -2.02,-11.61 -3.04,-24.95 -3.04,-39.98 0,-13.92 1.11,-26.69 3.37,-38.3 2.26,-11.61 5.92,-21.58 11.03,-29.91 5.06,-8.33 11.75,-14.74 20.04,-19.32 8.29,-4.58 18.45,-6.84 30.49,-6.84 11.56,0 21.24,2.02 29.14,6.12 7.85,4.09 14.16,10.12 18.98,18.06 4.77,7.95 8.19,17.73 10.21,29.34 2.02,11.61 3.04,24.95 3.04,39.98zm-24.86 1.69c0,-9.1 -0.34,-17.29 -0.96,-24.52 -0.68,-7.22 -1.64,-13.63 -2.94,-19.17 -1.25,-5.54 -2.89,-10.31 -4.91,-14.31 -2.02,-3.95 -4.43,-7.27 -7.27,-9.83 -2.79,-2.6 -6.02,-4.48 -9.63,-5.64 -3.66,-1.2 -7.71,-1.78 -12.24,-1.78 -7.99,0 -14.45,1.88 -19.46,5.63 -4.96,3.76 -8.91,8.91 -11.75,15.51 -2.89,6.55 -4.82,14.26 -5.88,23.12 -1.01,8.82 -1.54,18.3 -1.54,28.47 0,13.58 0.72,25.19 2.12,34.73 1.4,9.54 3.66,17.29 6.7,23.31 3.04,6.02 6.94,10.4 11.71,13.1 4.77,2.75 10.5,4.09 17.29,4.09 5.25,0 9.88,-0.87 13.87,-2.55 4,-1.69 7.42,-4.09 10.31,-7.23 2.84,-3.18 5.25,-6.94 7.13,-11.37 1.88,-4.43 3.37,-9.3 4.53,-14.64 1.11,-5.35 1.88,-11.17 2.31,-17.39 0.43,-6.26 0.63,-12.76 0.63,-19.56z"/>
  <path id="_20" class="fil2" d="M1408.34 833.06c0,1.78 -0.14,3.28 -0.43,4.48 -0.29,1.2 -0.63,2.22 -1.11,2.94 -0.48,0.77 -1.01,1.3 -1.64,1.64 -0.63,0.34 -1.25,0.48 -1.88,0.48l-95.38 0c-0.63,0 -1.25,-0.14 -1.83,-0.48 -0.53,-0.34 -1.11,-0.87 -1.59,-1.64 -0.53,-0.72 -0.92,-1.73 -1.21,-2.94 -0.29,-1.2 -0.43,-2.7 -0.43,-4.48 0,-1.69 0.14,-3.13 0.43,-4.34 0.29,-1.25 0.63,-2.26 1.06,-3.03 0.38,-0.82 0.91,-1.4 1.54,-1.83 0.63,-0.43 1.3,-0.63 2.02,-0.63l38.01 0 0 -139.02 -35.31 21.1c-1.78,0.91 -3.23,1.49 -4.34,1.68 -1.06,0.19 -1.93,0 -2.6,-0.63 -0.67,-0.63 -1.11,-1.64 -1.35,-3.04 -0.24,-1.4 -0.34,-3.18 -0.34,-5.35 0,-1.59 0.05,-2.99 0.19,-4.09 0.14,-1.16 0.39,-2.07 0.68,-2.84 0.29,-0.72 0.67,-1.4 1.2,-1.97 0.48,-0.53 1.16,-1.11 2.02,-1.69l42.1 -26.93c0.38,-0.29 0.82,-0.53 1.4,-0.72 0.58,-0.14 1.3,-0.34 2.12,-0.53 0.87,-0.19 1.83,-0.34 2.99,-0.38 1.11,-0.05 2.5,-0.05 4.24,-0.05 2.22,0 4.14,0.1 5.63,0.29 1.49,0.19 2.65,0.43 3.52,0.77 0.87,0.34 1.4,0.77 1.68,1.25 0.29,0.53 0.43,1.06 0.43,1.64l0 160.5 33.04 0c0.77,0 1.49,0.19 2.12,0.63 0.68,0.43 1.21,1.01 1.64,1.83 0.43,0.77 0.77,1.78 1.01,3.03 0.24,1.21 0.34,2.65 0.34,4.34z"/>
  <path id="_21" class="fil2" d="M1476.27 822.51c0,2.94 -0.14,5.64 -0.43,8.04 -0.29,2.46 -0.77,4.77 -1.4,6.94 -0.68,2.17 -1.54,4.29 -2.6,6.41 -1.11,2.12 -2.46,4.38 -4.05,6.7l-19.32 29.09c-0.48,0.68 -1.01,1.2 -1.64,1.69 -0.63,0.48 -1.35,0.91 -2.27,1.25 -0.87,0.39 -1.93,0.67 -3.08,0.82 -1.2,0.14 -2.65,0.19 -4.48,0.19 -1.59,0 -2.94,-0.05 -4,-0.19 -1.11,-0.14 -1.88,-0.39 -2.31,-0.72 -0.48,-0.34 -0.72,-0.77 -0.77,-1.35 -0.05,-0.58 0.1,-1.2 0.48,-1.98l18.74 -38.82 0 -18.06c0,-2.5 0.29,-4.53 0.82,-6.07 0.48,-1.49 1.3,-2.6 2.46,-3.37 1.11,-0.77 2.55,-1.25 4.24,-1.54 1.69,-0.29 3.76,-0.43 6.22,-0.43 2.31,0 4.33,0.14 6.07,0.43 1.69,0.29 3.08,0.77 4.14,1.54 1.06,0.77 1.88,1.88 2.41,3.37 0.53,1.54 0.77,3.56 0.77,6.07z"/>
 </g>
</svg>
