<?xml version="1.0" encoding="UTF-8"?>
<!DOCTYPE svg PUBLIC "-//W3C//DTD SVG 1.1//EN" "http://www.w3.org/Graphics/SVG/1.1/DTD/svg11.dtd">
<!-- Creator: CorelDRAW 2021 (64-Bit) -->
<svg xmlns="http://www.w3.org/2000/svg" xml:space="preserve" width="13.5467mm" height="13.5467mm" version="1.1" style="shape-rendering:geometricPrecision; text-rendering:geometricPrecision; image-rendering:optimizeQuality; fill-rule:evenodd; clip-rule:evenodd"
viewBox="0 0 24.43 24.43"
 xmlns:xlink="http://www.w3.org/1999/xlink"
 xmlns:xodm="http://www.corel.com/coreldraw/odm/2003">
 <defs>
  <style type="text/css">
   <![CDATA[
    .fil1 {fill:white}
    .fil0 {fill:white;fill-rule:nonzero}
   ]]>
  </style>
 </defs>
 <g id="Layer_x0020_1">
  <metadata id="CorelCorpID_0Corel-Layer"/>
  <g id="_1997226002192">
   <g>
    <path class="fil0" d="M6.37 8.79c0,0.06 -0.01,0.12 -0.02,0.18 -0.01,0.06 -0.03,0.11 -0.06,0.17 -0.03,0.05 -0.06,0.1 -0.1,0.15 -0.04,0.05 -0.09,0.09 -0.14,0.13 -0.05,0.04 -0.11,0.07 -0.18,0.1 -0.07,0.03 -0.14,0.05 -0.22,0.08 -0.16,0.04 -0.36,0.06 -0.58,0.06l-1.32 0 0 -0.1 0.01 -0.01 0.01 -0.02 0.02 -0.05c0,-0.01 0.01,-0.03 0.01,-0.05 0,-0.02 0.01,-0.05 0.01,-0.09 0,-0.03 0.01,-0.07 0.01,-0.11 0,-0.04 0,-0.09 0,-0.15l0 -1.76c0,-0.11 -0,-0.2 -0.01,-0.27 -0,-0.03 -0.01,-0.06 -0.01,-0.09 -0,-0.02 -0.01,-0.04 -0.01,-0.05l-0.02 -0.05 -0.01 -0.02 -0.01 -0.01 0 -0.1 1.14 -0c0.19,-0 0.36,0.01 0.5,0.04 0.15,0.03 0.27,0.06 0.36,0.11 0.1,0.05 0.18,0.12 0.23,0.21 0.05,0.09 0.08,0.19 0.08,0.3 0,0.07 -0.01,0.14 -0.03,0.19 -0.02,0.06 -0.05,0.11 -0.09,0.16 -0.04,0.04 -0.08,0.08 -0.12,0.11 -0.04,0.03 -0.09,0.06 -0.13,0.09 -0.04,0.02 -0.08,0.04 -0.12,0.06l0.03 0.01c0.08,0.02 0.16,0.05 0.24,0.09 0.03,0.01 0.07,0.03 0.1,0.05 0.03,0.02 0.06,0.04 0.09,0.06 0.03,0.02 0.06,0.05 0.09,0.07 0.03,0.02 0.05,0.05 0.08,0.08 0.05,0.06 0.09,0.12 0.12,0.2 0.02,0.04 0.03,0.08 0.04,0.12 0.01,0.04 0.01,0.09 0.01,0.13zm-0.06 0c0,0.11 -0.02,0.22 -0.07,0.32 -0.05,0.1 -0.12,0.18 -0.22,0.25 -0.1,0.07 -0.23,0.13 -0.38,0.17 -0.16,0.04 -0.35,0.06 -0.56,0.06l-1.26 0 0 -0.02c0.01,-0.01 0.02,-0.04 0.03,-0.08 0.01,-0.03 0.02,-0.08 0.02,-0.15 0.01,-0.07 0.01,-0.16 0.01,-0.27l0 -1.76c0,-0.11 -0,-0.2 -0.01,-0.27 -0.01,-0.07 -0.02,-0.12 -0.02,-0.15 -0.01,-0.04 -0.02,-0.07 -0.03,-0.08l0 -0.02 1.08 -0c0.38,0 0.65,0.05 0.84,0.14 0.18,0.1 0.27,0.25 0.27,0.46 0,0.13 -0.04,0.23 -0.11,0.31 -0.07,0.08 -0.15,0.14 -0.24,0.19 -0.1,0.05 -0.21,0.09 -0.34,0.12 0.18,0.02 0.35,0.07 0.49,0.14 0.06,0.03 0.12,0.06 0.18,0.1 0.06,0.04 0.11,0.09 0.16,0.14 0.05,0.05 0.08,0.11 0.11,0.18 0.03,0.07 0.04,0.15 0.04,0.23zm0.32 -1.96l1.21 -0 0 0 -0 0 -1.21 0zm5.54 8.03l1.21 -0 0 0 -0 0 -1.21 0zm-7.63 -6.94l0.24 0c0.13,0 0.23,-0.02 0.3,-0.06 0.04,-0.02 0.07,-0.05 0.1,-0.07 0.03,-0.02 0.05,-0.05 0.07,-0.08 0.02,-0.03 0.03,-0.06 0.05,-0.09 0.01,-0.03 0.02,-0.06 0.03,-0.1 0.01,-0.03 0.01,-0.07 0.01,-0.1 0,-0.03 0,-0.05 0,-0.08 0,-0.02 -0,-0.05 -0,-0.07 -0,-0.02 -0.01,-0.05 -0.01,-0.08 -0.01,-0.02 -0.01,-0.05 -0.03,-0.07 -0.01,-0.02 -0.03,-0.05 -0.05,-0.07 -0.02,-0.02 -0.04,-0.04 -0.07,-0.06 -0.03,-0.02 -0.06,-0.04 -0.1,-0.05 -0.04,-0.02 -0.08,-0.03 -0.13,-0.04 -0.05,-0.01 -0.11,-0.01 -0.18,-0.01l-0.23 0 0 1.03zm0.41 1.55c0.07,0 0.13,-0 0.19,-0.01 0.06,-0.01 0.11,-0.02 0.15,-0.04 0.04,-0.02 0.08,-0.04 0.12,-0.06 0.03,-0.02 0.07,-0.05 0.09,-0.08 0.03,-0.03 0.05,-0.06 0.07,-0.1 0.02,-0.04 0.04,-0.07 0.05,-0.12 0.01,-0.04 0.02,-0.09 0.03,-0.14 0.01,-0.05 0.01,-0.1 0.01,-0.15 0,-0.1 -0.02,-0.2 -0.06,-0.28 -0.04,-0.08 -0.09,-0.15 -0.17,-0.22 -0.08,-0.06 -0.17,-0.11 -0.28,-0.14 -0.11,-0.03 -0.24,-0.05 -0.38,-0.05l-0.23 0 0 1.38 0.41 0zm3.89 -0.44c0.04,0.06 0.07,0.12 0.1,0.16 0.03,0.05 0.06,0.09 0.08,0.12 0.02,0.03 0.05,0.06 0.06,0.09 0.02,0.02 0.03,0.04 0.05,0.06 0.01,0.02 0.03,0.03 0.04,0.04 0.01,0.01 0.01,0.01 0.02,0.01l0.04 0.01 0 0.13 -0.94 0 0 -0.11 0.02 -0.02c0,-0.01 0,-0.02 -0,-0.03 -0,-0.01 -0.01,-0.03 -0.01,-0.05 -0.01,-0.03 -0.02,-0.05 -0.03,-0.08 -0.01,-0.03 -0.03,-0.07 -0.05,-0.11 -0.02,-0.05 -0.05,-0.1 -0.08,-0.15l-0.34 -0.56 -0.42 0 0 0.53c0,0.06 0,0.11 0,0.15 0,0.04 0,0.08 0.01,0.12 0,0.03 0.01,0.06 0.01,0.09 0,0.02 0.01,0.04 0.01,0.06 0.01,0.02 0.01,0.03 0.01,0.04 0,0.01 0.01,0.02 0.01,0.02l0.01 0.02 0 0.1 -0.85 0 0 -0.1 0.01 -0.01 0.01 -0.02 0.02 -0.05c0,-0.01 0.01,-0.03 0.01,-0.05 0,-0.02 0.01,-0.05 0.01,-0.09 0,-0.03 0.01,-0.07 0.01,-0.11 0,-0.04 0,-0.09 0,-0.15l0 -1.71c0,-0.11 -0,-0.2 -0.01,-0.27 -0,-0.03 -0.01,-0.06 -0.01,-0.09 -0,-0.02 -0.01,-0.04 -0.01,-0.05l-0.02 -0.05 -0.01 -0.02 -0.01 -0.01 0 -0.1c0.41,-0 0.86,0.01 1.27,-0.01 0.11,0 0.21,0.01 0.31,0.02 0.1,0.01 0.19,0.03 0.27,0.05 0.08,0.02 0.16,0.05 0.22,0.08 0.07,0.03 0.13,0.07 0.18,0.11 0.05,0.04 0.1,0.08 0.14,0.13 0.04,0.05 0.07,0.1 0.1,0.15 0.03,0.05 0.04,0.11 0.06,0.17 0.01,0.06 0.02,0.12 0.02,0.18 0,0.09 -0.02,0.18 -0.05,0.26 -0.03,0.08 -0.08,0.16 -0.15,0.23 -0.11,0.13 -0.27,0.22 -0.46,0.29l0.36 0.6zm-0.53 0.49c0,-0 0,-0 0,0zm-0.78 -1.17c0.09,0 0.17,-0 0.24,-0.01 0.07,-0.01 0.13,-0.02 0.19,-0.04 0.06,-0.02 0.11,-0.04 0.15,-0.07 0.04,-0.02 0.08,-0.05 0.12,-0.08 0.03,-0.03 0.06,-0.07 0.08,-0.1 0.02,-0.04 0.04,-0.08 0.06,-0.12 0.03,-0.09 0.04,-0.18 0.04,-0.29 0,-0.05 -0,-0.1 -0.01,-0.15 -0.01,-0.05 -0.02,-0.09 -0.03,-0.14 -0.01,-0.04 -0.03,-0.08 -0.05,-0.12 -0.02,-0.04 -0.04,-0.07 -0.07,-0.1 -0.03,-0.03 -0.06,-0.06 -0.09,-0.08 -0.04,-0.02 -0.08,-0.05 -0.12,-0.06 -0.04,-0.02 -0.09,-0.03 -0.15,-0.04 -0.06,-0.01 -0.12,-0.01 -0.18,-0.01l-0.31 0 -0.02 0.09c-0.01,0.03 -0.01,0.08 -0.01,0.13 -0,0.05 -0,0.12 -0,0.2l0 1 0.17 0zm2.7 1.29l-0.79 0 0 -0.1 0.01 -0.01 0.01 -0.02 0.02 -0.05c0,-0.01 0.01,-0.03 0.01,-0.05 0,-0.02 0.01,-0.05 0.01,-0.09 0,-0.03 0.01,-0.07 0.01,-0.11 0,-0.04 0,-0.09 0,-0.15l0 -1.71c0,-0.11 -0,-0.2 -0.01,-0.27 -0,-0.03 -0.01,-0.06 -0.01,-0.09 -0,-0.02 -0.01,-0.04 -0.01,-0.06 -0.01,-0.02 -0.01,-0.03 -0.01,-0.04l-0.01 -0.01 -0.01 -0.02 0 -0.11 0.85 0 0 0.11 -0.02 0.02c-0.01,0.01 -0.01,0.02 -0.02,0.05 -0,0.01 -0.01,0.03 -0.01,0.05 -0,0.02 -0.01,0.05 -0.01,0.09 -0,0.04 -0.01,0.07 -0.01,0.12 -0,0.04 -0,0.09 -0,0.15l0 1.71c0,0.06 0,0.11 0,0.15 0,0.04 0,0.08 0.01,0.12 0,0.03 0.01,0.06 0.01,0.09 0,0.02 0.01,0.04 0.01,0.05 0.01,0.03 0.02,0.05 0.03,0.06l0.01 0.02 0 0.1 -0.06 0zm2.77 -2.88l0.08 0 0 0.72 -0.11 0 -0.02 -0.03c-0.02,-0.04 -0.05,-0.07 -0.08,-0.11 -0.03,-0.04 -0.06,-0.07 -0.1,-0.1 -0.03,-0.03 -0.07,-0.06 -0.11,-0.08 -0.04,-0.03 -0.09,-0.06 -0.15,-0.08 -0.05,-0.03 -0.11,-0.05 -0.18,-0.07 -0.05,-0.02 -0.11,-0.03 -0.17,-0.04l-0 0c-0,0.02 -0.01,0.05 -0.01,0.09 -0.01,0.07 -0.01,0.17 -0.01,0.3l0 1.71c0,0.06 0,0.11 0,0.15 0,0.04 0,0.08 0.01,0.12 0,0.03 0.01,0.06 0.01,0.09 0,0.02 0.01,0.04 0.01,0.05 0.01,0.03 0.02,0.05 0.03,0.06l0.01 0.02 0 0.1 -0.85 0 0 -0.1 0.01 -0.01 0.01 -0.02 0.02 -0.04c0,-0.01 0.01,-0.03 0.01,-0.06 0,-0.02 0.01,-0.05 0.01,-0.09 0,-0.03 0.01,-0.07 0.01,-0.11 0,-0.04 0,-0.09 0,-0.15l0 -1.71c0,-0.13 -0,-0.23 -0.01,-0.3 -0,-0.03 -0.01,-0.06 -0.01,-0.08l-0 -0c-0.06,0.01 -0.12,0.02 -0.17,0.04 -0.07,0.02 -0.12,0.04 -0.18,0.07 -0.05,0.03 -0.1,0.06 -0.14,0.08 -0.04,0.03 -0.08,0.06 -0.11,0.08l-0 0c-0.04,0.03 -0.07,0.07 -0.1,0.1 -0.03,0.03 -0.05,0.07 -0.07,0.1l-0.02 0.03 -0.12 0 0 -0.72 2.51 0zm-8.45 6.9l-0.79 0 0 -0.1 0.01 -0.01 0.01 -0.02 0.02 -0.05c0,-0.01 0.01,-0.03 0.01,-0.05 0,-0.02 0.01,-0.05 0.01,-0.09 0,-0.03 0.01,-0.07 0.01,-0.11 0,-0.04 0,-0.09 0,-0.15l0 -1.71c0,-0.11 -0,-0.2 -0.01,-0.27 -0,-0.03 -0.01,-0.06 -0.01,-0.09 -0,-0.02 -0.01,-0.04 -0.01,-0.05l-0.02 -0.05 -0.01 -0.02 -0.01 -0.01 0 -0.1c0.78,-0 1.57,-0 2.35,-0l0 0.07 -0.22 0.64 -0.12 0 -0.01 -0.05c-0.02,-0.09 -0.06,-0.17 -0.12,-0.24 -0.03,-0.03 -0.07,-0.06 -0.11,-0.09 -0.02,-0.01 -0.04,-0.03 -0.07,-0.04 -0.03,-0.01 -0.05,-0.03 -0.08,-0.04 -0.03,-0.01 -0.06,-0.02 -0.1,-0.03 -0.04,-0.01 -0.08,-0.02 -0.12,-0.03 -0.04,-0.01 -0.09,-0.01 -0.14,-0.02 -0.05,-0 -0.1,-0.01 -0.16,-0.01l-0.29 0 -0.02 0.09c-0.01,0.03 -0.01,0.08 -0.01,0.13 -0,0.05 -0,0.12 -0,0.2l0 0.81 0.65 0c0.05,0 0.1,-0 0.14,-0.01 0.04,-0.01 0.08,-0.02 0.1,-0.03 0.03,-0.01 0.06,-0.03 0.08,-0.04 0.02,-0.01 0.04,-0.03 0.05,-0.04 0.02,-0.02 0.03,-0.04 0.04,-0.06 0.01,-0.02 0.02,-0.04 0.03,-0.07l0.01 -0.04 0.13 0 0 0.76 -0.13 0 -0.01 -0.04c-0.01,-0.02 -0.01,-0.04 -0.03,-0.06 -0.01,-0.02 -0.03,-0.04 -0.04,-0.06 -0.01,-0.01 -0.03,-0.03 -0.05,-0.04 -0.02,-0.01 -0.05,-0.03 -0.08,-0.04 -0.03,-0.01 -0.06,-0.02 -0.1,-0.03 -0.04,-0.01 -0.09,-0.01 -0.14,-0.01l-0.65 0 0 0.72c0,0.06 0,0.11 0,0.15 0,0.04 0,0.08 0.01,0.12 0,0.03 0.01,0.06 0.01,0.09 0,0.02 0.01,0.04 0.01,0.05 0.01,0.03 0.02,0.05 0.03,0.06l0.01 0.02 0 0.1 -0.06 0zm2.55 0l-0.79 0 0 -0.1 0.01 -0.01 0.01 -0.02 0.02 -0.05c0,-0.01 0.01,-0.03 0.01,-0.05 0,-0.02 0.01,-0.05 0.01,-0.09 0,-0.03 0.01,-0.07 0.01,-0.11 0,-0.04 0,-0.09 0,-0.15l0 -1.71c0,-0.11 -0,-0.2 -0.01,-0.27 -0,-0.03 -0.01,-0.06 -0.01,-0.09 -0,-0.02 -0.01,-0.04 -0.01,-0.06 -0.01,-0.02 -0.01,-0.03 -0.01,-0.04l-0.01 -0.02 -0.01 -0.02 0 -0.11 0.85 0 0 0.11 -0.02 0.02c-0.01,0.01 -0.01,0.02 -0.02,0.05 -0,0.01 -0.01,0.03 -0.01,0.05 -0,0.02 -0.01,0.05 -0.01,0.09 -0,0.04 -0.01,0.07 -0.01,0.12 -0,0.04 -0,0.09 -0,0.15l0 1.71c0,0.06 0,0.11 0,0.15 0,0.04 0,0.08 0.01,0.12 0,0.03 0.01,0.06 0.01,0.09 0,0.02 0.01,0.04 0.01,0.05 0.01,0.03 0.02,0.05 0.03,0.06l0.01 0.02 0 0.1 -0.06 0zm0.96 0l-0.7 0 0 -0.13 0.04 -0.01c0.02,-0.01 0.04,-0.01 0.06,-0.03 0.02,-0.01 0.04,-0.03 0.06,-0.04 0.01,-0.01 0.03,-0.03 0.04,-0.05 0.01,-0.02 0.03,-0.05 0.04,-0.08 0.01,-0.03 0.02,-0.06 0.03,-0.1 0.01,-0.04 0.01,-0.09 0.01,-0.14l0 -1.71c0,-0.11 -0.01,-0.19 -0.04,-0.25 -0.01,-0.03 -0.03,-0.06 -0.04,-0.08 -0.01,-0.02 -0.03,-0.04 -0.04,-0.05 -0.02,-0.02 -0.04,-0.03 -0.06,-0.04 -0.02,-0.01 -0.04,-0.02 -0.06,-0.02l-0.05 -0.01 0 -0.13 0.95 0 1.47 1.79 0 -1.2c0,-0.11 -0.01,-0.19 -0.04,-0.25 -0.01,-0.03 -0.03,-0.06 -0.04,-0.08 -0.01,-0.02 -0.03,-0.04 -0.04,-0.05 -0.02,-0.02 -0.04,-0.03 -0.06,-0.04 -0.02,-0.01 -0.04,-0.02 -0.06,-0.02l-0.05 -0.01 0 -0.13 0.76 0 0 0.13 -0.05 0.01c-0.02,0 -0.05,0.01 -0.06,0.02 -0.02,0.01 -0.04,0.02 -0.06,0.04 -0.01,0.01 -0.03,0.03 -0.04,0.05 -0.01,0.02 -0.03,0.05 -0.04,0.08 -0.01,0.03 -0.02,0.07 -0.03,0.11 -0.01,0.04 -0.01,0.09 -0.01,0.14l0 2.36 -0.14 0 -1.98 -2.44 -0 0.02c-0,0.02 -0,0.04 -0,0.06l0 1.71c0,0.05 0,0.1 0.01,0.14 0.01,0.04 0.02,0.08 0.03,0.1 0.01,0.03 0.03,0.06 0.04,0.08 0.01,0.02 0.03,0.04 0.04,0.05 0.02,0.02 0.04,0.03 0.06,0.04 0.02,0.01 0.04,0.02 0.07,0.03l0.04 0.01 0 0.13 -0.06 0zm4.86 -2.88l0.08 0 0 0.72 -0.11 0 -0.02 -0.03c-0.02,-0.04 -0.05,-0.07 -0.08,-0.11 -0.03,-0.04 -0.06,-0.07 -0.1,-0.1 -0.03,-0.03 -0.07,-0.06 -0.11,-0.08 -0.04,-0.03 -0.09,-0.06 -0.15,-0.08 -0.05,-0.03 -0.11,-0.05 -0.18,-0.07 -0.05,-0.02 -0.11,-0.03 -0.17,-0.04l-0 0c-0,0.02 -0.01,0.05 -0.01,0.09 -0.01,0.07 -0.01,0.17 -0.01,0.3l0 1.71c0,0.06 0,0.11 0,0.15 0,0.04 0,0.08 0.01,0.12 0,0.03 0.01,0.06 0.01,0.08 0,0.02 0.01,0.04 0.01,0.05 0.01,0.03 0.02,0.05 0.03,0.06l0.01 0.02 0 0.1 -0.85 0 0 -0.1 0.01 -0.01 0.01 -0.02 0.01 -0.04c0,-0.01 0.01,-0.03 0.01,-0.06 0,-0.02 0.01,-0.05 0.01,-0.09 0,-0.03 0.01,-0.07 0.01,-0.11 0,-0.04 0,-0.09 0,-0.15l0 -1.71c0,-0.13 -0,-0.23 -0.01,-0.3 -0,-0.03 -0.01,-0.06 -0.01,-0.08l-0 -0c-0.06,0.01 -0.12,0.02 -0.17,0.04 -0.07,0.02 -0.12,0.04 -0.18,0.07 -0.05,0.03 -0.1,0.06 -0.14,0.08 -0.04,0.03 -0.08,0.06 -0.11,0.08l-0 0c-0.04,0.03 -0.07,0.07 -0.1,0.1 -0.03,0.03 -0.05,0.07 -0.07,0.1l-0.02 0.03 -0.12 0 0 -0.72 2.51 0zm2.64 2.88l-2.35 0 0 -0.1 0.01 -0.01 0.01 -0.02 0.02 -0.05c0,-0.01 0.01,-0.03 0.01,-0.05 0,-0.02 0.01,-0.05 0.01,-0.09 0,-0.03 0.01,-0.07 0.01,-0.11 0,-0.04 0,-0.09 0,-0.15l0 -1.71c0,-0.11 -0,-0.2 -0.01,-0.27 -0,-0.03 -0.01,-0.06 -0.01,-0.09 -0,-0.02 -0.01,-0.04 -0.01,-0.05l-0.02 -0.05 -0.01 -0.02 -0.01 -0.01 0 -0.1 2.38 0 -0.25 0.71 -0.11 0 -0.01 -0.05c-0.02,-0.09 -0.06,-0.17 -0.12,-0.24 -0.03,-0.03 -0.07,-0.06 -0.11,-0.09 -0.02,-0.01 -0.04,-0.03 -0.07,-0.04 -0.03,-0.01 -0.05,-0.03 -0.08,-0.04 -0.03,-0.01 -0.06,-0.02 -0.1,-0.03 -0.04,-0.01 -0.08,-0.02 -0.12,-0.03 -0.04,-0.01 -0.09,-0.01 -0.14,-0.02 -0.05,-0 -0.1,-0.01 -0.16,-0.01l-0.33 0 0 1.23 0.65 0c0.05,0 0.1,-0 0.14,-0.01 0.04,-0.01 0.08,-0.02 0.1,-0.03 0.03,-0.01 0.06,-0.03 0.08,-0.04 0.02,-0.01 0.04,-0.03 0.05,-0.04 0.02,-0.02 0.03,-0.04 0.04,-0.06 0.01,-0.02 0.02,-0.04 0.03,-0.07l0.01 -0.04 0.13 0 0 0.76 -0.13 0 -0.01 -0.04c-0.01,-0.02 -0.02,-0.04 -0.03,-0.07 -0.01,-0.02 -0.03,-0.04 -0.04,-0.06 -0.01,-0.01 -0.03,-0.03 -0.05,-0.04 -0.02,-0.01 -0.05,-0.03 -0.08,-0.04 -0.03,-0.01 -0.06,-0.02 -0.1,-0.03 -0.04,-0.01 -0.09,-0.01 -0.14,-0.01l-0.65 0 0 1.13 0.41 0c0.22,0 0.39,-0.03 0.51,-0.08 0.06,-0.03 0.11,-0.05 0.16,-0.08 0.04,-0.03 0.08,-0.06 0.11,-0.09l0 -0c0.07,-0.07 0.11,-0.15 0.12,-0.24l0.01 -0.05 0.11 0 0.25 0.71 -0.1 0zm3.02 -1.06c-0.05,0.15 -0.11,0.28 -0.17,0.4 -0.07,0.12 -0.15,0.22 -0.24,0.3 -0.09,0.08 -0.18,0.15 -0.28,0.21 -0.1,0.06 -0.2,0.1 -0.31,0.13 -0.11,0.03 -0.22,0.05 -0.33,0.05 -0.11,0 -0.22,-0.01 -0.33,-0.03 -0.11,-0.02 -0.22,-0.05 -0.32,-0.1 -0.1,-0.04 -0.2,-0.1 -0.29,-0.16 -0.18,-0.13 -0.33,-0.3 -0.45,-0.5 -0.06,-0.1 -0.1,-0.21 -0.13,-0.33 -0.03,-0.12 -0.04,-0.24 -0.04,-0.37 0,-0.11 0.01,-0.21 0.03,-0.32 0.02,-0.1 0.04,-0.2 0.08,-0.29 0.04,-0.09 0.08,-0.18 0.13,-0.25 0.05,-0.08 0.11,-0.15 0.18,-0.22 0.07,-0.07 0.14,-0.12 0.22,-0.17 0.08,-0.05 0.17,-0.09 0.26,-0.13 0.09,-0.03 0.19,-0.06 0.29,-0.08 0.1,-0.02 0.21,-0.03 0.32,-0.03 0.06,0 0.13,0 0.19,0.01 0.06,0.01 0.12,0.02 0.18,0.03 0.06,0.01 0.12,0.03 0.17,0.05 0.06,0.02 0.11,0.04 0.16,0.06 0.05,0.02 0.1,0.05 0.15,0.07 0.05,0.03 0.09,0.06 0.13,0.09 0.04,0.03 0.08,0.06 0.11,0.1 0.03,0.03 0.06,0.07 0.08,0.1 0.03,0.03 0.05,0.07 0.06,0.11 0.01,0.04 0.02,0.08 0.02,0.13l-0 0.01c-0,0.05 -0.01,0.1 -0.03,0.14 -0.02,0.04 -0.05,0.08 -0.08,0.12 -0.04,0.04 -0.08,0.06 -0.12,0.08 -0.04,0.02 -0.09,0.03 -0.14,0.03 -0.05,0 -0.1,-0.01 -0.14,-0.03 -0.04,-0.02 -0.09,-0.05 -0.12,-0.08 -0.04,-0.04 -0.07,-0.08 -0.09,-0.12 -0.02,-0.05 -0.03,-0.1 -0.03,-0.15 0,-0.03 -0,-0.07 -0.01,-0.1 -0,-0.03 -0.01,-0.07 -0.02,-0.1 -0.01,-0.03 -0.02,-0.07 -0.03,-0.1 -0.01,-0.03 -0.03,-0.06 -0.05,-0.09 -0.02,-0.03 -0.04,-0.05 -0.06,-0.07 -0.03,-0.02 -0.05,-0.04 -0.09,-0.06 -0.03,-0.02 -0.07,-0.03 -0.11,-0.04 -0.04,-0.01 -0.09,-0.01 -0.14,-0.01 -0.1,0 -0.2,0.03 -0.28,0.09 -0.04,0.03 -0.08,0.07 -0.12,0.11 -0.04,0.04 -0.07,0.09 -0.11,0.15 -0.03,0.06 -0.06,0.12 -0.09,0.19 -0.03,0.07 -0.05,0.14 -0.07,0.22 -0.02,0.08 -0.03,0.17 -0.04,0.26 -0.01,0.09 -0.01,0.19 -0.01,0.29 0,0.1 0.01,0.2 0.03,0.29 0.02,0.09 0.05,0.17 0.09,0.24 0.04,0.07 0.09,0.14 0.14,0.2 0.05,0.06 0.11,0.11 0.17,0.15 0.06,0.04 0.13,0.08 0.2,0.11 0.07,0.03 0.14,0.05 0.22,0.06 0.08,0.01 0.15,0.02 0.23,0.01 0.07,-0 0.15,-0.02 0.22,-0.04 0.07,-0.02 0.14,-0.05 0.21,-0.09 0.07,-0.04 0.13,-0.09 0.19,-0.14 0.06,-0.05 0.12,-0.12 0.16,-0.19 0.05,-0.07 0.09,-0.16 0.12,-0.25l0.02 -0.06 0.17 0.06 -0.02 0.05zm1 1.06l-0.79 0 0 -0.1 0.01 -0.01 0.01 -0.02 0.02 -0.05c0,-0.01 0.01,-0.03 0.01,-0.05 0,-0.02 0.01,-0.05 0.01,-0.09 0,-0.03 0.01,-0.07 0.01,-0.11 0,-0.04 0,-0.09 0,-0.15l0 -1.71c0,-0.11 -0,-0.2 -0.01,-0.27 -0,-0.03 -0.01,-0.06 -0.01,-0.09 -0,-0.02 -0.01,-0.04 -0.01,-0.06 -0.01,-0.02 -0.01,-0.03 -0.01,-0.04l-0.01 -0.02 -0.01 -0.02 0 -0.11 0.85 0 0 0.11 -0.02 0.02c-0.01,0.01 -0.01,0.02 -0.02,0.05 -0,0.01 -0.01,0.03 -0.01,0.05 -0,0.02 -0.01,0.05 -0.01,0.09 -0,0.04 -0.01,0.07 -0.01,0.12 -0,0.04 -0,0.09 -0,0.15l0 0.61 1.17 0 0 -0.61c0,-0.06 -0,-0.11 -0,-0.15 -0,-0.04 -0,-0.08 -0.01,-0.12 -0,-0.03 -0.01,-0.06 -0.01,-0.09 -0,-0.02 -0.01,-0.04 -0.01,-0.06l-0.02 -0.04 -0.01 -0.02 -0.01 -0.02 0 -0.11 0.85 0 0 0.11 -0.02 0.02 -0.01 0.01c-0,0.01 -0.01,0.02 -0.01,0.04 -0,0.01 -0.01,0.03 -0.01,0.06 -0,0.02 -0.01,0.05 -0.01,0.09 -0,0.04 -0.01,0.07 -0.01,0.12 -0,0.04 -0,0.09 -0,0.15l0 1.71c0,0.06 0,0.11 0,0.15 0,0.04 0,0.08 0.01,0.12 0,0.03 0.01,0.06 0.01,0.08 0,0.02 0.01,0.04 0.01,0.06 0,0.02 0.01,0.03 0.01,0.04 0,0.01 0.01,0.01 0.01,0.02l0.01 0.02 0 0.1 -0.85 0 0 -0.1 0.01 -0.01 0.01 -0.02 0.01 -0.04c0,-0.02 0.01,-0.03 0.01,-0.06 0,-0.02 0.01,-0.05 0.01,-0.09 0,-0.03 0.01,-0.07 0.01,-0.11 0,-0.04 0,-0.09 0,-0.15l0 -0.93 -1.17 0 0 0.93c0,0.06 0,0.11 0,0.15 0,0.04 0,0.08 0.01,0.12 0,0.03 0.01,0.06 0.01,0.09 0,0.02 0.01,0.04 0.01,0.05 0.01,0.03 0.02,0.05 0.03,0.06l0.01 0.02 0 0.1 -0.06 0zm-13.53 2.95c0.05,0.12 0.09,0.23 0.14,0.33 0.04,0.09 0.08,0.17 0.11,0.23 0.03,0.06 0.06,0.12 0.09,0.17 0.03,0.05 0.05,0.08 0.07,0.11 0.02,0.03 0.04,0.06 0.06,0.07 0.01,0.01 0.02,0.02 0.02,0.02l0.05 0.01 0 0.13 -0.95 0 0 -0.12 0.03 -0.01 0 -0.02c0,-0.01 -0,-0.03 -0.01,-0.05 -0,-0.02 -0.01,-0.05 -0.02,-0.08 -0.01,-0.03 -0.02,-0.07 -0.04,-0.12 -0.02,-0.05 -0.04,-0.1 -0.07,-0.16l-0.15 -0.36 -0.83 0 -0.13 0.36c-0.04,0.11 -0.05,0.19 -0.05,0.24 0,0.03 0.01,0.05 0.02,0.08 0.01,0.02 0.01,0.03 0.02,0.05 0.01,0.01 0.02,0.03 0.04,0.04 0.01,0.01 0.03,0.02 0.05,0.02l0.04 0.01 0 0.12 -0.77 0 0 -0.13 0.05 -0.01c0.03,-0.01 0.05,-0.02 0.08,-0.03 0.03,-0.01 0.05,-0.03 0.08,-0.04l0 -0c0.02,-0.01 0.05,-0.03 0.07,-0.06 0.02,-0.02 0.05,-0.05 0.07,-0.08 0.02,-0.03 0.05,-0.07 0.07,-0.11 0.02,-0.04 0.04,-0.09 0.06,-0.15l0.07 -0.18 0.77 -2.2 0.19 0 0.77 1.92zm-0.75 -0.05l-0.37 -0.88 -0.31 0.88 0.68 0zm3.88 -1.74l0.73 0 -0.05 0.13 -0.03 0.01c-0.03,0.01 -0.05,0.02 -0.08,0.03 -0.03,0.01 -0.05,0.03 -0.07,0.04l-0 0c-0.02,0.01 -0.04,0.03 -0.06,0.06 -0.02,0.02 -0.05,0.05 -0.07,0.08 -0.02,0.03 -0.04,0.07 -0.06,0.11l-0.02 0.05 -0.73 2.39 -0.21 0 -0.75 -1.94 -0.59 1.94 -0.21 0c-0.14,-0.36 -0.76,-2.12 -0.89,-2.31 -0.02,-0.06 -0.04,-0.11 -0.06,-0.15 -0.02,-0.05 -0.04,-0.08 -0.05,-0.12 -0.02,-0.03 -0.03,-0.06 -0.04,-0.09 -0.01,-0.02 -0.02,-0.04 -0.04,-0.06l-0 -0c-0.01,-0.02 -0.02,-0.03 -0.03,-0.04 -0.01,-0.01 -0.01,-0.01 -0.02,-0.02l-0.03 -0.02 0 -0.12 0.87 0 -0.02 0.11 -0.01 0.01 0 0c-0,0.01 0,0.02 0,0.04l0.01 0.06 0.02 0.09c0.01,0.03 0.02,0.07 0.04,0.12 0.02,0.05 0.03,0.1 0.06,0.15l0.52 1.38 0.37 -1.23 -0.04 -0.11c-0.02,-0.06 -0.04,-0.11 -0.06,-0.15 -0.02,-0.05 -0.04,-0.08 -0.05,-0.12 -0.02,-0.03 -0.03,-0.06 -0.04,-0.09 -0.01,-0.02 -0.03,-0.04 -0.04,-0.06l-0 -0c-0.01,-0.02 -0.02,-0.03 -0.03,-0.04 -0.01,-0.01 -0.01,-0.02 -0.02,-0.02l-0.03 -0.02 0 -0.12 0.86 0 0 0.11 -0.01 0.01 0 0c-0,0.01 0,0.02 0,0.04l0.01 0.06 0.02 0.09c0.01,0.03 0.02,0.07 0.04,0.12 0.01,0.04 0.03,0.1 0.05,0.15l0.51 1.38 0.4 -1.36c0.02,-0.05 0.03,-0.1 0.03,-0.14 0,-0.04 0.01,-0.07 0,-0.1 -0,-0.03 -0.01,-0.05 -0.02,-0.08 -0.01,-0.02 -0.02,-0.03 -0.02,-0.05 -0.01,-0.02 -0.03,-0.03 -0.04,-0.04 -0.02,-0.01 -0.03,-0.02 -0.05,-0.02l-0.06 -0.02 0.05 -0.12 0.04 0zm-2.52 0.09l-0 0c-0,0 0,-0 0,-0l-0 -0zm1.55 0l-0 0c-0,0 0,-0 0,-0l-0 -0zm3.18 1.7c0.05,0.12 0.09,0.23 0.14,0.33 0.04,0.09 0.08,0.17 0.11,0.23 0.03,0.06 0.06,0.12 0.09,0.17 0.03,0.05 0.05,0.08 0.07,0.11 0.02,0.03 0.04,0.06 0.06,0.07 0.01,0.01 0.02,0.02 0.02,0.02l0.05 0.01 0 0.13 -0.95 0 0 -0.12 0.03 -0.01 0 -0.02c0,-0.01 -0,-0.03 -0.01,-0.05 -0,-0.02 -0.01,-0.05 -0.02,-0.08 -0.01,-0.03 -0.02,-0.07 -0.04,-0.12 -0.02,-0.05 -0.04,-0.1 -0.07,-0.16l-0.15 -0.36 -0.83 0 -0.13 0.36c-0.04,0.11 -0.05,0.19 -0.05,0.24 0,0.03 0.01,0.05 0.02,0.08 0.01,0.02 0.01,0.03 0.02,0.05 0.01,0.01 0.02,0.03 0.04,0.04 0.01,0.01 0.03,0.02 0.05,0.02l0.04 0.01 0 0.12 -0.77 0 0 -0.13 0.05 -0.01c0.03,-0.01 0.05,-0.02 0.08,-0.03 0.03,-0.01 0.05,-0.03 0.08,-0.04l0 -0c0.02,-0.01 0.05,-0.03 0.07,-0.06 0.02,-0.02 0.05,-0.05 0.07,-0.08 0.02,-0.03 0.05,-0.07 0.07,-0.11 0.02,-0.04 0.04,-0.09 0.06,-0.15l0.07 -0.18 0.77 -2.2 0.19 0 0.77 1.92zm-0.75 -0.05l-0.37 -0.88 -0.31 0.88 0.68 0zm3.76 0.5c0.04,0.06 0.07,0.12 0.1,0.17 0.03,0.05 0.06,0.09 0.08,0.12 0.02,0.03 0.05,0.06 0.06,0.09 0.02,0.02 0.03,0.04 0.05,0.06 0.01,0.02 0.03,0.03 0.04,0.04 0.01,0.01 0.01,0.01 0.02,0.01l0.04 0.01 0 0.12 -0.94 0 0 -0.11 0.02 -0.02c0,-0.01 0,-0.02 -0,-0.03 -0,-0.01 -0.01,-0.03 -0.01,-0.05 -0.01,-0.03 -0.02,-0.05 -0.03,-0.08 -0.01,-0.03 -0.03,-0.07 -0.05,-0.11 -0.02,-0.05 -0.05,-0.1 -0.08,-0.15l-0.34 -0.56 -0.42 0 0 0.53c0,0.06 0,0.11 0,0.15 0,0.04 0,0.08 0.01,0.12 0,0.03 0.01,0.06 0.01,0.09 0,0.02 0.01,0.04 0.01,0.06 0.01,0.02 0.01,0.03 0.01,0.04 0,0.01 0.01,0.02 0.01,0.02l0.01 0.02 0 0.1 -0.85 0 0 -0.1 0.01 -0.01 0.01 -0.02 0.02 -0.05c0,-0.01 0.01,-0.03 0.01,-0.05 0,-0.02 0.01,-0.05 0.01,-0.09 0,-0.03 0.01,-0.07 0.01,-0.11 0,-0.04 0,-0.09 0,-0.15l0 -1.71c0,-0.11 -0,-0.2 -0.01,-0.27 -0,-0.03 -0.01,-0.06 -0.01,-0.09 -0,-0.02 -0.01,-0.04 -0.01,-0.05l-0.02 -0.05 -0.01 -0.02 -0.01 -0.01 0 -0.1c0.41,-0 0.86,0.01 1.27,-0.01 0.11,0 0.21,0.01 0.31,0.02 0.1,0.01 0.19,0.03 0.27,0.05 0.08,0.02 0.16,0.05 0.22,0.08 0.07,0.03 0.13,0.07 0.18,0.11 0.05,0.04 0.1,0.08 0.14,0.13 0.04,0.05 0.07,0.1 0.1,0.15 0.03,0.05 0.04,0.11 0.06,0.17 0.01,0.06 0.02,0.12 0.02,0.18 0,0.09 -0.02,0.18 -0.05,0.26 -0.03,0.08 -0.08,0.16 -0.15,0.23 -0.11,0.13 -0.27,0.22 -0.46,0.29l0.36 0.6zm-0.53 0.49c0,-0 0,-0 0,0zm-0.78 -1.17c0.09,0 0.17,-0 0.24,-0.01 0.07,-0.01 0.13,-0.02 0.19,-0.04 0.06,-0.02 0.11,-0.04 0.15,-0.07 0.04,-0.02 0.08,-0.05 0.12,-0.08 0.03,-0.03 0.06,-0.07 0.09,-0.1 0.02,-0.04 0.04,-0.08 0.06,-0.12 0.03,-0.09 0.04,-0.18 0.04,-0.29 0,-0.05 -0,-0.1 -0.01,-0.15 -0.01,-0.05 -0.02,-0.09 -0.03,-0.14 -0.01,-0.04 -0.03,-0.08 -0.05,-0.12 -0.02,-0.04 -0.04,-0.07 -0.07,-0.1 -0.03,-0.03 -0.06,-0.06 -0.09,-0.08 -0.04,-0.02 -0.08,-0.05 -0.12,-0.06 -0.04,-0.02 -0.09,-0.03 -0.15,-0.04 -0.06,-0.01 -0.12,-0.01 -0.18,-0.01l-0.31 0 -0.02 0.09c-0.01,0.03 -0.01,0.08 -0.01,0.13 -0,0.05 -0,0.12 -0,0.2l0 1 0.17 0zm2.63 1.29l-0.72 0 0 -0.1 0.01 -0.01 0.01 -0.02 0.02 -0.05c0,-0.01 0.01,-0.03 0.01,-0.05 0,-0.02 0.01,-0.05 0.01,-0.09 0,-0.03 0.01,-0.07 0.01,-0.11 0,-0.04 0,-0.09 0,-0.15l0 -1.71c0,-0.11 -0,-0.2 -0.01,-0.27 -0,-0.03 -0.01,-0.06 -0.01,-0.09 -0,-0.02 -0.01,-0.04 -0.01,-0.06 -0.01,-0.02 -0.01,-0.03 -0.02,-0.04l-0.01 -0.02 -0.01 -0.02 0 -0.11 0.93 0c0.26,0 0.49,0.04 0.69,0.12 0.1,0.04 0.19,0.09 0.27,0.14 0.08,0.05 0.16,0.12 0.22,0.18 0.06,0.07 0.12,0.14 0.17,0.22 0.05,0.08 0.09,0.16 0.12,0.25 0.03,0.09 0.06,0.17 0.07,0.26 0.02,0.09 0.02,0.18 0.02,0.27 0,0.09 -0.01,0.18 -0.02,0.26 -0.01,0.09 -0.04,0.17 -0.06,0.26 -0.03,0.09 -0.07,0.17 -0.11,0.24 -0.05,0.08 -0.1,0.15 -0.16,0.22 -0.06,0.07 -0.13,0.13 -0.21,0.18 -0.08,0.06 -0.17,0.1 -0.26,0.14 -0.1,0.04 -0.2,0.07 -0.32,0.09 -0.11,0.02 -0.24,0.03 -0.37,0.03l-0.25 0zm0.06 -0.17c0.09,-0 0.17,-0.01 0.25,-0.03 0.08,-0.02 0.15,-0.04 0.21,-0.08 0.06,-0.04 0.12,-0.08 0.17,-0.12 0.05,-0.05 0.09,-0.1 0.13,-0.16 0.04,-0.06 0.07,-0.12 0.1,-0.19 0.03,-0.07 0.05,-0.14 0.07,-0.22 0.02,-0.08 0.03,-0.16 0.04,-0.24 0.01,-0.08 0.01,-0.16 0.01,-0.24 0,-0.08 -0,-0.16 -0.01,-0.24 -0.01,-0.08 -0.02,-0.16 -0.04,-0.23 -0.02,-0.08 -0.04,-0.15 -0.07,-0.22 -0.03,-0.07 -0.06,-0.13 -0.1,-0.19 -0.04,-0.06 -0.08,-0.11 -0.13,-0.16 -0.05,-0.05 -0.11,-0.09 -0.17,-0.12 -0.06,-0.04 -0.13,-0.06 -0.21,-0.08 -0.08,-0.02 -0.16,-0.03 -0.25,-0.03l0 2.53zm3.23 0.2c-0.09,0 -0.18,-0 -0.26,-0.01 -0.09,-0.01 -0.17,-0.02 -0.24,-0.04 -0.08,-0.02 -0.15,-0.04 -0.22,-0.07 -0.07,-0.03 -0.13,-0.05 -0.19,-0.09 -0.06,-0.03 -0.11,-0.07 -0.16,-0.11 -0.05,-0.04 -0.09,-0.08 -0.12,-0.13 -0.04,-0.05 -0.06,-0.09 -0.08,-0.14 -0.02,-0.05 -0.03,-0.1 -0.03,-0.16l0 -0.01c0,-0.05 0.01,-0.1 0.03,-0.14 0.02,-0.04 0.05,-0.08 0.08,-0.12 0.04,-0.04 0.08,-0.06 0.12,-0.08 0.04,-0.02 0.09,-0.03 0.14,-0.03 0.05,0 0.1,0.01 0.15,0.03 0.05,0.02 0.09,0.05 0.12,0.09 0.04,0.04 0.06,0.08 0.08,0.12 0.02,0.05 0.03,0.09 0.03,0.14 0,0.06 0.01,0.13 0.03,0.19 0.01,0.03 0.03,0.06 0.04,0.09 0.02,0.03 0.04,0.06 0.06,0.08 0.02,0.03 0.05,0.05 0.08,0.07 0.03,0.02 0.06,0.04 0.1,0.06 0.04,0.02 0.08,0.03 0.12,0.04 0.04,0.01 0.09,0.01 0.14,0.01 0.08,0 0.14,-0.02 0.2,-0.05 0.03,-0.02 0.06,-0.04 0.08,-0.06 0.02,-0.02 0.05,-0.05 0.07,-0.07 0.02,-0.03 0.04,-0.05 0.05,-0.08 0.01,-0.03 0.03,-0.06 0.04,-0.09 0.01,-0.03 0.02,-0.06 0.02,-0.09 0,-0.02 0.01,-0.05 0.01,-0.07 0,-0.05 -0.01,-0.1 -0.03,-0.14 -0.02,-0.04 -0.04,-0.08 -0.08,-0.11 -0.04,-0.03 -0.08,-0.07 -0.13,-0.1 -0.05,-0.03 -0.1,-0.06 -0.16,-0.08 -0.06,-0.03 -0.12,-0.05 -0.19,-0.08 -0.07,-0.03 -0.14,-0.05 -0.21,-0.07 -0.07,-0.02 -0.15,-0.05 -0.22,-0.08 -0.07,-0.03 -0.14,-0.06 -0.2,-0.1 -0.07,-0.04 -0.13,-0.08 -0.18,-0.12 -0.05,-0.04 -0.1,-0.09 -0.15,-0.15 -0.05,-0.06 -0.08,-0.12 -0.11,-0.2 -0.02,-0.07 -0.03,-0.15 -0.03,-0.24 0,-0.05 0.01,-0.1 0.02,-0.15 0.01,-0.05 0.03,-0.1 0.06,-0.15 0.02,-0.05 0.06,-0.09 0.09,-0.14 0.04,-0.04 0.08,-0.08 0.13,-0.12 0.05,-0.04 0.1,-0.07 0.16,-0.1 0.06,-0.03 0.12,-0.05 0.19,-0.08 0.14,-0.04 0.29,-0.06 0.47,-0.06 0.18,0 0.34,0.02 0.48,0.05 0.07,0.02 0.13,0.04 0.19,0.06 0.06,0.02 0.11,0.05 0.16,0.08 0.05,0.03 0.09,0.06 0.13,0.1 0.04,0.03 0.07,0.07 0.1,0.11 0.03,0.04 0.05,0.08 0.07,0.12 0.02,0.04 0.03,0.08 0.04,0.12 0.01,0.03 0.02,0.06 0.02,0.1l-0 0.01c-0,0.05 -0.02,0.1 -0.03,0.14 -0.02,0.04 -0.05,0.08 -0.08,0.12 -0.04,0.04 -0.08,0.06 -0.12,0.08 -0.04,0.02 -0.09,0.03 -0.14,0.03 -0.05,0 -0.1,-0.01 -0.15,-0.03 -0.05,-0.02 -0.09,-0.05 -0.12,-0.08 -0.07,-0.07 -0.11,-0.16 -0.11,-0.27 0,-0.03 -0,-0.07 -0,-0.1 -0,-0.03 -0.01,-0.07 -0.01,-0.1 -0.01,-0.03 -0.01,-0.07 -0.02,-0.1 -0.01,-0.03 -0.02,-0.06 -0.04,-0.09 -0.01,-0.03 -0.03,-0.05 -0.05,-0.07 -0.02,-0.02 -0.04,-0.04 -0.07,-0.06 -0.02,-0.02 -0.05,-0.03 -0.08,-0.04 -0.03,-0.01 -0.07,-0.01 -0.11,-0.01 -0.07,0 -0.13,0.01 -0.18,0.03 -0.05,0.02 -0.09,0.05 -0.13,0.09 -0.07,0.08 -0.11,0.19 -0.11,0.32 0,0.07 0.01,0.12 0.03,0.17 0.02,0.05 0.05,0.09 0.08,0.13 0.04,0.04 0.08,0.08 0.13,0.11 0.05,0.03 0.11,0.06 0.17,0.09 0.06,0.03 0.13,0.05 0.2,0.08 0.07,0.02 0.14,0.05 0.21,0.07 0.08,0.02 0.15,0.05 0.22,0.07 0.07,0.03 0.14,0.06 0.2,0.09 0.07,0.03 0.13,0.07 0.18,0.11 0.06,0.04 0.11,0.09 0.15,0.14 0.05,0.06 0.08,0.12 0.11,0.19 0.02,0.07 0.03,0.15 0.03,0.24 0,0.1 -0.03,0.2 -0.08,0.3 -0.03,0.05 -0.06,0.1 -0.1,0.14 -0.04,0.05 -0.09,0.09 -0.14,0.13 -0.05,0.04 -0.11,0.08 -0.18,0.11 -0.06,0.03 -0.14,0.06 -0.21,0.09 -0.08,0.03 -0.16,0.05 -0.25,0.06 -0.09,0.01 -0.19,0.02 -0.29,0.02zm-14.51 -9.73l0.3 0c0.14,0 0.25,-0.02 0.33,-0.07 0.08,-0.05 0.15,-0.11 0.19,-0.17 0.04,-0.07 0.07,-0.14 0.08,-0.21 0.01,-0.07 0.02,-0.14 0.02,-0.19 0,-0.05 -0.01,-0.1 -0.02,-0.16 -0.01,-0.06 -0.04,-0.12 -0.09,-0.17 -0.05,-0.05 -0.11,-0.09 -0.19,-0.13 -0.08,-0.04 -0.2,-0.05 -0.34,-0.05l-0.29 0 0 1.15zm0.47 1.55c0.14,0 0.26,-0.02 0.36,-0.05 0.1,-0.04 0.18,-0.09 0.24,-0.15 0.06,-0.07 0.1,-0.14 0.13,-0.24 0.03,-0.09 0.04,-0.19 0.04,-0.3 0,-0.22 -0.08,-0.4 -0.24,-0.54 -0.16,-0.14 -0.4,-0.21 -0.7,-0.21l-0.29 0 0 1.49 0.47 0zm3.84 -0.47c0.08,0.13 0.14,0.22 0.19,0.29 0.05,0.07 0.09,0.12 0.12,0.15 0.03,0.04 0.06,0.06 0.08,0.06l0 0.02 -0.82 0 0 -0.02c0.01,-0.01 0.02,-0.04 0.01,-0.08 -0.01,-0.03 -0.02,-0.08 -0.05,-0.15 -0.03,-0.07 -0.07,-0.16 -0.14,-0.27l-0.35 -0.59 -0.52 0 0 0.59c0,0.11 0,0.2 0.01,0.27 0.01,0.07 0.01,0.12 0.02,0.15 0.01,0.04 0.02,0.07 0.03,0.08l0 0.02 -0.73 0 0 -0.02c0.01,-0.01 0.02,-0.04 0.03,-0.08 0.01,-0.03 0.02,-0.08 0.02,-0.15 0.01,-0.07 0.01,-0.16 0.01,-0.27l0 -1.71c0,-0.11 -0,-0.2 -0.01,-0.27 -0.01,-0.07 -0.02,-0.12 -0.02,-0.15 -0.01,-0.04 -0.02,-0.07 -0.03,-0.08l0 -0.02 1.21 -0 0 0 -0 0 0.01 0 0 0 0.01 0 0 0 0.01 0 0 0 0.01 0 0 0 0.01 0 0 0 0.01 0 0 0 0.01 0 0 0 0.01 0 0 0 0.01 0 0 0 0.01 0 0 0 0.01 0 0 0 0.01 0 0 0 0.01 0 0 0 0.01 0 0 0 0.01 0 0 0 0.01 0 0 0 0.01 0 0 0 0.01 0 0 0 0.01 0 0 0 0.01 0 0 0 0.01 0 0 0 0.01 0 0 0 0.01 0 0 0 0.01 0 0 0 0.01 0 0 0 0.01 0 0 0 0.01 0 0 0 0.01 0 0 0 0.01 0 0 0 0.01 0 0 0 0.01 0 0 0 0.01 0 0 0 0.01 0 0 0 0.01 0 0 0 0.01 0 0 0 0.01 0 0 0 0.01 0 0 0 0.01 0 0 0 0.01 0 0 0 0.01 0 0 0 0.01 0 0 0 0.01 0 0 0 0.01 0 0 0 0.01 0 0 0 0.01 0 0 0 0.01 0 0 0 0.01 0 0 0 0.01 0 0 0 0.01 0 0 0 0.01 0 0 0 0.01 0 0 0 0.01 0 0 0 0.01 0 0 0 0.01 0 0 0 0.01 0 0 0 0.01 0 0 0 0.01 0 0 0 0.01 0 0 0 0.01 0 0 0 0.01 0 0 0 0.01 0 0 0 0.01 0 0 0 0.01 0 0 0 0.01 0c0.16,0.04 0.28,0.1 0.38,0.18 0.1,0.08 0.17,0.16 0.22,0.26 0.05,0.1 0.07,0.21 0.07,0.32 0,0.17 -0.06,0.32 -0.18,0.46 -0.12,0.13 -0.29,0.23 -0.5,0.29l0.4 0.66zm-1.26 -0.64c0.18,0 0.32,-0.02 0.44,-0.06 0.12,-0.04 0.22,-0.09 0.29,-0.16 0.07,-0.07 0.13,-0.15 0.16,-0.24 0.03,-0.09 0.05,-0.19 0.05,-0.31 0,-0.11 -0.01,-0.21 -0.04,-0.31 -0.03,-0.09 -0.07,-0.17 -0.13,-0.24 -0.06,-0.07 -0.14,-0.12 -0.23,-0.16 -0.1,-0.04 -0.21,-0.06 -0.35,-0.06l-0.36 0c-0.01,0.02 -0.02,0.07 -0.03,0.14 -0.01,0.07 -0.02,0.18 -0.02,0.33l0 1.06 0.23 0zm2.7 1.17l-0.73 0 0 -0.02c0.01,-0.01 0.02,-0.04 0.03,-0.08 0.01,-0.03 0.02,-0.08 0.02,-0.15 0.01,-0.07 0.01,-0.16 0.01,-0.27l0 -1.71c0,-0.11 -0,-0.21 -0.01,-0.27 -0.01,-0.07 -0.02,-0.12 -0.02,-0.15 -0.01,-0.04 -0.02,-0.06 -0.03,-0.08l0 -0.03 0.73 0 0 0.03c-0.01,0.01 -0.02,0.04 -0.04,0.08 -0.01,0.03 -0.02,0.08 -0.02,0.15 -0.01,0.07 -0.01,0.16 -0.01,0.27l0 1.71c0,0.11 0,0.2 0.01,0.27 0.01,0.07 0.01,0.12 0.02,0.15 0.01,0.04 0.02,0.07 0.04,0.08l0 0.02zm2.77 -2.76l0.02 0 0 0.6 -0.02 0c-0.05,-0.08 -0.11,-0.16 -0.19,-0.23 -0.07,-0.06 -0.16,-0.12 -0.27,-0.18 -0.11,-0.06 -0.25,-0.1 -0.43,-0.12 -0.01,0.03 -0.02,0.08 -0.03,0.15 -0.01,0.07 -0.01,0.17 -0.01,0.31l0 1.71c0,0.11 0,0.2 0.01,0.27 0.01,0.07 0.01,0.12 0.02,0.15 0.01,0.04 0.02,0.07 0.04,0.08l0 0.02 -0.73 0 0 -0.02c0.01,-0.01 0.02,-0.04 0.03,-0.08 0.01,-0.03 0.02,-0.08 0.02,-0.15 0.01,-0.07 0.01,-0.16 0.01,-0.27l0 -1.71c0,-0.14 -0,-0.24 -0.01,-0.3 -0.01,-0.07 -0.02,-0.12 -0.03,-0.15 -0.17,0.02 -0.31,0.06 -0.42,0.12 -0.11,0.06 -0.2,0.12 -0.26,0.18 -0.08,0.07 -0.14,0.14 -0.18,0.22l-0.02 0 0 -0.6 0.02 0 2.43 0zm-5.9 6.78l-0.73 0 0 -0.02c0.01,-0.02 0.02,-0.04 0.03,-0.08 0.01,-0.03 0.02,-0.08 0.02,-0.15 0.01,-0.07 0.01,-0.16 0.01,-0.27l0 -1.71c0,-0.11 -0,-0.21 -0.01,-0.27 -0.01,-0.07 -0.02,-0.12 -0.02,-0.15 -0.01,-0.04 -0.02,-0.06 -0.03,-0.08l0 -0.03 0.73 0 0 0.03c-0.01,0.01 -0.02,0.04 -0.04,0.08 -0.01,0.03 -0.02,0.08 -0.02,0.15 -0.01,0.07 -0.01,0.16 -0.01,0.27l0 1.71c0,0.11 0,0.2 0.01,0.27 0.01,0.07 0.01,0.12 0.02,0.15 0.01,0.04 0.02,0.07 0.04,0.08l0 0.02zm0.96 0l-0.64 0 0 -0.02c0.05,-0.02 0.1,-0.04 0.14,-0.08 0.04,-0.03 0.07,-0.08 0.1,-0.15 0.03,-0.07 0.05,-0.16 0.05,-0.27l0 -1.71c0,-0.11 -0.02,-0.21 -0.05,-0.27 -0.03,-0.07 -0.07,-0.12 -0.1,-0.15 -0.04,-0.04 -0.09,-0.06 -0.14,-0.08l0 -0.03 0.86 0 1.56 1.9 0 -1.36c0,-0.11 -0.02,-0.21 -0.05,-0.27 -0.03,-0.07 -0.07,-0.12 -0.1,-0.15 -0.04,-0.04 -0.09,-0.06 -0.14,-0.08l0 -0.03 0.64 0 0 0.03c-0.06,0.01 -0.11,0.04 -0.15,0.08 -0.04,0.03 -0.07,0.08 -0.1,0.15 -0.03,0.07 -0.04,0.16 -0.04,0.27l0 2.3 -0.06 0 -2.04 -2.52 -0 0 -0 0 -0 0 -0 0 -0 0 -0 0 -0 0 -0 0 -0 0 -0 0 -0 0 -0 0 -0.01 0.06 -0 0 -0 0 -0 0 -0 0.01 -0 0 -0 0 -0 0 -0 0 -0 0 -0 0 -0 0 -0 0c-0.01,0.03 -0.01,0.07 -0.01,0.11l0 1.71c0,0.11 0.01,0.2 0.05,0.27 0.03,0.07 0.06,0.12 0.1,0.15 0.04,0.04 0.09,0.07 0.15,0.08l0 0.02zm4.86 -2.76l0.02 0 0 0.6 -0.02 0c-0.05,-0.08 -0.11,-0.16 -0.19,-0.23 -0.07,-0.06 -0.16,-0.12 -0.27,-0.18 -0.11,-0.06 -0.25,-0.1 -0.43,-0.12 -0.01,0.03 -0.02,0.08 -0.03,0.15 -0.01,0.07 -0.01,0.17 -0.01,0.31l0 1.71c0,0.11 0,0.2 0.01,0.27 0.01,0.07 0.01,0.12 0.02,0.15 0.01,0.04 0.02,0.07 0.04,0.08l0 0.02 -0.73 0 0 -0.02c0.01,-0.02 0.02,-0.04 0.03,-0.08 0.01,-0.03 0.02,-0.08 0.02,-0.15 0.01,-0.07 0.01,-0.16 0.01,-0.27l0 -1.71c0,-0.14 -0,-0.24 -0.01,-0.3 -0.01,-0.07 -0.02,-0.12 -0.03,-0.15 -0.17,0.02 -0.31,0.06 -0.42,0.12 -0.11,0.06 -0.2,0.12 -0.26,0.18 -0.08,0.07 -0.14,0.14 -0.18,0.22l-0.02 0 0 -0.6 0.02 0 2.43 0zm2.64 2.76l-2.3 0 0 -0.02c0.01,-0.02 0.02,-0.04 0.03,-0.08 0.01,-0.03 0.02,-0.08 0.02,-0.15 0.01,-0.07 0.01,-0.16 0.01,-0.27l0 -1.71c0,-0.11 -0,-0.2 -0.01,-0.27 -0.01,-0.07 -0.02,-0.12 -0.02,-0.15 -0.01,-0.04 -0.02,-0.07 -0.03,-0.08l0 -0.02 2.24 0 -0.21 0.59 -0.02 0c-0.02,-0.1 -0.06,-0.19 -0.14,-0.27 -0.03,-0.03 -0.07,-0.07 -0.12,-0.1 -0.05,-0.03 -0.1,-0.06 -0.17,-0.09 -0.07,-0.03 -0.14,-0.05 -0.23,-0.06 -0.09,-0.02 -0.19,-0.02 -0.3,-0.02l-0.39 0 0 1.35 0.71 0c0.11,0 0.2,-0.01 0.27,-0.05 0.07,-0.03 0.12,-0.06 0.15,-0.1 0.04,-0.04 0.07,-0.09 0.08,-0.15l0.02 0 0 0.64 -0.02 0c-0.02,-0.05 -0.04,-0.1 -0.08,-0.15 -0.03,-0.04 -0.08,-0.07 -0.15,-0.1 -0.07,-0.03 -0.16,-0.05 -0.27,-0.05l-0.71 0 0 1.25 0.47 0c0.23,0 0.41,-0.03 0.53,-0.08 0.13,-0.06 0.22,-0.12 0.29,-0.19 0.08,-0.08 0.12,-0.17 0.14,-0.27l0.02 0 0.21 0.59 -0.02 0zm2.96 -1.02c-0.09,0.29 -0.23,0.51 -0.4,0.68 -0.17,0.16 -0.36,0.27 -0.57,0.33 -0.21,0.06 -0.42,0.06 -0.63,0.02 -0.21,-0.04 -0.41,-0.13 -0.59,-0.25 -0.18,-0.12 -0.32,-0.28 -0.43,-0.48 -0.11,-0.19 -0.17,-0.42 -0.17,-0.67 0,-0.21 0.03,-0.41 0.1,-0.58 0.07,-0.18 0.16,-0.33 0.29,-0.45 0.13,-0.12 0.28,-0.22 0.45,-0.29 0.18,-0.07 0.37,-0.1 0.59,-0.1 0.13,0 0.25,0.01 0.36,0.04 0.12,0.03 0.22,0.06 0.32,0.1 0.1,0.04 0.19,0.09 0.26,0.15 0.08,0.06 0.13,0.12 0.18,0.19 0.05,0.06 0.07,0.12 0.07,0.2l0 0 0 0c-0,0.09 -0.04,0.16 -0.1,0.22 -0.06,0.06 -0.14,0.09 -0.23,0.09 -0.09,0 -0.16,-0.03 -0.23,-0.09 -0.06,-0.06 -0.1,-0.14 -0.1,-0.23 0,-0.07 -0.01,-0.14 -0.03,-0.21 -0.02,-0.07 -0.05,-0.14 -0.09,-0.2 -0.04,-0.06 -0.1,-0.11 -0.17,-0.15 -0.07,-0.04 -0.17,-0.06 -0.28,-0.06 -0.11,0 -0.22,0.03 -0.31,0.1 -0.09,0.06 -0.18,0.16 -0.25,0.27 -0.07,0.12 -0.12,0.26 -0.16,0.43 -0.04,0.17 -0.06,0.35 -0.06,0.56 0,0.22 0.04,0.4 0.13,0.56 0.08,0.16 0.19,0.28 0.32,0.37 0.13,0.09 0.28,0.15 0.44,0.18 0.16,0.03 0.32,0.02 0.48,-0.03 0.15,-0.05 0.3,-0.13 0.43,-0.24 0.13,-0.12 0.23,-0.27 0.3,-0.47l0.06 0.02zm1.05 1.02l-0.73 0 0 -0.02c0.01,-0.02 0.02,-0.04 0.03,-0.08 0.01,-0.03 0.02,-0.08 0.02,-0.15 0.01,-0.07 0.01,-0.16 0.01,-0.27l0 -1.71c0,-0.11 -0,-0.21 -0.01,-0.27 -0.01,-0.07 -0.02,-0.12 -0.02,-0.15 -0.01,-0.04 -0.02,-0.06 -0.03,-0.08l0 -0.03 0.73 0 0 0.03c-0.01,0.01 -0.02,0.04 -0.04,0.08 -0.01,0.03 -0.02,0.08 -0.02,0.15 -0.01,0.07 -0.01,0.16 -0.01,0.27l0 0.67 1.29 0 0 -0.67c0,-0.11 -0,-0.21 -0.01,-0.27 -0.01,-0.07 -0.02,-0.12 -0.02,-0.15 -0.01,-0.04 -0.02,-0.06 -0.03,-0.08l0 -0.03 0.73 0 0 0.03c-0.01,0.01 -0.02,0.04 -0.04,0.08 -0.01,0.03 -0.02,0.08 -0.02,0.15 -0.01,0.07 -0.01,0.16 -0.01,0.27l0 1.71c0,0.11 0,0.2 0.01,0.27 0.01,0.07 0.01,0.12 0.02,0.15 0.01,0.04 0.02,0.07 0.04,0.08l0 0.02 -0.73 0 0 -0.02c0.01,-0.02 0.02,-0.04 0.03,-0.08 0.01,-0.03 0.02,-0.08 0.02,-0.15 0.01,-0.07 0.01,-0.16 0.01,-0.27l0 -0.99 -1.29 0 0 0.99c0,0.11 0,0.2 0.01,0.27 0.01,0.07 0.01,0.12 0.02,0.15 0.01,0.04 0.02,0.07 0.04,0.08l0 0.02zm-13.59 3.03c0.1,0.25 0.18,0.44 0.25,0.57 0.07,0.13 0.12,0.22 0.17,0.28 0.05,0.07 0.09,0.11 0.12,0.11l0 0.02 -0.84 0 0 -0.02c0.02,-0.01 0.03,-0.03 0.03,-0.07 0,-0.03 -0.01,-0.08 -0.03,-0.15 -0.02,-0.07 -0.06,-0.16 -0.11,-0.29l-0.17 -0.4 -0.91 0 -0.14 0.4c-0.04,0.11 -0.06,0.2 -0.05,0.27 0.01,0.07 0.03,0.12 0.05,0.15 0.03,0.04 0.07,0.07 0.12,0.08l0 0.02 -0.65 0 0 -0.02c0.06,-0.02 0.12,-0.04 0.18,-0.08 0.05,-0.03 0.1,-0.08 0.16,-0.15 0.05,-0.07 0.1,-0.16 0.14,-0.27l0 0.01 0.82 -2.35 0.11 0 0.75 1.88zm-0.61 -0.01l-0.46 -1.11 -0.39 1.11 0.85 0zm3.79 -1.74l0.64 0 -0.01 0.02c-0.06,0.01 -0.12,0.04 -0.17,0.08 -0.05,0.03 -0.1,0.08 -0.15,0.15 -0.05,0.07 -0.09,0.16 -0.13,0.27l0 -0 -0.69 2.25 -0.13 0 -0.79 -2.06 -0.63 2.06 -0.13 0 -0.87 -2.27c-0.04,-0.11 -0.08,-0.21 -0.11,-0.27 -0.03,-0.07 -0.06,-0.12 -0.09,-0.15 -0.03,-0.04 -0.05,-0.06 -0.07,-0.08l0 -0.03 0.74 0 -0 0.03c-0.01,0.01 -0.01,0.04 -0,0.08 0.01,0.03 0.02,0.08 0.04,0.15 0.02,0.07 0.05,0.16 0.09,0.27l0.58 1.54 0.42 -1.41 -0.05 -0.13c-0.04,-0.11 -0.08,-0.21 -0.11,-0.27 -0.03,-0.07 -0.06,-0.12 -0.09,-0.15 -0.03,-0.04 -0.05,-0.06 -0.07,-0.08l0 -0.03 0.74 0 0 0.03c-0.01,0.01 -0.01,0.04 -0,0.08 0.01,0.03 0.02,0.08 0.04,0.15 0.02,0.07 0.05,0.16 0.09,0.27l0.58 1.54 0.45 -1.53c0.03,-0.11 0.04,-0.2 0.03,-0.27 -0.01,-0.07 -0.03,-0.12 -0.06,-0.15 -0.03,-0.04 -0.07,-0.07 -0.12,-0.08l0.01 -0.02zm2.16 1.75c0.1,0.25 0.18,0.44 0.25,0.57 0.07,0.13 0.12,0.22 0.17,0.28 0.05,0.07 0.09,0.11 0.12,0.11l0 0.02 -0.84 0 0 -0.02c0.02,-0.01 0.03,-0.03 0.03,-0.07 0,-0.03 -0.01,-0.08 -0.03,-0.15 -0.02,-0.07 -0.06,-0.16 -0.11,-0.29l-0.17 -0.4 -0.91 0 -0.14 0.4c-0.04,0.11 -0.06,0.2 -0.05,0.27 0.01,0.07 0.03,0.12 0.05,0.15 0.03,0.04 0.07,0.07 0.12,0.08l0 0.02 -0.65 0 0 -0.02c0.06,-0.02 0.12,-0.04 0.18,-0.08 0.05,-0.03 0.1,-0.08 0.16,-0.15 0.05,-0.07 0.1,-0.16 0.14,-0.27l0 0.01 0.82 -2.35 0.11 0 0.75 1.88zm-0.61 -0.01l-0.46 -1.11 -0.39 1.11 0.85 0zm3.62 0.47c0.08,0.13 0.14,0.22 0.19,0.29 0.05,0.07 0.09,0.12 0.12,0.15 0.03,0.04 0.06,0.06 0.08,0.06l0 0.02 -0.82 0 0 -0.02c0.02,-0.02 0.02,-0.04 0.01,-0.08 -0.01,-0.03 -0.02,-0.08 -0.05,-0.15 -0.03,-0.07 -0.07,-0.16 -0.14,-0.27l-0.35 -0.59 -0.52 0 0 0.59c0,0.11 0,0.2 0.01,0.27 0.01,0.07 0.01,0.12 0.02,0.15 0.01,0.04 0.02,0.07 0.03,0.08l0 0.02 -0.73 0 0 -0.02c0.01,-0.02 0.02,-0.04 0.03,-0.08 0.01,-0.03 0.02,-0.08 0.02,-0.15 0.01,-0.07 0.01,-0.16 0.01,-0.27l0 -1.71c0,-0.11 -0,-0.2 -0.01,-0.27 -0.01,-0.07 -0.02,-0.12 -0.02,-0.15 -0.01,-0.04 -0.02,-0.07 -0.03,-0.08l0 -0.02 1.21 -0 0 0 -0 0 0.01 0 0 0 0.01 0 0 0 0.01 0 0 0 0.01 0 0 0 0.01 0 0 0 0.01 0 0 0 0.01 0 0 0 0.01 0 0 0 0.01 0 0 0 0.01 0 0 0 0.01 0 0 0 0.01 0 0 0 0.01 0 0 0 0.01 0 0 0 0.01 0 0 0 0.01 0 0 0 0.01 0 0 0 0.01 0 0 0 0.01 0 0 0 0.01 0 0 0 0.01 0 0 0 0.01 0 0 0 0.01 0 0 0 0.01 0 0 0 0.01 0 0 0 0.01 0 0 0 0.01 0 0 0 0.01 0 0 0 0.01 0 0 0 0.01 0 0 0 0.01 0 0 0 0.01 0 0 0 0.01 0 0 0 0.01 0 0 0 0.01 0 0 0 0.01 0 0 0 0.01 0 0 0 0.01 0 0 0 0.01 0 0 0 0.01 0 0 0 0.01 0 0 0 0.01 0 0 0 0.01 0 0 0 0.01 0 0 0 0.01 0 0 0 0.01 0 0 0 0.01 0 0 0 0.01 0 0 0 0.01 0 0 0 0.01 0 0 0 0.01 0 0 0 0.01 0 0 0 0.01 0 0 0 0.01 0 0 0 0.01 0 0 0 0.01 0 0 0 0.01 0 0 0 0.01 0 0 0 0.01 0 0 0 0.01 0 0 0 0.01 0 0 0 0.01 0 0 0 0.01 0 0 0 0.01 0c0.16,0.04 0.28,0.1 0.38,0.18 0.1,0.08 0.17,0.16 0.22,0.26 0.05,0.1 0.07,0.21 0.07,0.32 0,0.17 -0.06,0.32 -0.18,0.46 -0.12,0.13 -0.29,0.23 -0.5,0.29l0.4 0.66zm-1.26 -0.64c0.18,0 0.32,-0.02 0.44,-0.06 0.12,-0.04 0.22,-0.09 0.29,-0.16 0.07,-0.07 0.13,-0.15 0.16,-0.24 0.03,-0.09 0.05,-0.2 0.05,-0.31 0,-0.11 -0.01,-0.21 -0.04,-0.31 -0.03,-0.09 -0.07,-0.17 -0.13,-0.24 -0.06,-0.07 -0.14,-0.12 -0.23,-0.16 -0.1,-0.04 -0.21,-0.06 -0.35,-0.06l-0.36 0c-0.01,0.02 -0.02,0.07 -0.03,0.14 -0.01,0.07 -0.02,0.18 -0.02,0.33l0 1.06 0.23 0zm2.63 1.17l-0.67 0 0 -0.02c0.01,-0.02 0.02,-0.04 0.03,-0.08 0.01,-0.03 0.02,-0.08 0.02,-0.15 0.01,-0.07 0.01,-0.16 0.01,-0.27l0 -1.71c0,-0.11 -0,-0.21 -0.01,-0.27 -0.01,-0.07 -0.02,-0.12 -0.02,-0.15 -0.01,-0.04 -0.02,-0.06 -0.03,-0.08l0 -0.03 0.87 0c0.26,0 0.48,0.04 0.67,0.12 0.19,0.08 0.35,0.18 0.47,0.31 0.12,0.13 0.22,0.28 0.28,0.44 0.06,0.17 0.09,0.34 0.09,0.51 0,0.17 -0.03,0.34 -0.08,0.5 -0.06,0.16 -0.14,0.31 -0.26,0.44 -0.12,0.13 -0.27,0.24 -0.46,0.32 -0.19,0.08 -0.41,0.12 -0.67,0.12l-0.25 0zm0 -0.05l0.05 0c0.19,0 0.36,-0.04 0.49,-0.11 0.13,-0.08 0.24,-0.18 0.32,-0.3 0.08,-0.12 0.14,-0.26 0.17,-0.42 0.03,-0.16 0.05,-0.32 0.05,-0.49 0,-0.17 -0.02,-0.33 -0.05,-0.49 -0.03,-0.16 -0.09,-0.3 -0.17,-0.42 -0.08,-0.12 -0.19,-0.22 -0.32,-0.3 -0.13,-0.08 -0.3,-0.11 -0.49,-0.11l-0.05 0 0 2.65zm3.29 0.08c-0.18,0 -0.34,-0.02 -0.49,-0.05 -0.15,-0.04 -0.28,-0.08 -0.4,-0.15 -0.11,-0.06 -0.2,-0.13 -0.27,-0.22 -0.06,-0.08 -0.1,-0.17 -0.1,-0.27l0 -0 0 -0c0,-0.09 0.04,-0.16 0.1,-0.22 0.06,-0.06 0.14,-0.09 0.23,-0.09 0.09,0 0.17,0.03 0.23,0.1 0.06,0.06 0.09,0.14 0.09,0.23 0,0.07 0.01,0.14 0.04,0.21 0.03,0.07 0.06,0.14 0.12,0.2 0.05,0.06 0.12,0.11 0.2,0.14 0.08,0.04 0.18,0.05 0.29,0.05 0.09,0 0.16,-0.02 0.23,-0.06 0.07,-0.04 0.12,-0.09 0.16,-0.15 0.04,-0.06 0.08,-0.12 0.1,-0.19 0.02,-0.07 0.03,-0.12 0.03,-0.18 0,-0.12 -0.04,-0.21 -0.13,-0.29 -0.08,-0.07 -0.19,-0.14 -0.31,-0.19 -0.12,-0.05 -0.26,-0.1 -0.41,-0.15 -0.15,-0.05 -0.28,-0.1 -0.41,-0.17 -0.12,-0.07 -0.23,-0.15 -0.31,-0.25 -0.08,-0.1 -0.13,-0.24 -0.13,-0.4 0,-0.1 0.02,-0.19 0.07,-0.28 0.04,-0.09 0.11,-0.17 0.2,-0.24 0.09,-0.07 0.2,-0.12 0.33,-0.16 0.13,-0.04 0.28,-0.06 0.45,-0.06 0.18,0 0.33,0.02 0.47,0.05 0.13,0.03 0.25,0.08 0.34,0.13 0.09,0.06 0.16,0.12 0.21,0.19 0.05,0.07 0.09,0.15 0.1,0.22 0.01,0.03 0.01,0.06 0.01,0.09l0 0 0 0c-0.01,0.09 -0.04,0.16 -0.1,0.22 -0.06,0.06 -0.14,0.09 -0.22,0.09 -0.09,0 -0.17,-0.03 -0.23,-0.09 -0.06,-0.06 -0.09,-0.14 -0.09,-0.23 0,-0.07 -0.01,-0.14 -0.02,-0.21 -0.01,-0.07 -0.03,-0.14 -0.07,-0.2 -0.03,-0.06 -0.08,-0.11 -0.14,-0.15 -0.06,-0.04 -0.14,-0.06 -0.23,-0.06 -0.16,0 -0.27,0.05 -0.36,0.14 -0.08,0.09 -0.12,0.21 -0.12,0.36 0,0.14 0.04,0.26 0.13,0.34 0.08,0.08 0.19,0.15 0.32,0.21 0.13,0.06 0.27,0.1 0.41,0.15 0.15,0.04 0.29,0.09 0.41,0.16 0.13,0.06 0.23,0.14 0.32,0.24 0.08,0.1 0.13,0.23 0.13,0.4 0,0.09 -0.02,0.18 -0.07,0.27 -0.05,0.09 -0.12,0.18 -0.22,0.26 -0.1,0.08 -0.22,0.14 -0.37,0.19 -0.15,0.05 -0.32,0.08 -0.52,0.08z"/>
   </g>
   <path class="fil1" d="M12.21 0c6.75,0 12.21,5.47 12.21,12.21 0,6.75 -5.47,12.21 -12.21,12.21 -6.75,0 -12.21,-5.47 -12.21,-12.21 0,-6.75 5.47,-12.21 12.21,-12.21zm0 0.52c6.46,0 11.69,5.23 11.69,11.69 0,6.46 -5.23,11.69 -11.69,11.69 -6.46,0 -11.69,-5.23 -11.69,-11.69 0,-6.46 5.23,-11.69 11.69,-11.69z"/>
  </g>
 </g>
</svg>
