<?xml version="1.0" encoding="UTF-8"?>
<!DOCTYPE svg PUBLIC "-//W3C//DTD SVG 1.1//EN" "http://www.w3.org/Graphics/SVG/1.1/DTD/svg11.dtd">
<!-- Creator: CorelDRAW 2021 (64-Bit) -->
<svg xmlns="http://www.w3.org/2000/svg" xml:space="preserve" width="42.3333mm" height="42.3333mm" version="1.1" style="shape-rendering:geometricPrecision; text-rendering:geometricPrecision; image-rendering:optimizeQuality; fill-rule:evenodd; clip-rule:evenodd"
viewBox="0 0 171.44 171.44"
 xmlns:xlink="http://www.w3.org/1999/xlink"
 xmlns:xodm="http://www.corel.com/coreldraw/odm/2003">
 <defs>
  <style type="text/css">
   <![CDATA[
    .fil0 {fill:#012169;fill-rule:nonzero}
   ]]>
  </style>
 </defs>
 <g id="Layer_x0020_1">
  <metadata id="CorelCorpID_0Corel-Layer"/>
  <g id="_2154973086336">
   <path class="fil0" d="M85.72 0c23.67,0 45.1,9.6 60.61,25.11 15.51,15.51 25.11,36.94 25.11,60.61 0,23.67 -9.6,45.1 -25.11,60.61 -15.51,15.51 -36.94,25.11 -60.61,25.11 -23.67,0 -45.1,-9.6 -60.61,-25.11 -15.51,-15.51 -25.11,-36.94 -25.11,-60.61 0,-23.67 9.6,-45.1 25.11,-60.61 15.51,-15.51 36.94,-25.11 60.61,-25.11zm58.63 27.08c-15,-15 -35.74,-24.29 -58.63,-24.29 -22.9,0 -43.63,9.28 -58.63,24.29 -15,15 -24.29,35.74 -24.29,58.63 0,22.9 9.28,43.63 24.29,58.63 15,15 35.74,24.29 58.63,24.29 22.9,0 43.63,-9.28 58.63,-24.29 15,-15 24.29,-35.74 24.29,-58.63 0,-22.9 -9.28,-43.63 -24.29,-58.63z"/>
   <path class="fil0" d="M44.38 61.71c0,0.8 -0.16,1.54 -0.49,2.22 -0.33,0.68 -0.84,1.28 -1.53,1.78 -0.69,0.5 -1.59,0.9 -2.7,1.18 -1.1,0.28 -2.42,0.43 -3.96,0.43l-8.86 0 0 -0.16c0.06,-0.11 0.14,-0.29 0.22,-0.57 0.06,-0.23 0.12,-0.58 0.17,-1.06 0.05,-0.47 0.08,-1.11 0.08,-1.91l0 -12.33c0,-0.8 -0.03,-1.43 -0.08,-1.91 -0.05,-0.47 -0.11,-0.82 -0.17,-1.06 -0.08,-0.27 -0.16,-0.46 -0.22,-0.57l0 -0.16 7.6 -0.03c2.63,0 4.58,0.34 5.87,1.01 1.28,0.67 1.92,1.75 1.92,3.22 0,0.9 -0.25,1.63 -0.74,2.19 -0.49,0.56 -1.05,1 -1.66,1.34 -0.69,0.38 -1.48,0.66 -2.37,0.85 1.28,0.17 2.43,0.48 3.44,0.95 0.44,0.19 0.87,0.43 1.28,0.71 0.41,0.28 0.78,0.61 1.1,0.98 0.33,0.37 0.59,0.79 0.79,1.28 0.2,0.48 0.3,1.02 0.3,1.61zm-12.87 -5.65l2.1 0c0.96,0 1.73,-0.17 2.32,-0.5 0.58,-0.34 1.02,-0.74 1.32,-1.2 0.29,-0.46 0.48,-0.95 0.58,-1.47 0.09,-0.52 0.14,-0.95 0.14,-1.31 0,-0.34 -0.05,-0.71 -0.14,-1.14 -0.09,-0.42 -0.3,-0.81 -0.61,-1.17 -0.32,-0.36 -0.77,-0.66 -1.35,-0.91 -0.58,-0.25 -1.37,-0.38 -2.35,-0.38l-2.01 0 0 8.07zm3.27 10.88c0.98,0 1.81,-0.13 2.5,-0.38 0.68,-0.25 1.23,-0.61 1.65,-1.07 0.42,-0.46 0.72,-1.01 0.91,-1.66 0.19,-0.64 0.28,-1.35 0.28,-2.13 0,-1.56 -0.57,-2.82 -1.71,-3.78 -1.14,-0.97 -2.77,-1.45 -4.88,-1.45l-2.01 0 0 10.47 3.27 0z"/>
   <path id="_1" class="fil0" d="M60.72 63.63c0.55,0.88 0.99,1.56 1.32,2.03 0.34,0.47 0.61,0.83 0.82,1.06 0.23,0.25 0.42,0.4 0.57,0.44l0 0.16 -5.77 0 0 -0.16c0.11,-0.11 0.14,-0.29 0.09,-0.57 -0.04,-0.23 -0.16,-0.58 -0.35,-1.06 -0.19,-0.47 -0.52,-1.11 -1,-1.91l-2.48 -4.13 -3.61 0 0 4.13c0,0.8 0.02,1.44 0.06,1.91 0.04,0.47 0.09,0.83 0.16,1.06 0.07,0.27 0.15,0.46 0.22,0.57l0 0.16 -5.11 0 0 -0.16c0.06,-0.11 0.14,-0.29 0.22,-0.57 0.06,-0.23 0.12,-0.58 0.17,-1.06 0.05,-0.47 0.08,-1.11 0.08,-1.91l0 -11.95c0,-0.8 -0.03,-1.44 -0.08,-1.91 -0.05,-0.47 -0.11,-0.83 -0.17,-1.06 -0.08,-0.27 -0.16,-0.46 -0.22,-0.57l0 -0.16 8.48 -0.03 -0.03 0c1.53,0 2.85,0.15 3.94,0.46 1.09,0.3 1.99,0.72 2.68,1.25 0.69,0.53 1.2,1.14 1.53,1.83 0.33,0.69 0.49,1.44 0.49,2.24 0,1.2 -0.42,2.27 -1.26,3.2 -0.84,0.94 -2.02,1.62 -3.53,2.07l2.78 4.64zm-8.8 -4.51c1.24,0 2.27,-0.14 3.11,-0.41 0.84,-0.27 1.51,-0.65 2.02,-1.14 0.52,-0.48 0.88,-1.05 1.1,-1.7 0.22,-0.65 0.33,-1.37 0.33,-2.14 0,-0.78 -0.09,-1.49 -0.28,-2.14 -0.19,-0.65 -0.49,-1.21 -0.91,-1.69 -0.42,-0.47 -0.96,-0.85 -1.63,-1.12 -0.67,-0.27 -1.5,-0.41 -2.48,-0.41l-2.51 0c-0.06,0.17 -0.14,0.49 -0.22,0.98 -0.08,0.48 -0.13,1.26 -0.13,2.33l0 7.44 1.6 0z"/>
   <path id="_2" class="fil0" d="M69.84 67.32l-5.14 0 0 -0.16c0.06,-0.11 0.14,-0.29 0.22,-0.57 0.06,-0.23 0.12,-0.58 0.17,-1.06 0.05,-0.47 0.08,-1.11 0.08,-1.91l0 -11.95c0,-0.8 -0.03,-1.44 -0.08,-1.92 -0.05,-0.48 -0.11,-0.84 -0.17,-1.07 -0.08,-0.27 -0.16,-0.45 -0.22,-0.54l0 -0.19 5.14 0 0 0.19c-0.08,0.08 -0.17,0.26 -0.25,0.54 -0.06,0.23 -0.12,0.59 -0.16,1.07 -0.04,0.48 -0.06,1.13 -0.06,1.92l0 11.95c0,0.8 0.02,1.44 0.06,1.91 0.04,0.47 0.09,0.83 0.16,1.06 0.08,0.27 0.17,0.46 0.25,0.57l0 0.16z"/>
   <path id="_3" class="fil0" d="M88.25 47.96l0.16 0 0 4.19 -0.16 0c-0.34,-0.57 -0.78,-1.09 -1.32,-1.58 -0.48,-0.42 -1.12,-0.83 -1.91,-1.23 -0.79,-0.4 -1.78,-0.68 -2.98,-0.85 -0.06,0.21 -0.13,0.56 -0.19,1.04 -0.06,0.48 -0.09,1.2 -0.09,2.14l0 11.95c0,0.8 0.02,1.44 0.06,1.91 0.04,0.47 0.09,0.83 0.16,1.06 0.08,0.27 0.17,0.46 0.25,0.57l0 0.16 -5.14 0 0 -0.16c0.06,-0.11 0.14,-0.29 0.22,-0.57 0.06,-0.23 0.12,-0.58 0.17,-1.06 0.05,-0.47 0.08,-1.11 0.08,-1.91l0 -11.95c0,-0.95 -0.03,-1.66 -0.09,-2.13 -0.06,-0.47 -0.13,-0.81 -0.19,-1.02 -1.2,0.17 -2.18,0.45 -2.95,0.85 -0.77,0.4 -1.38,0.81 -1.85,1.23 -0.55,0.48 -0.97,1 -1.26,1.55l-0.16 0 0 -4.19 0.16 0 17.03 0z"/>
   <path id="_4" class="fil0" d="M31.99 95.46l-5.14 0 0 -0.16c0.06,-0.11 0.14,-0.29 0.22,-0.57 0.06,-0.23 0.12,-0.58 0.17,-1.06 0.05,-0.47 0.08,-1.11 0.08,-1.91l0 -11.95c0,-0.8 -0.03,-1.44 -0.08,-1.91 -0.05,-0.47 -0.11,-0.83 -0.17,-1.06 -0.08,-0.27 -0.16,-0.46 -0.22,-0.57l0 -0.16 15.52 -0.03 0.16 0 0 0.03 -1.45 4.16 -0.19 0c-0.13,-0.72 -0.44,-1.35 -0.95,-1.89 -0.23,-0.23 -0.5,-0.46 -0.82,-0.69 -0.32,-0.23 -0.7,-0.44 -1.17,-0.62 -0.46,-0.18 -1,-0.32 -1.61,-0.43 -0.61,-0.11 -1.31,-0.16 -2.11,-0.16l-2.37 0c-0.06,0.17 -0.14,0.49 -0.22,0.98 -0.08,0.48 -0.13,1.26 -0.13,2.33l0 6.09 4.95 0c0.8,0 1.44,-0.11 1.91,-0.32 0.47,-0.21 0.83,-0.44 1.06,-0.69 0.27,-0.29 0.46,-0.64 0.57,-1.04l0.16 0 0 4.51 -0.16 0c-0.11,-0.38 -0.29,-0.71 -0.57,-1.01 -0.23,-0.25 -0.58,-0.49 -1.06,-0.71 -0.47,-0.22 -1.11,-0.33 -1.91,-0.33l-4.95 0 0 5.46c0,0.8 0.02,1.44 0.06,1.91 0.04,0.47 0.09,0.83 0.16,1.06 0.08,0.27 0.17,0.46 0.25,0.57l0 0.16z"/>
   <path id="_5" class="fil0" d="M48.89 95.46l-5.14 0 0 -0.16c0.06,-0.11 0.14,-0.29 0.22,-0.57 0.06,-0.23 0.12,-0.58 0.17,-1.06 0.05,-0.47 0.08,-1.11 0.08,-1.91l0 -11.95c0,-0.8 -0.03,-1.44 -0.08,-1.92 -0.05,-0.48 -0.11,-0.84 -0.17,-1.07 -0.08,-0.27 -0.16,-0.45 -0.22,-0.54l0 -0.19 5.14 0 0 0.19c-0.08,0.08 -0.17,0.26 -0.25,0.54 -0.06,0.23 -0.12,0.59 -0.16,1.07 -0.04,0.48 -0.06,1.13 -0.06,1.92l0 11.95c0,0.8 0.02,1.44 0.06,1.91 0.04,0.47 0.09,0.83 0.16,1.06 0.08,0.27 0.17,0.46 0.25,0.57l0 0.16z"/>
   <path id="_6" class="fil0" d="M54.63 95.46l-4.51 0 0 -0.16c0.38,-0.11 0.71,-0.29 1.01,-0.57 0.25,-0.23 0.49,-0.58 0.71,-1.06 0.22,-0.47 0.33,-1.11 0.33,-1.91l0 -11.95c0,-0.8 -0.11,-1.44 -0.33,-1.92 -0.22,-0.48 -0.46,-0.84 -0.71,-1.07 -0.29,-0.27 -0.63,-0.45 -1.01,-0.54l0 -0.19 6.06 0 10.91 13.28 0 -9.56c0,-0.8 -0.11,-1.44 -0.33,-1.92 -0.22,-0.48 -0.46,-0.84 -0.71,-1.07 -0.29,-0.27 -0.63,-0.45 -1.01,-0.54l0 -0.19 4.51 0 0 0.19c-0.4,0.08 -0.75,0.26 -1.04,0.54 -0.25,0.23 -0.48,0.59 -0.69,1.07 -0.21,0.48 -0.32,1.13 -0.32,1.92l0 16.12 -0.41 0 -14.32 -17.63c-0.04,0.23 -0.08,0.47 -0.13,0.71 -0.04,0.24 -0.06,0.51 -0.06,0.8l0 11.95c0,0.8 0.11,1.44 0.32,1.91 0.21,0.47 0.44,0.83 0.69,1.06 0.29,0.27 0.64,0.46 1.04,0.57l0 0.16z"/>
   <path id="_7" class="fil0" d="M87.69 76.1l0.16 0 0 4.19 -0.16 0c-0.34,-0.57 -0.78,-1.09 -1.32,-1.58 -0.48,-0.42 -1.12,-0.83 -1.91,-1.23 -0.79,-0.4 -1.78,-0.68 -2.98,-0.85 -0.06,0.21 -0.13,0.56 -0.19,1.04 -0.06,0.48 -0.09,1.2 -0.09,2.14l0 11.95c0,0.8 0.02,1.44 0.06,1.91 0.04,0.47 0.09,0.83 0.16,1.06 0.08,0.27 0.17,0.46 0.25,0.57l0 0.16 -5.14 0 0 -0.16c0.06,-0.11 0.14,-0.29 0.22,-0.57 0.06,-0.23 0.12,-0.58 0.17,-1.06 0.05,-0.47 0.08,-1.11 0.08,-1.91l0 -11.95c0,-0.95 -0.03,-1.66 -0.09,-2.13 -0.06,-0.47 -0.13,-0.81 -0.19,-1.02 -1.2,0.17 -2.18,0.45 -2.95,0.85 -0.77,0.4 -1.38,0.81 -1.85,1.23 -0.55,0.48 -0.97,1 -1.26,1.55l-0.16 0 0 -4.19 0.16 0 17.03 0z"/>
   <path id="_8" class="fil0" d="M105.19 95.46l-16.08 0 0 -0.16c0.06,-0.11 0.14,-0.29 0.22,-0.57 0.06,-0.23 0.12,-0.58 0.17,-1.06 0.05,-0.47 0.08,-1.11 0.08,-1.91l0 -11.95c0,-0.8 -0.03,-1.44 -0.08,-1.91 -0.05,-0.47 -0.11,-0.83 -0.17,-1.06 -0.08,-0.27 -0.16,-0.46 -0.22,-0.57l0 -0.16 15.67 0 -1.48 4.16 -0.16 0c-0.13,-0.72 -0.44,-1.35 -0.95,-1.89 -0.23,-0.23 -0.5,-0.46 -0.82,-0.69 -0.32,-0.23 -0.7,-0.44 -1.17,-0.62 -0.46,-0.18 -1,-0.32 -1.61,-0.43 -0.61,-0.11 -1.31,-0.16 -2.11,-0.16l-2.71 0 0 9.43 4.95 0c0.8,0 1.44,-0.11 1.91,-0.32 0.47,-0.21 0.83,-0.44 1.06,-0.69 0.27,-0.29 0.46,-0.64 0.57,-1.04l0.16 0 0 4.51 -0.16 0c-0.11,-0.38 -0.29,-0.73 -0.57,-1.04 -0.23,-0.25 -0.58,-0.49 -1.06,-0.71 -0.47,-0.22 -1.11,-0.33 -1.91,-0.33l-4.95 0 0 8.77 3.28 0c1.6,0 2.84,-0.19 3.74,-0.58 0.89,-0.39 1.56,-0.83 2,-1.31 0.53,-0.55 0.84,-1.18 0.95,-1.89l0.16 0 1.45 4.16 -0.16 0z"/>
   <path id="_9" class="fil0" d="M124.96 88.33c-0.65,2.02 -1.58,3.6 -2.79,4.73 -1.21,1.14 -2.54,1.9 -3.99,2.29 -1.45,0.39 -2.93,0.44 -4.43,0.14 -1.5,-0.29 -2.87,-0.88 -4.1,-1.75 -1.23,-0.87 -2.23,-1.99 -3.01,-3.36 -0.78,-1.37 -1.17,-2.92 -1.17,-4.67 0,-1.49 0.24,-2.85 0.71,-4.08 0.47,-1.23 1.15,-2.28 2.03,-3.15 0.88,-0.87 1.94,-1.55 3.19,-2.02 1.24,-0.47 2.62,-0.71 4.13,-0.71 0.88,0 1.73,0.09 2.54,0.27 0.81,0.18 1.56,0.42 2.25,0.73 0.69,0.3 1.3,0.66 1.83,1.07 0.53,0.41 0.94,0.85 1.23,1.31 0.34,0.4 0.5,0.86 0.5,1.39l0 0.03 0 0.03c-0.02,0.61 -0.25,1.13 -0.69,1.56 -0.44,0.43 -0.97,0.65 -1.58,0.65 -0.61,0 -1.14,-0.22 -1.59,-0.66 -0.45,-0.44 -0.68,-0.98 -0.68,-1.61 0,-0.48 -0.06,-0.98 -0.19,-1.5 -0.13,-0.52 -0.34,-0.99 -0.63,-1.42 -0.29,-0.43 -0.7,-0.78 -1.21,-1.06 -0.52,-0.27 -1.16,-0.41 -1.94,-0.41 -0.8,0 -1.53,0.23 -2.19,0.68 -0.66,0.45 -1.24,1.09 -1.72,1.91 -0.48,0.82 -0.86,1.81 -1.14,2.98 -0.27,1.17 -0.41,2.47 -0.41,3.89 0,1.51 0.29,2.82 0.88,3.93 0.59,1.1 1.34,1.98 2.25,2.62 0.91,0.64 1.94,1.05 3.07,1.23 1.14,0.18 2.24,0.11 3.33,-0.2 1.08,-0.32 2.08,-0.88 3,-1.7 0.91,-0.82 1.61,-1.91 2.1,-3.28l0.41 0.16z"/>
   <path id="_10" class="fil0" d="M131.37 95.46l-5.14 0 0 -0.16c0.06,-0.11 0.14,-0.29 0.22,-0.57 0.06,-0.23 0.12,-0.58 0.17,-1.06 0.05,-0.47 0.08,-1.11 0.08,-1.91l0 -11.95c0,-0.8 -0.03,-1.44 -0.08,-1.92 -0.05,-0.48 -0.11,-0.84 -0.17,-1.07 -0.08,-0.27 -0.16,-0.45 -0.22,-0.54l0 -0.19 5.14 0 0 0.19c-0.08,0.08 -0.17,0.26 -0.25,0.54 -0.06,0.23 -0.12,0.59 -0.16,1.07 -0.04,0.48 -0.06,1.13 -0.06,1.92l0 4.67 9.02 0 0 -4.67c0,-0.8 -0.03,-1.44 -0.08,-1.92 -0.05,-0.48 -0.11,-0.84 -0.17,-1.07 -0.08,-0.27 -0.16,-0.45 -0.22,-0.54l0 -0.19 5.14 0 0 0.19c-0.08,0.08 -0.17,0.26 -0.25,0.54 -0.06,0.23 -0.12,0.59 -0.16,1.07 -0.04,0.48 -0.06,1.13 -0.06,1.92l0 11.95c0,0.8 0.02,1.44 0.06,1.91 0.04,0.47 0.09,0.83 0.16,1.06 0.08,0.27 0.17,0.46 0.25,0.57l0 0.16 -5.14 0 0 -0.16c0.06,-0.11 0.14,-0.29 0.22,-0.57 0.06,-0.23 0.12,-0.58 0.17,-1.06 0.05,-0.47 0.08,-1.11 0.08,-1.91l0 -6.91 -9.02 0 0 6.91c0,0.8 0.02,1.44 0.06,1.91 0.04,0.47 0.09,0.83 0.16,1.06 0.08,0.27 0.17,0.46 0.25,0.57l0 0.16z"/>
   <path id="_11" class="fil0" d="M42.05 116.7c0.69,1.75 1.28,3.07 1.77,3.97 0.48,0.9 0.87,1.57 1.17,1.99 0.36,0.48 0.63,0.75 0.82,0.79l0 0.16 -5.87 0 0 -0.16c0.13,-0.04 0.19,-0.2 0.19,-0.47 0,-0.23 -0.07,-0.58 -0.2,-1.06 -0.14,-0.47 -0.39,-1.14 -0.77,-2l-1.17 -2.78 -6.37 0 -1.01 2.81c-0.29,0.8 -0.41,1.43 -0.35,1.89 0.06,0.46 0.18,0.81 0.35,1.04 0.21,0.27 0.48,0.46 0.82,0.57l0 0.16 -4.57 0 0 -0.16c0.44,-0.11 0.86,-0.29 1.26,-0.57 0.36,-0.23 0.73,-0.58 1.1,-1.06 0.38,-0.47 0.72,-1.11 1.01,-1.91l0 0.06 5.77 -16.46 0.79 0 5.27 13.18zm-4.29 -0.06l-3.22 -7.76 -2.74 7.76 5.96 0z"/>
   <path id="_12" class="fil0" d="M63.34 104.43l4.51 0 -0.06 0.16c-0.42,0.1 -0.82,0.29 -1.2,0.57 -0.34,0.23 -0.68,0.58 -1.04,1.06 -0.36,0.47 -0.65,1.11 -0.88,1.91l0.03 -0.03 -4.83 15.77 -0.88 0 -5.55 -14.41 -4.42 14.41 -0.88 0 -6.12 -15.89c-0.29,-0.8 -0.56,-1.44 -0.79,-1.92 -0.23,-0.48 -0.43,-0.84 -0.6,-1.07 -0.19,-0.27 -0.35,-0.45 -0.47,-0.54l0 -0.19 5.2 0 -0.03 0.19c-0.06,0.08 -0.07,0.26 -0.03,0.54 0.04,0.23 0.13,0.59 0.25,1.07 0.13,0.48 0.35,1.13 0.66,1.92l4.04 10.82 2.96 -9.9 -0.32 -0.91c-0.29,-0.8 -0.56,-1.44 -0.79,-1.92 -0.23,-0.48 -0.43,-0.84 -0.6,-1.07 -0.19,-0.27 -0.35,-0.45 -0.47,-0.54l0 -0.19 5.17 0 0 0.19c-0.06,0.08 -0.07,0.26 -0.03,0.54 0.04,0.23 0.13,0.59 0.25,1.07 0.13,0.48 0.34,1.13 0.63,1.92l4.04 10.82 3.19 -10.69c0.23,-0.8 0.31,-1.43 0.24,-1.89 -0.07,-0.46 -0.2,-0.81 -0.39,-1.04 -0.23,-0.27 -0.52,-0.46 -0.85,-0.57l0.06 -0.16z"/>
   <path id="_13" class="fil0" d="M77.47 116.7c0.69,1.75 1.28,3.07 1.77,3.97 0.48,0.9 0.87,1.57 1.17,1.99 0.36,0.48 0.63,0.75 0.82,0.79l0 0.16 -5.87 0 0 -0.16c0.13,-0.04 0.19,-0.2 0.19,-0.47 0,-0.23 -0.07,-0.58 -0.2,-1.06 -0.14,-0.47 -0.39,-1.14 -0.77,-2l-1.17 -2.78 -6.37 0 -1.01 2.81c-0.29,0.8 -0.41,1.43 -0.35,1.89 0.06,0.46 0.18,0.81 0.35,1.04 0.21,0.27 0.48,0.46 0.82,0.57l0 0.16 -4.57 0 0 -0.16c0.44,-0.11 0.86,-0.29 1.26,-0.57 0.36,-0.23 0.73,-0.58 1.1,-1.06 0.38,-0.47 0.72,-1.11 1.01,-1.91l0 0.06 5.77 -16.46 0.79 0 5.27 13.18zm-4.29 -0.06l-3.22 -7.76 -2.74 7.76 5.96 0z"/>
   <path id="_14" class="fil0" d="M97.56 119.91c0.55,0.88 0.99,1.56 1.32,2.03 0.34,0.47 0.61,0.83 0.82,1.06 0.23,0.25 0.42,0.4 0.57,0.44l0 0.16 -5.77 0 0 -0.16c0.11,-0.11 0.14,-0.29 0.09,-0.57 -0.04,-0.23 -0.16,-0.58 -0.35,-1.06 -0.19,-0.47 -0.52,-1.11 -1,-1.91l-2.48 -4.13 -3.61 0 0 4.13c0,0.8 0.02,1.44 0.06,1.91 0.04,0.47 0.09,0.83 0.16,1.06 0.07,0.27 0.15,0.46 0.22,0.57l0 0.16 -5.11 0 0 -0.16c0.06,-0.11 0.14,-0.29 0.22,-0.57 0.06,-0.23 0.12,-0.58 0.17,-1.06 0.05,-0.47 0.08,-1.11 0.08,-1.91l0 -11.95c0,-0.8 -0.03,-1.44 -0.08,-1.91 -0.05,-0.47 -0.11,-0.83 -0.17,-1.06 -0.08,-0.27 -0.16,-0.46 -0.22,-0.57l0 -0.16 8.48 -0.03 -0.03 0c1.53,0 2.85,0.15 3.94,0.46 1.09,0.3 1.99,0.72 2.68,1.25 0.69,0.53 1.2,1.14 1.53,1.83 0.33,0.69 0.49,1.44 0.49,2.24 0,1.2 -0.42,2.27 -1.26,3.2 -0.84,0.94 -2.02,1.62 -3.53,2.07l2.78 4.64zm-8.8 -4.51c1.24,0 2.27,-0.14 3.11,-0.41 0.84,-0.27 1.51,-0.65 2.02,-1.14 0.52,-0.48 0.88,-1.05 1.1,-1.7 0.22,-0.65 0.33,-1.37 0.33,-2.14 0,-0.78 -0.09,-1.49 -0.28,-2.14 -0.19,-0.65 -0.49,-1.21 -0.91,-1.69 -0.42,-0.47 -0.96,-0.85 -1.63,-1.12 -0.67,-0.27 -1.5,-0.41 -2.48,-0.41l-2.51 0c-0.06,0.17 -0.14,0.49 -0.22,0.98 -0.08,0.48 -0.13,1.26 -0.13,2.33l0 7.44 1.6 0z"/>
   <path id="_15" class="fil0" d="M106.2 123.6l-4.67 0 0 -0.16c0.06,-0.11 0.14,-0.29 0.22,-0.57 0.06,-0.23 0.12,-0.58 0.17,-1.06 0.05,-0.47 0.08,-1.11 0.08,-1.91l0 -11.95c0,-0.8 -0.03,-1.44 -0.08,-1.92 -0.05,-0.48 -0.11,-0.84 -0.17,-1.07 -0.08,-0.27 -0.16,-0.45 -0.22,-0.54l0 -0.19 6.12 0c1.79,0 3.35,0.28 4.68,0.84 1.34,0.56 2.44,1.29 3.31,2.19 0.87,0.9 1.52,1.94 1.96,3.11 0.43,1.17 0.65,2.36 0.65,3.58 0,1.2 -0.19,2.37 -0.58,3.52 -0.39,1.15 -1,2.18 -1.84,3.09 -0.84,0.91 -1.91,1.65 -3.21,2.21 -1.3,0.56 -2.86,0.84 -4.69,0.84l-1.73 0zm0 -0.38l0.38 0c1.36,0 2.51,-0.27 3.44,-0.8 0.93,-0.54 1.68,-1.24 2.24,-2.1 0.57,-0.86 0.97,-1.85 1.21,-2.96 0.24,-1.11 0.36,-2.26 0.36,-3.44 0,-1.16 -0.12,-2.29 -0.36,-3.41 -0.24,-1.11 -0.64,-2.1 -1.21,-2.96 -0.56,-0.86 -1.31,-1.56 -2.24,-2.1 -0.93,-0.54 -2.08,-0.8 -3.44,-0.8l-0.38 0 0 18.58z"/>
   <path id="_16" class="fil0" d="M128.28 123.79c-1.24,0 -2.39,-0.13 -3.45,-0.38 -1.06,-0.25 -1.99,-0.59 -2.78,-1.02 -0.79,-0.43 -1.41,-0.94 -1.86,-1.51 -0.45,-0.58 -0.68,-1.2 -0.68,-1.88l0 -0.03 0 -0.03c0.02,-0.61 0.25,-1.13 0.69,-1.56 0.44,-0.43 0.97,-0.65 1.58,-0.65 0.63,0 1.17,0.23 1.61,0.68 0.44,0.45 0.66,0.98 0.66,1.59 0,0.48 0.09,0.98 0.27,1.48 0.18,0.5 0.45,0.96 0.82,1.37 0.37,0.41 0.84,0.74 1.4,0.99 0.57,0.25 1.24,0.38 2.02,0.38 0.61,0 1.15,-0.14 1.61,-0.43 0.46,-0.28 0.85,-0.63 1.15,-1.04 0.3,-0.41 0.53,-0.85 0.68,-1.31 0.15,-0.46 0.22,-0.87 0.22,-1.23 0,-0.82 -0.29,-1.49 -0.88,-2 -0.59,-0.52 -1.32,-0.96 -2.19,-1.32 -0.87,-0.37 -1.82,-0.71 -2.84,-1.04 -1.02,-0.33 -1.97,-0.73 -2.84,-1.2 -0.87,-0.47 -1.6,-1.07 -2.19,-1.78 -0.59,-0.71 -0.88,-1.65 -0.88,-2.81 0,-0.67 0.16,-1.32 0.47,-1.94 0.32,-0.62 0.78,-1.17 1.4,-1.66 0.62,-0.48 1.39,-0.87 2.3,-1.15 0.91,-0.28 1.97,-0.43 3.17,-0.43 1.24,0 2.33,0.12 3.26,0.35 0.94,0.23 1.72,0.54 2.35,0.93 0.63,0.39 1.13,0.84 1.5,1.34 0.37,0.5 0.6,1.02 0.71,1.55 0.06,0.19 0.09,0.39 0.09,0.6l0 0.03 0 0.03c-0.04,0.61 -0.28,1.13 -0.71,1.56 -0.43,0.43 -0.95,0.65 -1.56,0.65 -0.63,0 -1.17,-0.22 -1.61,-0.66 -0.44,-0.44 -0.66,-0.98 -0.66,-1.61 0,-0.48 -0.04,-0.98 -0.13,-1.5 -0.08,-0.52 -0.24,-0.99 -0.47,-1.42 -0.23,-0.43 -0.56,-0.78 -0.98,-1.06 -0.42,-0.27 -0.96,-0.41 -1.61,-0.41 -1.09,0 -1.92,0.33 -2.49,0.98 -0.57,0.65 -0.85,1.48 -0.85,2.49 0,1.01 0.29,1.81 0.88,2.4 0.59,0.59 1.33,1.08 2.22,1.47 0.89,0.39 1.86,0.73 2.9,1.02 1.04,0.29 2.01,0.66 2.9,1.1 0.89,0.44 1.63,1 2.22,1.69 0.59,0.68 0.88,1.61 0.88,2.79 0,0.61 -0.17,1.24 -0.52,1.89 -0.35,0.65 -0.87,1.25 -1.56,1.8 -0.69,0.55 -1.56,1 -2.6,1.36 -1.04,0.36 -2.26,0.54 -3.64,0.54z"/>
  </g>
 </g>
</svg>
