<?xml version="1.0" encoding="UTF-8"?>
<!DOCTYPE svg PUBLIC "-//W3C//DTD SVG 1.1//EN" "http://www.w3.org/Graphics/SVG/1.1/DTD/svg11.dtd">
<!-- Creator: CorelDRAW 2021 (64-Bit) -->
<svg xmlns="http://www.w3.org/2000/svg" xml:space="preserve" width="183.492mm" height="72.0739mm" version="1.1" style="shape-rendering:geometricPrecision; text-rendering:geometricPrecision; image-rendering:optimizeQuality; fill-rule:evenodd; clip-rule:evenodd"
viewBox="0 0 4464.69 1753.69"
 xmlns:xlink="http://www.w3.org/1999/xlink"
 xmlns:xodm="http://www.corel.com/coreldraw/odm/2003">
 <defs>
  <style type="text/css">
   <![CDATA[
    .str0 {stroke:black;stroke-width:1.85;stroke-linecap:round;stroke-linejoin:round;stroke-miterlimit:22.9256}
    .fil2 {fill:none;fill-rule:nonzero}
    .fil1 {fill:black;fill-rule:nonzero}
    .fil0 {fill:url(#id0)}
   ]]>
  </style>
  <linearGradient id="id0" gradientUnits="userSpaceOnUse" x1="1888.26" y1="-157.68" x2="2576.43" y2="1911.37">
   <stop offset="0" style="stop-opacity:1; stop-color:#A1A1A1"/>
   <stop offset="0.239216" style="stop-opacity:1; stop-color:#ABABAB"/>
   <stop offset="0.388235" style="stop-opacity:1; stop-color:white"/>
   <stop offset="0.568627" style="stop-opacity:1; stop-color:#A6A6A6"/>
   <stop offset="1" style="stop-opacity:1; stop-color:#8F8F8F"/>
  </linearGradient>
 </defs>
 <g id="Layer_x0020_1">
  <metadata id="CorelCorpID_0Corel-Layer"/>
  <path class="fil0" d="M-0 0l4464.69 0 0 876.85c0,482.26 -394.58,876.84 -876.84,876.84l-2711 0c-482.26,0 -876.84,-394.58 -876.84,-876.84l0 -876.85z"/>
  <path class="fil1" d="M1194.71 383.84c25.79,0 47.87,2.56 66.24,7.68 18.37,5.12 33.39,12.1 45.05,20.93 11.66,8.83 20.23,19.08 25.7,30.74 5.48,11.66 8.21,24.2 8.21,37.63 0,13.42 -3.36,26.05 -10.07,37.89 -6.71,11.84 -16.08,22.08 -28.26,30.74 -12.19,8.65 -26.85,15.55 -44.16,20.67 -17.22,5.12 -36.48,7.68 -57.59,7.68l-68.72 0 0 69.42c0,13.43 0.35,24.11 1.06,32.06 0.71,7.95 1.59,13.87 2.65,17.75 1.24,4.59 2.47,7.77 3.71,9.54l0 2.65 -85.85 0 0 -2.65c1.06,-1.77 2.3,-4.95 3.71,-9.54 1.06,-3.89 2.03,-9.81 2.91,-17.75 0.88,-7.95 1.32,-18.64 1.32,-32.06l0 -200.85c0,-13.43 -0.44,-24.11 -1.32,-32.06 -0.88,-7.95 -1.86,-13.87 -2.91,-17.75 -1.41,-4.59 -2.65,-7.77 -3.71,-9.54l0 -2.65 142.03 -0.53zm-36.66 187.6c20.76,0 38.16,-2.3 52.29,-6.89 14.04,-4.59 25.35,-10.95 34,-19.08 8.66,-8.12 14.75,-17.66 18.46,-28.62 3.71,-10.95 5.56,-22.96 5.56,-36.04 0,-13.07 -1.59,-25.08 -4.77,-36.04 -3.18,-10.95 -8.21,-20.4 -15.28,-28.35 -7.07,-7.95 -16.25,-14.22 -27.73,-18.81 -11.39,-4.59 -25.44,-6.89 -41.96,-6.89l-41.69 0c-1.06,2.82 -2.29,8.3 -3.71,16.43 -1.41,8.13 -2.12,21.2 -2.12,39.22l0 125.07 26.94 0z"/>
  <path id="_1" class="fil1" d="M1617.6 709.23l-256.5 0 0 -2.65c1.06,-1.77 2.3,-4.95 3.71,-9.54 1.06,-3.89 2.03,-9.81 2.91,-17.75 0.88,-7.95 1.32,-18.64 1.32,-32.06l0 -200.85c0,-13.43 -0.44,-24.2 -1.32,-32.33 -0.88,-8.13 -1.86,-14.13 -2.91,-18.02 -1.41,-4.59 -2.65,-7.6 -3.71,-9.01l0 -3.18 86.38 0 0 3.18c-1.41,1.41 -2.83,4.42 -4.24,9.01 -1.06,3.89 -1.94,9.89 -2.65,18.02 -0.71,8.12 -1.06,18.9 -1.06,32.33l0 256.49 41.33 0c26.85,0 49.11,-3.27 66.77,-9.8 17.66,-6.54 31.62,-13.87 41.87,-21.99 12.01,-9.19 21.38,-19.78 28.09,-31.8l2.65 0 0 69.95 -2.65 0z"/>
  <path id="_2" class="fil1" d="M1896.36 593.17c11.66,29.32 21.55,51.58 29.68,66.77 8.13,15.19 14.66,26.32 19.61,33.39 6.01,8.13 10.6,12.54 13.78,13.25l0 2.65 -98.57 0 0 -2.65c2.12,-0.71 3.18,-3.36 3.18,-7.95 0,-3.89 -1.15,-9.8 -3.44,-17.75 -2.3,-7.95 -6.63,-19.17 -12.99,-33.65l-19.61 -46.63 -107.05 0 -16.96 47.16c-4.94,13.43 -6.89,24.03 -5.83,31.8 1.06,7.77 3,13.6 5.83,17.49 3.53,4.59 8.13,7.77 13.78,9.54l0 2.65 -76.84 0 0 -2.65c7.42,-1.77 14.48,-4.95 21.2,-9.54 6.01,-3.89 12.19,-9.81 18.55,-17.75 6.36,-7.95 12.01,-18.64 16.96,-32.06l0 1.06 96.98 -276.63 13.25 0 88.5 221.52zm-72.07 -1.06l-54.06 -130.37 -46.1 130.37 100.16 0z"/>
  <path id="_3" class="fil1" d="M2176.17 383.84l2.65 0 0 70.48 -2.65 0c-5.65,-9.54 -13.07,-18.37 -22.26,-26.5 -8.13,-7.07 -18.81,-13.96 -32.06,-20.67 -13.25,-6.71 -29.94,-11.48 -50.08,-14.31 -1.06,3.53 -2.12,9.36 -3.18,17.49 -1.06,8.13 -1.59,20.14 -1.59,36.04l0 200.85c0,13.43 0.35,24.11 1.06,32.06 0.71,7.95 1.59,13.87 2.65,17.75 1.41,4.59 2.83,7.77 4.24,9.54l0 2.65 -86.38 0 0 -2.65c1.06,-1.77 2.3,-4.95 3.71,-9.54 1.06,-3.89 2.03,-9.81 2.91,-17.75 0.88,-7.95 1.32,-18.64 1.32,-32.06l0 -200.85c0,-15.9 -0.53,-27.82 -1.59,-35.77 -1.06,-7.95 -2.12,-13.69 -3.18,-17.22 -20.14,2.82 -36.66,7.59 -49.55,14.31 -12.89,6.71 -23.23,13.6 -31,20.67 -9.19,8.13 -16.25,16.78 -21.2,25.97l-2.65 0 0 -70.48 2.65 0 286.17 0z"/>
  <path id="_4" class="fil1" d="M2286.4 709.23l-86.38 0 0 -2.65c1.06,-1.77 2.3,-4.95 3.71,-9.54 1.06,-3.89 2.03,-9.81 2.91,-17.75 0.88,-7.95 1.32,-18.64 1.32,-32.06l0 -200.85c0,-13.43 -0.44,-24.2 -1.32,-32.33 -0.88,-8.13 -1.86,-14.13 -2.91,-18.02 -1.41,-4.59 -2.65,-7.6 -3.71,-9.01l0 -3.18 86.38 0 0 3.18c-1.41,1.41 -2.83,4.42 -4.24,9.01 -1.06,3.89 -1.94,9.89 -2.65,18.02 -0.71,8.12 -1.06,18.9 -1.06,32.33l0 200.85c0,13.43 0.35,24.11 1.06,32.06 0.71,7.95 1.59,13.87 2.65,17.75 1.41,4.59 2.83,7.77 4.24,9.54l0 2.65z"/>
  <path id="_5" class="fil1" d="M2382.85 709.23l-75.78 0 0 -2.65c6.36,-1.77 12.01,-4.95 16.96,-9.54 4.24,-3.89 8.21,-9.81 11.92,-17.75 3.71,-7.95 5.56,-18.64 5.56,-32.06l0 -200.85c0,-13.43 -1.85,-24.2 -5.56,-32.33 -3.71,-8.13 -7.68,-14.13 -11.92,-18.02 -4.95,-4.59 -10.6,-7.6 -16.96,-9.01l0 -3.18 101.75 0 183.36 223.11 0 -160.57c0,-13.43 -1.85,-24.2 -5.56,-32.33 -3.71,-8.13 -7.68,-14.13 -11.92,-18.02 -4.95,-4.59 -10.6,-7.6 -16.96,-9.01l0 -3.18 75.78 0 0 3.18c-6.71,1.41 -12.54,4.42 -17.49,9.01 -4.24,3.89 -8.13,9.89 -11.66,18.02 -3.53,8.12 -5.3,18.9 -5.3,32.33l0 270.8 -6.89 0 -240.6 -296.24c-0.71,3.89 -1.41,7.86 -2.12,11.93 -0.71,4.06 -1.06,8.57 -1.06,13.51l0 200.85c0,13.43 1.77,24.11 5.3,32.06 3.53,7.95 7.42,13.87 11.66,17.75 4.95,4.59 10.78,7.77 17.49,9.54l0 2.65z"/>
  <path id="_6" class="fil1" d="M2793.03 712.41c-18.73,0 -36.3,-3.53 -52.73,-10.6 -16.43,-7.07 -30.83,-16.69 -43.19,-28.88 -12.37,-12.19 -22.08,-26.5 -29.15,-42.93 -7.07,-16.43 -10.6,-34.01 -10.6,-52.73l0 -130.9c0,-13.43 -0.44,-24.2 -1.32,-32.33 -0.88,-8.13 -1.86,-14.13 -2.91,-18.02 -1.41,-4.59 -2.65,-7.6 -3.71,-9.01l0 -3.18 86.38 0 0 3.18c-1.41,1.41 -2.83,4.42 -4.24,9.01 -1.06,3.89 -1.94,9.89 -2.65,18.02 -0.71,8.12 -1.06,18.9 -1.06,32.33l0 138.85c0,25.08 4.77,45.4 14.31,60.94 9.54,15.55 21.55,26.85 36.04,33.92 14.48,7.07 30.03,9.98 46.63,8.74 16.61,-1.24 32.15,-6.18 46.64,-14.84 14.48,-8.65 26.5,-20.85 36.04,-36.57 9.54,-15.72 14.31,-34.53 14.31,-56.44l0 -134.61c0,-13.43 -1.86,-24.2 -5.56,-32.33 -3.71,-8.13 -7.68,-14.13 -11.93,-18.02 -4.95,-4.59 -10.6,-7.6 -16.96,-9.01l0 -3.18 75.78 0 0 3.18c-6.71,1.41 -12.54,4.42 -17.49,9.01 -4.59,3.89 -8.66,9.89 -12.19,18.02 -3.53,8.12 -5.3,18.9 -5.3,32.33l0 130.9c0,18.72 -3.53,36.3 -10.6,52.73 -7.07,16.43 -16.69,30.74 -28.88,42.93 -12.19,12.19 -26.5,21.82 -42.93,28.88 -16.43,7.07 -34,10.6 -52.73,10.6z"/>
  <path id="_7" class="fil1" d="M3397.71 647.22c1.41,13.43 3,24.11 4.77,32.06 1.77,7.95 3.36,13.87 4.77,17.75 1.41,4.59 3,7.77 4.77,9.54l0 2.65 -85.85 0 -0.53 -2.65c1.41,-1.77 2.47,-4.95 3.18,-9.54 0.71,-3.89 1.06,-9.81 1.06,-17.75 0,-7.95 -0.71,-18.64 -2.12,-32.06l-30.74 -204.03 -120.83 273.98 -6.36 0 -146.27 -272.93c0,0 -0.44,3 -1.33,9.01 -0.88,6.01 -2.03,13.78 -3.44,23.32 -1.41,9.54 -3.09,20.31 -5.04,32.33 -1.94,12.01 -3.8,24.38 -5.56,37.1 -4.24,29.68 -9.19,63.42 -14.84,101.22 -1.77,13.43 -1.24,24.11 1.59,32.06 2.82,7.95 6.18,13.87 10.07,17.75 4.59,4.59 10.07,7.77 16.43,9.54l0 2.65 -75.78 0 0 -2.65c6.36,-1.77 12.37,-4.95 18.02,-9.54 4.95,-3.89 9.54,-9.81 13.78,-17.75 4.24,-7.95 7.24,-18.64 9.01,-32.06l30.21 -200.85c1.41,-13.43 0.8,-24.2 -1.85,-32.33 -2.65,-8.13 -5.92,-14.13 -9.8,-18.02 -4.59,-4.59 -10.07,-7.6 -16.43,-9.01l0 -3.18 75.78 1.06 133.55 248.54 112.35 -249.61 58.82 0 0 3.18c-1.41,1.41 -2.47,4.42 -3.18,9.01 -0.71,3.89 -1.06,9.89 -1.06,18.02 0,8.12 0.88,18.9 2.65,32.33l30.21 200.85z"/>
  <path id="_8" class="fil1" d="M1646.83 1302.56c0,2.86 -0.23,5.2 -0.68,7.08 -0.45,1.96 -0.98,3.46 -1.73,4.67 -0.75,1.2 -1.58,2.03 -2.56,2.64 -0.98,0.6 -1.88,0.91 -2.71,0.91l-175.62 0c-0.98,0 -1.96,-0.3 -2.86,-0.91 -0.83,-0.6 -1.73,-1.43 -2.49,-2.64 -0.83,-1.21 -1.43,-2.71 -1.88,-4.67 -0.45,-1.88 -0.68,-4.22 -0.68,-7.08 0,-2.64 0.15,-4.97 0.53,-6.93 0.38,-1.96 0.98,-3.62 1.66,-4.9 0.75,-1.2 1.66,-2.11 2.56,-2.71 0.98,-0.6 2.03,-0.9 3.24,-0.9l27.27 0 0 -100.35 -27.27 0c-1.05,0 -2.03,-0.23 -2.86,-0.75 -0.91,-0.53 -1.73,-1.36 -2.56,-2.56 -0.83,-1.21 -1.43,-2.71 -1.88,-4.52 -0.45,-1.88 -0.68,-4.22 -0.68,-7.23 0,-2.48 0.15,-4.67 0.53,-6.55 0.38,-1.96 0.98,-3.54 1.66,-4.82 0.75,-1.2 1.66,-2.11 2.56,-2.64 0.98,-0.53 2.03,-0.75 3.24,-0.75l27.27 0 0 -26.45c0,-18.08 2.03,-33.6 6.18,-46.56 4.14,-12.96 9.95,-23.51 17.56,-31.79 7.53,-8.21 16.65,-14.24 27.42,-17.93 10.7,-3.77 22.68,-5.65 35.94,-5.65 6.18,0 12.2,0.53 18.16,1.66 5.95,1.13 11.45,2.64 16.5,4.52 5.12,1.88 9.64,4.14 13.71,6.63 4.07,2.49 7.08,4.67 9.04,6.63 1.96,1.88 3.31,3.39 4.07,4.6 0.75,1.2 1.36,2.49 1.73,3.99 0.45,1.43 0.75,3.09 0.9,4.82 0.15,1.81 0.23,3.99 0.23,6.63 0,2.49 -0.15,4.67 -0.45,6.63 -0.3,1.88 -0.75,3.47 -1.28,4.75 -0.6,1.2 -1.28,2.18 -2.11,2.86 -0.83,0.68 -1.73,0.98 -2.79,0.98 -2.03,0 -4.44,-1.28 -7.31,-3.77 -2.86,-2.49 -6.48,-5.27 -10.92,-8.21 -4.37,-2.94 -9.72,-5.73 -15.9,-8.21 -6.25,-2.49 -13.71,-3.77 -22.38,-3.77 -8.74,0 -16.35,1.51 -22.75,4.52 -6.4,3.01 -11.6,7.46 -15.75,13.33 -4.07,5.95 -7.16,13.19 -9.19,21.93 -2.03,8.66 -3.09,18.68 -3.09,30.06l0 27.8 71.88 0c1.2,0 2.26,0.22 3.16,0.75 0.98,0.53 1.81,1.43 2.41,2.64 0.68,1.28 1.2,2.86 1.58,4.82 0.38,1.88 0.53,4.07 0.53,6.55 0,3.01 -0.23,5.35 -0.68,7.23 -0.45,1.81 -0.98,3.31 -1.73,4.52 -0.75,1.2 -1.51,2.03 -2.41,2.56 -0.9,0.53 -1.81,0.75 -2.86,0.75l-71.88 0 0 100.35 110.75 0c1.05,0 2.03,0.3 2.94,0.9 0.98,0.6 1.81,1.51 2.56,2.71 0.75,1.28 1.28,2.94 1.66,4.9 0.38,1.96 0.53,4.29 0.53,6.93z"/>
  <path id="_9" class="fil1" d="M1973.59 1302.94c0,2.79 -0.23,5.12 -0.68,7.01 -0.45,1.88 -0.98,3.46 -1.73,4.6 -0.75,1.2 -1.58,2.03 -2.56,2.56 -0.98,0.53 -1.96,0.75 -2.94,0.75l-149.17 0c-0.98,0 -1.96,-0.23 -2.86,-0.75 -0.83,-0.53 -1.73,-1.36 -2.48,-2.56 -0.83,-1.13 -1.43,-2.71 -1.89,-4.6 -0.45,-1.88 -0.68,-4.22 -0.68,-7.01 0,-2.64 0.23,-4.9 0.68,-6.78 0.45,-1.96 0.98,-3.54 1.66,-4.74 0.6,-1.28 1.43,-2.18 2.41,-2.86 0.98,-0.68 2.03,-0.98 3.16,-0.98l59.44 0 0 -217.43 -55.22 33c-2.79,1.43 -5.05,2.33 -6.78,2.64 -1.66,0.3 -3.01,0 -4.07,-0.98 -1.05,-0.98 -1.73,-2.56 -2.11,-4.75 -0.38,-2.18 -0.53,-4.97 -0.53,-8.36 0,-2.49 0.08,-4.67 0.3,-6.4 0.23,-1.81 0.6,-3.24 1.06,-4.45 0.45,-1.13 1.05,-2.18 1.88,-3.09 0.75,-0.83 1.81,-1.73 3.16,-2.64l65.85 -42.12c0.6,-0.45 1.28,-0.83 2.18,-1.13 0.9,-0.23 2.03,-0.53 3.31,-0.83 1.36,-0.3 2.86,-0.53 4.67,-0.6 1.73,-0.08 3.92,-0.08 6.63,-0.08 3.46,0 6.48,0.15 8.81,0.45 2.34,0.3 4.14,0.68 5.5,1.21 1.36,0.53 2.18,1.2 2.64,1.96 0.45,0.83 0.68,1.66 0.68,2.56l0 251.03 51.68 0c1.21,0 2.34,0.3 3.31,0.98 1.06,0.68 1.89,1.58 2.56,2.86 0.68,1.2 1.21,2.79 1.58,4.74 0.37,1.89 0.53,4.14 0.53,6.78z"/>
  <path id="_10" class="fil1" d="M2553.18 1174.33c0,21.93 -1.73,41.97 -5.2,60.05 -3.47,18.08 -9.19,33.6 -17.18,46.64 -8.06,13.03 -18.53,23.05 -31.49,30.21 -12.96,7.16 -28.93,10.7 -47.92,10.7 -17.93,0 -33,-3.16 -45.35,-9.57 -12.28,-6.4 -22.15,-15.82 -29.68,-28.25 -7.46,-12.43 -12.81,-27.72 -15.97,-45.88 -3.16,-18.16 -4.75,-39.03 -4.75,-62.53 0,-21.77 1.73,-41.74 5.28,-59.9 3.54,-18.16 9.27,-33.75 17.25,-46.79 7.91,-13.03 18.38,-23.05 31.34,-30.21 12.96,-7.16 28.86,-10.7 47.69,-10.7 18.08,0 33.23,3.16 45.58,9.57 12.28,6.4 22.15,15.82 29.68,28.25 7.46,12.43 12.81,27.73 15.97,45.88 3.17,18.16 4.75,39.03 4.75,62.53zm-38.87 2.64c0,-14.24 -0.53,-27.05 -1.51,-38.35 -1.06,-11.3 -2.56,-21.32 -4.6,-29.98 -1.96,-8.66 -4.52,-16.12 -7.68,-22.38 -3.17,-6.18 -6.93,-11.38 -11.38,-15.37 -4.37,-4.07 -9.42,-7.01 -15.07,-8.82 -5.73,-1.88 -12.05,-2.79 -19.14,-2.79 -12.5,0 -22.6,2.94 -30.44,8.81 -7.76,5.88 -13.94,13.94 -18.38,24.26 -4.52,10.25 -7.53,22.3 -9.19,36.16 -1.58,13.79 -2.41,28.63 -2.41,44.53 0,21.25 1.13,39.4 3.31,54.32 2.18,14.92 5.73,27.05 10.47,36.46 4.75,9.42 10.85,16.27 18.31,20.49 7.46,4.29 16.42,6.4 27.05,6.4 8.21,0 15.45,-1.36 21.7,-3.99 6.25,-2.64 11.6,-6.4 16.12,-11.3 4.45,-4.97 8.21,-10.85 11.15,-17.78 2.94,-6.93 5.28,-14.54 7.08,-22.9 1.73,-8.36 2.94,-17.48 3.62,-27.2 0.68,-9.79 0.98,-19.96 0.98,-30.59z"/>
  <path id="_11" class="fil1" d="M2782.29 1174.33c0,21.93 -1.73,41.97 -5.2,60.05 -3.47,18.08 -9.19,33.6 -17.18,46.64 -8.06,13.03 -18.53,23.05 -31.49,30.21 -12.96,7.16 -28.93,10.7 -47.92,10.7 -17.93,0 -33,-3.16 -45.35,-9.57 -12.28,-6.4 -22.15,-15.82 -29.68,-28.25 -7.46,-12.43 -12.81,-27.72 -15.97,-45.88 -3.16,-18.16 -4.75,-39.03 -4.75,-62.53 0,-21.77 1.73,-41.74 5.28,-59.9 3.54,-18.16 9.27,-33.75 17.25,-46.79 7.91,-13.03 18.38,-23.05 31.34,-30.21 12.96,-7.16 28.86,-10.7 47.69,-10.7 18.08,0 33.23,3.16 45.58,9.57 12.28,6.4 22.15,15.82 29.68,28.25 7.46,12.43 12.81,27.73 15.97,45.88 3.17,18.16 4.75,39.03 4.75,62.53zm-38.87 2.64c0,-14.24 -0.53,-27.05 -1.51,-38.35 -1.06,-11.3 -2.56,-21.32 -4.6,-29.98 -1.96,-8.66 -4.52,-16.12 -7.68,-22.38 -3.17,-6.18 -6.93,-11.38 -11.38,-15.37 -4.37,-4.07 -9.42,-7.01 -15.07,-8.82 -5.73,-1.88 -12.05,-2.79 -19.14,-2.79 -12.5,0 -22.6,2.94 -30.44,8.81 -7.76,5.88 -13.94,13.94 -18.38,24.26 -4.52,10.25 -7.53,22.3 -9.19,36.16 -1.58,13.79 -2.41,28.63 -2.41,44.53 0,21.25 1.13,39.4 3.31,54.32 2.18,14.92 5.73,27.05 10.47,36.46 4.75,9.42 10.85,16.27 18.31,20.49 7.46,4.29 16.42,6.4 27.05,6.4 8.21,0 15.45,-1.36 21.7,-3.99 6.25,-2.64 11.6,-6.4 16.12,-11.3 4.45,-4.97 8.21,-10.85 11.15,-17.78 2.94,-6.93 5.28,-14.54 7.08,-22.9 1.73,-8.36 2.94,-17.48 3.62,-27.2 0.68,-9.79 0.98,-19.96 0.98,-30.59z"/>
  <path id="_12" class="fil1" d="M3011.41 1174.33c0,21.93 -1.73,41.97 -5.2,60.05 -3.47,18.08 -9.19,33.6 -17.18,46.64 -8.06,13.03 -18.53,23.05 -31.49,30.21 -12.96,7.16 -28.93,10.7 -47.92,10.7 -17.93,0 -33,-3.16 -45.35,-9.57 -12.28,-6.4 -22.15,-15.82 -29.68,-28.25 -7.46,-12.43 -12.81,-27.72 -15.97,-45.88 -3.16,-18.16 -4.75,-39.03 -4.75,-62.53 0,-21.77 1.73,-41.74 5.28,-59.9 3.54,-18.16 9.27,-33.75 17.25,-46.79 7.91,-13.03 18.38,-23.05 31.34,-30.21 12.96,-7.16 28.86,-10.7 47.69,-10.7 18.08,0 33.23,3.16 45.58,9.57 12.28,6.4 22.15,15.82 29.68,28.25 7.46,12.43 12.81,27.73 15.97,45.88 3.17,18.16 4.75,39.03 4.75,62.53zm-38.87 2.64c0,-14.24 -0.53,-27.05 -1.51,-38.35 -1.06,-11.3 -2.56,-21.32 -4.6,-29.98 -1.96,-8.66 -4.52,-16.12 -7.68,-22.38 -3.17,-6.18 -6.93,-11.38 -11.38,-15.37 -4.37,-4.07 -9.42,-7.01 -15.07,-8.82 -5.73,-1.88 -12.05,-2.79 -19.14,-2.79 -12.5,0 -22.6,2.94 -30.44,8.81 -7.76,5.88 -13.94,13.94 -18.38,24.26 -4.52,10.25 -7.53,22.3 -9.19,36.16 -1.58,13.79 -2.41,28.63 -2.41,44.53 0,21.25 1.13,39.4 3.31,54.32 2.18,14.92 5.73,27.05 10.47,36.46 4.75,9.42 10.85,16.27 18.31,20.49 7.46,4.29 16.42,6.4 27.05,6.4 8.21,0 15.45,-1.36 21.7,-3.99 6.25,-2.64 11.6,-6.4 16.12,-11.3 4.45,-4.97 8.21,-10.85 11.15,-17.78 2.94,-6.93 5.28,-14.54 7.08,-22.9 1.73,-8.36 2.94,-17.48 3.62,-27.2 0.68,-9.79 0.98,-19.96 0.98,-30.59z"/>
  <path id="_13" class="fil1" d="M2204.06 1163.78c0,12.36 -0.75,24.86 -2.18,37.44 -1.51,12.66 -3.99,24.86 -7.54,36.54 -3.54,11.68 -8.29,22.68 -14.24,32.85 -5.95,10.25 -13.48,19.14 -22.53,26.82 -9.04,7.61 -19.74,13.64 -32.24,18.01 -12.43,4.29 -26.9,6.48 -43.32,6.48 -6.33,0 -12.51,-0.38 -18.46,-1.2 -5.95,-0.83 -11.3,-1.81 -16.12,-3.01 -4.75,-1.13 -8.82,-2.41 -12.05,-3.77 -3.24,-1.28 -5.57,-2.64 -7.01,-3.92 -1.51,-1.36 -2.56,-3.17 -3.24,-5.43 -0.68,-2.33 -0.98,-5.35 -0.98,-9.19 0,-3.24 0.08,-5.88 0.3,-7.76 0.23,-1.89 0.6,-3.39 1.06,-4.37 0.45,-1.06 1.05,-1.73 1.88,-2.11 0.75,-0.38 1.81,-0.6 2.94,-0.6 1.66,0 3.92,0.6 6.86,1.66 2.94,1.13 6.71,2.34 11.15,3.69 4.52,1.28 9.79,2.49 15.82,3.62 6.03,1.13 12.81,1.66 20.34,1.66 14.31,0 26.59,-2.79 36.84,-8.29 10.25,-5.5 18.61,-12.81 25.09,-22.07 6.48,-9.27 11.3,-19.97 14.54,-32.17 3.24,-12.13 5.05,-25.01 5.35,-38.5 -7.83,4.52 -17.18,8.59 -28.1,12.13 -10.85,3.54 -23.43,5.27 -37.52,5.27 -15.97,0 -29.31,-2.18 -40.15,-6.48 -10.85,-4.37 -19.51,-10.32 -26.07,-17.78 -6.55,-7.53 -11.3,-16.42 -14.16,-26.75 -2.86,-10.32 -4.29,-21.55 -4.29,-33.75 0,-12.66 1.81,-24.71 5.5,-36.09 3.69,-11.45 9.42,-21.47 17.25,-30.13 7.76,-8.66 17.71,-15.59 29.76,-20.72 12.05,-5.2 26.52,-7.76 43.24,-7.76 11.98,0 22.53,1.51 31.72,4.52 9.19,3.01 17.18,7.38 23.96,13.03 6.78,5.65 12.51,12.51 17.18,20.49 4.75,7.99 8.51,17.1 11.38,27.27 2.86,10.1 4.97,21.1 6.18,32.92 1.28,11.91 1.88,24.34 1.88,37.44zm-38.42 -4.14c0,-18.84 -1.28,-34.66 -3.77,-47.54 -2.49,-12.88 -6.18,-23.28 -11.08,-31.19 -4.82,-7.99 -10.77,-13.71 -17.85,-17.25 -7.08,-3.54 -15.29,-5.28 -24.56,-5.28 -9.57,0 -17.78,1.73 -24.56,5.2 -6.78,3.46 -12.36,8.06 -16.65,13.86 -4.37,5.8 -7.61,12.43 -9.65,19.74 -2.03,7.38 -3.09,14.92 -3.09,22.75 0,8.66 0.9,16.57 2.79,23.81 1.81,7.23 4.82,13.34 8.97,18.31 4.07,4.97 9.49,8.89 16.12,11.6 6.63,2.71 14.77,4.07 24.49,4.07 11.08,0 21.77,-1.66 32.1,-4.97 10.32,-3.31 19.21,-7.68 26.75,-13.11z"/>
  <path id="_14" class="fil1" d="M2308.93 1286.44c0,4.6 -0.23,8.82 -0.68,12.58 -0.45,3.84 -1.21,7.46 -2.18,10.85 -1.06,3.39 -2.41,6.71 -4.07,10.02 -1.73,3.31 -3.84,6.86 -6.33,10.47l-30.21 45.51c-0.75,1.06 -1.58,1.88 -2.56,2.64 -0.98,0.75 -2.11,1.43 -3.54,1.96 -1.36,0.6 -3.01,1.05 -4.82,1.28 -1.88,0.23 -4.14,0.3 -7.01,0.3 -2.49,0 -4.6,-0.08 -6.25,-0.3 -1.73,-0.23 -2.94,-0.6 -3.62,-1.13 -0.75,-0.53 -1.13,-1.21 -1.21,-2.11 -0.08,-0.91 0.15,-1.88 0.75,-3.09l29.31 -60.72 0 -28.25c0,-3.92 0.45,-7.08 1.28,-9.49 0.75,-2.34 2.03,-4.07 3.84,-5.28 1.73,-1.2 4,-1.96 6.63,-2.41 2.64,-0.45 5.88,-0.68 9.72,-0.68 3.62,0 6.78,0.23 9.49,0.68 2.64,0.45 4.82,1.21 6.48,2.41 1.66,1.21 2.94,2.94 3.77,5.28 0.83,2.41 1.21,5.57 1.21,9.49z"/>
  <path id="_15" class="fil2 str0" d="M1194.71 383.84c25.79,0 47.87,2.56 66.24,7.68 18.37,5.12 33.39,12.1 45.05,20.93 11.66,8.83 20.23,19.08 25.7,30.74 5.48,11.66 8.21,24.2 8.21,37.63 0,13.42 -3.36,26.05 -10.07,37.89 -6.71,11.84 -16.08,22.08 -28.26,30.74 -12.19,8.65 -26.85,15.55 -44.16,20.67 -17.22,5.12 -36.48,7.68 -57.59,7.68l-68.72 0 0 69.42c0,13.43 0.35,24.11 1.06,32.06 0.71,7.95 1.59,13.87 2.65,17.75 1.24,4.59 2.47,7.77 3.71,9.54l0 2.65 -85.85 0 0 -2.65c1.06,-1.77 2.3,-4.95 3.71,-9.54 1.06,-3.89 2.03,-9.81 2.91,-17.75 0.88,-7.95 1.32,-18.64 1.32,-32.06l0 -200.85c0,-13.43 -0.44,-24.11 -1.32,-32.06 -0.88,-7.95 -1.86,-13.87 -2.91,-17.75 -1.41,-4.59 -2.65,-7.77 -3.71,-9.54l0 -2.65 142.03 -0.53zm-36.66 187.6c20.76,0 38.16,-2.3 52.29,-6.89 14.04,-4.59 25.35,-10.95 34,-19.08 8.66,-8.12 14.75,-17.66 18.46,-28.62 3.71,-10.95 5.56,-22.96 5.56,-36.04 0,-13.07 -1.59,-25.08 -4.77,-36.04 -3.18,-10.95 -8.21,-20.4 -15.28,-28.35 -7.07,-7.95 -16.25,-14.22 -27.73,-18.81 -11.39,-4.59 -25.44,-6.89 -41.96,-6.89l-41.69 0c-1.06,2.82 -2.29,8.3 -3.71,16.43 -1.41,8.13 -2.12,21.2 -2.12,39.22l0 125.07 26.94 0z"/>
  <path id="_16" class="fil2 str0" d="M1617.6 709.23l-256.5 0 0 -2.65c1.06,-1.77 2.3,-4.95 3.71,-9.54 1.06,-3.89 2.03,-9.81 2.91,-17.75 0.88,-7.95 1.32,-18.64 1.32,-32.06l0 -200.85c0,-13.43 -0.44,-24.2 -1.32,-32.33 -0.88,-8.13 -1.86,-14.13 -2.91,-18.02 -1.41,-4.59 -2.65,-7.6 -3.71,-9.01l0 -3.18 86.38 0 0 3.18c-1.41,1.41 -2.83,4.42 -4.24,9.01 -1.06,3.89 -1.94,9.89 -2.65,18.02 -0.71,8.12 -1.06,18.9 -1.06,32.33l0 256.49 41.33 0c26.85,0 49.11,-3.27 66.77,-9.8 17.66,-6.54 31.62,-13.87 41.87,-21.99 12.01,-9.19 21.38,-19.78 28.09,-31.8l2.65 0 0 69.95 -2.65 0z"/>
  <path id="_17" class="fil2 str0" d="M1896.36 593.17c11.66,29.32 21.55,51.58 29.68,66.77 8.13,15.19 14.66,26.32 19.61,33.39 6.01,8.13 10.6,12.54 13.78,13.25l0 2.65 -98.57 0 0 -2.65c2.12,-0.71 3.18,-3.36 3.18,-7.95 0,-3.89 -1.15,-9.8 -3.44,-17.75 -2.3,-7.95 -6.63,-19.17 -12.99,-33.65l-19.61 -46.63 -107.05 0 -16.96 47.16c-4.94,13.43 -6.89,24.03 -5.83,31.8 1.06,7.77 3,13.6 5.83,17.49 3.53,4.59 8.13,7.77 13.78,9.54l0 2.65 -76.84 0 0 -2.65c7.42,-1.77 14.48,-4.95 21.2,-9.54 6.01,-3.89 12.19,-9.81 18.55,-17.75 6.36,-7.95 12.01,-18.64 16.96,-32.06l0 1.06 96.98 -276.63 13.25 0 88.5 221.52zm-72.07 -1.06l-54.06 -130.37 -46.1 130.37 100.16 0z"/>
  <path id="_18" class="fil2 str0" d="M2176.17 383.84l2.65 0 0 70.48 -2.65 0c-5.65,-9.54 -13.07,-18.37 -22.26,-26.5 -8.13,-7.07 -18.81,-13.96 -32.06,-20.67 -13.25,-6.71 -29.94,-11.48 -50.08,-14.31 -1.06,3.53 -2.12,9.36 -3.18,17.49 -1.06,8.13 -1.59,20.14 -1.59,36.04l0 200.85c0,13.43 0.35,24.11 1.06,32.06 0.71,7.95 1.59,13.87 2.65,17.75 1.41,4.59 2.83,7.77 4.24,9.54l0 2.65 -86.38 0 0 -2.65c1.06,-1.77 2.3,-4.95 3.71,-9.54 1.06,-3.89 2.03,-9.81 2.91,-17.75 0.88,-7.95 1.32,-18.64 1.32,-32.06l0 -200.85c0,-15.9 -0.53,-27.82 -1.59,-35.77 -1.06,-7.95 -2.12,-13.69 -3.18,-17.22 -20.14,2.82 -36.66,7.59 -49.55,14.31 -12.89,6.71 -23.23,13.6 -31,20.67 -9.19,8.13 -16.25,16.78 -21.2,25.97l-2.65 0 0 -70.48 2.65 0 286.17 0z"/>
  <path id="_19" class="fil2 str0" d="M2286.4 709.23l-86.38 0 0 -2.65c1.06,-1.77 2.3,-4.95 3.71,-9.54 1.06,-3.89 2.03,-9.81 2.91,-17.75 0.88,-7.95 1.32,-18.64 1.32,-32.06l0 -200.85c0,-13.43 -0.44,-24.2 -1.32,-32.33 -0.88,-8.13 -1.86,-14.13 -2.91,-18.02 -1.41,-4.59 -2.65,-7.6 -3.71,-9.01l0 -3.18 86.38 0 0 3.18c-1.41,1.41 -2.83,4.42 -4.24,9.01 -1.06,3.89 -1.94,9.89 -2.65,18.02 -0.71,8.12 -1.06,18.9 -1.06,32.33l0 200.85c0,13.43 0.35,24.11 1.06,32.06 0.71,7.95 1.59,13.87 2.65,17.75 1.41,4.59 2.83,7.77 4.24,9.54l0 2.65z"/>
  <path id="_20" class="fil2 str0" d="M2382.85 709.23l-75.78 0 0 -2.65c6.36,-1.77 12.01,-4.95 16.96,-9.54 4.24,-3.89 8.21,-9.81 11.92,-17.75 3.71,-7.95 5.56,-18.64 5.56,-32.06l0 -200.85c0,-13.43 -1.85,-24.2 -5.56,-32.33 -3.71,-8.13 -7.68,-14.13 -11.92,-18.02 -4.95,-4.59 -10.6,-7.6 -16.96,-9.01l0 -3.18 101.75 0 183.36 223.11 0 -160.57c0,-13.43 -1.85,-24.2 -5.56,-32.33 -3.71,-8.13 -7.68,-14.13 -11.92,-18.02 -4.95,-4.59 -10.6,-7.6 -16.96,-9.01l0 -3.18 75.78 0 0 3.18c-6.71,1.41 -12.54,4.42 -17.49,9.01 -4.24,3.89 -8.13,9.89 -11.66,18.02 -3.53,8.12 -5.3,18.9 -5.3,32.33l0 270.8 -6.89 0 -240.6 -296.24c-0.71,3.89 -1.41,7.86 -2.12,11.93 -0.71,4.06 -1.06,8.57 -1.06,13.51l0 200.85c0,13.43 1.77,24.11 5.3,32.06 3.53,7.95 7.42,13.87 11.66,17.75 4.95,4.59 10.78,7.77 17.49,9.54l0 2.65z"/>
  <path id="_21" class="fil2 str0" d="M2793.03 712.41c-18.73,0 -36.3,-3.53 -52.73,-10.6 -16.43,-7.07 -30.83,-16.69 -43.19,-28.88 -12.37,-12.19 -22.08,-26.5 -29.15,-42.93 -7.07,-16.43 -10.6,-34.01 -10.6,-52.73l0 -130.9c0,-13.43 -0.44,-24.2 -1.32,-32.33 -0.88,-8.13 -1.86,-14.13 -2.91,-18.02 -1.41,-4.59 -2.65,-7.6 -3.71,-9.01l0 -3.18 86.38 0 0 3.18c-1.41,1.41 -2.83,4.42 -4.24,9.01 -1.06,3.89 -1.94,9.89 -2.65,18.02 -0.71,8.12 -1.06,18.9 -1.06,32.33l0 138.85c0,25.08 4.77,45.4 14.31,60.94 9.54,15.55 21.55,26.85 36.04,33.92 14.48,7.07 30.03,9.98 46.63,8.74 16.61,-1.24 32.15,-6.18 46.64,-14.84 14.48,-8.65 26.5,-20.85 36.04,-36.57 9.54,-15.72 14.31,-34.53 14.31,-56.44l0 -134.61c0,-13.43 -1.86,-24.2 -5.56,-32.33 -3.71,-8.13 -7.68,-14.13 -11.93,-18.02 -4.95,-4.59 -10.6,-7.6 -16.96,-9.01l0 -3.18 75.78 0 0 3.18c-6.71,1.41 -12.54,4.42 -17.49,9.01 -4.59,3.89 -8.66,9.89 -12.19,18.02 -3.53,8.12 -5.3,18.9 -5.3,32.33l0 130.9c0,18.72 -3.53,36.3 -10.6,52.73 -7.07,16.43 -16.69,30.74 -28.88,42.93 -12.19,12.19 -26.5,21.82 -42.93,28.88 -16.43,7.07 -34,10.6 -52.73,10.6z"/>
  <path id="_22" class="fil2 str0" d="M3397.71 647.22c1.41,13.43 3,24.11 4.77,32.06 1.77,7.95 3.36,13.87 4.77,17.75 1.41,4.59 3,7.77 4.77,9.54l0 2.65 -85.85 0 -0.53 -2.65c1.41,-1.77 2.47,-4.95 3.18,-9.54 0.71,-3.89 1.06,-9.81 1.06,-17.75 0,-7.95 -0.71,-18.64 -2.12,-32.06l-30.74 -204.03 -120.83 273.98 -6.36 0 -146.27 -272.93c0,0 -0.44,3 -1.33,9.01 -0.88,6.01 -2.03,13.78 -3.44,23.32 -1.41,9.54 -3.09,20.31 -5.04,32.33 -1.94,12.01 -3.8,24.38 -5.56,37.1 -4.24,29.68 -9.19,63.42 -14.84,101.22 -1.77,13.43 -1.24,24.11 1.59,32.06 2.82,7.95 6.18,13.87 10.07,17.75 4.59,4.59 10.07,7.77 16.43,9.54l0 2.65 -75.78 0 0 -2.65c6.36,-1.77 12.37,-4.95 18.02,-9.54 4.95,-3.89 9.54,-9.81 13.78,-17.75 4.24,-7.95 7.24,-18.64 9.01,-32.06l30.21 -200.85c1.41,-13.43 0.8,-24.2 -1.85,-32.33 -2.65,-8.13 -5.92,-14.13 -9.8,-18.02 -4.59,-4.59 -10.07,-7.6 -16.43,-9.01l0 -3.18 75.78 1.06 133.55 248.54 112.35 -249.61 58.82 0 0 3.18c-1.41,1.41 -2.47,4.42 -3.18,9.01 -0.71,3.89 -1.06,9.89 -1.06,18.02 0,8.12 0.88,18.9 2.65,32.33l30.21 200.85z"/>
  <path id="_23" class="fil2" d="M1646.83 1302.56c0,2.86 -0.23,5.2 -0.68,7.08 -0.45,1.96 -0.98,3.46 -1.73,4.67 -0.75,1.2 -1.58,2.03 -2.56,2.64 -0.98,0.6 -1.88,0.91 -2.71,0.91l-175.62 0c-0.98,0 -1.96,-0.3 -2.86,-0.91 -0.83,-0.6 -1.73,-1.43 -2.49,-2.64 -0.83,-1.21 -1.43,-2.71 -1.88,-4.67 -0.45,-1.88 -0.68,-4.22 -0.68,-7.08 0,-2.64 0.15,-4.97 0.53,-6.93 0.38,-1.96 0.98,-3.62 1.66,-4.9 0.75,-1.2 1.66,-2.11 2.56,-2.71 0.98,-0.6 2.03,-0.9 3.24,-0.9l27.27 0 0 -100.35 -27.27 0c-1.05,0 -2.03,-0.23 -2.86,-0.75 -0.91,-0.53 -1.73,-1.36 -2.56,-2.56 -0.83,-1.21 -1.43,-2.71 -1.88,-4.52 -0.45,-1.88 -0.68,-4.22 -0.68,-7.23 0,-2.48 0.15,-4.67 0.53,-6.55 0.38,-1.96 0.98,-3.54 1.66,-4.82 0.75,-1.2 1.66,-2.11 2.56,-2.64 0.98,-0.53 2.03,-0.75 3.24,-0.75l27.27 0 0 -26.45c0,-18.08 2.03,-33.6 6.18,-46.56 4.14,-12.96 9.95,-23.51 17.56,-31.79 7.53,-8.21 16.65,-14.24 27.42,-17.93 10.7,-3.77 22.68,-5.65 35.94,-5.65 6.18,0 12.2,0.53 18.16,1.66 5.95,1.13 11.45,2.64 16.5,4.52 5.12,1.88 9.64,4.14 13.71,6.63 4.07,2.49 7.08,4.67 9.04,6.63 1.96,1.88 3.31,3.39 4.07,4.6 0.75,1.2 1.36,2.49 1.73,3.99 0.45,1.43 0.75,3.09 0.9,4.82 0.15,1.81 0.23,3.99 0.23,6.63 0,2.49 -0.15,4.67 -0.45,6.63 -0.3,1.88 -0.75,3.47 -1.28,4.75 -0.6,1.2 -1.28,2.18 -2.11,2.86 -0.83,0.68 -1.73,0.98 -2.79,0.98 -2.03,0 -4.44,-1.28 -7.31,-3.77 -2.86,-2.49 -6.48,-5.27 -10.92,-8.21 -4.37,-2.94 -9.72,-5.73 -15.9,-8.21 -6.25,-2.49 -13.71,-3.77 -22.38,-3.77 -8.74,0 -16.35,1.51 -22.75,4.52 -6.4,3.01 -11.6,7.46 -15.75,13.33 -4.07,5.95 -7.16,13.19 -9.19,21.93 -2.03,8.66 -3.09,18.68 -3.09,30.06l0 27.8 71.88 0c1.2,0 2.26,0.22 3.16,0.75 0.98,0.53 1.81,1.43 2.41,2.64 0.68,1.28 1.2,2.86 1.58,4.82 0.38,1.88 0.53,4.07 0.53,6.55 0,3.01 -0.23,5.35 -0.68,7.23 -0.45,1.81 -0.98,3.31 -1.73,4.52 -0.75,1.2 -1.51,2.03 -2.41,2.56 -0.9,0.53 -1.81,0.75 -2.86,0.75l-71.88 0 0 100.35 110.75 0c1.05,0 2.03,0.3 2.94,0.9 0.98,0.6 1.81,1.51 2.56,2.71 0.75,1.28 1.28,2.94 1.66,4.9 0.38,1.96 0.53,4.29 0.53,6.93z"/>
  <path id="_24" class="fil2" d="M1973.59 1302.94c0,2.79 -0.23,5.12 -0.68,7.01 -0.45,1.88 -0.98,3.46 -1.73,4.6 -0.75,1.2 -1.58,2.03 -2.56,2.56 -0.98,0.53 -1.96,0.75 -2.94,0.75l-149.17 0c-0.98,0 -1.96,-0.23 -2.86,-0.75 -0.83,-0.53 -1.73,-1.36 -2.48,-2.56 -0.83,-1.13 -1.43,-2.71 -1.89,-4.6 -0.45,-1.88 -0.68,-4.22 -0.68,-7.01 0,-2.64 0.23,-4.9 0.68,-6.78 0.45,-1.96 0.98,-3.54 1.66,-4.74 0.6,-1.28 1.43,-2.18 2.41,-2.86 0.98,-0.68 2.03,-0.98 3.16,-0.98l59.44 0 0 -217.43 -55.22 33c-2.79,1.43 -5.05,2.33 -6.78,2.64 -1.66,0.3 -3.01,0 -4.07,-0.98 -1.05,-0.98 -1.73,-2.56 -2.11,-4.75 -0.38,-2.18 -0.53,-4.97 -0.53,-8.36 0,-2.49 0.08,-4.67 0.3,-6.4 0.23,-1.81 0.6,-3.24 1.06,-4.45 0.45,-1.13 1.05,-2.18 1.88,-3.09 0.75,-0.83 1.81,-1.73 3.16,-2.64l65.85 -42.12c0.6,-0.45 1.28,-0.83 2.18,-1.13 0.9,-0.23 2.03,-0.53 3.31,-0.83 1.36,-0.3 2.86,-0.53 4.67,-0.6 1.73,-0.08 3.92,-0.08 6.63,-0.08 3.46,0 6.48,0.15 8.81,0.45 2.34,0.3 4.14,0.68 5.5,1.21 1.36,0.53 2.18,1.2 2.64,1.96 0.45,0.83 0.68,1.66 0.68,2.56l0 251.03 51.68 0c1.21,0 2.34,0.3 3.31,0.98 1.06,0.68 1.89,1.58 2.56,2.86 0.68,1.2 1.21,2.79 1.58,4.74 0.37,1.89 0.53,4.14 0.53,6.78z"/>
  <path id="_25" class="fil2" d="M2553.18 1174.33c0,21.93 -1.73,41.97 -5.2,60.05 -3.47,18.08 -9.19,33.6 -17.18,46.64 -8.06,13.03 -18.53,23.05 -31.49,30.21 -12.96,7.16 -28.93,10.7 -47.92,10.7 -17.93,0 -33,-3.16 -45.35,-9.57 -12.28,-6.4 -22.15,-15.82 -29.68,-28.25 -7.46,-12.43 -12.81,-27.72 -15.97,-45.88 -3.16,-18.16 -4.75,-39.03 -4.75,-62.53 0,-21.77 1.73,-41.74 5.28,-59.9 3.54,-18.16 9.27,-33.75 17.25,-46.79 7.91,-13.03 18.38,-23.05 31.34,-30.21 12.96,-7.16 28.86,-10.7 47.69,-10.7 18.08,0 33.23,3.16 45.58,9.57 12.28,6.4 22.15,15.82 29.68,28.25 7.46,12.43 12.81,27.73 15.97,45.88 3.17,18.16 4.75,39.03 4.75,62.53zm-38.87 2.64c0,-14.24 -0.53,-27.05 -1.51,-38.35 -1.06,-11.3 -2.56,-21.32 -4.6,-29.98 -1.96,-8.66 -4.52,-16.12 -7.68,-22.38 -3.17,-6.18 -6.93,-11.38 -11.38,-15.37 -4.37,-4.07 -9.42,-7.01 -15.07,-8.82 -5.73,-1.88 -12.05,-2.79 -19.14,-2.79 -12.5,0 -22.6,2.94 -30.44,8.81 -7.76,5.88 -13.94,13.94 -18.38,24.26 -4.52,10.25 -7.53,22.3 -9.19,36.16 -1.58,13.79 -2.41,28.63 -2.41,44.53 0,21.25 1.13,39.4 3.31,54.32 2.18,14.92 5.73,27.05 10.47,36.46 4.75,9.42 10.85,16.27 18.31,20.49 7.46,4.29 16.42,6.4 27.05,6.4 8.21,0 15.45,-1.36 21.7,-3.99 6.25,-2.64 11.6,-6.4 16.12,-11.3 4.45,-4.97 8.21,-10.85 11.15,-17.78 2.94,-6.93 5.28,-14.54 7.08,-22.9 1.73,-8.36 2.94,-17.48 3.62,-27.2 0.68,-9.79 0.98,-19.96 0.98,-30.59z"/>
  <path id="_26" class="fil2" d="M2782.29 1174.33c0,21.93 -1.73,41.97 -5.2,60.05 -3.47,18.08 -9.19,33.6 -17.18,46.64 -8.06,13.03 -18.53,23.05 -31.49,30.21 -12.96,7.16 -28.93,10.7 -47.92,10.7 -17.93,0 -33,-3.16 -45.35,-9.57 -12.28,-6.4 -22.15,-15.82 -29.68,-28.25 -7.46,-12.43 -12.81,-27.72 -15.97,-45.88 -3.16,-18.16 -4.75,-39.03 -4.75,-62.53 0,-21.77 1.73,-41.74 5.28,-59.9 3.54,-18.16 9.27,-33.75 17.25,-46.79 7.91,-13.03 18.38,-23.05 31.34,-30.21 12.96,-7.16 28.86,-10.7 47.69,-10.7 18.08,0 33.23,3.16 45.58,9.57 12.28,6.4 22.15,15.82 29.68,28.25 7.46,12.43 12.81,27.73 15.97,45.88 3.17,18.16 4.75,39.03 4.75,62.53zm-38.87 2.64c0,-14.24 -0.53,-27.05 -1.51,-38.35 -1.06,-11.3 -2.56,-21.32 -4.6,-29.98 -1.96,-8.66 -4.52,-16.12 -7.68,-22.38 -3.17,-6.18 -6.93,-11.38 -11.38,-15.37 -4.37,-4.07 -9.42,-7.01 -15.07,-8.82 -5.73,-1.88 -12.05,-2.79 -19.14,-2.79 -12.5,0 -22.6,2.94 -30.44,8.81 -7.76,5.88 -13.94,13.94 -18.38,24.26 -4.52,10.25 -7.53,22.3 -9.19,36.16 -1.58,13.79 -2.41,28.63 -2.41,44.53 0,21.25 1.13,39.4 3.31,54.32 2.18,14.92 5.73,27.05 10.47,36.46 4.75,9.42 10.85,16.27 18.31,20.49 7.46,4.29 16.42,6.4 27.05,6.4 8.21,0 15.45,-1.36 21.7,-3.99 6.25,-2.64 11.6,-6.4 16.12,-11.3 4.45,-4.97 8.21,-10.85 11.15,-17.78 2.94,-6.93 5.28,-14.54 7.08,-22.9 1.73,-8.36 2.94,-17.48 3.62,-27.2 0.68,-9.79 0.98,-19.96 0.98,-30.59z"/>
  <path id="_27" class="fil2" d="M3011.41 1174.33c0,21.93 -1.73,41.97 -5.2,60.05 -3.47,18.08 -9.19,33.6 -17.18,46.64 -8.06,13.03 -18.53,23.05 -31.49,30.21 -12.96,7.16 -28.93,10.7 -47.92,10.7 -17.93,0 -33,-3.16 -45.35,-9.57 -12.28,-6.4 -22.15,-15.82 -29.68,-28.25 -7.46,-12.43 -12.81,-27.72 -15.97,-45.88 -3.16,-18.16 -4.75,-39.03 -4.75,-62.53 0,-21.77 1.73,-41.74 5.28,-59.9 3.54,-18.16 9.27,-33.75 17.25,-46.79 7.91,-13.03 18.38,-23.05 31.34,-30.21 12.96,-7.16 28.86,-10.7 47.69,-10.7 18.08,0 33.23,3.16 45.58,9.57 12.28,6.4 22.15,15.82 29.68,28.25 7.46,12.43 12.81,27.73 15.97,45.88 3.17,18.16 4.75,39.03 4.75,62.53zm-38.87 2.64c0,-14.24 -0.53,-27.05 -1.51,-38.35 -1.06,-11.3 -2.56,-21.32 -4.6,-29.98 -1.96,-8.66 -4.52,-16.12 -7.68,-22.38 -3.17,-6.18 -6.93,-11.38 -11.38,-15.37 -4.37,-4.07 -9.42,-7.01 -15.07,-8.82 -5.73,-1.88 -12.05,-2.79 -19.14,-2.79 -12.5,0 -22.6,2.94 -30.44,8.81 -7.76,5.88 -13.94,13.94 -18.38,24.26 -4.52,10.25 -7.53,22.3 -9.19,36.16 -1.58,13.79 -2.41,28.63 -2.41,44.53 0,21.25 1.13,39.4 3.31,54.32 2.18,14.92 5.73,27.05 10.47,36.46 4.75,9.42 10.85,16.27 18.31,20.49 7.46,4.29 16.42,6.4 27.05,6.4 8.21,0 15.45,-1.36 21.7,-3.99 6.25,-2.64 11.6,-6.4 16.12,-11.3 4.45,-4.97 8.21,-10.85 11.15,-17.78 2.94,-6.93 5.28,-14.54 7.08,-22.9 1.73,-8.36 2.94,-17.48 3.62,-27.2 0.68,-9.79 0.98,-19.96 0.98,-30.59z"/>
  <path id="_28" class="fil2" d="M2204.06 1163.78c0,12.36 -0.75,24.86 -2.18,37.44 -1.51,12.66 -3.99,24.86 -7.54,36.54 -3.54,11.68 -8.29,22.68 -14.24,32.85 -5.95,10.25 -13.48,19.14 -22.53,26.82 -9.04,7.61 -19.74,13.64 -32.24,18.01 -12.43,4.29 -26.9,6.48 -43.32,6.48 -6.33,0 -12.51,-0.38 -18.46,-1.2 -5.95,-0.83 -11.3,-1.81 -16.12,-3.01 -4.75,-1.13 -8.82,-2.41 -12.05,-3.77 -3.24,-1.28 -5.57,-2.64 -7.01,-3.92 -1.51,-1.36 -2.56,-3.17 -3.24,-5.43 -0.68,-2.33 -0.98,-5.35 -0.98,-9.19 0,-3.24 0.08,-5.88 0.3,-7.76 0.23,-1.89 0.6,-3.39 1.06,-4.37 0.45,-1.06 1.05,-1.73 1.88,-2.11 0.75,-0.38 1.81,-0.6 2.94,-0.6 1.66,0 3.92,0.6 6.86,1.66 2.94,1.13 6.71,2.34 11.15,3.69 4.52,1.28 9.79,2.49 15.82,3.62 6.03,1.13 12.81,1.66 20.34,1.66 14.31,0 26.59,-2.79 36.84,-8.29 10.25,-5.5 18.61,-12.81 25.09,-22.07 6.48,-9.27 11.3,-19.97 14.54,-32.17 3.24,-12.13 5.05,-25.01 5.35,-38.5 -7.83,4.52 -17.18,8.59 -28.1,12.13 -10.85,3.54 -23.43,5.27 -37.52,5.27 -15.97,0 -29.31,-2.18 -40.15,-6.48 -10.85,-4.37 -19.51,-10.32 -26.07,-17.78 -6.55,-7.53 -11.3,-16.42 -14.16,-26.75 -2.86,-10.32 -4.29,-21.55 -4.29,-33.75 0,-12.66 1.81,-24.71 5.5,-36.09 3.69,-11.45 9.42,-21.47 17.25,-30.13 7.76,-8.66 17.71,-15.59 29.76,-20.72 12.05,-5.2 26.52,-7.76 43.24,-7.76 11.98,0 22.53,1.51 31.72,4.52 9.19,3.01 17.18,7.38 23.96,13.03 6.78,5.65 12.51,12.51 17.18,20.49 4.75,7.99 8.51,17.1 11.38,27.27 2.86,10.1 4.97,21.1 6.18,32.92 1.28,11.91 1.88,24.34 1.88,37.44zm-38.42 -4.14c0,-18.84 -1.28,-34.66 -3.77,-47.54 -2.49,-12.88 -6.18,-23.28 -11.08,-31.19 -4.82,-7.99 -10.77,-13.71 -17.85,-17.25 -7.08,-3.54 -15.29,-5.28 -24.56,-5.28 -9.57,0 -17.78,1.73 -24.56,5.2 -6.78,3.46 -12.36,8.06 -16.65,13.86 -4.37,5.8 -7.61,12.43 -9.65,19.74 -2.03,7.38 -3.09,14.92 -3.09,22.75 0,8.66 0.9,16.57 2.79,23.81 1.81,7.23 4.82,13.34 8.97,18.31 4.07,4.97 9.49,8.89 16.12,11.6 6.63,2.71 14.77,4.07 24.49,4.07 11.08,0 21.77,-1.66 32.1,-4.97 10.32,-3.31 19.21,-7.68 26.75,-13.11z"/>
  <path id="_29" class="fil2" d="M2308.93 1286.44c0,4.6 -0.23,8.82 -0.68,12.58 -0.45,3.84 -1.21,7.46 -2.18,10.85 -1.06,3.39 -2.41,6.71 -4.07,10.02 -1.73,3.31 -3.84,6.86 -6.33,10.47l-30.21 45.51c-0.75,1.06 -1.58,1.88 -2.56,2.64 -0.98,0.75 -2.11,1.43 -3.54,1.96 -1.36,0.6 -3.01,1.05 -4.82,1.28 -1.88,0.23 -4.14,0.3 -7.01,0.3 -2.49,0 -4.6,-0.08 -6.25,-0.3 -1.73,-0.23 -2.94,-0.6 -3.62,-1.13 -0.75,-0.53 -1.13,-1.21 -1.21,-2.11 -0.08,-0.91 0.15,-1.88 0.75,-3.09l29.31 -60.72 0 -28.25c0,-3.92 0.45,-7.08 1.28,-9.49 0.75,-2.34 2.03,-4.07 3.84,-5.28 1.73,-1.2 4,-1.96 6.63,-2.41 2.64,-0.45 5.88,-0.68 9.72,-0.68 3.62,0 6.78,0.23 9.49,0.68 2.64,0.45 4.82,1.21 6.48,2.41 1.66,1.21 2.94,2.94 3.77,5.28 0.83,2.41 1.21,5.57 1.21,9.49z"/>
 </g>
</svg>
