<?xml version="1.0" encoding="UTF-8"?>
<!DOCTYPE svg PUBLIC "-//W3C//DTD SVG 1.1//EN" "http://www.w3.org/Graphics/SVG/1.1/DTD/svg11.dtd">
<!-- Creator: CorelDRAW 2021 (64-Bit) -->
<svg xmlns="http://www.w3.org/2000/svg" xml:space="preserve" width="183.492mm" height="72.0739mm" version="1.1" style="shape-rendering:geometricPrecision; text-rendering:geometricPrecision; image-rendering:optimizeQuality; fill-rule:evenodd; clip-rule:evenodd"
viewBox="0 0 2119.22 832.41"
 xmlns:xlink="http://www.w3.org/1999/xlink"
 xmlns:xodm="http://www.corel.com/coreldraw/odm/2003">
 <defs>
  <style type="text/css">
   <![CDATA[
    .str0 {stroke:black;stroke-width:0.88;stroke-linecap:round;stroke-linejoin:round;stroke-miterlimit:22.9256}
    .fil2 {fill:none;fill-rule:nonzero}
    .fil1 {fill:black;fill-rule:nonzero}
    .fil0 {fill:url(#id0)}
   ]]>
  </style>
  <linearGradient id="id0" gradientUnits="userSpaceOnUse" x1="896.29" y1="-74.85" x2="1222.94" y2="907.26">
   <stop offset="0" style="stop-opacity:1; stop-color:#BFBFBF"/>
   <stop offset="0.239216" style="stop-opacity:1; stop-color:#B8B8B8"/>
   <stop offset="0.388235" style="stop-opacity:1; stop-color:#EBEBEB"/>
   <stop offset="0.568627" style="stop-opacity:1; stop-color:#E6E6E6"/>
   <stop offset="1" style="stop-opacity:1; stop-color:#C9C9C9"/>
  </linearGradient>
 </defs>
 <g id="Layer_x0020_1">
  <metadata id="CorelCorpID_0Corel-Layer"/>
  <path class="fil0" d="M-0 0l2119.22 0 0 416.21c0,228.91 -187.29,416.21 -416.21,416.21l-1286.81 0c-228.91,0 -416.21,-187.29 -416.21,-416.21l0 -416.21z"/>
  <path class="fil1" d="M771.46 336.64c-9.89,0 -19.08,-1.01 -27.55,-3.02 -8.47,-2.01 -15.85,-4.74 -22.14,-8.17 -6.29,-3.44 -11.24,-7.46 -14.84,-12.07 -3.61,-4.61 -5.41,-9.6 -5.41,-14.97l0 -0.25 0 -0.25c0.17,-4.86 2.01,-9.01 5.53,-12.45 3.52,-3.44 7.71,-5.16 12.58,-5.16 5.03,0 9.31,1.8 12.83,5.41 3.52,3.61 5.28,7.84 5.28,12.7 0,3.86 0.71,7.8 2.14,11.82 1.43,4.02 3.6,7.67 6.54,10.94 2.94,3.27 6.67,5.91 11.19,7.92 4.53,2.01 9.89,3.02 16.1,3.02 4.86,0 9.14,-1.13 12.83,-3.4 3.69,-2.26 6.75,-5.03 9.18,-8.3 2.43,-3.27 4.24,-6.75 5.41,-10.44 1.17,-3.69 1.76,-6.96 1.76,-9.81 0,-6.54 -2.35,-11.86 -7.04,-15.97 -4.69,-4.11 -10.52,-7.63 -17.48,-10.56 -6.96,-2.93 -14.51,-5.7 -22.64,-8.3 -8.13,-2.6 -15.68,-5.79 -22.64,-9.56 -6.96,-3.77 -12.79,-8.51 -17.48,-14.21 -4.7,-5.7 -7.04,-13.16 -7.04,-22.39 0,-5.37 1.26,-10.52 3.77,-15.47 2.52,-4.95 6.25,-9.35 11.19,-13.21 4.95,-3.86 11.07,-6.92 18.36,-9.18 7.29,-2.26 15.72,-3.4 25.28,-3.4 9.89,0 18.57,0.92 26.03,2.77 7.46,1.84 13.71,4.32 18.74,7.42 5.03,3.1 9.01,6.67 11.95,10.69 2.93,4.02 4.82,8.13 5.66,12.33 0.5,1.51 0.75,3.1 0.75,4.78l0 0.25 0 0.25c-0.33,4.86 -2.22,9.01 -5.66,12.45 -3.44,3.44 -7.59,5.16 -12.45,5.16 -5.03,0 -9.31,-1.76 -12.83,-5.28 -3.52,-3.52 -5.28,-7.8 -5.28,-12.83 0,-3.86 -0.34,-7.84 -1.01,-11.95 -0.67,-4.11 -1.93,-7.88 -3.77,-11.32 -1.85,-3.44 -4.44,-6.25 -7.8,-8.43 -3.35,-2.18 -7.63,-3.27 -12.83,-3.27 -8.72,0 -15.34,2.6 -19.87,7.8 -4.53,5.2 -6.79,11.82 -6.79,19.87 0,8.05 2.35,14.42 7.04,19.12 4.7,4.7 10.61,8.6 17.73,11.7 7.13,3.1 14.84,5.83 23.14,8.17 8.3,2.35 16.02,5.28 23.14,8.8 7.13,3.52 13.04,8.01 17.73,13.46 4.69,5.45 7.04,12.87 7.04,22.26 0,4.86 -1.38,9.89 -4.15,15.09 -2.77,5.2 -6.92,9.98 -12.45,14.34 -5.53,4.36 -12.45,7.97 -20.75,10.82 -8.3,2.85 -17.99,4.28 -29.05,4.28z"/>
  <path id="_1" class="fil1" d="M888.94 335.13l-41 0 0 -1.26c0.5,-0.84 1.09,-2.35 1.76,-4.53 0.5,-1.85 0.96,-4.65 1.38,-8.43 0.42,-3.77 0.63,-8.85 0.63,-15.22l0 -95.34c0,-6.37 -0.21,-11.49 -0.63,-15.34 -0.42,-3.86 -0.88,-6.71 -1.38,-8.55 -0.67,-2.18 -1.26,-3.61 -1.76,-4.28l0 -1.51 41 0 0 1.51c-0.67,0.67 -1.34,2.1 -2.01,4.28 -0.5,1.84 -0.92,4.69 -1.26,8.55 -0.33,3.86 -0.5,8.97 -0.5,15.34l0 95.34c0,6.37 0.17,11.45 0.5,15.22 0.34,3.77 0.76,6.58 1.26,8.43 0.67,2.18 1.34,3.69 2.01,4.53l0 1.26z"/>
  <path id="_2" class="fil1" d="M1020.5 335.13l-121.75 0 0 -1.26c0.5,-0.84 1.09,-2.35 1.76,-4.53 0.5,-1.85 0.96,-4.65 1.38,-8.43 0.42,-3.77 0.63,-8.85 0.63,-15.22l0 -95.34c0,-6.37 -0.21,-11.49 -0.63,-15.34 -0.42,-3.86 -0.88,-6.71 -1.38,-8.55 -0.67,-2.18 -1.26,-3.61 -1.76,-4.28l0 -1.51 41 0 0 1.51c-0.67,0.67 -1.34,2.1 -2.01,4.28 -0.5,1.84 -0.92,4.69 -1.26,8.55 -0.33,3.86 -0.5,8.97 -0.5,15.34l0 121.75 19.62 0c12.74,0 23.31,-1.55 31.7,-4.65 8.38,-3.1 15.01,-6.58 19.87,-10.44 5.7,-4.36 10.15,-9.39 13.33,-15.09l1.26 0 0 33.2 -1.26 0z"/>
  <path id="_3" class="fil1" d="M1006.41 210.37c-2.35,-6.37 -4.44,-11.49 -6.29,-15.34 -1.84,-3.86 -3.44,-6.71 -4.78,-8.55 -1.51,-2.18 -2.77,-3.61 -3.77,-4.28l0 -1.51 41.51 0 0 1.51c-0.5,0.67 -0.59,2.1 -0.25,4.28 0.34,1.84 0.96,4.69 1.89,8.55 0.92,3.86 2.64,8.97 5.16,15.34l31.95 86.28 26.16 -86.78c1.84,-6.37 2.47,-11.36 1.89,-14.97 -0.59,-3.61 -1.63,-6.33 -3.14,-8.18 -1.84,-2.18 -4.11,-3.69 -6.79,-4.53l0.5 -1.51 35.97 0 -0.5 1.51c-3.35,0.84 -6.54,2.35 -9.56,4.53 -2.68,1.85 -5.45,4.65 -8.3,8.43 -2.85,3.77 -5.2,8.85 -7.04,15.22l-38.99 126.78 -7.04 0 -48.55 -126.78z"/>
  <path id="_4" class="fil1" d="M1264.75 335.13l-128.29 0 0 -1.26c0.5,-0.84 1.09,-2.35 1.76,-4.53 0.5,-1.85 0.96,-4.65 1.38,-8.43 0.42,-3.77 0.63,-8.85 0.63,-15.22l0 -95.34c0,-6.37 -0.21,-11.45 -0.63,-15.22 -0.42,-3.77 -0.88,-6.58 -1.38,-8.43 -0.67,-2.18 -1.26,-3.69 -1.76,-4.53l0 -1.26 125.02 0 -11.82 33.2 -1.26 0c-1.01,-5.7 -3.52,-10.73 -7.55,-15.09 -1.84,-1.85 -4.02,-3.69 -6.54,-5.53 -2.52,-1.84 -5.62,-3.48 -9.31,-4.91 -3.69,-1.43 -7.97,-2.56 -12.83,-3.4 -4.86,-0.84 -10.48,-1.26 -16.85,-1.26l-21.63 0 0 75.21 39.49 0c6.37,0 11.45,-0.84 15.22,-2.52 3.77,-1.68 6.58,-3.52 8.43,-5.53 2.18,-2.35 3.69,-5.11 4.53,-8.3l1.26 0 0 35.97 -1.26 0c-0.84,-3.02 -2.35,-5.79 -4.53,-8.3 -1.85,-2.01 -4.65,-3.9 -8.43,-5.66 -3.77,-1.76 -8.85,-2.64 -15.22,-2.64l-39.49 0 0 69.93 26.16 0c12.74,0 22.68,-1.55 29.81,-4.65 7.13,-3.1 12.45,-6.58 15.97,-10.44 4.19,-4.36 6.71,-9.39 7.55,-15.09l1.26 0 11.57 33.2 -1.26 0z"/>
  <path id="_5" class="fil1" d="M1396.06 305.7c4.36,7.04 7.88,12.45 10.57,16.22 2.68,3.77 4.86,6.58 6.54,8.43 1.85,2.01 3.35,3.19 4.53,3.52l0 1.26 -46.03 0 0 -1.26c0.84,-0.84 1.09,-2.35 0.76,-4.53 -0.34,-1.85 -1.26,-4.65 -2.77,-8.43 -1.51,-3.77 -4.15,-8.85 -8.01,-15.22l-19.79 -32.95 -28.8 0 0 32.95c0,6.37 0.17,11.45 0.5,15.22 0.34,3.77 0.76,6.58 1.26,8.43 0.59,2.18 1.17,3.69 1.76,4.53l0 1.26 -40.75 0 0 -1.26c0.5,-0.84 1.09,-2.35 1.76,-4.53 0.5,-1.85 0.96,-4.65 1.38,-8.43 0.42,-3.77 0.63,-8.85 0.63,-15.22l0 -95.34c0,-6.37 -0.21,-11.45 -0.63,-15.22 -0.42,-3.77 -0.88,-6.58 -1.38,-8.43 -0.67,-2.18 -1.26,-3.69 -1.76,-4.53l0 -1.26 67.67 -0.25 -0.25 0c12.24,0 22.72,1.22 31.44,3.65 8.72,2.43 15.85,5.74 21.38,9.94 5.53,4.19 9.6,9.06 12.2,14.59 2.6,5.53 3.9,11.49 3.9,17.86 0,9.56 -3.35,18.07 -10.06,25.53 -6.71,7.46 -16.1,12.95 -28.17,16.48l22.14 36.98zm-70.22 -35.97c9.85,0 18.11,-1.09 24.82,-3.27 6.67,-2.18 12.03,-5.2 16.14,-9.06 4.11,-3.86 7,-8.38 8.76,-13.58 1.76,-5.2 2.64,-10.9 2.64,-17.1 0,-6.21 -0.75,-11.91 -2.26,-17.11 -1.51,-5.2 -3.9,-9.68 -7.25,-13.46 -3.35,-3.77 -7.67,-6.75 -13.04,-8.93 -5.33,-2.18 -11.95,-3.27 -19.79,-3.27l-20.04 0c-0.5,1.34 -1.09,3.94 -1.76,7.8 -0.67,3.86 -1.01,10.06 -1.01,18.62l0 59.37 12.79 0z"/>
  <path id="_6" class="fil1" d="M836.07 616.77c0,1.36 -0.11,2.47 -0.32,3.36 -0.21,0.93 -0.46,1.64 -0.82,2.22 -0.36,0.57 -0.75,0.97 -1.22,1.25 -0.46,0.29 -0.89,0.43 -1.29,0.43l-83.36 0c-0.46,0 -0.93,-0.14 -1.36,-0.43 -0.39,-0.29 -0.82,-0.68 -1.18,-1.25 -0.39,-0.57 -0.68,-1.29 -0.89,-2.22 -0.21,-0.89 -0.32,-2 -0.32,-3.36 0,-1.25 0.07,-2.36 0.25,-3.29 0.18,-0.93 0.47,-1.72 0.79,-2.32 0.36,-0.57 0.79,-1 1.22,-1.29 0.47,-0.29 0.97,-0.43 1.54,-0.43l12.95 0 0 -47.63 -12.95 0c-0.5,0 -0.97,-0.11 -1.36,-0.36 -0.43,-0.25 -0.82,-0.64 -1.22,-1.22 -0.39,-0.57 -0.68,-1.29 -0.89,-2.15 -0.21,-0.89 -0.32,-2 -0.32,-3.43 0,-1.18 0.07,-2.22 0.25,-3.11 0.18,-0.93 0.47,-1.68 0.79,-2.29 0.36,-0.57 0.79,-1 1.22,-1.25 0.47,-0.25 0.97,-0.36 1.54,-0.36l12.95 0 0 -12.55c0,-8.58 0.97,-15.95 2.93,-22.1 1.97,-6.15 4.72,-11.16 8.33,-15.09 3.58,-3.9 7.9,-6.76 13.02,-8.51 5.08,-1.79 10.76,-2.68 17.06,-2.68 2.93,0 5.79,0.25 8.62,0.79 2.82,0.54 5.44,1.25 7.83,2.15 2.43,0.89 4.58,1.97 6.51,3.15 1.93,1.18 3.36,2.22 4.29,3.15 0.93,0.89 1.57,1.61 1.93,2.18 0.36,0.57 0.64,1.18 0.82,1.9 0.21,0.68 0.36,1.47 0.43,2.29 0.07,0.86 0.11,1.9 0.11,3.15 0,1.18 -0.07,2.22 -0.21,3.15 -0.14,0.89 -0.36,1.65 -0.61,2.25 -0.29,0.57 -0.61,1.04 -1,1.36 -0.39,0.32 -0.82,0.46 -1.32,0.46 -0.97,0 -2.11,-0.61 -3.47,-1.79 -1.36,-1.18 -3.08,-2.5 -5.19,-3.9 -2.07,-1.4 -4.61,-2.72 -7.55,-3.9 -2.97,-1.18 -6.51,-1.79 -10.62,-1.79 -4.15,0 -7.76,0.71 -10.8,2.15 -3.04,1.43 -5.51,3.54 -7.47,6.33 -1.93,2.82 -3.4,6.26 -4.36,10.41 -0.97,4.11 -1.47,8.87 -1.47,14.27l0 13.2 34.12 0c0.57,0 1.07,0.11 1.5,0.36 0.47,0.25 0.86,0.68 1.14,1.25 0.32,0.61 0.57,1.36 0.75,2.29 0.18,0.89 0.25,1.93 0.25,3.11 0,1.43 -0.11,2.54 -0.32,3.43 -0.21,0.86 -0.46,1.57 -0.82,2.15 -0.36,0.57 -0.71,0.97 -1.14,1.22 -0.43,0.25 -0.86,0.36 -1.36,0.36l-34.12 0 0 47.63 52.57 0c0.5,0 0.97,0.14 1.39,0.43 0.47,0.29 0.86,0.72 1.22,1.29 0.36,0.61 0.61,1.4 0.79,2.32 0.18,0.93 0.25,2.04 0.25,3.29z"/>
  <path id="_7" class="fil1" d="M990.09 580.4c0,7.26 -1.21,13.7 -3.68,19.38 -2.43,5.65 -5.9,10.41 -10.37,14.3 -4.47,3.86 -9.8,6.79 -15.99,8.83 -6.15,2.04 -13.02,3.04 -20.56,3.04 -4.22,0 -8.19,-0.29 -11.94,-0.89 -3.79,-0.57 -7.15,-1.32 -10.08,-2.18 -2.93,-0.86 -5.33,-1.72 -7.22,-2.57 -1.9,-0.82 -3.07,-1.47 -3.61,-1.97 -0.54,-0.5 -0.89,-0.93 -1.11,-1.36 -0.21,-0.43 -0.39,-0.93 -0.57,-1.5 -0.18,-0.61 -0.29,-1.36 -0.36,-2.25 -0.07,-0.89 -0.11,-2 -0.11,-3.25 0,-1.18 0.04,-2.22 0.14,-3.18 0.11,-0.93 0.32,-1.68 0.61,-2.29 0.25,-0.57 0.61,-1.04 0.97,-1.29 0.39,-0.29 0.82,-0.43 1.32,-0.43 0.72,0 1.79,0.43 3.25,1.32 1.47,0.86 3.43,1.79 5.9,2.82 2.5,1 5.54,1.97 9.23,2.86 3.68,0.9 8.01,1.36 13.05,1.36 4.69,0 8.98,-0.57 12.87,-1.68 3.9,-1.11 7.3,-2.86 10.12,-5.26 2.82,-2.36 5.04,-5.33 6.65,-8.94 1.61,-3.61 2.4,-7.97 2.4,-13.16 0,-4.33 -0.68,-8.15 -2.04,-11.48 -1.36,-3.33 -3.47,-6.08 -6.29,-8.3 -2.82,-2.18 -6.4,-3.83 -10.76,-4.94 -4.33,-1.07 -9.48,-1.61 -15.48,-1.61 -4.29,0 -7.94,0.21 -11.01,0.64 -3.08,0.39 -5.94,0.61 -8.62,0.61 -1.93,0 -3.33,-0.46 -4.18,-1.36 -0.82,-0.89 -1.25,-2.65 -1.25,-5.22l0 -55.25c0,-2.29 0.54,-4.01 1.61,-5.11 1.11,-1.11 2.65,-1.68 4.68,-1.68l60.11 0c0.54,0 1.07,0.14 1.61,0.46 0.54,0.32 0.97,0.79 1.32,1.43 0.32,0.61 0.61,1.39 0.79,2.4 0.18,0.97 0.25,2.11 0.25,3.43 0,2.5 -0.32,4.47 -1,5.86 -0.68,1.4 -1.61,2.07 -2.82,2.07l-48.53 0 0 38.09c2.36,-0.36 4.76,-0.57 7.22,-0.64 2.47,-0.07 5.29,-0.11 8.55,-0.11 7.47,0 13.98,0.93 19.6,2.79 5.58,1.82 10.26,4.47 13.98,7.83 3.75,3.4 6.58,7.51 8.47,12.34 1.93,4.79 2.9,10.16 2.9,16.02z"/>
  <path id="_8" class="fil1" d="M1157.53 555.9c0,10.41 -0.82,19.92 -2.47,28.5 -1.65,8.58 -4.36,15.95 -8.15,22.14 -3.83,6.19 -8.8,10.94 -14.95,14.34 -6.15,3.4 -13.73,5.08 -22.74,5.08 -8.51,0 -15.66,-1.5 -21.53,-4.54 -5.83,-3.04 -10.51,-7.51 -14.09,-13.41 -3.54,-5.9 -6.08,-13.16 -7.58,-21.78 -1.5,-8.62 -2.25,-18.52 -2.25,-29.68 0,-10.34 0.82,-19.81 2.5,-28.43 1.68,-8.62 4.4,-16.02 8.19,-22.21 3.75,-6.19 8.73,-10.94 14.88,-14.34 6.15,-3.4 13.7,-5.08 22.64,-5.08 8.58,0 15.77,1.5 21.64,4.54 5.83,3.04 10.51,7.51 14.09,13.41 3.54,5.9 6.08,13.16 7.58,21.78 1.5,8.62 2.25,18.53 2.25,29.68zm-18.45 1.25c0,-6.76 -0.25,-12.84 -0.71,-18.2 -0.5,-5.36 -1.22,-10.12 -2.18,-14.23 -0.93,-4.11 -2.15,-7.65 -3.65,-10.62 -1.5,-2.93 -3.29,-5.4 -5.4,-7.3 -2.07,-1.93 -4.47,-3.33 -7.15,-4.18 -2.72,-0.89 -5.72,-1.32 -9.08,-1.32 -5.94,0 -10.73,1.39 -14.45,4.18 -3.68,2.79 -6.62,6.62 -8.73,11.52 -2.15,4.86 -3.58,10.59 -4.36,17.16 -0.75,6.55 -1.14,13.59 -1.14,21.14 0,10.08 0.54,18.7 1.57,25.78 1.04,7.08 2.72,12.84 4.97,17.31 2.25,4.47 5.15,7.72 8.69,9.73 3.54,2.04 7.8,3.04 12.84,3.04 3.9,0 7.33,-0.64 10.3,-1.9 2.97,-1.25 5.51,-3.04 7.65,-5.36 2.11,-2.36 3.9,-5.15 5.29,-8.44 1.4,-3.29 2.5,-6.9 3.36,-10.87 0.82,-3.97 1.4,-8.3 1.72,-12.91 0.32,-4.65 0.47,-9.48 0.47,-14.52z"/>
  <path id="_9" class="fil1" d="M1266.28 555.9c0,10.41 -0.82,19.92 -2.47,28.5 -1.65,8.58 -4.36,15.95 -8.15,22.14 -3.83,6.19 -8.8,10.94 -14.95,14.34 -6.15,3.4 -13.73,5.08 -22.74,5.08 -8.51,0 -15.66,-1.5 -21.53,-4.54 -5.83,-3.04 -10.51,-7.51 -14.09,-13.41 -3.54,-5.9 -6.08,-13.16 -7.58,-21.78 -1.5,-8.62 -2.25,-18.52 -2.25,-29.68 0,-10.34 0.82,-19.81 2.5,-28.43 1.68,-8.62 4.4,-16.02 8.19,-22.21 3.75,-6.19 8.73,-10.94 14.88,-14.34 6.15,-3.4 13.7,-5.08 22.64,-5.08 8.58,0 15.77,1.5 21.64,4.54 5.83,3.04 10.51,7.51 14.09,13.41 3.54,5.9 6.08,13.16 7.58,21.78 1.5,8.62 2.25,18.53 2.25,29.68zm-18.45 1.25c0,-6.76 -0.25,-12.84 -0.71,-18.2 -0.5,-5.36 -1.22,-10.12 -2.18,-14.23 -0.93,-4.11 -2.15,-7.65 -3.65,-10.62 -1.5,-2.93 -3.29,-5.4 -5.4,-7.3 -2.07,-1.93 -4.47,-3.33 -7.15,-4.18 -2.72,-0.89 -5.72,-1.32 -9.08,-1.32 -5.94,0 -10.73,1.39 -14.45,4.18 -3.68,2.79 -6.62,6.62 -8.73,11.52 -2.15,4.86 -3.58,10.59 -4.36,17.16 -0.75,6.55 -1.14,13.59 -1.14,21.14 0,10.08 0.54,18.7 1.57,25.78 1.04,7.08 2.72,12.84 4.97,17.31 2.25,4.47 5.15,7.72 8.69,9.73 3.54,2.04 7.8,3.04 12.84,3.04 3.9,0 7.33,-0.64 10.3,-1.9 2.97,-1.25 5.51,-3.04 7.65,-5.36 2.11,-2.36 3.9,-5.15 5.29,-8.44 1.4,-3.29 2.5,-6.9 3.36,-10.87 0.82,-3.97 1.4,-8.3 1.72,-12.91 0.32,-4.65 0.47,-9.48 0.47,-14.52z"/>
  <path id="_10" class="fil1" d="M1375.03 555.9c0,10.41 -0.82,19.92 -2.47,28.5 -1.65,8.58 -4.36,15.95 -8.15,22.14 -3.83,6.19 -8.8,10.94 -14.95,14.34 -6.15,3.4 -13.73,5.08 -22.74,5.08 -8.51,0 -15.66,-1.5 -21.53,-4.54 -5.83,-3.04 -10.51,-7.51 -14.09,-13.41 -3.54,-5.9 -6.08,-13.16 -7.58,-21.78 -1.5,-8.62 -2.25,-18.52 -2.25,-29.68 0,-10.34 0.82,-19.81 2.5,-28.43 1.68,-8.62 4.4,-16.02 8.19,-22.21 3.75,-6.19 8.73,-10.94 14.88,-14.34 6.15,-3.4 13.7,-5.08 22.64,-5.08 8.58,0 15.77,1.5 21.64,4.54 5.83,3.04 10.51,7.51 14.09,13.41 3.54,5.9 6.08,13.16 7.58,21.78 1.5,8.62 2.25,18.53 2.25,29.68zm-18.45 1.25c0,-6.76 -0.25,-12.84 -0.71,-18.2 -0.5,-5.36 -1.22,-10.12 -2.18,-14.23 -0.93,-4.11 -2.15,-7.65 -3.65,-10.62 -1.5,-2.93 -3.29,-5.4 -5.4,-7.3 -2.07,-1.93 -4.47,-3.33 -7.15,-4.18 -2.72,-0.89 -5.72,-1.32 -9.08,-1.32 -5.94,0 -10.73,1.39 -14.45,4.18 -3.68,2.79 -6.62,6.62 -8.73,11.52 -2.15,4.86 -3.58,10.59 -4.36,17.16 -0.75,6.55 -1.14,13.59 -1.14,21.14 0,10.08 0.54,18.7 1.57,25.78 1.04,7.08 2.72,12.84 4.97,17.31 2.25,4.47 5.15,7.72 8.69,9.73 3.54,2.04 7.8,3.04 12.84,3.04 3.9,0 7.33,-0.64 10.3,-1.9 2.97,-1.25 5.51,-3.04 7.65,-5.36 2.11,-2.36 3.9,-5.15 5.29,-8.44 1.4,-3.29 2.5,-6.9 3.36,-10.87 0.82,-3.97 1.4,-8.3 1.72,-12.91 0.32,-4.65 0.47,-9.48 0.47,-14.52z"/>
  <path id="_11" class="fil1" d="M1041.59 609.11c0,2.18 -0.11,4.18 -0.32,5.97 -0.21,1.82 -0.57,3.54 -1.04,5.15 -0.5,1.61 -1.14,3.18 -1.93,4.76 -0.82,1.57 -1.82,3.25 -3,4.97l-14.34 21.6c-0.36,0.5 -0.75,0.89 -1.21,1.25 -0.47,0.36 -1,0.68 -1.68,0.93 -0.64,0.29 -1.43,0.5 -2.29,0.61 -0.89,0.11 -1.97,0.14 -3.33,0.14 -1.18,0 -2.18,-0.04 -2.97,-0.14 -0.82,-0.11 -1.39,-0.29 -1.72,-0.54 -0.36,-0.25 -0.54,-0.57 -0.57,-1 -0.04,-0.43 0.07,-0.89 0.36,-1.47l13.91 -28.82 0 -13.41c0,-1.86 0.21,-3.36 0.61,-4.51 0.36,-1.11 0.97,-1.93 1.82,-2.5 0.82,-0.57 1.9,-0.93 3.15,-1.14 1.25,-0.21 2.79,-0.32 4.61,-0.32 1.72,0 3.22,0.11 4.51,0.32 1.25,0.21 2.29,0.57 3.08,1.14 0.79,0.57 1.39,1.4 1.79,2.5 0.39,1.14 0.57,2.65 0.57,4.51z"/>
  <path id="_12" class="fil2 str0" d="M771.46 336.64c-9.89,0 -19.08,-1.01 -27.55,-3.02 -8.47,-2.01 -15.85,-4.74 -22.14,-8.17 -6.29,-3.44 -11.24,-7.46 -14.84,-12.07 -3.61,-4.61 -5.41,-9.6 -5.41,-14.97l0 -0.25 0 -0.25c0.17,-4.86 2.01,-9.01 5.53,-12.45 3.52,-3.44 7.71,-5.16 12.58,-5.16 5.03,0 9.31,1.8 12.83,5.41 3.52,3.61 5.28,7.84 5.28,12.7 0,3.86 0.71,7.8 2.14,11.82 1.43,4.02 3.6,7.67 6.54,10.94 2.94,3.27 6.67,5.91 11.19,7.92 4.53,2.01 9.89,3.02 16.1,3.02 4.86,0 9.14,-1.13 12.83,-3.4 3.69,-2.26 6.75,-5.03 9.18,-8.3 2.43,-3.27 4.24,-6.75 5.41,-10.44 1.17,-3.69 1.76,-6.96 1.76,-9.81 0,-6.54 -2.35,-11.86 -7.04,-15.97 -4.69,-4.11 -10.52,-7.63 -17.48,-10.56 -6.96,-2.93 -14.51,-5.7 -22.64,-8.3 -8.13,-2.6 -15.68,-5.79 -22.64,-9.56 -6.96,-3.77 -12.79,-8.51 -17.48,-14.21 -4.7,-5.7 -7.04,-13.16 -7.04,-22.39 0,-5.37 1.26,-10.52 3.77,-15.47 2.52,-4.95 6.25,-9.35 11.19,-13.21 4.95,-3.86 11.07,-6.92 18.36,-9.18 7.29,-2.26 15.72,-3.4 25.28,-3.4 9.89,0 18.57,0.92 26.03,2.77 7.46,1.84 13.71,4.32 18.74,7.42 5.03,3.1 9.01,6.67 11.95,10.69 2.93,4.02 4.82,8.13 5.66,12.33 0.5,1.51 0.75,3.1 0.75,4.78l0 0.25 0 0.25c-0.33,4.86 -2.22,9.01 -5.66,12.45 -3.44,3.44 -7.59,5.16 -12.45,5.16 -5.03,0 -9.31,-1.76 -12.83,-5.28 -3.52,-3.52 -5.28,-7.8 -5.28,-12.83 0,-3.86 -0.34,-7.84 -1.01,-11.95 -0.67,-4.11 -1.93,-7.88 -3.77,-11.32 -1.85,-3.44 -4.44,-6.25 -7.8,-8.43 -3.35,-2.18 -7.63,-3.27 -12.83,-3.27 -8.72,0 -15.34,2.6 -19.87,7.8 -4.53,5.2 -6.79,11.82 -6.79,19.87 0,8.05 2.35,14.42 7.04,19.12 4.7,4.7 10.61,8.6 17.73,11.7 7.13,3.1 14.84,5.83 23.14,8.17 8.3,2.35 16.02,5.28 23.14,8.8 7.13,3.52 13.04,8.01 17.73,13.46 4.69,5.45 7.04,12.87 7.04,22.26 0,4.86 -1.38,9.89 -4.15,15.09 -2.77,5.2 -6.92,9.98 -12.45,14.34 -5.53,4.36 -12.45,7.97 -20.75,10.82 -8.3,2.85 -17.99,4.28 -29.05,4.28z"/>
  <path id="_13" class="fil2 str0" d="M888.94 335.13l-41 0 0 -1.26c0.5,-0.84 1.09,-2.35 1.76,-4.53 0.5,-1.85 0.96,-4.65 1.38,-8.43 0.42,-3.77 0.63,-8.85 0.63,-15.22l0 -95.34c0,-6.37 -0.21,-11.49 -0.63,-15.34 -0.42,-3.86 -0.88,-6.71 -1.38,-8.55 -0.67,-2.18 -1.26,-3.61 -1.76,-4.28l0 -1.51 41 0 0 1.51c-0.67,0.67 -1.34,2.1 -2.01,4.28 -0.5,1.84 -0.92,4.69 -1.26,8.55 -0.33,3.86 -0.5,8.97 -0.5,15.34l0 95.34c0,6.37 0.17,11.45 0.5,15.22 0.34,3.77 0.76,6.58 1.26,8.43 0.67,2.18 1.34,3.69 2.01,4.53l0 1.26z"/>
  <path id="_14" class="fil2 str0" d="M1020.5 335.13l-121.75 0 0 -1.26c0.5,-0.84 1.09,-2.35 1.76,-4.53 0.5,-1.85 0.96,-4.65 1.38,-8.43 0.42,-3.77 0.63,-8.85 0.63,-15.22l0 -95.34c0,-6.37 -0.21,-11.49 -0.63,-15.34 -0.42,-3.86 -0.88,-6.71 -1.38,-8.55 -0.67,-2.18 -1.26,-3.61 -1.76,-4.28l0 -1.51 41 0 0 1.51c-0.67,0.67 -1.34,2.1 -2.01,4.28 -0.5,1.84 -0.92,4.69 -1.26,8.55 -0.33,3.86 -0.5,8.97 -0.5,15.34l0 121.75 19.62 0c12.74,0 23.31,-1.55 31.7,-4.65 8.38,-3.1 15.01,-6.58 19.87,-10.44 5.7,-4.36 10.15,-9.39 13.33,-15.09l1.26 0 0 33.2 -1.26 0z"/>
  <path id="_15" class="fil2 str0" d="M1006.41 210.37c-2.35,-6.37 -4.44,-11.49 -6.29,-15.34 -1.84,-3.86 -3.44,-6.71 -4.78,-8.55 -1.51,-2.18 -2.77,-3.61 -3.77,-4.28l0 -1.51 41.51 0 0 1.51c-0.5,0.67 -0.59,2.1 -0.25,4.28 0.34,1.84 0.96,4.69 1.89,8.55 0.92,3.86 2.64,8.97 5.16,15.34l31.95 86.28 26.16 -86.78c1.84,-6.37 2.47,-11.36 1.89,-14.97 -0.59,-3.61 -1.63,-6.33 -3.14,-8.18 -1.84,-2.18 -4.11,-3.69 -6.79,-4.53l0.5 -1.51 35.97 0 -0.5 1.51c-3.35,0.84 -6.54,2.35 -9.56,4.53 -2.68,1.85 -5.45,4.65 -8.3,8.43 -2.85,3.77 -5.2,8.85 -7.04,15.22l-38.99 126.78 -7.04 0 -48.55 -126.78z"/>
  <path id="_16" class="fil2 str0" d="M1264.75 335.13l-128.29 0 0 -1.26c0.5,-0.84 1.09,-2.35 1.76,-4.53 0.5,-1.85 0.96,-4.65 1.38,-8.43 0.42,-3.77 0.63,-8.85 0.63,-15.22l0 -95.34c0,-6.37 -0.21,-11.45 -0.63,-15.22 -0.42,-3.77 -0.88,-6.58 -1.38,-8.43 -0.67,-2.18 -1.26,-3.69 -1.76,-4.53l0 -1.26 125.02 0 -11.82 33.2 -1.26 0c-1.01,-5.7 -3.52,-10.73 -7.55,-15.09 -1.84,-1.85 -4.02,-3.69 -6.54,-5.53 -2.52,-1.84 -5.62,-3.48 -9.31,-4.91 -3.69,-1.43 -7.97,-2.56 -12.83,-3.4 -4.86,-0.84 -10.48,-1.26 -16.85,-1.26l-21.63 0 0 75.21 39.49 0c6.37,0 11.45,-0.84 15.22,-2.52 3.77,-1.68 6.58,-3.52 8.43,-5.53 2.18,-2.35 3.69,-5.11 4.53,-8.3l1.26 0 0 35.97 -1.26 0c-0.84,-3.02 -2.35,-5.79 -4.53,-8.3 -1.85,-2.01 -4.65,-3.9 -8.43,-5.66 -3.77,-1.76 -8.85,-2.64 -15.22,-2.64l-39.49 0 0 69.93 26.16 0c12.74,0 22.68,-1.55 29.81,-4.65 7.13,-3.1 12.45,-6.58 15.97,-10.44 4.19,-4.36 6.71,-9.39 7.55,-15.09l1.26 0 11.57 33.2 -1.26 0z"/>
  <path id="_17" class="fil2 str0" d="M1396.06 305.7c4.36,7.04 7.88,12.45 10.57,16.22 2.68,3.77 4.86,6.58 6.54,8.43 1.85,2.01 3.35,3.19 4.53,3.52l0 1.26 -46.03 0 0 -1.26c0.84,-0.84 1.09,-2.35 0.76,-4.53 -0.34,-1.85 -1.26,-4.65 -2.77,-8.43 -1.51,-3.77 -4.15,-8.85 -8.01,-15.22l-19.79 -32.95 -28.8 0 0 32.95c0,6.37 0.17,11.45 0.5,15.22 0.34,3.77 0.76,6.58 1.26,8.43 0.59,2.18 1.17,3.69 1.76,4.53l0 1.26 -40.75 0 0 -1.26c0.5,-0.84 1.09,-2.35 1.76,-4.53 0.5,-1.85 0.96,-4.65 1.38,-8.43 0.42,-3.77 0.63,-8.85 0.63,-15.22l0 -95.34c0,-6.37 -0.21,-11.45 -0.63,-15.22 -0.42,-3.77 -0.88,-6.58 -1.38,-8.43 -0.67,-2.18 -1.26,-3.69 -1.76,-4.53l0 -1.26 67.67 -0.25 -0.25 0c12.24,0 22.72,1.22 31.44,3.65 8.72,2.43 15.85,5.74 21.38,9.94 5.53,4.19 9.6,9.06 12.2,14.59 2.6,5.53 3.9,11.49 3.9,17.86 0,9.56 -3.35,18.07 -10.06,25.53 -6.71,7.46 -16.1,12.95 -28.17,16.48l22.14 36.98zm-70.22 -35.97c9.85,0 18.11,-1.09 24.82,-3.27 6.67,-2.18 12.03,-5.2 16.14,-9.06 4.11,-3.86 7,-8.38 8.76,-13.58 1.76,-5.2 2.64,-10.9 2.64,-17.1 0,-6.21 -0.75,-11.91 -2.26,-17.11 -1.51,-5.2 -3.9,-9.68 -7.25,-13.46 -3.35,-3.77 -7.67,-6.75 -13.04,-8.93 -5.33,-2.18 -11.95,-3.27 -19.79,-3.27l-20.04 0c-0.5,1.34 -1.09,3.94 -1.76,7.8 -0.67,3.86 -1.01,10.06 -1.01,18.62l0 59.37 12.79 0z"/>
  <path id="_18" class="fil2" d="M836.07 616.77c0,1.36 -0.11,2.47 -0.32,3.36 -0.21,0.93 -0.46,1.64 -0.82,2.22 -0.36,0.57 -0.75,0.97 -1.22,1.25 -0.46,0.29 -0.89,0.43 -1.29,0.43l-83.36 0c-0.46,0 -0.93,-0.14 -1.36,-0.43 -0.39,-0.29 -0.82,-0.68 -1.18,-1.25 -0.39,-0.57 -0.68,-1.29 -0.89,-2.22 -0.21,-0.89 -0.32,-2 -0.32,-3.36 0,-1.25 0.07,-2.36 0.25,-3.29 0.18,-0.93 0.47,-1.72 0.79,-2.32 0.36,-0.57 0.79,-1 1.22,-1.29 0.47,-0.29 0.97,-0.43 1.54,-0.43l12.95 0 0 -47.63 -12.95 0c-0.5,0 -0.97,-0.11 -1.36,-0.36 -0.43,-0.25 -0.82,-0.64 -1.22,-1.22 -0.39,-0.57 -0.68,-1.29 -0.89,-2.15 -0.21,-0.89 -0.32,-2 -0.32,-3.43 0,-1.18 0.07,-2.22 0.25,-3.11 0.18,-0.93 0.47,-1.68 0.79,-2.29 0.36,-0.57 0.79,-1 1.22,-1.25 0.47,-0.25 0.97,-0.36 1.54,-0.36l12.95 0 0 -12.55c0,-8.58 0.97,-15.95 2.93,-22.1 1.97,-6.15 4.72,-11.16 8.33,-15.09 3.58,-3.9 7.9,-6.76 13.02,-8.51 5.08,-1.79 10.76,-2.68 17.06,-2.68 2.93,0 5.79,0.25 8.62,0.79 2.82,0.54 5.44,1.25 7.83,2.15 2.43,0.89 4.58,1.97 6.51,3.15 1.93,1.18 3.36,2.22 4.29,3.15 0.93,0.89 1.57,1.61 1.93,2.18 0.36,0.57 0.64,1.18 0.82,1.9 0.21,0.68 0.36,1.47 0.43,2.29 0.07,0.86 0.11,1.9 0.11,3.15 0,1.18 -0.07,2.22 -0.21,3.15 -0.14,0.89 -0.36,1.65 -0.61,2.25 -0.29,0.57 -0.61,1.04 -1,1.36 -0.39,0.32 -0.82,0.46 -1.32,0.46 -0.97,0 -2.11,-0.61 -3.47,-1.79 -1.36,-1.18 -3.08,-2.5 -5.19,-3.9 -2.07,-1.4 -4.61,-2.72 -7.55,-3.9 -2.97,-1.18 -6.51,-1.79 -10.62,-1.79 -4.15,0 -7.76,0.71 -10.8,2.15 -3.04,1.43 -5.51,3.54 -7.47,6.33 -1.93,2.82 -3.4,6.26 -4.36,10.41 -0.97,4.11 -1.47,8.87 -1.47,14.27l0 13.2 34.12 0c0.57,0 1.07,0.11 1.5,0.36 0.47,0.25 0.86,0.68 1.14,1.25 0.32,0.61 0.57,1.36 0.75,2.29 0.18,0.89 0.25,1.93 0.25,3.11 0,1.43 -0.11,2.54 -0.32,3.43 -0.21,0.86 -0.46,1.57 -0.82,2.15 -0.36,0.57 -0.71,0.97 -1.14,1.22 -0.43,0.25 -0.86,0.36 -1.36,0.36l-34.12 0 0 47.63 52.57 0c0.5,0 0.97,0.14 1.39,0.43 0.47,0.29 0.86,0.72 1.22,1.29 0.36,0.61 0.61,1.4 0.79,2.32 0.18,0.93 0.25,2.04 0.25,3.29z"/>
  <path id="_19" class="fil2" d="M990.09 580.4c0,7.26 -1.21,13.7 -3.68,19.38 -2.43,5.65 -5.9,10.41 -10.37,14.3 -4.47,3.86 -9.8,6.79 -15.99,8.83 -6.15,2.04 -13.02,3.04 -20.56,3.04 -4.22,0 -8.19,-0.29 -11.94,-0.89 -3.79,-0.57 -7.15,-1.32 -10.08,-2.18 -2.93,-0.86 -5.33,-1.72 -7.22,-2.57 -1.9,-0.82 -3.07,-1.47 -3.61,-1.97 -0.54,-0.5 -0.89,-0.93 -1.11,-1.36 -0.21,-0.43 -0.39,-0.93 -0.57,-1.5 -0.18,-0.61 -0.29,-1.36 -0.36,-2.25 -0.07,-0.89 -0.11,-2 -0.11,-3.25 0,-1.18 0.04,-2.22 0.14,-3.18 0.11,-0.93 0.32,-1.68 0.61,-2.29 0.25,-0.57 0.61,-1.04 0.97,-1.29 0.39,-0.29 0.82,-0.43 1.32,-0.43 0.72,0 1.79,0.43 3.25,1.32 1.47,0.86 3.43,1.79 5.9,2.82 2.5,1 5.54,1.97 9.23,2.86 3.68,0.9 8.01,1.36 13.05,1.36 4.69,0 8.98,-0.57 12.87,-1.68 3.9,-1.11 7.3,-2.86 10.12,-5.26 2.82,-2.36 5.04,-5.33 6.65,-8.94 1.61,-3.61 2.4,-7.97 2.4,-13.16 0,-4.33 -0.68,-8.15 -2.04,-11.48 -1.36,-3.33 -3.47,-6.08 -6.29,-8.3 -2.82,-2.18 -6.4,-3.83 -10.76,-4.94 -4.33,-1.07 -9.48,-1.61 -15.48,-1.61 -4.29,0 -7.94,0.21 -11.01,0.64 -3.08,0.39 -5.94,0.61 -8.62,0.61 -1.93,0 -3.33,-0.46 -4.18,-1.36 -0.82,-0.89 -1.25,-2.65 -1.25,-5.22l0 -55.25c0,-2.29 0.54,-4.01 1.61,-5.11 1.11,-1.11 2.65,-1.68 4.68,-1.68l60.11 0c0.54,0 1.07,0.14 1.61,0.46 0.54,0.32 0.97,0.79 1.32,1.43 0.32,0.61 0.61,1.39 0.79,2.4 0.18,0.97 0.25,2.11 0.25,3.43 0,2.5 -0.32,4.47 -1,5.86 -0.68,1.4 -1.61,2.07 -2.82,2.07l-48.53 0 0 38.09c2.36,-0.36 4.76,-0.57 7.22,-0.64 2.47,-0.07 5.29,-0.11 8.55,-0.11 7.47,0 13.98,0.93 19.6,2.79 5.58,1.82 10.26,4.47 13.98,7.83 3.75,3.4 6.58,7.51 8.47,12.34 1.93,4.79 2.9,10.16 2.9,16.02z"/>
  <path id="_20" class="fil2" d="M1157.53 555.9c0,10.41 -0.82,19.92 -2.47,28.5 -1.65,8.58 -4.36,15.95 -8.15,22.14 -3.83,6.19 -8.8,10.94 -14.95,14.34 -6.15,3.4 -13.73,5.08 -22.74,5.08 -8.51,0 -15.66,-1.5 -21.53,-4.54 -5.83,-3.04 -10.51,-7.51 -14.09,-13.41 -3.54,-5.9 -6.08,-13.16 -7.58,-21.78 -1.5,-8.62 -2.25,-18.52 -2.25,-29.68 0,-10.34 0.82,-19.81 2.5,-28.43 1.68,-8.62 4.4,-16.02 8.19,-22.21 3.75,-6.19 8.73,-10.94 14.88,-14.34 6.15,-3.4 13.7,-5.08 22.64,-5.08 8.58,0 15.77,1.5 21.64,4.54 5.83,3.04 10.51,7.51 14.09,13.41 3.54,5.9 6.08,13.16 7.58,21.78 1.5,8.62 2.25,18.53 2.25,29.68zm-18.45 1.25c0,-6.76 -0.25,-12.84 -0.71,-18.2 -0.5,-5.36 -1.22,-10.12 -2.18,-14.23 -0.93,-4.11 -2.15,-7.65 -3.65,-10.62 -1.5,-2.93 -3.29,-5.4 -5.4,-7.3 -2.07,-1.93 -4.47,-3.33 -7.15,-4.18 -2.72,-0.89 -5.72,-1.32 -9.08,-1.32 -5.94,0 -10.73,1.39 -14.45,4.18 -3.68,2.79 -6.62,6.62 -8.73,11.52 -2.15,4.86 -3.58,10.59 -4.36,17.16 -0.75,6.55 -1.14,13.59 -1.14,21.14 0,10.08 0.54,18.7 1.57,25.78 1.04,7.08 2.72,12.84 4.97,17.31 2.25,4.47 5.15,7.72 8.69,9.73 3.54,2.04 7.8,3.04 12.84,3.04 3.9,0 7.33,-0.64 10.3,-1.9 2.97,-1.25 5.51,-3.04 7.65,-5.36 2.11,-2.36 3.9,-5.15 5.29,-8.44 1.4,-3.29 2.5,-6.9 3.36,-10.87 0.82,-3.97 1.4,-8.3 1.72,-12.91 0.32,-4.65 0.47,-9.48 0.47,-14.52z"/>
  <path id="_21" class="fil2" d="M1266.28 555.9c0,10.41 -0.82,19.92 -2.47,28.5 -1.65,8.58 -4.36,15.95 -8.15,22.14 -3.83,6.19 -8.8,10.94 -14.95,14.34 -6.15,3.4 -13.73,5.08 -22.74,5.08 -8.51,0 -15.66,-1.5 -21.53,-4.54 -5.83,-3.04 -10.51,-7.51 -14.09,-13.41 -3.54,-5.9 -6.08,-13.16 -7.58,-21.78 -1.5,-8.62 -2.25,-18.52 -2.25,-29.68 0,-10.34 0.82,-19.81 2.5,-28.43 1.68,-8.62 4.4,-16.02 8.19,-22.21 3.75,-6.19 8.73,-10.94 14.88,-14.34 6.15,-3.4 13.7,-5.08 22.64,-5.08 8.58,0 15.77,1.5 21.64,4.54 5.83,3.04 10.51,7.51 14.09,13.41 3.54,5.9 6.08,13.16 7.58,21.78 1.5,8.62 2.25,18.53 2.25,29.68zm-18.45 1.25c0,-6.76 -0.25,-12.84 -0.71,-18.2 -0.5,-5.36 -1.22,-10.12 -2.18,-14.23 -0.93,-4.11 -2.15,-7.65 -3.65,-10.62 -1.5,-2.93 -3.29,-5.4 -5.4,-7.3 -2.07,-1.93 -4.47,-3.33 -7.15,-4.18 -2.72,-0.89 -5.72,-1.32 -9.08,-1.32 -5.94,0 -10.73,1.39 -14.45,4.18 -3.68,2.79 -6.62,6.62 -8.73,11.52 -2.15,4.86 -3.58,10.59 -4.36,17.16 -0.75,6.55 -1.14,13.59 -1.14,21.14 0,10.08 0.54,18.7 1.57,25.78 1.04,7.08 2.72,12.84 4.97,17.31 2.25,4.47 5.15,7.72 8.69,9.73 3.54,2.04 7.8,3.04 12.84,3.04 3.9,0 7.33,-0.64 10.3,-1.9 2.97,-1.25 5.51,-3.04 7.65,-5.36 2.11,-2.36 3.9,-5.15 5.29,-8.44 1.4,-3.29 2.5,-6.9 3.36,-10.87 0.82,-3.97 1.4,-8.3 1.72,-12.91 0.32,-4.65 0.47,-9.48 0.47,-14.52z"/>
  <path id="_22" class="fil2" d="M1375.03 555.9c0,10.41 -0.82,19.92 -2.47,28.5 -1.65,8.58 -4.36,15.95 -8.15,22.14 -3.83,6.19 -8.8,10.94 -14.95,14.34 -6.15,3.4 -13.73,5.08 -22.74,5.08 -8.51,0 -15.66,-1.5 -21.53,-4.54 -5.83,-3.04 -10.51,-7.51 -14.09,-13.41 -3.54,-5.9 -6.08,-13.16 -7.58,-21.78 -1.5,-8.62 -2.25,-18.52 -2.25,-29.68 0,-10.34 0.82,-19.81 2.5,-28.43 1.68,-8.62 4.4,-16.02 8.19,-22.21 3.75,-6.19 8.73,-10.94 14.88,-14.34 6.15,-3.4 13.7,-5.08 22.64,-5.08 8.58,0 15.77,1.5 21.64,4.54 5.83,3.04 10.51,7.51 14.09,13.41 3.54,5.9 6.08,13.16 7.58,21.78 1.5,8.62 2.25,18.53 2.25,29.68zm-18.45 1.25c0,-6.76 -0.25,-12.84 -0.71,-18.2 -0.5,-5.36 -1.22,-10.12 -2.18,-14.23 -0.93,-4.11 -2.15,-7.65 -3.65,-10.62 -1.5,-2.93 -3.29,-5.4 -5.4,-7.3 -2.07,-1.93 -4.47,-3.33 -7.15,-4.18 -2.72,-0.89 -5.72,-1.32 -9.08,-1.32 -5.94,0 -10.73,1.39 -14.45,4.18 -3.68,2.79 -6.62,6.62 -8.73,11.52 -2.15,4.86 -3.58,10.59 -4.36,17.16 -0.75,6.55 -1.14,13.59 -1.14,21.14 0,10.08 0.54,18.7 1.57,25.78 1.04,7.08 2.72,12.84 4.97,17.31 2.25,4.47 5.15,7.72 8.69,9.73 3.54,2.04 7.8,3.04 12.84,3.04 3.9,0 7.33,-0.64 10.3,-1.9 2.97,-1.25 5.51,-3.04 7.65,-5.36 2.11,-2.36 3.9,-5.15 5.29,-8.44 1.4,-3.29 2.5,-6.9 3.36,-10.87 0.82,-3.97 1.4,-8.3 1.72,-12.91 0.32,-4.65 0.47,-9.48 0.47,-14.52z"/>
  <path id="_23" class="fil2" d="M1041.59 609.11c0,2.18 -0.11,4.18 -0.32,5.97 -0.21,1.82 -0.57,3.54 -1.04,5.15 -0.5,1.61 -1.14,3.18 -1.93,4.76 -0.82,1.57 -1.82,3.25 -3,4.97l-14.34 21.6c-0.36,0.5 -0.75,0.89 -1.21,1.25 -0.47,0.36 -1,0.68 -1.68,0.93 -0.64,0.29 -1.43,0.5 -2.29,0.61 -0.89,0.11 -1.97,0.14 -3.33,0.14 -1.18,0 -2.18,-0.04 -2.97,-0.14 -0.82,-0.11 -1.39,-0.29 -1.72,-0.54 -0.36,-0.25 -0.54,-0.57 -0.57,-1 -0.04,-0.43 0.07,-0.89 0.36,-1.47l13.91 -28.82 0 -13.41c0,-1.86 0.21,-3.36 0.61,-4.51 0.36,-1.11 0.97,-1.93 1.82,-2.5 0.82,-0.57 1.9,-0.93 3.15,-1.14 1.25,-0.21 2.79,-0.32 4.61,-0.32 1.72,0 3.22,0.11 4.51,0.32 1.25,0.21 2.29,0.57 3.08,1.14 0.79,0.57 1.39,1.4 1.79,2.5 0.39,1.14 0.57,2.65 0.57,4.51z"/>
 </g>
</svg>
