<?xml version="1.0" encoding="UTF-8"?>
<!DOCTYPE svg PUBLIC "-//W3C//DTD SVG 1.1//EN" "http://www.w3.org/Graphics/SVG/1.1/DTD/svg11.dtd">
<!-- Creator: CorelDRAW 2021 (64-Bit) -->
<svg xmlns="http://www.w3.org/2000/svg" xml:space="preserve" width="95.4978mm" height="30.4671mm" version="1.1" style="shape-rendering:geometricPrecision; text-rendering:geometricPrecision; image-rendering:optimizeQuality; fill-rule:evenodd; clip-rule:evenodd"
viewBox="0 0 765.49 244.22"
 xmlns:xlink="http://www.w3.org/1999/xlink"
 xmlns:xodm="http://www.corel.com/coreldraw/odm/2003">
 <defs>
  <style type="text/css">
   <![CDATA[
    .fil1 {fill:black;fill-rule:nonzero}
    .fil0 {fill:#1A1A1A;fill-rule:nonzero}
    .fil3 {fill:#280095;fill-rule:nonzero}
    .fil2 {fill:#280095;fill-rule:nonzero}
    .fil7 {fill:#C92026;fill-rule:nonzero}
    .fil4 {fill:#DD1D26;fill-rule:nonzero}
    .fil6 {fill:#ED4843;fill-rule:nonzero}
    .fil5 {fill:white;fill-rule:nonzero}
   ]]>
  </style>
 </defs>
 <g id="Layer_x0020_1">
  <metadata id="CorelCorpID_0Corel-Layer"/>
  <polygon class="fil0" points="525.3,21.63 514.58,50.86 507.46,50.86 496.73,21.63 503.02,21.63 511.06,44.87 519.06,21.63 "/>
  <path id="_1" class="fil0" d="M550.39 38.76c0,0.84 -0.06,1.59 -0.17,2.26l-16.96 0c0.14,1.68 0.73,2.99 1.76,3.94 1.03,0.95 2.3,1.42 3.81,1.42 2.18,0 3.73,-0.94 4.65,-2.81l6.32 0c-0.67,2.23 -1.95,4.07 -3.85,5.51 -1.9,1.44 -4.23,2.16 -7,2.16 -2.23,0 -4.24,-0.5 -6.01,-1.49 -1.77,-0.99 -3.16,-2.39 -4.15,-4.21 -0.99,-1.81 -1.49,-3.91 -1.49,-6.28 0,-2.4 0.49,-4.51 1.47,-6.33 0.98,-1.81 2.35,-3.21 4.11,-4.19 1.76,-0.98 3.78,-1.47 6.07,-1.47 2.21,0 4.18,0.48 5.93,1.42 1.75,0.95 3.1,2.3 4.06,4.04 0.96,1.75 1.45,3.75 1.45,6.01zm-6.07 -1.68c-0.03,-1.51 -0.57,-2.72 -1.63,-3.62 -1.06,-0.91 -2.36,-1.36 -3.9,-1.36 -1.45,0 -2.67,0.44 -3.67,1.32 -0.99,0.88 -1.6,2.1 -1.82,3.66l11.02 0z"/>
  <path id="_2" class="fil0" d="M567.53 27.32c2.76,0 5,0.87 6.7,2.62 1.7,1.75 2.55,4.18 2.55,7.31l0 13.61 -5.86 0 0 -12.82c0,-1.84 -0.46,-3.26 -1.38,-4.25 -0.92,-0.99 -2.18,-1.49 -3.77,-1.49 -1.62,0 -2.9,0.5 -3.83,1.49 -0.94,0.99 -1.4,2.41 -1.4,4.25l0 12.82 -5.86 0 0 -23.21 5.86 0 0 2.89c0.78,-1.01 1.78,-1.79 2.99,-2.37 1.22,-0.57 2.55,-0.86 4,-0.86z"/>
  <path id="_3" class="fil0" d="M604.26 27.66l0 23.21 -5.91 0 0 -2.93c-0.75,1.01 -1.74,1.79 -2.95,2.37 -1.22,0.57 -2.53,0.86 -3.96,0.86 -1.82,0 -3.42,-0.38 -4.82,-1.15 -1.4,-0.77 -2.49,-1.9 -3.29,-3.39 -0.8,-1.49 -1.19,-3.27 -1.19,-5.34l0 -13.61 5.86 0 0 12.78c0,1.84 0.46,3.26 1.38,4.25 0.92,0.99 2.18,1.49 3.77,1.49 1.62,0 2.89,-0.5 3.81,-1.49 0.92,-0.99 1.38,-2.41 1.38,-4.25l0 -12.78 5.91 0z"/>
  <path id="_4" class="fil0" d="M631.61 38.76c0,0.84 -0.06,1.59 -0.17,2.26l-16.96 0c0.14,1.68 0.73,2.99 1.76,3.94 1.03,0.95 2.3,1.42 3.81,1.42 2.18,0 3.73,-0.94 4.65,-2.81l6.32 0c-0.67,2.23 -1.95,4.07 -3.85,5.51 -1.9,1.44 -4.23,2.16 -7,2.16 -2.23,0 -4.24,-0.5 -6.01,-1.49 -1.77,-0.99 -3.16,-2.39 -4.15,-4.21 -0.99,-1.81 -1.49,-3.91 -1.49,-6.28 0,-2.4 0.49,-4.51 1.47,-6.33 0.98,-1.81 2.35,-3.21 4.11,-4.19 1.76,-0.98 3.78,-1.47 6.07,-1.47 2.21,0 4.18,0.48 5.93,1.42 1.75,0.95 3.1,2.3 4.06,4.04 0.96,1.75 1.45,3.75 1.45,6.01zm-6.07 -1.68c-0.03,-1.51 -0.57,-2.72 -1.63,-3.62 -1.06,-0.91 -2.36,-1.36 -3.9,-1.36 -1.45,0 -2.67,0.44 -3.67,1.32 -0.99,0.88 -1.6,2.1 -1.82,3.66l11.02 0z"/>
  <polygon id="_5" class="fil0" points="457.78,78.82 457.78,73.42 467.87,73.42 467.87,103.95 461.84,103.95 461.84,78.82 "/>
  <path id="_6" class="fil0" d="M504.65 83.51c-0.67,-1.23 -1.59,-2.16 -2.76,-2.81 -1.17,-0.64 -2.54,-0.96 -4.11,-0.96 -1.73,0 -3.27,0.39 -4.61,1.17 -1.34,0.78 -2.39,1.9 -3.14,3.35 -0.75,1.45 -1.13,3.13 -1.13,5.03 0,1.96 0.38,3.66 1.15,5.11 0.77,1.45 1.84,2.57 3.2,3.35 1.37,0.78 2.96,1.17 4.77,1.17 2.23,0 4.06,-0.59 5.49,-1.78 1.42,-1.19 2.36,-2.84 2.81,-4.96l-10.05 0 0 -4.48 15.83 0 0 5.11c-0.39,2.04 -1.23,3.92 -2.51,5.65 -1.28,1.73 -2.94,3.12 -4.96,4.17 -2.02,1.05 -4.29,1.57 -6.81,1.57 -2.82,0 -5.37,-0.64 -7.64,-1.91 -2.28,-1.27 -4.06,-3.04 -5.36,-5.3 -1.3,-2.26 -1.95,-4.83 -1.95,-7.71 0,-2.88 0.65,-5.45 1.95,-7.73 1.3,-2.28 3.09,-4.05 5.36,-5.32 2.28,-1.27 4.81,-1.91 7.6,-1.91 3.3,0 6.16,0.8 8.59,2.41 2.43,1.61 4.1,3.86 5.03,6.77l-6.74 0z"/>
  <path id="_7" class="fil0" d="M522.33 84.35c0.75,-1.23 1.74,-2.19 2.95,-2.89 1.21,-0.7 2.6,-1.05 4.17,-1.05l0 6.16 -1.55 0c-1.84,0 -3.23,0.43 -4.17,1.3 -0.94,0.87 -1.4,2.37 -1.4,4.52l0 11.56 -5.86 0 0 -23.21 5.86 0 0 3.6z"/>
  <path id="_8" class="fil0" d="M554.96 91.85c0,0.84 -0.06,1.59 -0.17,2.26l-16.96 0c0.14,1.68 0.73,2.99 1.76,3.94 1.03,0.95 2.3,1.42 3.81,1.42 2.18,0 3.73,-0.94 4.65,-2.81l6.32 0c-0.67,2.23 -1.95,4.07 -3.85,5.51 -1.9,1.44 -4.23,2.16 -7,2.16 -2.23,0 -4.24,-0.5 -6.01,-1.49 -1.77,-0.99 -3.16,-2.39 -4.15,-4.21 -0.99,-1.81 -1.49,-3.91 -1.49,-6.28 0,-2.4 0.49,-4.51 1.47,-6.33 0.98,-1.81 2.35,-3.21 4.11,-4.19 1.76,-0.98 3.78,-1.47 6.07,-1.47 2.21,0 4.18,0.48 5.93,1.42 1.75,0.95 3.1,2.3 4.06,4.04 0.96,1.75 1.45,3.75 1.45,6.01zm-6.07 -1.68c-0.03,-1.51 -0.57,-2.72 -1.63,-3.62 -1.06,-0.91 -2.36,-1.36 -3.9,-1.36 -1.45,0 -2.67,0.44 -3.67,1.32 -0.99,0.88 -1.6,2.1 -1.82,3.66l11.02 0z"/>
  <path id="_9" class="fil0" d="M557.72 92.27c0,-2.35 0.47,-4.43 1.4,-6.24 0.94,-1.81 2.21,-3.21 3.81,-4.19 1.61,-0.98 3.4,-1.47 5.38,-1.47 1.73,0 3.25,0.35 4.54,1.05 1.3,0.7 2.34,1.58 3.12,2.64l0 -3.31 5.91 0 0 23.21 -5.91 0 0 -3.39c-0.75,1.09 -1.79,1.99 -3.12,2.7 -1.33,0.71 -2.86,1.07 -4.59,1.07 -1.95,0 -3.73,-0.5 -5.34,-1.51 -1.61,-1.01 -2.88,-2.42 -3.81,-4.25 -0.94,-1.83 -1.4,-3.93 -1.4,-6.3zm18.26 0.08c0,-1.42 -0.28,-2.65 -0.84,-3.67 -0.56,-1.02 -1.31,-1.8 -2.26,-2.35 -0.95,-0.54 -1.97,-0.82 -3.06,-0.82 -1.09,0 -2.09,0.27 -3.02,0.8 -0.92,0.53 -1.67,1.3 -2.24,2.32 -0.57,1.02 -0.86,2.23 -0.86,3.62 0,1.4 0.29,2.62 0.86,3.67 0.57,1.05 1.33,1.85 2.26,2.41 0.94,0.56 1.93,0.84 3,0.84 1.09,0 2.11,-0.27 3.06,-0.82 0.95,-0.55 1.7,-1.33 2.26,-2.35 0.56,-1.02 0.84,-2.24 0.84,-3.66z"/>
  <path id="_10" class="fil0" d="M594.46 85.56l0 11.23c0,0.78 0.19,1.35 0.57,1.7 0.38,0.35 1.01,0.52 1.91,0.52l2.72 0 0 4.94 -3.69 0c-4.94,0 -7.41,-2.4 -7.41,-7.2l0 -11.18 -2.76 0 0 -4.82 2.76 0 0 -5.74 5.91 0 0 5.74 5.19 0 0 4.82 -5.19 0z"/>
  <path id="_11" class="fil0" d="M634.21 83.51c-0.67,-1.23 -1.59,-2.16 -2.76,-2.81 -1.17,-0.64 -2.54,-0.96 -4.11,-0.96 -1.73,0 -3.27,0.39 -4.61,1.17 -1.34,0.78 -2.39,1.9 -3.14,3.35 -0.75,1.45 -1.13,3.13 -1.13,5.03 0,1.96 0.38,3.66 1.15,5.11 0.77,1.45 1.84,2.57 3.2,3.35 1.37,0.78 2.96,1.17 4.77,1.17 2.23,0 4.06,-0.59 5.49,-1.78 1.42,-1.19 2.36,-2.84 2.81,-4.96l-10.05 0 0 -4.48 15.83 0 0 5.11c-0.39,2.04 -1.23,3.92 -2.51,5.65 -1.28,1.73 -2.94,3.12 -4.96,4.17 -2.02,1.05 -4.29,1.57 -6.81,1.57 -2.82,0 -5.37,-0.64 -7.64,-1.91 -2.28,-1.27 -4.06,-3.04 -5.36,-5.3 -1.3,-2.26 -1.95,-4.83 -1.95,-7.71 0,-2.88 0.65,-5.45 1.95,-7.73 1.3,-2.28 3.09,-4.05 5.36,-5.32 2.28,-1.27 4.81,-1.91 7.6,-1.91 3.3,0 6.16,0.8 8.59,2.41 2.43,1.61 4.1,3.86 5.03,6.77l-6.74 0z"/>
  <path id="_12" class="fil0" d="M667.6 91.85c0,0.84 -0.06,1.59 -0.17,2.26l-16.96 0c0.14,1.68 0.73,2.99 1.76,3.94 1.03,0.95 2.3,1.42 3.81,1.42 2.18,0 3.73,-0.94 4.65,-2.81l6.32 0c-0.67,2.23 -1.95,4.07 -3.85,5.51 -1.9,1.44 -4.23,2.16 -7,2.16 -2.23,0 -4.24,-0.5 -6.01,-1.49 -1.77,-0.99 -3.16,-2.39 -4.15,-4.21 -0.99,-1.81 -1.49,-3.91 -1.49,-6.28 0,-2.4 0.49,-4.51 1.47,-6.33 0.98,-1.81 2.35,-3.21 4.11,-4.19 1.76,-0.98 3.78,-1.47 6.07,-1.47 2.21,0 4.18,0.48 5.93,1.42 1.75,0.95 3.1,2.3 4.06,4.04 0.96,1.75 1.45,3.75 1.45,6.01zm-6.07 -1.68c-0.03,-1.51 -0.57,-2.72 -1.63,-3.62 -1.06,-0.91 -2.36,-1.36 -3.9,-1.36 -1.45,0 -2.67,0.44 -3.67,1.32 -0.99,0.88 -1.6,2.1 -1.82,3.66l11.02 0z"/>
  <path id="_13" class="fil0" d="M682.17 104.33c-2.23,0 -4.24,-0.5 -6.03,-1.49 -1.79,-0.99 -3.19,-2.39 -4.21,-4.21 -1.02,-1.81 -1.53,-3.91 -1.53,-6.28 0,-2.37 0.52,-4.47 1.57,-6.28 1.05,-1.81 2.48,-3.22 4.29,-4.21 1.81,-0.99 3.84,-1.49 6.07,-1.49 2.23,0 4.26,0.5 6.07,1.49 1.82,0.99 3.25,2.4 4.29,4.21 1.05,1.82 1.57,3.91 1.57,6.28 0,2.37 -0.54,4.47 -1.61,6.28 -1.07,1.82 -2.53,3.22 -4.36,4.21 -1.83,0.99 -3.87,1.49 -6.14,1.49zm0 -5.11c1.06,0 2.06,-0.26 2.99,-0.78 0.94,-0.52 1.68,-1.29 2.24,-2.32 0.56,-1.03 0.84,-2.29 0.84,-3.77 0,-2.21 -0.58,-3.9 -1.74,-5.09 -1.16,-1.19 -2.58,-1.78 -4.25,-1.78 -1.68,0 -3.08,0.59 -4.21,1.78 -1.13,1.19 -1.7,2.88 -1.7,5.09 0,2.21 0.55,3.9 1.65,5.09 1.1,1.19 2.49,1.78 4.17,1.78z"/>
  <path id="_14" class="fil0" d="M704.46 84.35c0.75,-1.23 1.74,-2.19 2.95,-2.89 1.21,-0.7 2.6,-1.05 4.17,-1.05l0 6.16 -1.55 0c-1.84,0 -3.23,0.43 -4.17,1.3 -0.94,0.87 -1.4,2.37 -1.4,4.52l0 11.56 -5.86 0 0 -23.21 5.86 0 0 3.6z"/>
  <path id="_15" class="fil0" d="M724.61 80.37c1.73,0 3.25,0.34 4.57,1.03 1.31,0.68 2.35,1.57 3.1,2.66l0 -3.31 5.91 0 0 23.37c0,2.15 -0.43,4.07 -1.3,5.76 -0.87,1.69 -2.16,3.03 -3.9,4.02 -1.73,0.99 -3.83,1.49 -6.28,1.49 -3.3,0 -6,-0.77 -8.1,-2.3 -2.11,-1.54 -3.3,-3.63 -3.58,-6.28l5.82 0c0.31,1.06 0.97,1.91 1.99,2.53 1.02,0.63 2.25,0.94 3.71,0.94 1.7,0 3.09,-0.51 4.15,-1.53 1.06,-1.02 1.59,-2.56 1.59,-4.63l0 -3.6c-0.75,1.09 -1.79,2 -3.12,2.72 -1.33,0.73 -2.84,1.09 -4.54,1.09 -1.96,0 -3.74,-0.5 -5.36,-1.51 -1.62,-1.01 -2.9,-2.42 -3.83,-4.25 -0.94,-1.83 -1.4,-3.93 -1.4,-6.3 0,-2.35 0.47,-4.43 1.4,-6.24 0.94,-1.81 2.21,-3.21 3.81,-4.19 1.61,-0.98 3.4,-1.47 5.38,-1.47zm7.67 11.98c0,-1.42 -0.28,-2.65 -0.84,-3.67 -0.56,-1.02 -1.31,-1.8 -2.26,-2.35 -0.95,-0.54 -1.97,-0.82 -3.06,-0.82 -1.09,0 -2.09,0.27 -3.02,0.8 -0.92,0.53 -1.67,1.3 -2.24,2.32 -0.57,1.02 -0.86,2.23 -0.86,3.62 0,1.4 0.29,2.62 0.86,3.67 0.57,1.05 1.33,1.85 2.26,2.41 0.94,0.56 1.93,0.84 3,0.84 1.09,0 2.11,-0.27 3.06,-0.82 0.95,-0.55 1.7,-1.33 2.26,-2.35 0.56,-1.02 0.84,-2.24 0.84,-3.66z"/>
  <path id="_16" class="fil0" d="M765.49 91.85c0,0.84 -0.06,1.59 -0.17,2.26l-16.96 0c0.14,1.68 0.73,2.99 1.76,3.94 1.03,0.95 2.3,1.42 3.81,1.42 2.18,0 3.73,-0.94 4.65,-2.81l6.32 0c-0.67,2.23 -1.95,4.07 -3.85,5.51 -1.9,1.44 -4.23,2.16 -7,2.16 -2.23,0 -4.24,-0.5 -6.01,-1.49 -1.77,-0.99 -3.16,-2.39 -4.15,-4.21 -0.99,-1.81 -1.49,-3.91 -1.49,-6.28 0,-2.4 0.49,-4.51 1.47,-6.33 0.98,-1.81 2.35,-3.21 4.11,-4.19 1.76,-0.98 3.78,-1.47 6.07,-1.47 2.21,0 4.18,0.48 5.93,1.42 1.75,0.95 3.1,2.3 4.06,4.04 0.96,1.75 1.45,3.75 1.45,6.01zm-6.07 -1.68c-0.03,-1.51 -0.57,-2.72 -1.63,-3.62 -1.06,-0.91 -2.36,-1.36 -3.9,-1.36 -1.45,0 -2.67,0.44 -3.67,1.32 -0.99,0.88 -1.6,2.1 -1.82,3.66l11.02 0z"/>
  <path id="_17" class="fil0" d="M469.26 157.34c-2.04,0 -3.87,-0.35 -5.51,-1.05 -1.63,-0.7 -2.92,-1.7 -3.87,-3.02 -0.95,-1.31 -1.44,-2.86 -1.47,-4.65l6.28 0c0.08,1.2 0.51,2.15 1.28,2.85 0.77,0.7 1.82,1.05 3.16,1.05 1.37,0 2.44,-0.33 3.23,-0.98 0.78,-0.66 1.17,-1.51 1.17,-2.58 0,-0.87 -0.27,-1.58 -0.8,-2.14 -0.53,-0.56 -1.19,-1 -1.99,-1.32 -0.8,-0.32 -1.89,-0.68 -3.29,-1.07 -1.9,-0.56 -3.44,-1.11 -4.63,-1.66 -1.19,-0.54 -2.21,-1.37 -3.06,-2.47 -0.85,-1.1 -1.28,-2.58 -1.28,-4.42 0,-1.73 0.43,-3.24 1.3,-4.52 0.87,-1.28 2.08,-2.27 3.64,-2.95 1.56,-0.68 3.35,-1.03 5.36,-1.03 3.02,0 5.47,0.73 7.35,2.2 1.89,1.47 2.92,3.51 3.12,6.14l-6.45 0c-0.06,-1.01 -0.48,-1.84 -1.28,-2.49 -0.8,-0.66 -1.85,-0.98 -3.16,-0.98 -1.14,0 -2.06,0.29 -2.74,0.88 -0.68,0.59 -1.03,1.44 -1.03,2.56 0,0.78 0.26,1.43 0.78,1.95 0.52,0.52 1.16,0.94 1.93,1.26 0.77,0.32 1.85,0.69 3.25,1.11 1.9,0.56 3.45,1.12 4.65,1.68 1.2,0.56 2.23,1.4 3.1,2.51 0.87,1.12 1.3,2.58 1.3,4.4 0,1.56 -0.4,3.02 -1.21,4.36 -0.81,1.34 -2,2.41 -3.56,3.2 -1.56,0.8 -3.42,1.19 -5.57,1.19z"/>
  <path id="_18" class="fil0" d="M491.5 138.65l0 11.23c0,0.78 0.19,1.35 0.57,1.7 0.38,0.35 1.01,0.52 1.91,0.52l2.72 0 0 4.94 -3.69 0c-4.94,0 -7.41,-2.4 -7.41,-7.2l0 -11.18 -2.76 0 0 -4.82 2.76 0 0 -5.74 5.91 0 0 5.74 5.19 0 0 4.82 -5.19 0z"/>
  <path id="_19" class="fil0" d="M506.79 137.44c0.75,-1.23 1.74,-2.19 2.95,-2.89 1.21,-0.7 2.6,-1.05 4.17,-1.05l0 6.16 -1.55 0c-1.84,0 -3.23,0.43 -4.17,1.3 -0.94,0.87 -1.4,2.37 -1.4,4.52l0 11.56 -5.86 0 0 -23.21 5.86 0 0 3.6z"/>
  <path id="_20" class="fil0" d="M539.42 144.94c0,0.84 -0.06,1.59 -0.17,2.26l-16.96 0c0.14,1.68 0.73,2.99 1.76,3.94 1.03,0.95 2.3,1.42 3.81,1.42 2.18,0 3.73,-0.94 4.65,-2.81l6.32 0c-0.67,2.23 -1.95,4.07 -3.85,5.51 -1.9,1.44 -4.23,2.16 -7,2.16 -2.23,0 -4.24,-0.5 -6.01,-1.49 -1.77,-0.99 -3.16,-2.39 -4.15,-4.21 -0.99,-1.81 -1.49,-3.91 -1.49,-6.28 0,-2.4 0.49,-4.51 1.47,-6.33 0.98,-1.81 2.35,-3.21 4.11,-4.19 1.76,-0.98 3.78,-1.47 6.07,-1.47 2.21,0 4.18,0.48 5.93,1.42 1.75,0.95 3.1,2.3 4.06,4.04 0.96,1.75 1.45,3.75 1.45,6.01zm-6.07 -1.68c-0.03,-1.51 -0.57,-2.72 -1.63,-3.62 -1.06,-0.91 -2.36,-1.36 -3.9,-1.36 -1.45,0 -2.67,0.44 -3.67,1.32 -0.99,0.88 -1.6,2.1 -1.82,3.66l11.02 0z"/>
  <path id="_21" class="fil0" d="M565.26 144.94c0,0.84 -0.06,1.59 -0.17,2.26l-16.96 0c0.14,1.68 0.73,2.99 1.76,3.94 1.03,0.95 2.3,1.42 3.81,1.42 2.18,0 3.73,-0.94 4.65,-2.81l6.32 0c-0.67,2.23 -1.95,4.07 -3.85,5.51 -1.9,1.44 -4.23,2.16 -7,2.16 -2.23,0 -4.24,-0.5 -6.01,-1.49 -1.77,-0.99 -3.16,-2.39 -4.15,-4.21 -0.99,-1.81 -1.49,-3.91 -1.49,-6.28 0,-2.4 0.49,-4.51 1.47,-6.33 0.98,-1.81 2.35,-3.21 4.11,-4.19 1.76,-0.98 3.78,-1.47 6.07,-1.47 2.21,0 4.18,0.48 5.93,1.42 1.75,0.95 3.1,2.3 4.06,4.04 0.96,1.75 1.45,3.75 1.45,6.01zm-6.07 -1.68c-0.03,-1.51 -0.57,-2.72 -1.63,-3.62 -1.06,-0.91 -2.36,-1.36 -3.9,-1.36 -1.45,0 -2.67,0.44 -3.67,1.32 -0.99,0.88 -1.6,2.1 -1.82,3.66l11.02 0z"/>
  <path id="_22" class="fil0" d="M576.37 138.65l0 11.23c0,0.78 0.19,1.35 0.57,1.7 0.38,0.35 1.01,0.52 1.91,0.52l2.72 0 0 4.94 -3.69 0c-4.94,0 -7.41,-2.4 -7.41,-7.2l0 -11.18 -2.76 0 0 -4.82 2.76 0 0 -5.74 5.91 0 0 5.74 5.19 0 0 4.82 -5.19 0z"/>
  <polygon id="_23" class="fil0" points="590.06,151.76 585.37,163.03 582.82,163.03 585.87,151.76 "/>
  <polygon id="_24" class="fil0" points="609.42,153.94 619.64,153.94 619.64,157.04 605.6,157.04 605.6,127.85 609.42,127.85 "/>
  <path id="_25" class="fil0" d="M633.71 157.42c-2.15,0 -4.1,-0.49 -5.84,-1.47 -1.75,-0.98 -3.11,-2.37 -4.1,-4.17 -0.99,-1.8 -1.49,-3.89 -1.49,-6.26 0,-2.35 0.51,-4.42 1.53,-6.22 1.02,-1.8 2.41,-3.18 4.17,-4.15 1.76,-0.96 3.73,-1.45 5.91,-1.45 2.18,0 4.15,0.48 5.91,1.45 1.76,0.96 3.15,2.34 4.17,4.13 1.02,1.79 1.53,3.87 1.53,6.24 0,2.37 -0.52,4.46 -1.57,6.26 -1.05,1.8 -2.46,3.19 -4.25,4.17 -1.79,0.98 -3.77,1.47 -5.95,1.47zm0 -3.35c1.37,0 2.65,-0.32 3.85,-0.96 1.2,-0.64 2.17,-1.61 2.91,-2.89 0.74,-1.28 1.11,-2.85 1.11,-4.69 0,-1.84 -0.36,-3.41 -1.09,-4.69 -0.73,-1.28 -1.68,-2.24 -2.85,-2.87 -1.17,-0.63 -2.44,-0.94 -3.81,-0.94 -1.4,0 -2.67,0.31 -3.83,0.94 -1.16,0.63 -2.09,1.58 -2.79,2.87 -0.7,1.28 -1.05,2.85 -1.05,4.69 0,1.87 0.34,3.45 1.03,4.73 0.68,1.28 1.6,2.24 2.74,2.87 1.14,0.63 2.4,0.94 3.77,0.94z"/>
  <path id="_26" class="fil0" d="M661.69 133.67c2.79,0 5.05,0.84 6.79,2.53 1.73,1.69 2.6,4.13 2.6,7.31l0 13.53 -3.77 0 0 -12.99c0,-2.29 -0.57,-4.04 -1.72,-5.26 -1.14,-1.21 -2.71,-1.82 -4.69,-1.82 -2.01,0 -3.61,0.63 -4.8,1.88 -1.19,1.26 -1.78,3.09 -1.78,5.49l0 12.69 -3.81 0 0 -22.95 3.81 0 0 3.27c0.75,-1.17 1.78,-2.08 3.08,-2.72 1.3,-0.64 2.73,-0.96 4.29,-0.96z"/>
  <path id="_27" class="fil0" d="M675.89 145.48c0,-2.35 0.47,-4.41 1.42,-6.18 0.95,-1.77 2.25,-3.15 3.92,-4.13 1.66,-0.98 3.53,-1.47 5.59,-1.47 1.79,0 3.45,0.41 4.99,1.24 1.54,0.82 2.71,1.91 3.52,3.25l0 -12.15 3.85 0 0 31 -3.85 0 0 -4.31c-0.75,1.37 -1.87,2.49 -3.35,3.37 -1.48,0.88 -3.21,1.32 -5.19,1.32 -2.04,0 -3.89,-0.5 -5.55,-1.51 -1.66,-1.01 -2.97,-2.42 -3.92,-4.23 -0.95,-1.81 -1.42,-3.88 -1.42,-6.2zm19.44 0.04c0,-1.73 -0.35,-3.24 -1.05,-4.52 -0.7,-1.28 -1.64,-2.27 -2.83,-2.95 -1.19,-0.68 -2.49,-1.03 -3.92,-1.03 -1.42,0 -2.72,0.34 -3.89,1.01 -1.17,0.67 -2.11,1.65 -2.81,2.93 -0.7,1.28 -1.05,2.79 -1.05,4.52 0,1.76 0.35,3.29 1.05,4.59 0.7,1.3 1.63,2.29 2.81,2.97 1.17,0.68 2.47,1.03 3.89,1.03 1.42,0 2.73,-0.34 3.92,-1.03 1.19,-0.68 2.13,-1.68 2.83,-2.97 0.7,-1.3 1.05,-2.81 1.05,-4.54z"/>
  <path id="_28" class="fil0" d="M715.64 157.42c-2.15,0 -4.1,-0.49 -5.84,-1.47 -1.75,-0.98 -3.11,-2.37 -4.1,-4.17 -0.99,-1.8 -1.49,-3.89 -1.49,-6.26 0,-2.35 0.51,-4.42 1.53,-6.22 1.02,-1.8 2.41,-3.18 4.17,-4.15 1.76,-0.96 3.73,-1.45 5.91,-1.45 2.18,0 4.15,0.48 5.91,1.45 1.76,0.96 3.15,2.34 4.17,4.13 1.02,1.79 1.53,3.87 1.53,6.24 0,2.37 -0.52,4.46 -1.57,6.26 -1.05,1.8 -2.46,3.19 -4.25,4.17 -1.79,0.98 -3.77,1.47 -5.95,1.47zm0 -3.35c1.37,0 2.65,-0.32 3.85,-0.96 1.2,-0.64 2.17,-1.61 2.91,-2.89 0.74,-1.28 1.11,-2.85 1.11,-4.69 0,-1.84 -0.36,-3.41 -1.09,-4.69 -0.73,-1.28 -1.68,-2.24 -2.85,-2.87 -1.17,-0.63 -2.44,-0.94 -3.81,-0.94 -1.4,0 -2.67,0.31 -3.83,0.94 -1.16,0.63 -2.09,1.58 -2.79,2.87 -0.7,1.28 -1.05,2.85 -1.05,4.69 0,1.87 0.34,3.45 1.03,4.73 0.68,1.28 1.6,2.24 2.74,2.87 1.14,0.63 2.4,0.94 3.77,0.94z"/>
  <path id="_29" class="fil0" d="M743.62 133.67c2.79,0 5.05,0.84 6.79,2.53 1.73,1.69 2.6,4.13 2.6,7.31l0 13.53 -3.77 0 0 -12.99c0,-2.29 -0.57,-4.04 -1.72,-5.26 -1.14,-1.21 -2.71,-1.82 -4.69,-1.82 -2.01,0 -3.61,0.63 -4.8,1.88 -1.19,1.26 -1.78,3.09 -1.78,5.49l0 12.69 -3.81 0 0 -22.95 3.81 0 0 3.27c0.75,-1.17 1.78,-2.08 3.08,-2.72 1.3,-0.64 2.73,-0.96 4.29,-0.96z"/>
  <polygon id="_30" class="fil0" points="763.19,151.76 758.49,163.03 755.94,163.03 759,151.76 "/>
  <path id="_31" class="fil0" d="M468.75 210.42c-1.93,0 -3.65,-0.34 -5.17,-1.03 -1.52,-0.68 -2.72,-1.63 -3.58,-2.85 -0.87,-1.21 -1.31,-2.62 -1.34,-4.21l4.06 0c0.14,1.37 0.7,2.52 1.7,3.46 0.99,0.94 2.44,1.4 4.34,1.4 1.81,0 3.25,-0.45 4.29,-1.36 1.05,-0.91 1.57,-2.07 1.57,-3.5 0,-1.12 -0.31,-2.02 -0.92,-2.72 -0.61,-0.7 -1.38,-1.23 -2.3,-1.59 -0.92,-0.36 -2.16,-0.75 -3.73,-1.17 -1.93,-0.5 -3.47,-1.01 -4.63,-1.51 -1.16,-0.5 -2.15,-1.29 -2.97,-2.37 -0.82,-1.08 -1.24,-2.52 -1.24,-4.34 0,-1.59 0.4,-3 1.21,-4.23 0.81,-1.23 1.95,-2.18 3.41,-2.85 1.47,-0.67 3.15,-1.01 5.05,-1.01 2.74,0 4.98,0.68 6.72,2.05 1.75,1.37 2.73,3.18 2.95,5.45l-4.19 0c-0.14,-1.12 -0.73,-2.1 -1.76,-2.95 -1.03,-0.85 -2.4,-1.28 -4.1,-1.28 -1.59,0 -2.89,0.41 -3.9,1.24 -1.01,0.82 -1.51,1.98 -1.51,3.46 0,1.06 0.3,1.93 0.9,2.6 0.6,0.67 1.34,1.18 2.22,1.53 0.88,0.35 2.12,0.75 3.71,1.19 1.93,0.53 3.48,1.05 4.65,1.57 1.17,0.52 2.18,1.31 3.02,2.39 0.84,1.08 1.26,2.53 1.26,4.38 0,1.42 -0.38,2.76 -1.13,4.02 -0.75,1.26 -1.87,2.28 -3.35,3.06 -1.48,0.78 -3.23,1.17 -5.24,1.17z"/>
  <polygon id="_32" class="fil0" points="520.78,180.93 512.32,210.13 508.04,210.13 501.26,186.63 494.22,210.13 489.99,210.17 481.82,180.93 485.89,180.93 492.25,205.69 499.29,180.93 503.56,180.93 510.26,205.61 516.67,180.93 "/>
  <polygon id="_33" class="fil0" points="523.33,183.32 523.33,179.84 531.21,179.84 531.21,210.13 527.35,210.13 527.35,183.32 "/>
  <path id="_34" class="fil0" d="M557.89 189.48c0,2.43 -0.83,4.45 -2.49,6.05 -1.66,1.61 -4.2,2.41 -7.6,2.41l-5.61 0 0 12.19 -3.81 0 0 -29.2 9.42 0c3.29,0 5.8,0.8 7.52,2.39 1.72,1.59 2.58,3.64 2.58,6.16zm-10.1 5.32c2.12,0 3.69,-0.46 4.69,-1.38 1.01,-0.92 1.51,-2.23 1.51,-3.94 0,-3.6 -2.07,-5.4 -6.2,-5.4l-5.61 0 0 10.72 5.61 0z"/>
  <path id="_35" class="fil0" d="M573.1 187.47c0.2,-2.57 1.19,-4.58 2.97,-6.03 1.79,-1.45 4.1,-2.18 6.95,-2.18 1.9,0 3.54,0.34 4.92,1.03 1.38,0.68 2.43,1.61 3.14,2.79 0.71,1.17 1.07,2.5 1.07,3.98 0,1.73 -0.5,3.23 -1.49,4.48 -0.99,1.26 -2.28,2.07 -3.87,2.43l0 0.21c1.82,0.45 3.25,1.33 4.31,2.64 1.06,1.31 1.59,3.03 1.59,5.15 0,1.59 -0.36,3.02 -1.09,4.29 -0.73,1.27 -1.81,2.27 -3.27,3 -1.45,0.73 -3.2,1.09 -5.24,1.09 -2.96,0 -5.39,-0.77 -7.29,-2.32 -1.9,-1.55 -2.96,-3.75 -3.18,-6.6l3.69 0c0.2,1.68 0.88,3.04 2.05,4.1 1.17,1.06 2.74,1.59 4.69,1.59 1.95,0 3.44,-0.51 4.46,-1.53 1.02,-1.02 1.53,-2.34 1.53,-3.96 0,-2.09 -0.7,-3.6 -2.09,-4.52 -1.4,-0.92 -3.5,-1.38 -6.32,-1.38l-0.96 0 0 -3.18 1.01 0c2.57,-0.03 4.51,-0.45 5.82,-1.28 1.31,-0.82 1.97,-2.1 1.97,-3.83 0,-1.48 -0.48,-2.67 -1.45,-3.56 -0.96,-0.89 -2.34,-1.34 -4.13,-1.34 -1.73,0 -3.13,0.45 -4.19,1.34 -1.06,0.89 -1.69,2.09 -1.89,3.6l-3.73 0z"/>
  <path id="_36" class="fil0" d="M615.74 203.64l-12.73 0 -2.35 6.49 -4.02 0 10.56 -29.03 4.4 0 10.51 29.03 -4.02 0 -2.35 -6.49zm-1.09 -3.1l-5.28 -14.74 -5.28 14.74 10.56 0z"/>
  <path id="_37" class="fil0" d="M643.97 203.64l-12.73 0 -2.35 6.49 -4.02 0 10.56 -29.03 4.4 0 10.51 29.03 -4.02 0 -2.35 -6.49zm-1.09 -3.1l-5.28 -14.74 -5.28 14.74 10.56 0z"/>
  <g id="_3253660353680">
   <path class="fil1" d="M25.75 30.75l-18.07 0 -3.47 9.43 -4.21 0 14.49 -39.22 4.49 0 14.44 39.22 -4.21 0 -3.47 -9.43zm-1.19 -3.3l-7.84 -21.48 -7.84 21.48 15.69 0z"/>
   <polygon id="_1_0" class="fil1" points="87.98,0.45 76.73,40.18 72.29,40.18 62.29,6.31 52.06,40.18 47.74,40.24 36.72,0.45 40.98,0.45 50.07,35.3 60.25,0.45 64.68,0.45 74.57,35.3 83.72,0.45 "/>
   <path id="_2_1" class="fil1" d="M117.08 30.75l-18.07 0 -3.47 9.43 -4.21 0 14.49 -39.22 4.49 0 14.44 39.22 -4.21 0 -3.47 -9.43zm-1.19 -3.3l-7.84 -21.48 -7.84 21.48 15.69 0z"/>
   <path id="_3_2" class="fil1" d="M152.26 40.18l-9.83 -16.6 -7.33 0 0 16.6 -3.98 0 0 -39.73 11.94 0c4.43,0 7.8,1.06 10.09,3.18 2.29,2.12 3.44,4.91 3.44,8.35 0,2.88 -0.82,5.33 -2.47,7.36 -1.65,2.03 -4.08,3.34 -7.3,3.95l10.23 16.88 -4.77 0zm-17.16 -19.84l8.01 0c3.11,0 5.45,-0.76 7.02,-2.27 1.57,-1.52 2.36,-3.54 2.36,-6.08 0,-2.61 -0.76,-4.63 -2.27,-6.05 -1.51,-1.42 -3.9,-2.13 -7.16,-2.13l-7.96 0 0 16.54z"/>
   <path id="_4_3" class="fil1" d="M176.25 0.45c4.4,0 8.16,0.8 11.31,2.39 3.14,1.59 5.55,3.88 7.22,6.88 1.67,2.99 2.5,6.56 2.5,10.69 0,4.09 -0.83,7.63 -2.5,10.6 -1.67,2.97 -4.07,5.25 -7.22,6.82 -3.15,1.57 -6.92,2.36 -11.31,2.36l-11.77 0 0 -39.73 11.77 0zm0 36.43c5.53,0 9.75,-1.45 12.65,-4.35 2.9,-2.9 4.35,-6.94 4.35,-12.13 0,-5.23 -1.45,-9.31 -4.35,-12.25 -2.9,-2.94 -7.11,-4.4 -12.65,-4.4l-7.79 0 0 33.14 7.79 0z"/>
   <path id="_5_4" class="fil1" d="M216.66 40.58c-2.61,0 -4.92,-0.45 -6.91,-1.36 -1.99,-0.91 -3.55,-2.18 -4.69,-3.81 -1.14,-1.63 -1.74,-3.45 -1.82,-5.46l4.21 0c0.19,1.93 1.04,3.63 2.56,5.09 1.52,1.46 3.73,2.19 6.65,2.19 2.69,0 4.82,-0.69 6.39,-2.07 1.57,-1.38 2.36,-3.14 2.36,-5.26 0,-1.7 -0.44,-3.08 -1.31,-4.12 -0.87,-1.04 -1.95,-1.82 -3.24,-2.33 -1.29,-0.51 -3.07,-1.07 -5.34,-1.68 -2.65,-0.72 -4.75,-1.42 -6.31,-2.1 -1.55,-0.68 -2.88,-1.74 -3.98,-3.18 -1.1,-1.44 -1.65,-3.39 -1.65,-5.85 0,-2.05 0.53,-3.87 1.59,-5.48 1.06,-1.61 2.56,-2.87 4.49,-3.78 1.93,-0.91 4.15,-1.36 6.65,-1.36 3.68,0 6.64,0.9 8.89,2.7 2.25,1.8 3.55,4.12 3.89,6.96l-4.32 0c-0.27,-1.63 -1.16,-3.08 -2.67,-4.35 -1.52,-1.27 -3.56,-1.9 -6.14,-1.9 -2.39,0 -4.38,0.63 -5.97,1.9 -1.59,1.27 -2.39,3 -2.39,5.2 0,1.67 0.44,3.01 1.31,4.04 0.87,1.02 1.96,1.8 3.27,2.33 1.31,0.53 3.08,1.1 5.31,1.7 2.58,0.72 4.66,1.43 6.25,2.13 1.59,0.7 2.94,1.77 4.04,3.21 1.1,1.44 1.65,3.37 1.65,5.8 0,1.86 -0.49,3.62 -1.48,5.29 -0.99,1.67 -2.44,3.01 -4.38,4.04 -1.93,1.02 -4.24,1.53 -6.93,1.53z"/>
   <polygon id="_6_5" class="fil1" points="32.68,97.62 28.7,97.62 6.71,64.2 6.71,97.62 2.73,97.62 2.73,57.89 6.71,57.89 28.7,91.26 28.7,57.89 32.68,57.89 "/>
   <polygon id="_7_6" class="fil1" points="45.7,57.89 45.7,97.62 41.72,97.62 41.72,57.89 "/>
   <path id="_8_7" class="fil1" d="M85.99 69.49c-1.14,-2.61 -2.87,-4.67 -5.2,-6.17 -2.33,-1.5 -5.07,-2.25 -8.21,-2.25 -2.96,0 -5.61,0.68 -7.96,2.05 -2.35,1.36 -4.21,3.31 -5.57,5.83 -1.36,2.52 -2.05,5.45 -2.05,8.78 0,3.33 0.68,6.27 2.05,8.81 1.36,2.54 3.22,4.49 5.57,5.85 2.35,1.36 5,2.05 7.96,2.05 2.77,0 5.26,-0.6 7.47,-1.79 2.22,-1.19 4,-2.9 5.34,-5.12 1.35,-2.22 2.11,-4.8 2.3,-7.76l-16.71 0 0 -3.24 20.92 0 0 2.9c-0.19,3.49 -1.14,6.64 -2.84,9.46 -1.7,2.82 -3.99,5.05 -6.85,6.68 -2.86,1.63 -6.07,2.44 -9.63,2.44 -3.68,0 -7.01,-0.86 -10,-2.59 -2.99,-1.72 -5.35,-4.13 -7.08,-7.22 -1.72,-3.09 -2.59,-6.58 -2.59,-10.49 0,-3.9 0.86,-7.4 2.59,-10.49 1.72,-3.09 4.08,-5.49 7.08,-7.22 2.99,-1.72 6.33,-2.59 10,-2.59 4.24,0 7.96,1.06 11.14,3.18 3.18,2.12 5.49,5.08 6.93,8.87l-4.66 0z"/>
   <polygon id="_9_8" class="fil1" points="128.68,57.89 128.68,97.62 124.7,97.62 124.7,79.04 103.16,79.04 103.16,97.62 99.18,97.62 99.18,57.89 103.16,57.89 103.16,75.74 124.7,75.74 124.7,57.89 "/>
   <polygon id="_10_9" class="fil1" points="161.02,57.89 161.02,61.19 149.99,61.19 149.99,97.62 146.01,97.62 146.01,61.19 134.93,61.19 134.93,57.89 "/>
   <path class="fil2" d="M5.53 232.47c4.85,-4.19 8.68,-7.64 11.48,-10.34 2.8,-2.7 5.14,-5.52 7.01,-8.45 1.87,-2.93 2.8,-5.86 2.8,-8.79 0,-3.03 -0.72,-5.41 -2.16,-7.12 -1.44,-1.72 -3.7,-2.58 -6.78,-2.58 -2.98,0 -5.29,0.95 -6.93,2.84 -1.64,1.89 -2.51,4.43 -2.61,7.62l-8.34 0c0.15,-5.76 1.88,-10.17 5.19,-13.22 3.31,-3.06 7.52,-4.59 12.62,-4.59 5.51,0 9.81,1.52 12.92,4.55 3.11,3.03 4.66,7.07 4.66,12.13 0,3.64 -0.92,7.14 -2.77,10.5 -1.84,3.36 -4.04,6.37 -6.59,9.02 -2.55,2.65 -5.8,5.72 -9.74,9.21l-3.41 3.03 24.02 0 0 7.2 -36.83 0 0 -6.29 5.46 -4.7z"/>
   <path id="_1_10" class="fil2" d="M44.49 215.87c0,-8.74 1.48,-15.57 4.43,-20.5 2.96,-4.93 8.05,-7.39 15.27,-7.39 7.22,0 12.32,2.46 15.27,7.39 2.96,4.93 4.43,11.76 4.43,20.5 0,8.84 -1.48,15.75 -4.43,20.73 -2.96,4.98 -8.05,7.46 -15.27,7.46 -7.22,0 -12.31,-2.49 -15.27,-7.46 -2.96,-4.98 -4.43,-11.89 -4.43,-20.73zm30.92 0c0,-4.09 -0.27,-7.55 -0.8,-10.38 -0.53,-2.83 -1.6,-5.14 -3.22,-6.93 -1.62,-1.79 -4.02,-2.69 -7.2,-2.69 -3.18,0 -5.58,0.9 -7.2,2.69 -1.62,1.79 -2.69,4.1 -3.22,6.93 -0.53,2.83 -0.8,6.29 -0.8,10.38 0,4.24 0.25,7.81 0.76,10.69 0.5,2.88 1.58,5.2 3.22,6.97 1.64,1.77 4.05,2.65 7.24,2.65 3.18,0 5.6,-0.88 7.24,-2.65 1.64,-1.77 2.72,-4.09 3.22,-6.97 0.51,-2.88 0.76,-6.44 0.76,-10.69z"/>
   <path id="_2_11" class="fil2" d="M97.84 232.47c4.85,-4.19 8.68,-7.64 11.48,-10.34 2.8,-2.7 5.14,-5.52 7.01,-8.45 1.87,-2.93 2.8,-5.86 2.8,-8.79 0,-3.03 -0.72,-5.41 -2.16,-7.12 -1.44,-1.72 -3.7,-2.58 -6.78,-2.58 -2.98,0 -5.29,0.95 -6.93,2.84 -1.64,1.89 -2.51,4.43 -2.61,7.62l-8.34 0c0.15,-5.76 1.88,-10.17 5.19,-13.22 3.31,-3.06 7.52,-4.59 12.62,-4.59 5.51,0 9.81,1.52 12.92,4.55 3.11,3.03 4.66,7.07 4.66,12.13 0,3.64 -0.92,7.14 -2.77,10.5 -1.84,3.36 -4.04,6.37 -6.59,9.02 -2.55,2.65 -5.8,5.72 -9.74,9.21l-3.41 3.03 24.02 0 0 7.2 -36.83 0 0 -6.29 5.46 -4.7z"/>
   <path id="_3_12" class="fil2" d="M172.41 196.4l-25.39 0 0 15.08c1.06,-1.41 2.64,-2.6 4.74,-3.56 2.1,-0.96 4.33,-1.44 6.71,-1.44 4.24,0 7.69,0.91 10.34,2.73 2.65,1.82 4.55,4.12 5.68,6.9 1.14,2.78 1.7,5.71 1.7,8.79 0,3.74 -0.72,7.06 -2.16,9.97 -1.44,2.9 -3.59,5.19 -6.44,6.86 -2.85,1.67 -6.35,2.5 -10.5,2.5 -5.51,0 -9.93,-1.36 -13.26,-4.09 -3.33,-2.73 -5.33,-6.34 -5.99,-10.84l8.41 0c0.56,2.38 1.79,4.26 3.71,5.65 1.92,1.39 4.32,2.08 7.2,2.08 3.59,0 6.28,-1.09 8.07,-3.26 1.79,-2.17 2.69,-5.05 2.69,-8.64 0,-3.64 -0.91,-6.43 -2.73,-8.37 -1.82,-1.95 -4.5,-2.92 -8.03,-2.92 -2.48,0 -4.56,0.62 -6.25,1.86 -1.69,1.24 -2.92,2.92 -3.68,5.04l-8.18 0 0 -31.9 33.34 0 0 7.58z"/>
   <g>
    <path class="fil2" d="M0.62 136.06c0.18,-4.92 1.79,-8.71 4.83,-11.38 3.03,-2.67 7.15,-4 12.35,-4 3.45,0 6.4,0.6 8.86,1.79 2.46,1.2 4.32,2.83 5.59,4.9 1.26,2.07 1.9,4.39 1.9,6.97 0,3.03 -0.76,5.51 -2.28,7.42 -1.52,1.91 -3.29,3.21 -5.31,3.9l0 0.28c2.62,0.87 4.69,2.32 6.21,4.35 1.52,2.02 2.28,4.62 2.28,7.79 0,2.85 -0.65,5.37 -1.97,7.55 -1.31,2.18 -3.22,3.9 -5.73,5.14 -2.51,1.24 -5.48,1.86 -8.93,1.86 -5.52,0 -9.92,-1.36 -13.21,-4.07 -3.29,-2.71 -5.02,-6.81 -5.21,-12.28l11.45 0c0.05,2.02 0.62,3.62 1.72,4.79 1.1,1.17 2.71,1.76 4.83,1.76 1.79,0 3.18,-0.52 4.17,-1.55 0.99,-1.03 1.48,-2.4 1.48,-4.1 0,-2.21 -0.7,-3.81 -2.1,-4.79 -1.4,-0.99 -3.64,-1.48 -6.73,-1.48l-2.21 0 0 -9.59 2.21 0c2.35,0 4.24,-0.4 5.69,-1.21 1.45,-0.8 2.17,-2.24 2.17,-4.31 0,-1.66 -0.46,-2.94 -1.38,-3.86 -0.92,-0.92 -2.18,-1.38 -3.79,-1.38 -1.75,0 -3.05,0.53 -3.9,1.59 -0.85,1.06 -1.35,2.37 -1.48,3.93l-11.52 0z"/>
    <path id="_1_13" class="fil3" d="M95.26 172.69c-4.55,0 -8.73,-1.06 -12.52,-3.17 -3.79,-2.12 -6.81,-5.07 -9.04,-8.86 -2.23,-3.79 -3.35,-8.06 -3.35,-12.8 0,-4.74 1.11,-8.99 3.35,-12.76 2.23,-3.77 5.24,-6.71 9.04,-8.83 3.79,-2.12 7.97,-3.17 12.52,-3.17 4.55,0 8.73,1.06 12.52,3.17 3.79,2.12 6.78,5.06 8.97,8.83 2.18,3.77 3.28,8.03 3.28,12.76 0,4.74 -1.1,9 -3.31,12.8 -2.21,3.79 -5.2,6.75 -8.97,8.86 -3.77,2.12 -7.93,3.17 -12.49,3.17zm0 -10.76c3.86,0 6.96,-1.29 9.28,-3.86 2.32,-2.57 3.48,-5.98 3.48,-10.21 0,-4.28 -1.16,-7.69 -3.48,-10.24 -2.32,-2.55 -5.41,-3.83 -9.28,-3.83 -3.91,0 -7.02,1.26 -9.35,3.79 -2.32,2.53 -3.48,5.96 -3.48,10.28 0,4.28 1.16,7.69 3.48,10.24 2.32,2.55 5.44,3.83 9.35,3.83z"/>
    <path id="_2_14" class="fil3" d="M124.58 147.93c0,-4.78 1.03,-9.05 3.1,-12.8 2.07,-3.75 4.96,-6.67 8.66,-8.76 3.7,-2.09 7.9,-3.14 12.59,-3.14 5.75,0 10.67,1.52 14.76,4.55 4.09,3.04 6.83,7.17 8.21,12.42l-12.97 0c-0.97,-2.02 -2.33,-3.56 -4.1,-4.62 -1.77,-1.06 -3.78,-1.59 -6.04,-1.59 -3.63,0 -6.58,1.26 -8.83,3.79 -2.25,2.53 -3.38,5.91 -3.38,10.14 0,4.23 1.13,7.61 3.38,10.14 2.25,2.53 5.2,3.79 8.83,3.79 2.25,0 4.27,-0.53 6.04,-1.59 1.77,-1.06 3.14,-2.6 4.1,-4.62l12.97 0c-1.38,5.24 -4.12,9.37 -8.21,12.38 -4.09,3.01 -9.01,4.52 -14.76,4.52 -4.69,0 -8.89,-1.05 -12.59,-3.14 -3.7,-2.09 -6.59,-5 -8.66,-8.73 -2.07,-3.72 -3.1,-7.98 -3.1,-12.76z"/>
    <polygon id="_3_15" class="fil3" points="213.98,123.78 213.98,133.23 201.15,133.23 201.15,172.21 189.35,172.21 189.35,133.23 176.52,133.23 176.52,123.78 "/>
    <path id="_4_16" class="fil3" d="M242.81 172.69c-4.55,0 -8.73,-1.06 -12.52,-3.17 -3.79,-2.12 -6.81,-5.07 -9.04,-8.86 -2.23,-3.79 -3.35,-8.06 -3.35,-12.8 0,-4.74 1.11,-8.99 3.35,-12.76 2.23,-3.77 5.24,-6.71 9.04,-8.83 3.79,-2.12 7.97,-3.17 12.52,-3.17 4.55,0 8.73,1.06 12.52,3.17 3.79,2.12 6.78,5.06 8.97,8.83 2.18,3.77 3.28,8.03 3.28,12.76 0,4.74 -1.1,9 -3.31,12.8 -2.21,3.79 -5.2,6.75 -8.97,8.86 -3.77,2.12 -7.93,3.17 -12.49,3.17zm0 -10.76c3.86,0 6.96,-1.29 9.28,-3.86 2.32,-2.57 3.48,-5.98 3.48,-10.21 0,-4.28 -1.16,-7.69 -3.48,-10.24 -2.32,-2.55 -5.41,-3.83 -9.28,-3.83 -3.91,0 -7.02,1.26 -9.35,3.79 -2.32,2.53 -3.48,5.96 -3.48,10.28 0,4.28 1.16,7.69 3.48,10.24 2.32,2.55 5.44,3.83 9.35,3.83z"/>
    <path id="_5_17" class="fil3" d="M303.45 147.37c2.8,0.6 5.06,1.99 6.76,4.17 1.7,2.18 2.55,4.68 2.55,7.48 0,4.05 -1.41,7.25 -4.24,9.62 -2.83,2.37 -6.77,3.55 -11.83,3.55l-22.56 0 0 -48.42 21.8 0c4.92,0 8.77,1.13 11.55,3.38 2.78,2.25 4.17,5.31 4.17,9.17 0,2.85 -0.75,5.22 -2.24,7.11 -1.49,1.89 -3.48,3.2 -5.97,3.93zm-17.52 -4l7.73 0c1.93,0 3.41,-0.43 4.45,-1.28 1.03,-0.85 1.55,-2.1 1.55,-3.76 0,-1.66 -0.52,-2.92 -1.55,-3.79 -1.03,-0.87 -2.52,-1.31 -4.45,-1.31l-7.73 0 0 10.14zm8.69 19.31c1.98,0 3.51,-0.45 4.59,-1.35 1.08,-0.9 1.62,-2.2 1.62,-3.9 0,-1.7 -0.56,-3.04 -1.69,-4 -1.13,-0.97 -2.68,-1.45 -4.66,-1.45l-8.55 0 0 10.69 8.69 0z"/>
    <polygon id="_6_18" class="fil3" points="331.39,133.23 331.39,143.03 347.18,143.03 347.18,152.13 331.39,152.13 331.39,162.76 349.25,162.76 349.25,172.21 319.59,172.21 319.59,123.78 349.25,123.78 349.25,133.23 "/>
    <path id="_7_19" class="fil3" d="M381.6 172.21l-10.07 -18.28 -2.83 0 0 18.28 -11.8 0 0 -48.42 19.8 0c3.82,0 7.07,0.67 9.76,2 2.69,1.33 4.7,3.16 6.04,5.48 1.33,2.32 2,4.91 2,7.76 0,3.22 -0.91,6.09 -2.73,8.62 -1.82,2.53 -4.5,4.32 -8.04,5.38l11.17 19.18 -13.31 0zm-12.9 -26.63l7.31 0c2.16,0 3.78,-0.53 4.86,-1.59 1.08,-1.06 1.62,-2.55 1.62,-4.48 0,-1.84 -0.54,-3.29 -1.62,-4.35 -1.08,-1.06 -2.7,-1.59 -4.86,-1.59l-7.31 0 0 12z"/>
    <path class="fil2" d="M42.42 114.98c0.6,-0.92 1.36,-1.65 2.26,-2.18 0.9,-0.53 1.91,-0.8 3.01,-0.8l0 5.45 -1.42 0c-1.28,0 -2.25,0.28 -2.89,0.83 -0.64,0.55 -0.96,1.52 -0.96,2.91l0 7.8 -5.15 0 0 -16.81 5.15 0 0 2.8z"/>
    <path id="_1_20" class="fil2" d="M49.13 120.55c0,-1.73 0.33,-3.24 0.98,-4.55 0.65,-1.3 1.54,-2.31 2.67,-3.01 1.12,-0.7 2.38,-1.05 3.76,-1.05 1.1,0 2.11,0.23 3.03,0.69 0.91,0.46 1.63,1.08 2.15,1.87l0 -7.8 5.15 0 0 22.29 -5.15 0 0 -2.41c-0.48,0.8 -1.17,1.45 -2.06,1.93 -0.89,0.48 -1.93,0.72 -3.12,0.72 -1.39,0 -2.64,-0.36 -3.76,-1.07 -1.12,-0.71 -2.01,-1.73 -2.67,-3.04 -0.65,-1.31 -0.98,-2.84 -0.98,-4.56zm12.59 0.03c0,-1.28 -0.36,-2.3 -1.07,-3.04 -0.71,-0.74 -1.58,-1.11 -2.61,-1.11 -1.02,0 -1.89,0.37 -2.61,1.1 -0.71,0.73 -1.07,1.74 -1.07,3.03 0,1.28 0.36,2.3 1.07,3.06 0.71,0.75 1.58,1.13 2.61,1.13 1.02,0 1.89,-0.37 2.61,-1.11 0.71,-0.74 1.07,-1.76 1.07,-3.04z"/>
   </g>
  </g>
  <g id="_3253660358480">
   <path class="fil4" d="M487.26 16.86c0,9.28 -16.8,33.76 -16.8,33.76 0,0 -16.8,-24.48 -16.8,-33.76 0,-9.28 7.52,-16.8 16.8,-16.8 9.28,0 16.8,7.52 16.8,16.8z"/>
   <path class="fil5" d="M478.35 16.12c0,4.36 -3.54,7.9 -7.9,7.9 -4.36,0 -7.9,-3.54 -7.9,-7.9 0,-4.36 3.54,-7.9 7.9,-7.9 4.36,0 7.9,3.54 7.9,7.9z"/>
   <path class="fil6" d="M456.53 18.33c0,-8.06 6.53,-14.6 14.6,-14.6 4.71,0 8.9,2.23 11.57,5.7 -2.52,-4.38 -7.24,-7.32 -12.66,-7.32 -8.06,0 -14.6,6.53 -14.6,14.6 0,3.35 1.13,6.43 3.03,8.9 -1.23,-2.14 -1.94,-4.63 -1.94,-7.27z"/>
   <path class="fil7" d="M466.49 44.2c2.29,3.84 3.96,6.43 3.96,6.43 0,0 16.8,-24.48 16.8,-33.76 0,-0.49 -0.02,-0.97 -0.07,-1.45 -0.66,2.58 -1.6,5.09 -2.75,7.48 -3.18,6.62 -7.88,10.86 -12.89,16.23 -1.61,1.73 -3.3,3.44 -5.05,5.07z"/>
  </g>
 </g>
</svg>
