<?xml version="1.0" encoding="UTF-8"?>
<!DOCTYPE svg PUBLIC "-//W3C//DTD SVG 1.1//EN" "http://www.w3.org/Graphics/SVG/1.1/DTD/svg11.dtd">
<!-- Creator: CorelDRAW 2021 (64-Bit) -->
<svg xmlns="http://www.w3.org/2000/svg" xml:space="preserve" width="103.738mm" height="42.6315mm" version="1.1" style="shape-rendering:geometricPrecision; text-rendering:geometricPrecision; image-rendering:optimizeQuality; fill-rule:evenodd; clip-rule:evenodd"
viewBox="0 0 909.87 373.92"
 xmlns:xlink="http://www.w3.org/1999/xlink"
 xmlns:xodm="http://www.corel.com/coreldraw/odm/2003">
 <defs>
  <style type="text/css">
   <![CDATA[
    .fil1 {fill:#E6E6E6}
    .fil0 {fill:white}
    .fil3 {fill:black;fill-rule:nonzero}
    .fil2 {fill:#1A1A1A;fill-rule:nonzero}
    .fil5 {fill:#280095;fill-rule:nonzero}
    .fil4 {fill:#280095;fill-rule:nonzero}
    .fil9 {fill:#C92026;fill-rule:nonzero}
    .fil6 {fill:#DD1D26;fill-rule:nonzero}
    .fil8 {fill:#ED4843;fill-rule:nonzero}
    .fil7 {fill:white;fill-rule:nonzero}
   ]]>
  </style>
 </defs>
 <g id="Layer_x0020_1">
  <metadata id="CorelCorpID_0Corel-Layer"/>
  <polygon class="fil0" points="475.15,0 -0,0 -0,373.92 646.62,373.92 "/>
  <polygon class="fil1" points="446.47,0 909.87,0 909.87,373.92 529.41,373.92 "/>
  <polygon class="fil2" points="612.6,80.72 600.86,112.72 593.07,112.72 581.34,80.72 588.21,80.72 597.01,106.16 605.77,80.72 "/>
  <path id="_1" class="fil2" d="M640.05 99.47c0,0.92 -0.06,1.74 -0.18,2.48l-18.56 0c0.15,1.83 0.79,3.27 1.93,4.31 1.13,1.04 2.52,1.56 4.17,1.56 2.38,0 4.08,-1.02 5.09,-3.07l6.92 0c-0.73,2.44 -2.14,4.45 -4.22,6.03 -2.08,1.57 -4.63,2.36 -7.65,2.36 -2.44,0 -4.64,-0.54 -6.58,-1.63 -1.94,-1.08 -3.45,-2.62 -4.54,-4.61 -1.08,-1.99 -1.63,-4.28 -1.63,-6.87 0,-2.63 0.54,-4.94 1.6,-6.92 1.07,-1.99 2.57,-3.51 4.49,-4.58 1.92,-1.07 4.14,-1.6 6.65,-1.6 2.41,0 4.58,0.52 6.49,1.56 1.91,1.04 3.39,2.51 4.45,4.42 1.05,1.91 1.58,4.1 1.58,6.58zm-6.65 -1.83c-0.03,-1.65 -0.63,-2.97 -1.79,-3.96 -1.16,-0.99 -2.58,-1.49 -4.26,-1.49 -1.59,0 -2.93,0.48 -4.01,1.44 -1.08,0.96 -1.75,2.3 -1.99,4.01l12.05 0z"/>
  <path id="_2" class="fil2" d="M658.8 86.96c3.03,0 5.47,0.95 7.33,2.86 1.86,1.91 2.8,4.58 2.8,8l0 14.9 -6.42 0 0 -14.03c0,-2.02 -0.5,-3.57 -1.51,-4.65 -1.01,-1.08 -2.38,-1.63 -4.12,-1.63 -1.77,0 -3.17,0.54 -4.19,1.63 -1.02,1.08 -1.53,2.64 -1.53,4.65l0 14.03 -6.42 0 0 -25.39 6.42 0 0 3.16c0.86,-1.1 1.95,-1.96 3.28,-2.59 1.33,-0.63 2.79,-0.94 4.38,-0.94z"/>
  <path id="_3" class="fil2" d="M699 87.32l0 25.39 -6.46 0 0 -3.21c-0.83,1.1 -1.9,1.96 -3.23,2.59 -1.33,0.63 -2.77,0.94 -4.33,0.94 -1.99,0 -3.74,-0.42 -5.27,-1.26 -1.53,-0.84 -2.73,-2.08 -3.6,-3.71 -0.87,-1.63 -1.31,-3.58 -1.31,-5.84l0 -14.9 6.42 0 0 13.98c0,2.02 0.5,3.57 1.51,4.65 1.01,1.08 2.38,1.63 4.12,1.63 1.77,0 3.16,-0.54 4.17,-1.63 1.01,-1.08 1.51,-2.64 1.51,-4.65l0 -13.98 6.46 0z"/>
  <path id="_4" class="fil2" d="M728.93 99.47c0,0.92 -0.06,1.74 -0.18,2.48l-18.56 0c0.15,1.83 0.79,3.27 1.93,4.31 1.13,1.04 2.52,1.56 4.17,1.56 2.38,0 4.08,-1.02 5.09,-3.07l6.92 0c-0.73,2.44 -2.14,4.45 -4.22,6.03 -2.08,1.57 -4.63,2.36 -7.65,2.36 -2.44,0 -4.64,-0.54 -6.58,-1.63 -1.94,-1.08 -3.45,-2.62 -4.54,-4.61 -1.08,-1.99 -1.63,-4.28 -1.63,-6.87 0,-2.63 0.54,-4.94 1.6,-6.92 1.07,-1.99 2.57,-3.51 4.49,-4.58 1.92,-1.07 4.14,-1.6 6.65,-1.6 2.41,0 4.58,0.52 6.49,1.56 1.91,1.04 3.39,2.51 4.45,4.42 1.05,1.91 1.58,4.1 1.58,6.58zm-6.65 -1.83c-0.03,-1.65 -0.63,-2.97 -1.79,-3.96 -1.16,-0.99 -2.58,-1.49 -4.26,-1.49 -1.59,0 -2.93,0.48 -4.01,1.44 -1.08,0.96 -1.75,2.3 -1.99,4.01l12.05 0z"/>
  <polygon id="_5" class="fil2" points="538.71,143.3 538.71,137.39 549.76,137.39 549.76,170.8 543.16,170.8 543.16,143.3 "/>
  <path id="_6" class="fil2" d="M590 148.44c-0.73,-1.34 -1.74,-2.37 -3.03,-3.07 -1.28,-0.7 -2.78,-1.05 -4.49,-1.05 -1.89,0 -3.58,0.43 -5.04,1.28 -1.47,0.86 -2.61,2.08 -3.44,3.67 -0.83,1.59 -1.24,3.42 -1.24,5.5 0,2.14 0.42,4 1.26,5.59 0.84,1.59 2.01,2.81 3.51,3.67 1.5,0.86 3.24,1.28 5.22,1.28 2.44,0 4.45,-0.65 6,-1.95 1.56,-1.3 2.58,-3.11 3.07,-5.43l-11 0 0 -4.9 17.33 0 0 5.59c-0.43,2.23 -1.34,4.29 -2.75,6.19 -1.41,1.89 -3.22,3.41 -5.43,4.56 -2.22,1.15 -4.7,1.72 -7.45,1.72 -3.09,0 -5.87,-0.7 -8.36,-2.09 -2.49,-1.39 -4.45,-3.32 -5.87,-5.8 -1.42,-2.48 -2.13,-5.29 -2.13,-8.43 0,-3.15 0.71,-5.97 2.13,-8.46 1.42,-2.49 3.38,-4.43 5.87,-5.82 2.49,-1.39 5.26,-2.09 8.32,-2.09 3.61,0 6.74,0.88 9.4,2.64 2.66,1.76 4.49,4.22 5.5,7.4l-7.38 0z"/>
  <path id="_7" class="fil2" d="M609.34 149.35c0.82,-1.34 1.9,-2.4 3.23,-3.16 1.33,-0.76 2.85,-1.15 4.56,-1.15l0 6.74 -1.7 0c-2.02,0 -3.54,0.47 -4.56,1.42 -1.02,0.95 -1.53,2.6 -1.53,4.95l0 12.65 -6.42 0 0 -25.39 6.42 0 0 3.94z"/>
  <path id="_8" class="fil2" d="M645.05 157.56c0,0.92 -0.06,1.74 -0.18,2.48l-18.56 0c0.15,1.83 0.79,3.27 1.93,4.31 1.13,1.04 2.52,1.56 4.17,1.56 2.38,0 4.08,-1.02 5.09,-3.07l6.92 0c-0.73,2.44 -2.14,4.45 -4.22,6.03 -2.08,1.57 -4.63,2.36 -7.65,2.36 -2.44,0 -4.64,-0.54 -6.58,-1.63 -1.94,-1.08 -3.45,-2.62 -4.54,-4.61 -1.08,-1.99 -1.63,-4.28 -1.63,-6.87 0,-2.63 0.54,-4.94 1.6,-6.92 1.07,-1.99 2.57,-3.51 4.49,-4.58 1.92,-1.07 4.14,-1.6 6.65,-1.6 2.41,0 4.58,0.52 6.49,1.56 1.91,1.04 3.39,2.51 4.45,4.42 1.05,1.91 1.58,4.1 1.58,6.58zm-6.65 -1.83c-0.03,-1.65 -0.63,-2.97 -1.79,-3.96 -1.16,-0.99 -2.58,-1.49 -4.26,-1.49 -1.59,0 -2.93,0.48 -4.01,1.44 -1.08,0.96 -1.75,2.3 -1.99,4.01l12.05 0z"/>
  <path id="_9" class="fil2" d="M648.07 158.02c0,-2.57 0.51,-4.84 1.54,-6.83 1.02,-1.99 2.41,-3.51 4.17,-4.58 1.76,-1.07 3.72,-1.6 5.89,-1.6 1.89,0 3.55,0.38 4.97,1.15 1.42,0.76 2.56,1.73 3.42,2.89l0 -3.62 6.46 0 0 25.39 -6.46 0 0 -3.71c-0.83,1.19 -1.96,2.18 -3.42,2.96 -1.45,0.78 -3.12,1.17 -5.02,1.17 -2.14,0 -4.09,-0.55 -5.84,-1.65 -1.76,-1.1 -3.15,-2.65 -4.17,-4.65 -1.02,-2 -1.54,-4.3 -1.54,-6.9zm19.98 0.09c0,-1.56 -0.31,-2.9 -0.92,-4.01 -0.61,-1.11 -1.44,-1.97 -2.47,-2.57 -1.04,-0.6 -2.16,-0.89 -3.35,-0.89 -1.19,0 -2.29,0.29 -3.3,0.87 -1.01,0.58 -1.83,1.43 -2.45,2.54 -0.63,1.12 -0.94,2.44 -0.94,3.96 0,1.53 0.31,2.86 0.94,4.01 0.63,1.15 1.45,2.02 2.47,2.64 1.02,0.61 2.12,0.92 3.28,0.92 1.19,0 2.31,-0.3 3.35,-0.89 1.04,-0.6 1.86,-1.45 2.47,-2.57 0.61,-1.11 0.92,-2.45 0.92,-4.01z"/>
  <path id="_10" class="fil2" d="M688.27 150.68l0 12.28c0,0.86 0.21,1.47 0.62,1.86 0.41,0.38 1.11,0.57 2.09,0.57l2.98 0 0 5.41 -4.03 0c-5.41,0 -8.11,-2.63 -8.11,-7.88l0 -12.24 -3.03 0 0 -5.27 3.03 0 0 -6.28 6.46 0 0 6.28 5.68 0 0 5.27 -5.68 0z"/>
  <path id="_11" class="fil2" d="M731.77 148.44c-0.73,-1.34 -1.74,-2.37 -3.03,-3.07 -1.28,-0.7 -2.78,-1.05 -4.49,-1.05 -1.89,0 -3.58,0.43 -5.04,1.28 -1.47,0.86 -2.61,2.08 -3.44,3.67 -0.83,1.59 -1.24,3.42 -1.24,5.5 0,2.14 0.42,4 1.26,5.59 0.84,1.59 2.01,2.81 3.51,3.67 1.5,0.86 3.24,1.28 5.22,1.28 2.44,0 4.45,-0.65 6,-1.95 1.56,-1.3 2.58,-3.11 3.07,-5.43l-11 0 0 -4.9 17.33 0 0 5.59c-0.43,2.23 -1.34,4.29 -2.75,6.19 -1.41,1.89 -3.22,3.41 -5.43,4.56 -2.22,1.15 -4.7,1.72 -7.45,1.72 -3.09,0 -5.87,-0.7 -8.36,-2.09 -2.49,-1.39 -4.45,-3.32 -5.87,-5.8 -1.42,-2.48 -2.13,-5.29 -2.13,-8.43 0,-3.15 0.71,-5.97 2.13,-8.46 1.42,-2.49 3.38,-4.43 5.87,-5.82 2.49,-1.39 5.26,-2.09 8.32,-2.09 3.61,0 6.74,0.88 9.4,2.64 2.66,1.76 4.49,4.22 5.5,7.4l-7.38 0z"/>
  <path id="_12" class="fil2" d="M768.3 157.56c0,0.92 -0.06,1.74 -0.18,2.48l-18.56 0c0.15,1.83 0.79,3.27 1.93,4.31 1.13,1.04 2.52,1.56 4.17,1.56 2.38,0 4.08,-1.02 5.09,-3.07l6.92 0c-0.73,2.44 -2.14,4.45 -4.22,6.03 -2.08,1.57 -4.63,2.36 -7.65,2.36 -2.44,0 -4.64,-0.54 -6.58,-1.63 -1.94,-1.08 -3.45,-2.62 -4.54,-4.61 -1.08,-1.99 -1.63,-4.28 -1.63,-6.87 0,-2.63 0.54,-4.94 1.6,-6.92 1.07,-1.99 2.57,-3.51 4.49,-4.58 1.92,-1.07 4.14,-1.6 6.65,-1.6 2.41,0 4.58,0.52 6.49,1.56 1.91,1.04 3.39,2.51 4.45,4.42 1.05,1.91 1.58,4.1 1.58,6.58zm-6.65 -1.83c-0.03,-1.65 -0.63,-2.97 -1.79,-3.96 -1.16,-0.99 -2.58,-1.49 -4.26,-1.49 -1.59,0 -2.93,0.48 -4.01,1.44 -1.08,0.96 -1.75,2.3 -1.99,4.01l12.05 0z"/>
  <path id="_13" class="fil2" d="M784.25 171.22c-2.44,0 -4.64,-0.54 -6.6,-1.63 -1.96,-1.08 -3.49,-2.62 -4.61,-4.61 -1.11,-1.99 -1.67,-4.28 -1.67,-6.87 0,-2.6 0.57,-4.89 1.72,-6.88 1.15,-1.99 2.71,-3.52 4.7,-4.61 1.99,-1.08 4.2,-1.63 6.65,-1.63 2.44,0 4.66,0.54 6.65,1.63 1.99,1.08 3.55,2.62 4.7,4.61 1.15,1.99 1.72,4.28 1.72,6.88 0,2.6 -0.59,4.89 -1.76,6.87 -1.18,1.99 -2.77,3.52 -4.77,4.61 -2,1.08 -4.24,1.63 -6.71,1.63zm0 -5.59c1.16,0 2.25,-0.28 3.28,-0.85 1.02,-0.56 1.84,-1.41 2.45,-2.54 0.61,-1.13 0.92,-2.51 0.92,-4.12 0,-2.41 -0.63,-4.27 -1.9,-5.57 -1.27,-1.3 -2.82,-1.95 -4.65,-1.95 -1.83,0 -3.37,0.65 -4.61,1.95 -1.24,1.3 -1.86,3.15 -1.86,5.57 0,2.41 0.6,4.27 1.81,5.57 1.21,1.3 2.73,1.95 4.56,1.95z"/>
  <path id="_14" class="fil2" d="M808.63 149.35c0.82,-1.34 1.9,-2.4 3.23,-3.16 1.33,-0.76 2.85,-1.15 4.56,-1.15l0 6.74 -1.7 0c-2.02,0 -3.54,0.47 -4.56,1.42 -1.02,0.95 -1.53,2.6 -1.53,4.95l0 12.65 -6.42 0 0 -25.39 6.42 0 0 3.94z"/>
  <path id="_15" class="fil2" d="M830.68 145c1.89,0 3.56,0.37 5,1.12 1.44,0.75 2.57,1.72 3.39,2.91l0 -3.62 6.46 0 0 25.58c0,2.35 -0.47,4.45 -1.42,6.3 -0.95,1.85 -2.37,3.32 -4.26,4.4 -1.89,1.08 -4.19,1.63 -6.88,1.63 -3.61,0 -6.56,-0.84 -8.87,-2.52 -2.31,-1.68 -3.61,-3.97 -3.92,-6.88l6.37 0c0.34,1.16 1.06,2.09 2.18,2.77 1.11,0.69 2.47,1.03 4.06,1.03 1.86,0 3.38,-0.56 4.54,-1.67 1.16,-1.11 1.74,-2.8 1.74,-5.06l0 -3.94c-0.83,1.19 -1.96,2.18 -3.42,2.98 -1.45,0.79 -3.11,1.19 -4.97,1.19 -2.14,0 -4.1,-0.55 -5.87,-1.65 -1.77,-1.1 -3.17,-2.65 -4.19,-4.65 -1.02,-2 -1.54,-4.3 -1.54,-6.9 0,-2.57 0.51,-4.84 1.54,-6.83 1.02,-1.99 2.41,-3.51 4.17,-4.58 1.76,-1.07 3.72,-1.6 5.89,-1.6zm8.39 13.11c0,-1.56 -0.31,-2.9 -0.92,-4.01 -0.61,-1.11 -1.44,-1.97 -2.47,-2.57 -1.04,-0.6 -2.16,-0.89 -3.35,-0.89 -1.19,0 -2.29,0.29 -3.3,0.87 -1.01,0.58 -1.83,1.43 -2.45,2.54 -0.63,1.12 -0.94,2.44 -0.94,3.96 0,1.53 0.31,2.86 0.94,4.01 0.63,1.15 1.45,2.02 2.47,2.64 1.02,0.61 2.12,0.92 3.28,0.92 1.19,0 2.31,-0.3 3.35,-0.89 1.04,-0.6 1.86,-1.45 2.47,-2.57 0.61,-1.11 0.92,-2.45 0.92,-4.01z"/>
  <path id="_16" class="fil2" d="M875.41 157.56c0,0.92 -0.06,1.74 -0.18,2.48l-18.56 0c0.15,1.83 0.79,3.27 1.93,4.31 1.13,1.04 2.52,1.56 4.17,1.56 2.38,0 4.08,-1.02 5.09,-3.07l6.92 0c-0.73,2.44 -2.14,4.45 -4.22,6.03 -2.08,1.57 -4.63,2.36 -7.65,2.36 -2.44,0 -4.64,-0.54 -6.58,-1.63 -1.94,-1.08 -3.45,-2.62 -4.54,-4.61 -1.08,-1.99 -1.63,-4.28 -1.63,-6.87 0,-2.63 0.54,-4.94 1.6,-6.92 1.07,-1.99 2.57,-3.51 4.49,-4.58 1.92,-1.07 4.14,-1.6 6.65,-1.6 2.41,0 4.58,0.52 6.49,1.56 1.91,1.04 3.39,2.51 4.45,4.42 1.05,1.91 1.58,4.1 1.58,6.58zm-6.65 -1.83c-0.03,-1.65 -0.63,-2.97 -1.79,-3.96 -1.16,-0.99 -2.58,-1.49 -4.26,-1.49 -1.59,0 -2.93,0.48 -4.01,1.44 -1.08,0.96 -1.75,2.3 -1.99,4.01l12.05 0z"/>
  <path id="_17" class="fil2" d="M551.27 229.22c-2.23,0 -4.24,-0.38 -6.03,-1.15 -1.79,-0.76 -3.2,-1.86 -4.24,-3.3 -1.04,-1.44 -1.57,-3.13 -1.6,-5.09l6.88 0c0.09,1.31 0.56,2.35 1.4,3.12 0.84,0.76 1.99,1.15 3.46,1.15 1.5,0 2.67,-0.36 3.53,-1.08 0.86,-0.72 1.28,-1.66 1.28,-2.82 0,-0.95 -0.29,-1.73 -0.87,-2.34 -0.58,-0.61 -1.31,-1.09 -2.18,-1.44 -0.87,-0.35 -2.07,-0.74 -3.6,-1.17 -2.08,-0.61 -3.77,-1.21 -5.07,-1.81 -1.3,-0.6 -2.41,-1.5 -3.35,-2.7 -0.93,-1.21 -1.4,-2.82 -1.4,-4.84 0,-1.89 0.47,-3.54 1.42,-4.95 0.95,-1.41 2.28,-2.48 3.99,-3.23 1.71,-0.75 3.67,-1.12 5.87,-1.12 3.3,0 5.98,0.8 8.04,2.41 2.06,1.6 3.2,3.84 3.41,6.71l-7.06 0c-0.06,-1.1 -0.53,-2.01 -1.4,-2.73 -0.87,-0.72 -2.02,-1.08 -3.46,-1.08 -1.25,0 -2.25,0.32 -3,0.96 -0.75,0.64 -1.12,1.57 -1.12,2.8 0,0.86 0.28,1.57 0.85,2.13 0.56,0.56 1.27,1.02 2.11,1.38 0.84,0.35 2.02,0.76 3.55,1.21 2.08,0.61 3.77,1.22 5.09,1.83 1.31,0.61 2.44,1.53 3.39,2.75 0.95,1.22 1.42,2.83 1.42,4.81 0,1.71 -0.44,3.3 -1.33,4.77 -0.89,1.47 -2.18,2.64 -3.9,3.51 -1.71,0.87 -3.74,1.31 -6.1,1.31z"/>
  <path id="_18" class="fil2" d="M575.61 208.77l0 12.28c0,0.86 0.21,1.47 0.62,1.86 0.41,0.38 1.11,0.57 2.09,0.57l2.98 0 0 5.41 -4.03 0c-5.41,0 -8.11,-2.63 -8.11,-7.88l0 -12.24 -3.03 0 0 -5.27 3.03 0 0 -6.28 6.46 0 0 6.28 5.68 0 0 5.27 -5.68 0z"/>
  <path id="_19" class="fil2" d="M592.34 207.44c0.82,-1.34 1.9,-2.4 3.23,-3.16 1.33,-0.76 2.85,-1.15 4.56,-1.15l0 6.74 -1.7 0c-2.02,0 -3.54,0.47 -4.56,1.42 -1.02,0.95 -1.53,2.6 -1.53,4.95l0 12.65 -6.42 0 0 -25.39 6.42 0 0 3.94z"/>
  <path id="_20" class="fil2" d="M628.05 215.65c0,0.92 -0.06,1.74 -0.18,2.48l-18.56 0c0.15,1.83 0.79,3.27 1.93,4.31 1.13,1.04 2.52,1.56 4.17,1.56 2.38,0 4.08,-1.02 5.09,-3.07l6.92 0c-0.73,2.44 -2.14,4.45 -4.22,6.03 -2.08,1.57 -4.63,2.36 -7.65,2.36 -2.44,0 -4.64,-0.54 -6.58,-1.63 -1.94,-1.08 -3.45,-2.62 -4.54,-4.61 -1.08,-1.99 -1.63,-4.28 -1.63,-6.87 0,-2.63 0.54,-4.94 1.6,-6.92 1.07,-1.99 2.57,-3.51 4.49,-4.58 1.92,-1.07 4.14,-1.6 6.65,-1.6 2.41,0 4.58,0.52 6.49,1.56 1.91,1.04 3.39,2.51 4.45,4.42 1.05,1.91 1.58,4.1 1.58,6.58zm-6.65 -1.83c-0.03,-1.65 -0.63,-2.97 -1.79,-3.96 -1.16,-0.99 -2.58,-1.49 -4.26,-1.49 -1.59,0 -2.93,0.48 -4.01,1.44 -1.08,0.96 -1.75,2.3 -1.99,4.01l12.05 0z"/>
  <path id="_21" class="fil2" d="M656.33 215.65c0,0.92 -0.06,1.74 -0.18,2.48l-18.56 0c0.15,1.83 0.79,3.27 1.93,4.31 1.13,1.04 2.52,1.56 4.17,1.56 2.38,0 4.08,-1.02 5.09,-3.07l6.92 0c-0.73,2.44 -2.14,4.45 -4.22,6.03 -2.08,1.57 -4.63,2.36 -7.65,2.36 -2.44,0 -4.64,-0.54 -6.58,-1.63 -1.94,-1.08 -3.45,-2.62 -4.54,-4.61 -1.08,-1.99 -1.63,-4.28 -1.63,-6.87 0,-2.63 0.54,-4.94 1.6,-6.92 1.07,-1.99 2.57,-3.51 4.49,-4.58 1.92,-1.07 4.14,-1.6 6.65,-1.6 2.41,0 4.58,0.52 6.49,1.56 1.91,1.04 3.39,2.51 4.45,4.42 1.05,1.91 1.58,4.1 1.58,6.58zm-6.65 -1.83c-0.03,-1.65 -0.63,-2.97 -1.79,-3.96 -1.16,-0.99 -2.58,-1.49 -4.26,-1.49 -1.59,0 -2.93,0.48 -4.01,1.44 -1.08,0.96 -1.75,2.3 -1.99,4.01l12.05 0z"/>
  <path id="_22" class="fil2" d="M668.47 208.77l0 12.28c0,0.86 0.21,1.47 0.62,1.86 0.41,0.38 1.11,0.57 2.09,0.57l2.98 0 0 5.41 -4.03 0c-5.41,0 -8.11,-2.63 -8.11,-7.88l0 -12.24 -3.03 0 0 -5.27 3.03 0 0 -6.28 6.46 0 0 6.28 5.68 0 0 5.27 -5.68 0z"/>
  <polygon id="_23" class="fil2" points="683.46,223.12 678.33,235.45 675.53,235.45 678.88,223.12 "/>
  <polygon id="_24" class="fil2" points="704.64,225.5 715.82,225.5 715.82,228.89 700.47,228.89 700.47,196.95 704.64,196.95 "/>
  <path id="_25" class="fil2" d="M731.22 229.31c-2.35,0 -4.48,-0.53 -6.39,-1.6 -1.91,-1.07 -3.41,-2.59 -4.49,-4.56 -1.08,-1.97 -1.63,-4.25 -1.63,-6.85 0,-2.57 0.56,-4.84 1.67,-6.81 1.12,-1.97 2.64,-3.48 4.56,-4.54 1.93,-1.05 4.08,-1.58 6.46,-1.58 2.38,0 4.54,0.53 6.46,1.58 1.93,1.05 3.45,2.56 4.56,4.51 1.12,1.96 1.67,4.23 1.67,6.83 0,2.6 -0.57,4.88 -1.72,6.85 -1.15,1.97 -2.7,3.49 -4.65,4.56 -1.96,1.07 -4.12,1.6 -6.51,1.6zm0 -3.67c1.5,0 2.9,-0.35 4.22,-1.05 1.31,-0.7 2.38,-1.76 3.19,-3.16 0.81,-1.41 1.21,-3.12 1.21,-5.13 0,-2.02 -0.4,-3.73 -1.19,-5.13 -0.79,-1.41 -1.83,-2.45 -3.12,-3.14 -1.28,-0.69 -2.67,-1.03 -4.17,-1.03 -1.53,0 -2.93,0.34 -4.19,1.03 -1.27,0.69 -2.28,1.73 -3.05,3.14 -0.76,1.41 -1.15,3.12 -1.15,5.13 0,2.05 0.37,3.77 1.12,5.18 0.75,1.41 1.75,2.45 3,3.14 1.25,0.69 2.63,1.03 4.12,1.03z"/>
  <path id="_26" class="fil2" d="M761.84 203.32c3.06,0 5.53,0.92 7.43,2.77 1.89,1.85 2.84,4.51 2.84,8l0 14.8 -4.12 0 0 -14.21c0,-2.5 -0.63,-4.42 -1.88,-5.75 -1.25,-1.33 -2.96,-1.99 -5.13,-1.99 -2.2,0 -3.95,0.69 -5.25,2.06 -1.3,1.38 -1.95,3.38 -1.95,6l0 13.89 -4.17 0 0 -25.12 4.17 0 0 3.58c0.83,-1.28 1.95,-2.28 3.37,-2.98 1.42,-0.7 2.99,-1.05 4.7,-1.05z"/>
  <path id="_27" class="fil2" d="M777.37 216.24c0,-2.57 0.52,-4.82 1.56,-6.76 1.04,-1.94 2.47,-3.45 4.29,-4.51 1.82,-1.07 3.86,-1.6 6.12,-1.6 1.96,0 3.77,0.45 5.45,1.35 1.68,0.9 2.96,2.09 3.85,3.55l0 -13.29 4.22 0 0 33.92 -4.22 0 0 -4.72c-0.82,1.5 -2.05,2.73 -3.67,3.69 -1.62,0.96 -3.51,1.44 -5.68,1.44 -2.23,0 -4.25,-0.55 -6.07,-1.65 -1.82,-1.1 -3.25,-2.64 -4.29,-4.63 -1.04,-1.99 -1.56,-4.25 -1.56,-6.78zm21.27 0.05c0,-1.89 -0.38,-3.54 -1.15,-4.95 -0.76,-1.41 -1.8,-2.48 -3.09,-3.23 -1.3,-0.75 -2.73,-1.12 -4.29,-1.12 -1.56,0 -2.98,0.37 -4.26,1.1 -1.28,0.73 -2.31,1.8 -3.07,3.21 -0.76,1.41 -1.15,3.06 -1.15,4.95 0,1.93 0.38,3.6 1.15,5.02 0.76,1.42 1.79,2.51 3.07,3.25 1.28,0.75 2.7,1.12 4.26,1.12 1.56,0 2.99,-0.37 4.29,-1.12 1.3,-0.75 2.33,-1.83 3.09,-3.25 0.76,-1.42 1.15,-3.08 1.15,-4.97z"/>
  <path id="_28" class="fil2" d="M820.87 229.31c-2.35,0 -4.48,-0.53 -6.39,-1.6 -1.91,-1.07 -3.41,-2.59 -4.49,-4.56 -1.08,-1.97 -1.63,-4.25 -1.63,-6.85 0,-2.57 0.56,-4.84 1.67,-6.81 1.12,-1.97 2.64,-3.48 4.56,-4.54 1.93,-1.05 4.08,-1.58 6.46,-1.58 2.38,0 4.54,0.53 6.46,1.58 1.93,1.05 3.45,2.56 4.56,4.51 1.12,1.96 1.67,4.23 1.67,6.83 0,2.6 -0.57,4.88 -1.72,6.85 -1.15,1.97 -2.7,3.49 -4.65,4.56 -1.96,1.07 -4.12,1.6 -6.51,1.6zm0 -3.67c1.5,0 2.9,-0.35 4.22,-1.05 1.31,-0.7 2.38,-1.76 3.19,-3.16 0.81,-1.41 1.21,-3.12 1.21,-5.13 0,-2.02 -0.4,-3.73 -1.19,-5.13 -0.79,-1.41 -1.83,-2.45 -3.12,-3.14 -1.28,-0.69 -2.67,-1.03 -4.17,-1.03 -1.53,0 -2.93,0.34 -4.19,1.03 -1.27,0.69 -2.28,1.73 -3.05,3.14 -0.76,1.41 -1.15,3.12 -1.15,5.13 0,2.05 0.37,3.77 1.12,5.18 0.75,1.41 1.75,2.45 3,3.14 1.25,0.69 2.63,1.03 4.12,1.03z"/>
  <path id="_29" class="fil2" d="M851.49 203.32c3.06,0 5.53,0.92 7.43,2.77 1.89,1.85 2.84,4.51 2.84,8l0 14.8 -4.12 0 0 -14.21c0,-2.5 -0.63,-4.42 -1.88,-5.75 -1.25,-1.33 -2.96,-1.99 -5.13,-1.99 -2.2,0 -3.95,0.69 -5.25,2.06 -1.3,1.38 -1.95,3.38 -1.95,6l0 13.89 -4.17 0 0 -25.12 4.17 0 0 3.58c0.83,-1.28 1.95,-2.28 3.37,-2.98 1.42,-0.7 2.99,-1.05 4.7,-1.05z"/>
  <polygon id="_30" class="fil2" points="872.89,223.12 867.76,235.45 864.96,235.45 868.31,223.12 "/>
  <path id="_31" class="fil2" d="M550.72 287.31c-2.11,0 -4,-0.37 -5.66,-1.12 -1.67,-0.75 -2.97,-1.79 -3.92,-3.12 -0.95,-1.33 -1.44,-2.86 -1.47,-4.61l4.45 0c0.15,1.5 0.77,2.76 1.86,3.78 1.08,1.02 2.67,1.54 4.74,1.54 1.99,0 3.55,-0.5 4.7,-1.49 1.15,-0.99 1.72,-2.27 1.72,-3.83 0,-1.22 -0.34,-2.22 -1.01,-2.98 -0.67,-0.76 -1.51,-1.34 -2.52,-1.74 -1.01,-0.4 -2.37,-0.83 -4.08,-1.28 -2.11,-0.55 -3.8,-1.1 -5.06,-1.65 -1.27,-0.55 -2.35,-1.41 -3.25,-2.59 -0.9,-1.18 -1.35,-2.76 -1.35,-4.74 0,-1.74 0.44,-3.28 1.33,-4.63 0.89,-1.34 2.13,-2.38 3.74,-3.12 1.6,-0.73 3.45,-1.1 5.52,-1.1 2.99,0 5.45,0.75 7.36,2.25 1.91,1.5 2.99,3.48 3.23,5.96l-4.58 0c-0.15,-1.22 -0.79,-2.3 -1.93,-3.23 -1.13,-0.93 -2.63,-1.4 -4.49,-1.4 -1.74,0 -3.16,0.45 -4.26,1.35 -1.1,0.9 -1.65,2.16 -1.65,3.78 0,1.16 0.33,2.11 0.98,2.84 0.66,0.73 1.47,1.29 2.43,1.67 0.96,0.38 2.31,0.82 4.06,1.31 2.11,0.58 3.8,1.15 5.09,1.72 1.28,0.56 2.38,1.44 3.3,2.61 0.92,1.18 1.38,2.77 1.38,4.79 0,1.56 -0.41,3.03 -1.24,4.4 -0.82,1.38 -2.05,2.49 -3.67,3.35 -1.62,0.86 -3.53,1.28 -5.73,1.28z"/>
  <polygon id="_32" class="fil2" points="607.65,255.04 598.39,286.98 593.72,286.98 586.29,261.27 578.59,286.98 573.96,287.03 565.02,255.04 569.47,255.04 576.44,282.13 584.14,255.04 588.81,255.04 596.14,282.03 603.16,255.04 "/>
  <polygon id="_33" class="fil2" points="610.45,257.65 610.45,253.85 619.06,253.85 619.06,286.98 614.84,286.98 614.84,257.65 "/>
  <path id="_34" class="fil2" d="M648.26 264.39c0,2.66 -0.91,4.87 -2.73,6.62 -1.82,1.76 -4.59,2.64 -8.32,2.64l-6.14 0 0 13.34 -4.17 0 0 -31.95 10.31 0c3.6,0 6.35,0.87 8.23,2.61 1.88,1.74 2.82,3.99 2.82,6.74zm-11.05 5.82c2.32,0 4.03,-0.5 5.13,-1.51 1.1,-1.01 1.65,-2.44 1.65,-4.31 0,-3.94 -2.26,-5.91 -6.78,-5.91l-6.14 0 0 11.73 6.14 0z"/>
  <path id="_35" class="fil2" d="M664.9 262.19c0.21,-2.81 1.3,-5.01 3.25,-6.6 1.96,-1.59 4.49,-2.38 7.61,-2.38 2.08,0 3.87,0.37 5.39,1.12 1.51,0.75 2.66,1.76 3.44,3.05 0.78,1.28 1.17,2.73 1.17,4.35 0,1.89 -0.54,3.53 -1.63,4.9 -1.08,1.38 -2.5,2.26 -4.24,2.66l0 0.23c1.99,0.49 3.56,1.45 4.72,2.89 1.16,1.44 1.74,3.32 1.74,5.64 0,1.74 -0.4,3.31 -1.19,4.7 -0.79,1.39 -1.99,2.48 -3.58,3.28 -1.59,0.79 -3.5,1.19 -5.73,1.19 -3.24,0 -5.9,-0.85 -7.98,-2.54 -2.08,-1.7 -3.24,-4.1 -3.48,-7.22l4.03 0c0.21,1.83 0.96,3.33 2.25,4.49 1.28,1.16 2.99,1.74 5.13,1.74 2.14,0 3.77,-0.56 4.88,-1.67 1.12,-1.11 1.67,-2.56 1.67,-4.33 0,-2.29 -0.76,-3.94 -2.29,-4.95 -1.53,-1.01 -3.83,-1.51 -6.92,-1.51l-1.05 0 0 -3.48 1.1 0c2.81,-0.03 4.93,-0.5 6.37,-1.4 1.44,-0.9 2.15,-2.3 2.15,-4.19 0,-1.62 -0.53,-2.92 -1.58,-3.9 -1.05,-0.98 -2.56,-1.47 -4.51,-1.47 -1.89,0 -3.42,0.49 -4.58,1.47 -1.16,0.98 -1.85,2.29 -2.06,3.94l-4.08 0z"/>
  <path id="_36" class="fil2" d="M711.56 279.88l-13.93 0 -2.57 7.1 -4.4 0 11.55 -31.76 4.81 0 11.5 31.76 -4.4 0 -2.57 -7.1zm-1.19 -3.39l-5.77 -16.13 -5.78 16.13 11.55 0z"/>
  <path id="_37" class="fil2" d="M742.45 279.88l-13.93 0 -2.57 7.1 -4.4 0 11.55 -31.76 4.81 0 11.5 31.76 -4.4 0 -2.57 -7.1zm-1.19 -3.39l-5.77 -16.13 -5.78 16.13 11.55 0z"/>
  <g id="_3253662530464">
   <path class="fil3" d="M65.98 90.7l-19.78 0 -3.79 10.32 -4.6 0 15.86 -42.91 4.91 0 15.8 42.91 -4.6 0 -3.79 -10.32zm-1.31 -3.61l-8.58 -23.51 -8.58 23.51 17.16 0z"/>
   <polygon id="_1_0" class="fil3" points="134.08,57.56 121.77,101.03 116.92,101.03 105.97,63.96 94.78,101.03 90.05,101.09 77.99,57.56 82.65,57.56 92.6,95.68 103.73,57.56 108.58,57.56 119.4,95.68 129.42,57.56 "/>
   <path id="_2_1" class="fil3" d="M165.92 90.7l-19.78 0 -3.79 10.32 -4.6 0 15.86 -42.91 4.91 0 15.8 42.91 -4.6 0 -3.79 -10.32zm-1.31 -3.61l-8.58 -23.51 -8.58 23.51 17.16 0z"/>
   <path id="_3_2" class="fil3" d="M204.42 101.03l-10.76 -18.16 -8.02 0 0 18.16 -4.35 0 0 -43.47 13.06 0c4.85,0 8.53,1.16 11.04,3.48 2.51,2.32 3.76,5.37 3.76,9.14 0,3.15 -0.9,5.84 -2.71,8.05 -1.8,2.22 -4.47,3.66 -7.99,4.32l11.19 18.47 -5.22 0zm-18.78 -21.7l8.77 0c3.4,0 5.96,-0.83 7.68,-2.49 1.72,-1.66 2.58,-3.88 2.58,-6.65 0,-2.86 -0.83,-5.07 -2.49,-6.62 -1.66,-1.56 -4.27,-2.33 -7.84,-2.33l-8.71 0 0 18.1z"/>
   <path id="_4_3" class="fil3" d="M230.66 57.56c4.81,0 8.93,0.87 12.38,2.61 3.44,1.74 6.07,4.25 7.9,7.53 1.82,3.28 2.74,7.17 2.74,11.69 0,4.48 -0.91,8.34 -2.74,11.6 -1.82,3.25 -4.46,5.74 -7.9,7.46 -3.44,1.72 -7.57,2.58 -12.38,2.58l-12.87 0 0 -43.47 12.87 0zm0 39.86c6.05,0 10.67,-1.59 13.84,-4.76 3.17,-3.17 4.76,-7.6 4.76,-13.28 0,-5.72 -1.59,-10.19 -4.76,-13.4 -3.17,-3.21 -7.78,-4.82 -13.84,-4.82l-8.52 0 0 36.26 8.52 0z"/>
   <path id="_5_4" class="fil3" d="M274.88 101.46c-2.86,0 -5.38,-0.5 -7.56,-1.49 -2.18,-1 -3.89,-2.38 -5.13,-4.17 -1.24,-1.78 -1.91,-3.77 -1.99,-5.97l4.6 0c0.21,2.11 1.14,3.97 2.8,5.57 1.66,1.6 4.08,2.39 7.28,2.39 2.94,0 5.28,-0.76 7,-2.27 1.72,-1.51 2.58,-3.43 2.58,-5.75 0,-1.87 -0.48,-3.37 -1.43,-4.51 -0.95,-1.14 -2.14,-1.99 -3.55,-2.55 -1.41,-0.56 -3.36,-1.17 -5.85,-1.83 -2.9,-0.79 -5.2,-1.56 -6.9,-2.3 -1.7,-0.75 -3.15,-1.91 -4.35,-3.48 -1.2,-1.58 -1.8,-3.71 -1.8,-6.41 0,-2.24 0.58,-4.24 1.74,-6 1.16,-1.76 2.8,-3.14 4.91,-4.14 2.11,-1 4.54,-1.49 7.28,-1.49 4.02,0 7.27,0.98 9.73,2.95 2.47,1.97 3.89,4.51 4.26,7.62l-4.73 0c-0.29,-1.78 -1.26,-3.37 -2.92,-4.76 -1.66,-1.39 -3.9,-2.08 -6.72,-2.08 -2.61,0 -4.79,0.69 -6.53,2.08 -1.74,1.39 -2.61,3.29 -2.61,5.69 0,1.82 0.48,3.3 1.43,4.42 0.95,1.12 2.15,1.97 3.58,2.55 1.43,0.58 3.37,1.2 5.82,1.87 2.82,0.79 5.1,1.57 6.84,2.33 1.74,0.77 3.21,1.94 4.42,3.51 1.2,1.58 1.8,3.69 1.8,6.34 0,2.03 -0.54,3.96 -1.62,5.78 -1.08,1.82 -2.67,3.3 -4.79,4.42 -2.11,1.12 -4.64,1.68 -7.59,1.68z"/>
   <polygon id="_6_5" class="fil3" points="73.57,163.88 69.22,163.88 45.15,127.31 45.15,163.88 40.8,163.88 40.8,120.41 45.15,120.41 69.22,156.91 69.22,120.41 73.57,120.41 "/>
   <polygon id="_7_6" class="fil3" points="87.81,120.41 87.81,163.88 83.46,163.88 83.46,120.41 "/>
   <path id="_8_7" class="fil3" d="M131.9 133.09c-1.24,-2.86 -3.14,-5.11 -5.69,-6.75 -2.55,-1.64 -5.54,-2.46 -8.99,-2.46 -3.23,0 -6.14,0.75 -8.71,2.24 -2.57,1.49 -4.6,3.62 -6.09,6.37 -1.49,2.76 -2.24,5.96 -2.24,9.61 0,3.65 0.75,6.86 2.24,9.64 1.49,2.78 3.52,4.91 6.09,6.41 2.57,1.49 5.47,2.24 8.71,2.24 3.03,0 5.75,-0.65 8.18,-1.96 2.43,-1.31 4.37,-3.17 5.85,-5.6 1.47,-2.43 2.31,-5.25 2.52,-8.49l-18.28 0 0 -3.55 22.89 0 0 3.17c-0.21,3.81 -1.24,7.27 -3.11,10.35 -1.87,3.09 -4.36,5.52 -7.49,7.31 -3.13,1.78 -6.64,2.67 -10.54,2.67 -4.02,0 -7.67,-0.94 -10.95,-2.83 -3.28,-1.89 -5.86,-4.52 -7.74,-7.9 -1.89,-3.38 -2.83,-7.2 -2.83,-11.47 0,-4.27 0.94,-8.09 2.83,-11.47 1.89,-3.38 4.47,-6.01 7.74,-7.9 3.28,-1.89 6.92,-2.83 10.95,-2.83 4.64,0 8.71,1.16 12.19,3.48 3.48,2.32 6.01,5.56 7.59,9.7l-5.1 0z"/>
   <polygon id="_9_8" class="fil3" points="178.61,120.41 178.61,163.88 174.26,163.88 174.26,143.54 150.69,143.54 150.69,163.88 146.33,163.88 146.33,120.41 150.69,120.41 150.69,139.94 174.26,139.94 174.26,120.41 "/>
   <polygon id="_10_9" class="fil3" points="214,120.41 214,124.01 201.93,124.01 201.93,163.88 197.58,163.88 197.58,124.01 185.45,124.01 185.45,120.41 "/>
   <path class="fil4" d="M43.86 311.43c5.31,-4.59 9.49,-8.36 12.56,-11.32 3.07,-2.96 5.62,-6.04 7.67,-9.25 2.05,-3.21 3.07,-6.41 3.07,-9.62 0,-3.32 -0.79,-5.92 -2.36,-7.79 -1.58,-1.88 -4.05,-2.82 -7.42,-2.82 -3.26,0 -5.79,1.04 -7.59,3.11 -1.8,2.07 -2.75,4.85 -2.86,8.33l-9.12 0c0.17,-6.3 2.06,-11.12 5.68,-14.47 3.62,-3.35 8.22,-5.02 13.81,-5.02 6.03,0 10.74,1.66 14.14,4.97 3.4,3.32 5.1,7.74 5.1,13.27 0,3.98 -1.01,7.81 -3.03,11.48 -2.02,3.68 -4.42,6.97 -7.21,9.87 -2.79,2.9 -6.34,6.26 -10.65,10.07l-3.73 3.32 26.29 0 0 7.88 -40.3 0 0 -6.88 5.97 -5.14z"/>
   <path id="_1_10" class="fil4" d="M86.49 293.27c0,-9.56 1.62,-17.04 4.85,-22.43 3.23,-5.39 8.8,-8.08 16.71,-8.08 7.91,0 13.48,2.69 16.71,8.08 3.23,5.39 4.85,12.87 4.85,22.43 0,9.67 -1.62,17.23 -4.85,22.68 -3.23,5.44 -8.8,8.17 -16.71,8.17 -7.91,0 -13.47,-2.72 -16.71,-8.17 -3.23,-5.45 -4.85,-13.01 -4.85,-22.68zm33.83 0c0,-4.48 -0.29,-8.26 -0.87,-11.36 -0.58,-3.1 -1.76,-5.62 -3.52,-7.59 -1.77,-1.96 -4.4,-2.94 -7.88,-2.94 -3.48,0 -6.11,0.98 -7.88,2.94 -1.77,1.96 -2.94,4.49 -3.52,7.59 -0.58,3.1 -0.87,6.88 -0.87,11.36 0,4.64 0.28,8.54 0.83,11.69 0.55,3.15 1.73,5.69 3.52,7.63 1.8,1.93 4.44,2.9 7.92,2.9 3.48,0 6.12,-0.97 7.92,-2.9 1.8,-1.93 2.97,-4.48 3.52,-7.63 0.55,-3.15 0.83,-7.05 0.83,-11.69z"/>
   <path id="_2_11" class="fil4" d="M144.86 311.43c5.31,-4.59 9.49,-8.36 12.56,-11.32 3.07,-2.96 5.62,-6.04 7.67,-9.25 2.05,-3.21 3.07,-6.41 3.07,-9.62 0,-3.32 -0.79,-5.92 -2.36,-7.79 -1.58,-1.88 -4.05,-2.82 -7.42,-2.82 -3.26,0 -5.79,1.04 -7.59,3.11 -1.8,2.07 -2.75,4.85 -2.86,8.33l-9.12 0c0.17,-6.3 2.06,-11.12 5.68,-14.47 3.62,-3.35 8.22,-5.02 13.81,-5.02 6.03,0 10.74,1.66 14.14,4.97 3.4,3.32 5.1,7.74 5.1,13.27 0,3.98 -1.01,7.81 -3.03,11.48 -2.02,3.68 -4.42,6.97 -7.21,9.87 -2.79,2.9 -6.34,6.26 -10.65,10.07l-3.73 3.32 26.29 0 0 7.88 -40.3 0 0 -6.88 5.97 -5.14z"/>
   <path id="_3_12" class="fil4" d="M226.46 271.96l-27.78 0 0 16.5c1.16,-1.55 2.89,-2.85 5.18,-3.9 2.29,-1.05 4.74,-1.58 7.34,-1.58 4.64,0 8.42,1 11.32,2.99 2.9,1.99 4.97,4.5 6.22,7.55 1.24,3.04 1.87,6.25 1.87,9.62 0,4.09 -0.79,7.73 -2.36,10.9 -1.58,3.18 -3.92,5.68 -7.05,7.5 -3.12,1.82 -6.95,2.74 -11.48,2.74 -6.03,0 -10.86,-1.49 -14.51,-4.48 -3.65,-2.99 -5.83,-6.94 -6.55,-11.86l9.2 0c0.61,2.6 1.96,4.66 4.06,6.18 2.1,1.52 4.73,2.28 7.88,2.28 3.92,0 6.87,-1.19 8.83,-3.57 1.96,-2.38 2.94,-5.53 2.94,-9.45 0,-3.98 -0.99,-7.03 -2.98,-9.16 -1.99,-2.13 -4.92,-3.19 -8.79,-3.19 -2.71,0 -4.99,0.68 -6.84,2.03 -1.85,1.35 -3.19,3.19 -4.02,5.51l-8.96 0 0 -34.91 36.49 0 0 8.29z"/>
   <g>
    <path class="fil4" d="M38.49 205.94c0.2,-5.38 1.96,-9.54 5.28,-12.45 3.32,-2.92 7.82,-4.38 13.51,-4.38 3.77,0 7.01,0.65 9.7,1.96 2.69,1.31 4.73,3.09 6.11,5.36 1.38,2.26 2.08,4.81 2.08,7.62 0,3.32 -0.83,6.03 -2.49,8.11 -1.66,2.09 -3.6,3.51 -5.81,4.26l0 0.3c2.87,0.96 5.13,2.54 6.79,4.76 1.66,2.21 2.49,5.06 2.49,8.53 0,3.12 -0.72,5.87 -2.15,8.27 -1.43,2.39 -3.52,4.26 -6.27,5.62 -2.74,1.36 -6,2.04 -9.77,2.04 -6.04,0 -10.86,-1.48 -14.45,-4.45 -3.6,-2.97 -5.5,-7.45 -5.7,-13.44l12.53 0c0.05,2.21 0.68,3.96 1.89,5.25 1.21,1.28 2.97,1.92 5.28,1.92 1.96,0 3.48,-0.57 4.57,-1.7 1.08,-1.13 1.62,-2.63 1.62,-4.49 0,-2.42 -0.77,-4.16 -2.3,-5.25 -1.53,-1.08 -3.99,-1.62 -7.36,-1.62l-2.42 0 0 -10.49 2.42 0c2.57,0 4.64,-0.44 6.23,-1.32 1.59,-0.88 2.38,-2.45 2.38,-4.72 0,-1.81 -0.5,-3.22 -1.51,-4.23 -1.01,-1.01 -2.39,-1.51 -4.15,-1.51 -1.91,0 -3.33,0.58 -4.26,1.74 -0.93,1.16 -1.47,2.59 -1.62,4.3l-12.6 0z"/>
    <path id="_1_13" class="fil5" d="M142.05 246.02c-4.98,0 -9.55,-1.16 -13.7,-3.47 -4.15,-2.31 -7.45,-5.55 -9.89,-9.7 -2.44,-4.15 -3.66,-8.82 -3.66,-14 0,-5.18 1.22,-9.84 3.66,-13.96 2.44,-4.13 5.74,-7.35 9.89,-9.66 4.15,-2.31 8.72,-3.47 13.7,-3.47 4.98,0 9.55,1.16 13.7,3.47 4.15,2.31 7.42,5.54 9.81,9.66 2.39,4.13 3.59,8.78 3.59,13.96 0,5.18 -1.21,9.85 -3.62,14 -2.42,4.15 -5.69,7.39 -9.81,9.7 -4.13,2.31 -8.68,3.47 -13.66,3.47zm0 -11.77c4.23,0 7.61,-1.41 10.15,-4.23 2.54,-2.82 3.81,-6.54 3.81,-11.17 0,-4.68 -1.27,-8.42 -3.81,-11.21 -2.54,-2.79 -5.92,-4.19 -10.15,-4.19 -4.28,0 -7.69,1.38 -10.23,4.15 -2.54,2.77 -3.81,6.52 -3.81,11.25 0,4.68 1.27,8.42 3.81,11.21 2.54,2.79 5.95,4.19 10.23,4.19z"/>
    <path id="_2_14" class="fil5" d="M174.13 218.92c0,-5.23 1.13,-9.9 3.4,-14 2.26,-4.1 5.42,-7.3 9.47,-9.59 4.05,-2.29 8.64,-3.43 13.77,-3.43 6.29,0 11.67,1.66 16.15,4.98 4.48,3.32 7.47,7.85 8.98,13.59l-14.19 0c-1.06,-2.21 -2.55,-3.9 -4.49,-5.06 -1.94,-1.16 -4.14,-1.74 -6.6,-1.74 -3.97,0 -7.2,1.38 -9.66,4.15 -2.47,2.77 -3.7,6.47 -3.7,11.1 0,4.63 1.23,8.33 3.7,11.1 2.47,2.77 5.69,4.15 9.66,4.15 2.47,0 4.67,-0.58 6.6,-1.74 1.94,-1.16 3.43,-2.84 4.49,-5.06l14.19 0c-1.51,5.74 -4.5,10.25 -8.98,13.55 -4.48,3.3 -9.86,4.94 -16.15,4.94 -5.13,0 -9.72,-1.14 -13.77,-3.43 -4.05,-2.29 -7.21,-5.47 -9.47,-9.55 -2.26,-4.08 -3.4,-8.73 -3.4,-13.96z"/>
    <polygon id="_3_15" class="fil5" points="271.95,192.5 271.95,202.84 257.91,202.84 257.91,245.49 245,245.49 245,202.84 230.96,202.84 230.96,192.5 "/>
    <path id="_4_16" class="fil5" d="M303.5 246.02c-4.98,0 -9.55,-1.16 -13.7,-3.47 -4.15,-2.31 -7.45,-5.55 -9.89,-9.7 -2.44,-4.15 -3.66,-8.82 -3.66,-14 0,-5.18 1.22,-9.84 3.66,-13.96 2.44,-4.13 5.74,-7.35 9.89,-9.66 4.15,-2.31 8.72,-3.47 13.7,-3.47 4.98,0 9.55,1.16 13.7,3.47 4.15,2.31 7.42,5.54 9.81,9.66 2.39,4.13 3.59,8.78 3.59,13.96 0,5.18 -1.21,9.85 -3.62,14 -2.42,4.15 -5.69,7.39 -9.81,9.7 -4.13,2.31 -8.68,3.47 -13.66,3.47zm0 -11.77c4.23,0 7.61,-1.41 10.15,-4.23 2.54,-2.82 3.81,-6.54 3.81,-11.17 0,-4.68 -1.27,-8.42 -3.81,-11.21 -2.54,-2.79 -5.92,-4.19 -10.15,-4.19 -4.28,0 -7.69,1.38 -10.23,4.15 -2.54,2.77 -3.81,6.52 -3.81,11.25 0,4.68 1.27,8.42 3.81,11.21 2.54,2.79 5.95,4.19 10.23,4.19z"/>
    <path id="_5_17" class="fil5" d="M369.85 218.32c3.07,0.65 5.54,2.18 7.4,4.57 1.86,2.39 2.79,5.12 2.79,8.19 0,4.43 -1.55,7.94 -4.64,10.53 -3.09,2.59 -7.41,3.89 -12.94,3.89l-24.68 0 0 -52.99 23.85 0c5.38,0 9.6,1.23 12.64,3.7 3.04,2.47 4.57,5.81 4.57,10.04 0,3.12 -0.82,5.71 -2.45,7.77 -1.64,2.06 -3.81,3.5 -6.53,4.3zm-19.17 -4.38l8.45 0c2.11,0 3.74,-0.47 4.87,-1.4 1.13,-0.93 1.7,-2.3 1.7,-4.11 0,-1.81 -0.57,-3.2 -1.7,-4.15 -1.13,-0.96 -2.75,-1.43 -4.87,-1.43l-8.45 0 0 11.1zm9.51 21.13c2.16,0 3.84,-0.49 5.02,-1.47 1.18,-0.98 1.77,-2.4 1.77,-4.26 0,-1.86 -0.62,-3.32 -1.85,-4.38 -1.23,-1.06 -2.93,-1.58 -5.1,-1.58l-9.36 0 0 11.7 9.51 0z"/>
    <polygon id="_6_18" class="fil5" points="400.42,202.84 400.42,213.56 417.7,213.56 417.7,223.52 400.42,223.52 400.42,235.15 419.96,235.15 419.96,245.49 387.51,245.49 387.51,192.5 419.96,192.5 419.96,202.84 "/>
    <path id="_7_19" class="fil5" d="M455.36 245.49l-11.02 -20 -3.1 0 0 20 -12.91 0 0 -52.99 21.66 0c4.18,0 7.74,0.73 10.68,2.19 2.94,1.46 5.14,3.46 6.6,6 1.46,2.54 2.19,5.37 2.19,8.49 0,3.52 -0.99,6.67 -2.98,9.43 -1.99,2.77 -4.92,4.73 -8.79,5.89l12.23 20.98 -14.57 0zm-14.11 -29.14l8 0c2.37,0 4.14,-0.58 5.32,-1.74 1.18,-1.16 1.77,-2.79 1.77,-4.91 0,-2.01 -0.59,-3.6 -1.77,-4.76 -1.18,-1.16 -2.96,-1.74 -5.32,-1.74l-8 0 0 13.13z"/>
    <path class="fil4" d="M84.22 182.87c0.66,-1.01 1.48,-1.81 2.47,-2.39 0.99,-0.58 2.09,-0.87 3.3,-0.87l0 5.96 -1.55 0c-1.41,0 -2.46,0.3 -3.16,0.91 -0.7,0.6 -1.05,1.66 -1.05,3.18l0 8.53 -5.64 0 0 -18.39 5.64 0 0 3.06z"/>
    <path id="_1_20" class="fil4" d="M91.57 188.97c0,-1.89 0.36,-3.55 1.07,-4.98 0.71,-1.43 1.69,-2.53 2.92,-3.3 1.23,-0.77 2.6,-1.15 4.12,-1.15 1.21,0 2.31,0.25 3.31,0.76 1,0.51 1.78,1.19 2.36,2.04l0 -8.53 5.63 0 0 24.39 -5.63 0 0 -2.64c-0.53,0.88 -1.28,1.58 -2.26,2.11 -0.98,0.53 -2.11,0.79 -3.41,0.79 -1.52,0 -2.89,-0.39 -4.12,-1.17 -1.23,-0.78 -2.2,-1.89 -2.92,-3.33 -0.71,-1.44 -1.07,-3.1 -1.07,-4.99zm13.77 0.03c0,-1.41 -0.39,-2.52 -1.17,-3.33 -0.78,-0.81 -1.73,-1.22 -2.85,-1.22 -1.12,0 -2.07,0.4 -2.85,1.2 -0.78,0.8 -1.17,1.91 -1.17,3.31 0,1.41 0.39,2.52 1.17,3.35 0.78,0.82 1.73,1.23 2.85,1.23 1.12,0 2.07,-0.41 2.85,-1.22 0.78,-0.81 1.17,-1.92 1.17,-3.33z"/>
   </g>
  </g>
  <g id="_3253662536320">
   <path class="fil6" d="M570.97 75.51c0,10.15 -18.38,36.94 -18.38,36.94 0,0 -18.38,-26.79 -18.38,-36.94 0,-10.15 8.23,-18.38 18.38,-18.38 10.15,0 18.38,8.23 18.38,18.38z"/>
   <path class="fil7" d="M561.23 74.7c0,4.77 -3.87,8.64 -8.64,8.64 -4.77,0 -8.64,-3.87 -8.64,-8.64 0,-4.77 3.87,-8.64 8.64,-8.64 4.77,0 8.64,3.87 8.64,8.64z"/>
   <path class="fil8" d="M537.35 77.12c0,-8.82 7.15,-15.97 15.97,-15.97 5.16,0 9.74,2.44 12.66,6.23 -2.76,-4.79 -7.93,-8.01 -13.85,-8.01 -8.82,0 -15.97,7.15 -15.97,15.97 0,3.67 1.23,7.04 3.31,9.74 -1.35,-2.34 -2.12,-5.06 -2.12,-7.96z"/>
   <path class="fil9" d="M548.25 105.42c2.5,4.2 4.34,7.03 4.34,7.03 0,0 18.38,-26.79 18.38,-36.94 0,-0.53 -0.03,-1.06 -0.07,-1.58 -0.73,2.82 -1.75,5.57 -3.01,8.19 -3.48,7.24 -8.63,11.88 -14.11,17.76 -1.77,1.89 -3.61,3.77 -5.53,5.54z"/>
  </g>
 </g>
</svg>
