<?xml version="1.0" encoding="UTF-8"?>
<!DOCTYPE svg PUBLIC "-//W3C//DTD SVG 1.1//EN" "http://www.w3.org/Graphics/SVG/1.1/DTD/svg11.dtd">
<!-- Creator: CorelDRAW 2021 (64-Bit) -->
<svg xmlns="http://www.w3.org/2000/svg" xml:space="preserve" width="8.4667mm" height="12.7402mm" version="1.1" style="shape-rendering:geometricPrecision; text-rendering:geometricPrecision; image-rendering:optimizeQuality; fill-rule:evenodd; clip-rule:evenodd"
viewBox="0 0 4.99 7.5"
 xmlns:xlink="http://www.w3.org/1999/xlink"
 xmlns:xodm="http://www.corel.com/coreldraw/odm/2003">
 <defs>
  <style type="text/css">
   <![CDATA[
    .fil3 {fill:#C92026;fill-rule:nonzero}
    .fil0 {fill:#DD1D26;fill-rule:nonzero}
    .fil2 {fill:#ED4843;fill-rule:nonzero}
    .fil1 {fill:white;fill-rule:nonzero}
   ]]>
  </style>
 </defs>
 <g id="Layer_x0020_1">
  <metadata id="CorelCorpID_0Corel-Layer"/>
  <g id="_3253660206096">
   <path class="fil0" d="M4.99 2.49c0,1.38 -2.49,5.01 -2.49,5.01 0,0 -2.49,-3.63 -2.49,-5.01 0,-1.38 1.12,-2.49 2.49,-2.49 1.38,0 2.49,1.12 2.49,2.49z"/>
   <path class="fil1" d="M3.66 2.38c0,0.65 -0.52,1.17 -1.17,1.17 -0.65,0 -1.17,-0.52 -1.17,-1.17 0,-0.65 0.52,-1.17 1.17,-1.17 0.65,0 1.17,0.52 1.17,1.17z"/>
   <path class="fil2" d="M0.43 2.71c0,-1.2 0.97,-2.17 2.17,-2.17 0.7,0 1.32,0.33 1.72,0.85 -0.37,-0.65 -1.07,-1.09 -1.88,-1.09 -1.2,0 -2.17,0.97 -2.17,2.17 0,0.5 0.17,0.95 0.45,1.32 -0.18,-0.32 -0.29,-0.69 -0.29,-1.08z"/>
   <path class="fil3" d="M1.9 6.55c0.34,0.57 0.59,0.95 0.59,0.95 0,0 2.49,-3.63 2.49,-5.01 0,-0.07 -0,-0.14 -0.01,-0.21 -0.1,0.38 -0.24,0.75 -0.41,1.11 -0.47,0.98 -1.17,1.61 -1.91,2.41 -0.24,0.26 -0.49,0.51 -0.75,0.75z"/>
  </g>
 </g>
</svg>
