<?xml version="1.0" encoding="UTF-8"?>
<!DOCTYPE svg PUBLIC "-//W3C//DTD SVG 1.1//EN" "http://www.w3.org/Graphics/SVG/1.1/DTD/svg11.dtd">
<!-- Creator: CorelDRAW 2021 (64-Bit) -->
<svg xmlns="http://www.w3.org/2000/svg" xml:space="preserve" width="49.2677mm" height="30.4671mm" version="1.1" style="shape-rendering:geometricPrecision; text-rendering:geometricPrecision; image-rendering:optimizeQuality; fill-rule:evenodd; clip-rule:evenodd"
viewBox="0 0 203.74 125.99"
 xmlns:xlink="http://www.w3.org/1999/xlink"
 xmlns:xodm="http://www.corel.com/coreldraw/odm/2003">
 <defs>
  <style type="text/css">
   <![CDATA[
    .fil0 {fill:black;fill-rule:nonzero}
    .fil2 {fill:#280095;fill-rule:nonzero}
    .fil1 {fill:#280095;fill-rule:nonzero}
   ]]>
  </style>
 </defs>
 <g id="Layer_x0020_1">
  <metadata id="CorelCorpID_0Corel-Layer"/>
  <g id="_3253814242784">
   <path class="fil0" d="M13.28 15.86l-9.32 0 -1.79 4.87 -2.17 0 7.48 -20.23 2.32 0 7.45 20.23 -2.17 0 -1.79 -4.87zm-0.62 -1.7l-4.05 -11.08 -4.05 11.08 8.09 0z"/>
   <polygon id="_1" class="fil0" points="45.39,0.23 39.58,20.73 37.3,20.73 32.14,3.25 26.86,20.73 24.63,20.76 18.94,0.23 21.14,0.23 25.83,18.21 31.08,0.23 33.37,0.23 38.47,18.21 43.19,0.23 "/>
   <path id="_2" class="fil0" d="M60.4 15.86l-9.32 0 -1.79 4.87 -2.17 0 7.48 -20.23 2.32 0 7.45 20.23 -2.17 0 -1.79 -4.87zm-0.62 -1.7l-4.05 -11.08 -4.05 11.08 8.09 0z"/>
   <path id="_3" class="fil0" d="M78.55 20.73l-5.07 -8.56 -3.78 0 0 8.56 -2.05 0 0 -20.5 6.16 0c2.29,0 4.02,0.55 5.2,1.64 1.18,1.09 1.77,2.53 1.77,4.31 0,1.49 -0.43,2.75 -1.28,3.8 -0.85,1.05 -2.11,1.73 -3.77,2.04l5.28 8.71 -2.46 0zm-8.86 -10.23l4.13 0c1.6,0 2.81,-0.39 3.62,-1.17 0.81,-0.78 1.22,-1.83 1.22,-3.14 0,-1.35 -0.39,-2.39 -1.17,-3.12 -0.78,-0.73 -2.01,-1.1 -3.69,-1.1l-4.1 0 0 8.53z"/>
   <path id="_4" class="fil0" d="M90.93 0.23c2.27,0 4.21,0.41 5.84,1.23 1.62,0.82 2.86,2 3.72,3.55 0.86,1.54 1.29,3.38 1.29,5.51 0,2.11 -0.43,3.93 -1.29,5.47 -0.86,1.53 -2.1,2.71 -3.72,3.52 -1.62,0.81 -3.57,1.22 -5.84,1.22l-6.07 0 0 -20.5 6.07 0zm0 18.8c2.85,0 5.03,-0.75 6.52,-2.24 1.5,-1.5 2.24,-3.58 2.24,-6.26 0,-2.7 -0.75,-4.8 -2.24,-6.32 -1.5,-1.51 -3.67,-2.27 -6.52,-2.27l-4.02 0 0 17.09 4.02 0z"/>
   <path id="_5" class="fil0" d="M111.77 20.94c-1.35,0 -2.54,-0.23 -3.56,-0.7 -1.03,-0.47 -1.83,-1.12 -2.42,-1.96 -0.59,-0.84 -0.9,-1.78 -0.94,-2.81l2.17 0c0.1,1 0.54,1.87 1.32,2.62 0.78,0.75 1.93,1.13 3.43,1.13 1.39,0 2.49,-0.36 3.3,-1.07 0.81,-0.71 1.22,-1.62 1.22,-2.71 0,-0.88 -0.22,-1.59 -0.67,-2.13 -0.45,-0.54 -1.01,-0.94 -1.67,-1.2 -0.66,-0.26 -1.58,-0.55 -2.76,-0.86 -1.37,-0.37 -2.45,-0.73 -3.25,-1.09 -0.8,-0.35 -1.49,-0.9 -2.05,-1.64 -0.57,-0.74 -0.85,-1.75 -0.85,-3.02 0,-1.06 0.27,-2 0.82,-2.83 0.55,-0.83 1.32,-1.48 2.32,-1.95 1,-0.47 2.14,-0.7 3.43,-0.7 1.9,0 3.43,0.46 4.59,1.39 1.16,0.93 1.83,2.13 2.01,3.59l-2.23 0c-0.14,-0.84 -0.6,-1.59 -1.38,-2.24 -0.78,-0.66 -1.84,-0.98 -3.17,-0.98 -1.23,0 -2.26,0.33 -3.08,0.98 -0.82,0.65 -1.23,1.55 -1.23,2.68 0,0.86 0.22,1.55 0.67,2.08 0.45,0.53 1.01,0.93 1.69,1.2 0.67,0.27 1.59,0.57 2.74,0.88 1.33,0.37 2.4,0.74 3.23,1.1 0.82,0.36 1.52,0.91 2.08,1.66 0.57,0.74 0.85,1.74 0.85,2.99 0,0.96 -0.25,1.87 -0.76,2.73 -0.51,0.86 -1.26,1.55 -2.26,2.08 -1,0.53 -2.19,0.79 -3.58,0.79z"/>
   <polygon id="_6" class="fil0" points="16.86,50.36 14.81,50.36 3.46,33.12 3.46,50.36 1.41,50.36 1.41,29.87 3.46,29.87 14.81,47.08 14.81,29.87 16.86,29.87 "/>
   <polygon id="_7" class="fil0" points="23.57,29.87 23.57,50.36 21.52,50.36 21.52,29.87 "/>
   <path id="_8" class="fil0" d="M44.36 35.85c-0.59,-1.35 -1.48,-2.41 -2.68,-3.18 -1.2,-0.77 -2.61,-1.16 -4.24,-1.16 -1.52,0 -2.89,0.35 -4.11,1.06 -1.21,0.7 -2.17,1.71 -2.87,3.01 -0.7,1.3 -1.06,2.81 -1.06,4.53 0,1.72 0.35,3.24 1.06,4.55 0.7,1.31 1.66,2.32 2.87,3.02 1.21,0.7 2.58,1.06 4.11,1.06 1.43,0 2.71,-0.31 3.86,-0.92 1.14,-0.62 2.06,-1.5 2.76,-2.64 0.69,-1.14 1.09,-2.48 1.19,-4l-8.62 0 0 -1.67 10.79 0 0 1.5c-0.1,1.8 -0.59,3.43 -1.47,4.88 -0.88,1.46 -2.06,2.6 -3.53,3.45 -1.48,0.84 -3.13,1.26 -4.97,1.26 -1.9,0 -3.62,-0.44 -5.16,-1.33 -1.54,-0.89 -2.76,-2.13 -3.65,-3.72 -0.89,-1.59 -1.33,-3.4 -1.33,-5.41 0,-2.01 0.44,-3.82 1.33,-5.41 0.89,-1.59 2.11,-2.83 3.65,-3.72 1.54,-0.89 3.26,-1.33 5.16,-1.33 2.19,0 4.1,0.55 5.75,1.64 1.64,1.09 2.83,2.62 3.58,4.57l-2.4 0z"/>
   <polygon id="_9" class="fil0" points="66.38,29.87 66.38,50.36 64.33,50.36 64.33,40.78 53.22,40.78 53.22,50.36 51.17,50.36 51.17,29.87 53.22,29.87 53.22,39.08 64.33,39.08 64.33,29.87 "/>
   <polygon id="_10" class="fil0" points="83.07,29.87 83.07,31.57 77.38,31.57 77.38,50.36 75.33,50.36 75.33,31.57 69.61,31.57 69.61,29.87 "/>
   <path class="fil1" d="M2.85 119.93c2.5,-2.16 4.48,-3.94 5.92,-5.34 1.45,-1.39 2.65,-2.85 3.62,-4.36 0.96,-1.51 1.45,-3.02 1.45,-4.54 0,-1.56 -0.37,-2.79 -1.11,-3.68 -0.74,-0.89 -1.91,-1.33 -3.5,-1.33 -1.54,0 -2.73,0.49 -3.58,1.47 -0.85,0.98 -1.3,2.29 -1.35,3.93l-4.3 0c0.08,-2.97 0.97,-5.25 2.68,-6.82 1.71,-1.58 3.88,-2.37 6.51,-2.37 2.84,0 5.06,0.78 6.67,2.35 1.6,1.56 2.4,3.65 2.4,6.26 0,1.88 -0.48,3.68 -1.43,5.41 -0.95,1.73 -2.09,3.28 -3.4,4.65 -1.32,1.37 -2.99,2.95 -5.02,4.75l-1.76 1.56 12.39 0 0 3.71 -19 0 0 -3.25 2.81 -2.42z"/>
   <path id="_1_0" class="fil1" d="M22.95 111.37c0,-4.51 0.76,-8.03 2.29,-10.58 1.52,-2.54 4.15,-3.81 7.88,-3.81 3.73,0 6.35,1.27 7.88,3.81 1.52,2.54 2.29,6.07 2.29,10.58 0,4.56 -0.76,8.13 -2.29,10.69 -1.52,2.57 -4.15,3.85 -7.88,3.85 -3.73,0 -6.35,-1.28 -7.88,-3.85 -1.52,-2.57 -2.29,-6.13 -2.29,-10.69zm15.95 0c0,-2.11 -0.14,-3.9 -0.41,-5.36 -0.27,-1.46 -0.83,-2.65 -1.66,-3.58 -0.83,-0.93 -2.07,-1.39 -3.71,-1.39 -1.64,0 -2.88,0.46 -3.71,1.39 -0.83,0.93 -1.39,2.12 -1.66,3.58 -0.27,1.46 -0.41,3.25 -0.41,5.36 0,2.19 0.13,4.03 0.39,5.51 0.26,1.49 0.81,2.68 1.66,3.6 0.85,0.91 2.09,1.37 3.73,1.37 1.64,0 2.89,-0.46 3.73,-1.37 0.85,-0.91 1.4,-2.11 1.66,-3.6 0.26,-1.49 0.39,-3.32 0.39,-5.51z"/>
   <path id="_2_1" class="fil1" d="M50.47 119.93c2.5,-2.16 4.48,-3.94 5.92,-5.34 1.45,-1.39 2.65,-2.85 3.62,-4.36 0.96,-1.51 1.45,-3.02 1.45,-4.54 0,-1.56 -0.37,-2.79 -1.11,-3.68 -0.74,-0.89 -1.91,-1.33 -3.5,-1.33 -1.54,0 -2.73,0.49 -3.58,1.47 -0.85,0.98 -1.3,2.29 -1.35,3.93l-4.3 0c0.08,-2.97 0.97,-5.25 2.68,-6.82 1.71,-1.58 3.88,-2.37 6.51,-2.37 2.84,0 5.06,0.78 6.67,2.35 1.6,1.56 2.4,3.65 2.4,6.26 0,1.88 -0.48,3.68 -1.43,5.41 -0.95,1.73 -2.09,3.28 -3.4,4.65 -1.32,1.37 -2.99,2.95 -5.02,4.75l-1.76 1.56 12.39 0 0 3.71 -19 0 0 -3.25 2.81 -2.42z"/>
   <path id="_3_2" class="fil1" d="M88.94 101.32l-13.1 0 0 7.78c0.55,-0.73 1.36,-1.34 2.44,-1.84 1.08,-0.5 2.23,-0.74 3.46,-0.74 2.19,0 3.97,0.47 5.34,1.41 1.37,0.94 2.35,2.12 2.93,3.56 0.59,1.43 0.88,2.95 0.88,4.54 0,1.93 -0.37,3.64 -1.11,5.14 -0.74,1.5 -1.85,2.68 -3.32,3.54 -1.47,0.86 -3.28,1.29 -5.41,1.29 -2.84,0 -5.12,-0.7 -6.84,-2.11 -1.72,-1.41 -2.75,-3.27 -3.09,-5.59l4.34 0c0.29,1.23 0.93,2.2 1.92,2.91 0.99,0.72 2.23,1.08 3.71,1.08 1.85,0 3.24,-0.56 4.16,-1.68 0.93,-1.12 1.39,-2.61 1.39,-4.46 0,-1.88 -0.47,-3.32 -1.41,-4.32 -0.94,-1 -2.32,-1.51 -4.14,-1.51 -1.28,0 -2.35,0.32 -3.23,0.96 -0.87,0.64 -1.51,1.51 -1.9,2.6l-4.22 0 0 -16.46 17.2 0 0 3.91z"/>
   <g>
    <path class="fil1" d="M0.32 70.19c0.09,-2.54 0.93,-4.5 2.49,-5.87 1.57,-1.38 3.69,-2.06 6.37,-2.06 1.78,0 3.3,0.31 4.57,0.93 1.27,0.62 2.23,1.46 2.88,2.53 0.65,1.07 0.98,2.27 0.98,3.59 0,1.57 -0.39,2.84 -1.17,3.83 -0.78,0.98 -1.7,1.65 -2.74,2.01l0 0.14c1.35,0.45 2.42,1.2 3.2,2.24 0.78,1.04 1.17,2.38 1.17,4.02 0,1.47 -0.34,2.77 -1.01,3.9 -0.68,1.13 -1.66,2.01 -2.95,2.65 -1.29,0.64 -2.83,0.96 -4.61,0.96 -2.85,0 -5.12,-0.7 -6.82,-2.1 -1.7,-1.4 -2.59,-3.51 -2.69,-6.33l5.91 0c0.02,1.04 0.32,1.87 0.89,2.47 0.57,0.61 1.4,0.91 2.49,0.91 0.93,0 1.64,-0.27 2.15,-0.8 0.51,-0.53 0.77,-1.24 0.77,-2.12 0,-1.14 -0.36,-1.96 -1.09,-2.47 -0.72,-0.51 -1.88,-0.77 -3.47,-0.77l-1.14 0 0 -4.95 1.14 0c1.21,0 2.19,-0.21 2.94,-0.62 0.75,-0.42 1.12,-1.16 1.12,-2.22 0,-0.85 -0.24,-1.52 -0.71,-1.99 -0.47,-0.47 -1.13,-0.71 -1.96,-0.71 -0.9,0 -1.57,0.27 -2.01,0.82 -0.44,0.55 -0.69,1.22 -0.77,2.03l-5.94 0z"/>
    <path id="_1_3" class="fil2" d="M49.15 89.09c-2.35,0 -4.5,-0.55 -6.46,-1.64 -1.96,-1.09 -3.51,-2.62 -4.66,-4.57 -1.15,-1.96 -1.73,-4.16 -1.73,-6.6 0,-2.44 0.58,-4.64 1.73,-6.58 1.15,-1.95 2.7,-3.46 4.66,-4.56 1.96,-1.09 4.11,-1.64 6.46,-1.64 2.35,0 4.5,0.55 6.46,1.64 1.96,1.09 3.5,2.61 4.63,4.56 1.13,1.95 1.69,4.14 1.69,6.58 0,2.44 -0.57,4.64 -1.71,6.6 -1.14,1.96 -2.68,3.48 -4.63,4.57 -1.95,1.09 -4.09,1.64 -6.44,1.64zm0 -5.55c1.99,0 3.59,-0.66 4.79,-1.99 1.2,-1.33 1.8,-3.08 1.8,-5.27 0,-2.21 -0.6,-3.97 -1.8,-5.28 -1.2,-1.32 -2.79,-1.98 -4.79,-1.98 -2.02,0 -3.62,0.65 -4.82,1.96 -1.2,1.31 -1.8,3.07 -1.8,5.3 0,2.21 0.6,3.97 1.8,5.28 1.2,1.32 2.81,1.98 4.82,1.98z"/>
    <path id="_2_4" class="fil2" d="M64.27 76.32c0,-2.47 0.53,-4.67 1.6,-6.6 1.07,-1.93 2.56,-3.44 4.47,-4.52 1.91,-1.08 4.07,-1.62 6.49,-1.62 2.97,0 5.5,0.78 7.62,2.35 2.11,1.57 3.52,3.7 4.24,6.41l-6.69 0c-0.5,-1.04 -1.2,-1.84 -2.12,-2.38 -0.91,-0.55 -1.95,-0.82 -3.11,-0.82 -1.87,0 -3.39,0.65 -4.56,1.96 -1.16,1.3 -1.74,3.05 -1.74,5.23 0,2.18 0.58,3.93 1.74,5.23 1.16,1.31 2.68,1.96 4.56,1.96 1.16,0 2.2,-0.27 3.11,-0.82 0.91,-0.55 1.62,-1.34 2.12,-2.38l6.69 0c-0.71,2.7 -2.12,4.83 -4.24,6.39 -2.11,1.55 -4.65,2.33 -7.62,2.33 -2.42,0 -4.58,-0.54 -6.49,-1.62 -1.91,-1.08 -3.4,-2.58 -4.47,-4.5 -1.07,-1.92 -1.6,-4.12 -1.6,-6.58z"/>
    <polygon id="_3_5" class="fil2" points="110.39,63.86 110.39,68.74 103.77,68.74 103.77,88.84 97.69,88.84 97.69,68.74 91.07,68.74 91.07,63.86 "/>
    <path id="_4_6" class="fil2" d="M125.27 89.09c-2.35,0 -4.5,-0.55 -6.46,-1.64 -1.96,-1.09 -3.51,-2.62 -4.66,-4.57 -1.15,-1.96 -1.73,-4.16 -1.73,-6.6 0,-2.44 0.58,-4.64 1.73,-6.58 1.15,-1.95 2.7,-3.46 4.66,-4.56 1.96,-1.09 4.11,-1.64 6.46,-1.64 2.35,0 4.5,0.55 6.46,1.64 1.96,1.09 3.5,2.61 4.63,4.56 1.13,1.95 1.69,4.14 1.69,6.58 0,2.44 -0.57,4.64 -1.71,6.6 -1.14,1.96 -2.68,3.48 -4.63,4.57 -1.95,1.09 -4.09,1.64 -6.44,1.64zm0 -5.55c1.99,0 3.59,-0.66 4.79,-1.99 1.2,-1.33 1.8,-3.08 1.8,-5.27 0,-2.21 -0.6,-3.97 -1.8,-5.28 -1.2,-1.32 -2.79,-1.98 -4.79,-1.98 -2.02,0 -3.62,0.65 -4.82,1.96 -1.2,1.31 -1.8,3.07 -1.8,5.3 0,2.21 0.6,3.97 1.8,5.28 1.2,1.32 2.81,1.98 4.82,1.98z"/>
    <path id="_5_7" class="fil2" d="M156.55 76.03c1.45,0.31 2.61,1.03 3.49,2.15 0.88,1.13 1.32,2.41 1.32,3.86 0,2.09 -0.73,3.74 -2.19,4.96 -1.46,1.22 -3.49,1.83 -6.1,1.83l-11.64 0 0 -24.98 11.25 0c2.54,0 4.53,0.58 5.96,1.74 1.44,1.16 2.15,2.74 2.15,4.73 0,1.47 -0.39,2.69 -1.16,3.67 -0.77,0.97 -1.8,1.65 -3.08,2.03zm-9.04 -2.06l3.99 0c1,0 1.76,-0.22 2.3,-0.66 0.53,-0.44 0.8,-1.09 0.8,-1.94 0,-0.85 -0.27,-1.51 -0.8,-1.96 -0.53,-0.45 -1.3,-0.68 -2.3,-0.68l-3.99 0 0 5.23zm4.48 9.96c1.02,0 1.81,-0.23 2.37,-0.69 0.56,-0.46 0.84,-1.13 0.84,-2.01 0,-0.88 -0.29,-1.57 -0.87,-2.06 -0.58,-0.5 -1.38,-0.75 -2.4,-0.75l-4.41 0 0 5.52 4.48 0z"/>
    <polygon id="_6_8" class="fil2" points="170.96,68.74 170.96,73.79 179.11,73.79 179.11,78.49 170.96,78.49 170.96,83.97 180.18,83.97 180.18,88.84 164.88,88.84 164.88,63.86 180.18,63.86 180.18,68.74 "/>
    <path id="_7_9" class="fil2" d="M196.87 88.84l-5.2 -9.43 -1.46 0 0 9.43 -6.09 0 0 -24.98 10.21 0c1.97,0 3.65,0.34 5.04,1.03 1.39,0.69 2.43,1.63 3.11,2.83 0.69,1.2 1.03,2.53 1.03,4 0,1.66 -0.47,3.14 -1.41,4.45 -0.94,1.3 -2.32,2.23 -4.15,2.78l5.77 9.89 -6.87 0zm-6.66 -13.74l3.77 0c1.12,0 1.95,-0.27 2.51,-0.82 0.56,-0.55 0.84,-1.32 0.84,-2.31 0,-0.95 -0.28,-1.7 -0.84,-2.24 -0.56,-0.55 -1.39,-0.82 -2.51,-0.82l-3.77 0 0 6.19z"/>
    <path class="fil1" d="M21.88 59.32c0.31,-0.48 0.7,-0.85 1.17,-1.13 0.47,-0.27 0.98,-0.41 1.55,-0.41l0 2.81 -0.73 0c-0.66,0 -1.16,0.14 -1.49,0.43 -0.33,0.28 -0.5,0.78 -0.5,1.5l0 4.02 -2.66 0 0 -8.67 2.66 0 0 1.44z"/>
    <path id="_1_10" class="fil1" d="M25.35 62.19c0,-0.89 0.17,-1.67 0.5,-2.35 0.34,-0.67 0.79,-1.19 1.38,-1.55 0.58,-0.36 1.23,-0.54 1.94,-0.54 0.57,0 1.09,0.12 1.56,0.36 0.47,0.24 0.84,0.56 1.11,0.96l0 -4.02 2.66 0 0 11.5 -2.66 0 0 -1.24c-0.25,0.41 -0.6,0.75 -1.06,0.99 -0.46,0.25 -1,0.37 -1.61,0.37 -0.71,0 -1.36,-0.18 -1.94,-0.55 -0.58,-0.37 -1.04,-0.89 -1.38,-1.57 -0.34,-0.68 -0.5,-1.46 -0.5,-2.35zm6.49 0.02c0,-0.66 -0.18,-1.19 -0.55,-1.57 -0.37,-0.38 -0.82,-0.57 -1.34,-0.57 -0.53,0 -0.98,0.19 -1.34,0.57 -0.37,0.38 -0.55,0.9 -0.55,1.56 0,0.66 0.18,1.19 0.55,1.58 0.37,0.39 0.82,0.58 1.34,0.58 0.53,0 0.98,-0.19 1.34,-0.57 0.37,-0.38 0.55,-0.91 0.55,-1.57z"/>
   </g>
  </g>
 </g>
</svg>
