<?xml version="1.0" encoding="UTF-8"?>
<!DOCTYPE svg PUBLIC "-//W3C//DTD SVG 1.1//EN" "http://www.w3.org/Graphics/SVG/1.1/DTD/svg11.dtd">
<!-- Creator: CorelDRAW 2021 (64-Bit) -->
<svg xmlns="http://www.w3.org/2000/svg" xml:space="preserve" width="38.9026mm" height="26.244mm" version="1.1" style="shape-rendering:geometricPrecision; text-rendering:geometricPrecision; image-rendering:optimizeQuality; fill-rule:evenodd; clip-rule:evenodd"
viewBox="0 0 116.01 78.26"
 xmlns:xlink="http://www.w3.org/1999/xlink"
 xmlns:xodm="http://www.corel.com/coreldraw/odm/2003">
 <defs>
  <style type="text/css">
   <![CDATA[
    .fil0 {fill:#1A1A1A;fill-rule:nonzero}
    .fil4 {fill:#C92026;fill-rule:nonzero}
    .fil1 {fill:#DD1D26;fill-rule:nonzero}
    .fil3 {fill:#ED4843;fill-rule:nonzero}
    .fil2 {fill:white;fill-rule:nonzero}
   ]]>
  </style>
 </defs>
 <g id="Layer_x0020_1">
  <metadata id="CorelCorpID_0Corel-Layer"/>
  <polygon class="fil0" points="26.65,8.02 22.67,18.9 20.02,18.9 16.03,8.02 18.36,8.02 21.36,16.67 24.33,8.02 "/>
  <path id="_1" class="fil0" d="M35.99 14.4c0,0.31 -0.02,0.59 -0.06,0.84l-6.31 0c0.05,0.62 0.27,1.11 0.65,1.46 0.38,0.35 0.86,0.53 1.42,0.53 0.81,0 1.39,-0.35 1.73,-1.04l2.35 0c-0.25,0.83 -0.73,1.51 -1.43,2.05 -0.71,0.53 -1.57,0.8 -2.6,0.8 -0.83,0 -1.58,-0.18 -2.24,-0.55 -0.66,-0.37 -1.17,-0.89 -1.54,-1.57 -0.37,-0.68 -0.55,-1.45 -0.55,-2.34 0,-0.89 0.18,-1.68 0.55,-2.35 0.36,-0.68 0.87,-1.19 1.53,-1.56 0.65,-0.36 1.41,-0.55 2.26,-0.55 0.82,0 1.56,0.18 2.2,0.53 0.65,0.35 1.15,0.85 1.51,1.5 0.36,0.65 0.54,1.39 0.54,2.24zm-2.26 -0.62c-0.01,-0.56 -0.21,-1.01 -0.61,-1.35 -0.39,-0.34 -0.88,-0.51 -1.45,-0.51 -0.54,0 -0.99,0.16 -1.36,0.49 -0.37,0.33 -0.59,0.78 -0.68,1.36l4.1 0z"/>
  <path id="_2" class="fil0" d="M42.36 10.14c1.03,0 1.86,0.32 2.49,0.97 0.63,0.65 0.95,1.56 0.95,2.72l0 5.06 -2.18 0 0 -4.77c0,-0.69 -0.17,-1.21 -0.51,-1.58 -0.34,-0.37 -0.81,-0.55 -1.4,-0.55 -0.6,0 -1.08,0.18 -1.43,0.55 -0.35,0.37 -0.52,0.9 -0.52,1.58l0 4.77 -2.18 0 0 -8.63 2.18 0 0 1.08c0.29,-0.37 0.66,-0.67 1.11,-0.88 0.45,-0.21 0.95,-0.32 1.49,-0.32z"/>
  <path id="_3" class="fil0" d="M56.03 10.27l0 8.63 -2.2 0 0 -1.09c-0.28,0.37 -0.65,0.67 -1.1,0.88 -0.45,0.21 -0.94,0.32 -1.47,0.32 -0.68,0 -1.27,-0.14 -1.79,-0.43 -0.52,-0.29 -0.93,-0.71 -1.22,-1.26 -0.3,-0.56 -0.44,-1.22 -0.44,-1.99l0 -5.06 2.18 0 0 4.75c0,0.69 0.17,1.21 0.51,1.58 0.34,0.37 0.81,0.55 1.4,0.55 0.6,0 1.08,-0.18 1.42,-0.55 0.34,-0.37 0.51,-0.9 0.51,-1.58l0 -4.75 2.2 0z"/>
  <path id="_4" class="fil0" d="M66.21 14.4c0,0.31 -0.02,0.59 -0.06,0.84l-6.31 0c0.05,0.62 0.27,1.11 0.65,1.46 0.38,0.35 0.86,0.53 1.42,0.53 0.81,0 1.39,-0.35 1.73,-1.04l2.35 0c-0.25,0.83 -0.73,1.51 -1.43,2.05 -0.71,0.53 -1.57,0.8 -2.6,0.8 -0.83,0 -1.58,-0.18 -2.24,-0.55 -0.66,-0.37 -1.17,-0.89 -1.54,-1.57 -0.37,-0.68 -0.55,-1.45 -0.55,-2.34 0,-0.89 0.18,-1.68 0.55,-2.35 0.36,-0.68 0.87,-1.19 1.53,-1.56 0.65,-0.36 1.41,-0.55 2.26,-0.55 0.82,0 1.56,0.18 2.2,0.53 0.65,0.35 1.15,0.85 1.51,1.5 0.36,0.65 0.54,1.39 0.54,2.24zm-2.26 -0.62c-0.01,-0.56 -0.21,-1.01 -0.61,-1.35 -0.39,-0.34 -0.88,-0.51 -1.45,-0.51 -0.54,0 -0.99,0.16 -1.36,0.49 -0.37,0.33 -0.59,0.78 -0.68,1.36l4.1 0z"/>
  <polygon id="_5" class="fil0" points="1.53,29.3 1.53,27.29 5.29,27.29 5.29,38.65 3.05,38.65 3.05,29.3 "/>
  <path id="_6" class="fil0" d="M18.97 31.05c-0.25,-0.46 -0.59,-0.81 -1.03,-1.04 -0.44,-0.24 -0.95,-0.36 -1.53,-0.36 -0.64,0 -1.22,0.15 -1.71,0.44 -0.5,0.29 -0.89,0.71 -1.17,1.25 -0.28,0.54 -0.42,1.16 -0.42,1.87 0,0.73 0.14,1.36 0.43,1.9 0.29,0.54 0.68,0.96 1.19,1.25 0.51,0.29 1.1,0.44 1.78,0.44 0.83,0 1.51,-0.22 2.04,-0.66 0.53,-0.44 0.88,-1.06 1.04,-1.85l-3.74 0 0 -1.67 5.89 0 0 1.9c-0.15,0.76 -0.46,1.46 -0.93,2.1 -0.48,0.64 -1.09,1.16 -1.85,1.55 -0.75,0.39 -1.6,0.58 -2.53,0.58 -1.05,0 -2,-0.24 -2.84,-0.71 -0.85,-0.47 -1.51,-1.13 -1.99,-1.97 -0.48,-0.84 -0.72,-1.8 -0.72,-2.87 0,-1.07 0.24,-2.03 0.72,-2.87 0.48,-0.85 1.15,-1.51 1.99,-1.98 0.85,-0.47 1.79,-0.71 2.83,-0.71 1.23,0 2.29,0.3 3.19,0.9 0.9,0.6 1.53,1.44 1.87,2.52l-2.51 0z"/>
  <path id="_7" class="fil0" d="M25.55 31.36c0.28,-0.46 0.65,-0.82 1.1,-1.08 0.45,-0.26 0.97,-0.39 1.55,-0.39l0 2.29 -0.58 0c-0.69,0 -1.2,0.16 -1.55,0.48 -0.35,0.32 -0.52,0.88 -0.52,1.68l0 4.3 -2.18 0 0 -8.63 2.18 0 0 1.34z"/>
  <path id="_8" class="fil0" d="M37.69 34.15c0,0.31 -0.02,0.59 -0.06,0.84l-6.31 0c0.05,0.62 0.27,1.11 0.65,1.46 0.38,0.35 0.86,0.53 1.42,0.53 0.81,0 1.39,-0.35 1.73,-1.04l2.35 0c-0.25,0.83 -0.73,1.51 -1.43,2.05 -0.71,0.53 -1.57,0.8 -2.6,0.8 -0.83,0 -1.58,-0.18 -2.24,-0.55 -0.66,-0.37 -1.17,-0.89 -1.54,-1.57 -0.37,-0.68 -0.55,-1.45 -0.55,-2.34 0,-0.89 0.18,-1.68 0.55,-2.35 0.36,-0.68 0.87,-1.19 1.53,-1.56 0.65,-0.36 1.41,-0.55 2.26,-0.55 0.82,0 1.56,0.18 2.2,0.53 0.65,0.35 1.15,0.85 1.51,1.5 0.36,0.65 0.54,1.39 0.54,2.24zm-2.26 -0.62c-0.01,-0.56 -0.21,-1.01 -0.61,-1.35 -0.39,-0.34 -0.88,-0.51 -1.45,-0.51 -0.54,0 -0.99,0.16 -1.36,0.49 -0.37,0.33 -0.59,0.78 -0.68,1.36l4.1 0z"/>
  <path id="_9" class="fil0" d="M38.72 34.3c0,-0.87 0.17,-1.65 0.52,-2.32 0.35,-0.68 0.82,-1.19 1.42,-1.56 0.6,-0.36 1.26,-0.55 2,-0.55 0.64,0 1.21,0.13 1.69,0.39 0.48,0.26 0.87,0.59 1.16,0.98l0 -1.23 2.2 0 0 8.63 -2.2 0 0 -1.26c-0.28,0.41 -0.67,0.74 -1.16,1.01 -0.49,0.26 -1.06,0.4 -1.71,0.4 -0.73,0 -1.39,-0.19 -1.99,-0.56 -0.6,-0.37 -1.07,-0.9 -1.42,-1.58 -0.35,-0.68 -0.52,-1.46 -0.52,-2.35zm6.79 0.03c0,-0.53 -0.1,-0.98 -0.31,-1.36 -0.21,-0.38 -0.49,-0.67 -0.84,-0.87 -0.35,-0.2 -0.73,-0.3 -1.14,-0.3 -0.41,0 -0.78,0.1 -1.12,0.3 -0.34,0.2 -0.62,0.49 -0.83,0.86 -0.21,0.38 -0.32,0.83 -0.32,1.35 0,0.52 0.11,0.97 0.32,1.36 0.21,0.39 0.49,0.69 0.84,0.9 0.35,0.21 0.72,0.31 1.11,0.31 0.4,0 0.78,-0.1 1.14,-0.3 0.35,-0.2 0.63,-0.49 0.84,-0.87 0.21,-0.38 0.31,-0.83 0.31,-1.36z"/>
  <path id="_10" class="fil0" d="M52.38 31.81l0 4.18c0,0.29 0.07,0.5 0.21,0.63 0.14,0.13 0.38,0.2 0.71,0.2l1.01 0 0 1.84 -1.37 0c-1.84,0 -2.76,-0.89 -2.76,-2.68l0 -4.16 -1.03 0 0 -1.79 1.03 0 0 -2.14 2.2 0 0 2.14 1.93 0 0 1.79 -1.93 0z"/>
  <path id="_11" class="fil0" d="M67.17 31.05c-0.25,-0.46 -0.59,-0.81 -1.03,-1.04 -0.44,-0.24 -0.95,-0.36 -1.53,-0.36 -0.64,0 -1.22,0.15 -1.71,0.44 -0.5,0.29 -0.89,0.71 -1.17,1.25 -0.28,0.54 -0.42,1.16 -0.42,1.87 0,0.73 0.14,1.36 0.43,1.9 0.29,0.54 0.68,0.96 1.19,1.25 0.51,0.29 1.1,0.44 1.78,0.44 0.83,0 1.51,-0.22 2.04,-0.66 0.53,-0.44 0.88,-1.06 1.04,-1.85l-3.74 0 0 -1.67 5.89 0 0 1.9c-0.15,0.76 -0.46,1.46 -0.93,2.1 -0.48,0.64 -1.09,1.16 -1.85,1.55 -0.75,0.39 -1.6,0.58 -2.53,0.58 -1.05,0 -2,-0.24 -2.84,-0.71 -0.85,-0.47 -1.51,-1.13 -1.99,-1.97 -0.48,-0.84 -0.72,-1.8 -0.72,-2.87 0,-1.07 0.24,-2.03 0.72,-2.87 0.48,-0.85 1.15,-1.51 1.99,-1.98 0.85,-0.47 1.79,-0.71 2.83,-0.71 1.23,0 2.29,0.3 3.19,0.9 0.9,0.6 1.53,1.44 1.87,2.52l-2.51 0z"/>
  <path id="_12" class="fil0" d="M79.59 34.15c0,0.31 -0.02,0.59 -0.06,0.84l-6.31 0c0.05,0.62 0.27,1.11 0.65,1.46 0.38,0.35 0.86,0.53 1.42,0.53 0.81,0 1.39,-0.35 1.73,-1.04l2.35 0c-0.25,0.83 -0.73,1.51 -1.43,2.05 -0.71,0.53 -1.57,0.8 -2.6,0.8 -0.83,0 -1.58,-0.18 -2.24,-0.55 -0.66,-0.37 -1.17,-0.89 -1.54,-1.57 -0.37,-0.68 -0.55,-1.45 -0.55,-2.34 0,-0.89 0.18,-1.68 0.55,-2.35 0.36,-0.68 0.87,-1.19 1.53,-1.56 0.65,-0.36 1.41,-0.55 2.26,-0.55 0.82,0 1.56,0.18 2.2,0.53 0.65,0.35 1.15,0.85 1.51,1.5 0.36,0.65 0.54,1.39 0.54,2.24zm-2.26 -0.62c-0.01,-0.56 -0.21,-1.01 -0.61,-1.35 -0.39,-0.34 -0.88,-0.51 -1.45,-0.51 -0.54,0 -0.99,0.16 -1.36,0.49 -0.37,0.33 -0.59,0.78 -0.68,1.36l4.1 0z"/>
  <path id="_13" class="fil0" d="M85.01 38.79c-0.83,0 -1.58,-0.18 -2.24,-0.55 -0.66,-0.37 -1.19,-0.89 -1.57,-1.57 -0.38,-0.68 -0.57,-1.45 -0.57,-2.34 0,-0.88 0.19,-1.66 0.58,-2.34 0.39,-0.68 0.92,-1.2 1.6,-1.57 0.68,-0.37 1.43,-0.55 2.26,-0.55 0.83,0 1.58,0.18 2.26,0.55 0.68,0.37 1.21,0.89 1.6,1.57 0.39,0.68 0.58,1.45 0.58,2.34 0,0.88 -0.2,1.66 -0.6,2.34 -0.4,0.68 -0.94,1.2 -1.62,1.57 -0.68,0.37 -1.44,0.55 -2.28,0.55zm0 -1.9c0.39,0 0.77,-0.1 1.11,-0.29 0.35,-0.19 0.63,-0.48 0.83,-0.86 0.21,-0.38 0.31,-0.85 0.31,-1.4 0,-0.82 -0.22,-1.45 -0.65,-1.89 -0.43,-0.44 -0.96,-0.66 -1.58,-0.66 -0.62,0 -1.15,0.22 -1.57,0.66 -0.42,0.44 -0.63,1.07 -0.63,1.89 0,0.82 0.21,1.45 0.62,1.89 0.41,0.44 0.93,0.66 1.55,0.66z"/>
  <path id="_14" class="fil0" d="M93.3 31.36c0.28,-0.46 0.65,-0.82 1.1,-1.08 0.45,-0.26 0.97,-0.39 1.55,-0.39l0 2.29 -0.58 0c-0.69,0 -1.2,0.16 -1.55,0.48 -0.35,0.32 -0.52,0.88 -0.52,1.68l0 4.3 -2.18 0 0 -8.63 2.18 0 0 1.34z"/>
  <path id="_15" class="fil0" d="M100.8 29.88c0.64,0 1.21,0.13 1.7,0.38 0.49,0.25 0.87,0.58 1.15,0.99l0 -1.23 2.2 0 0 8.7c0,0.8 -0.16,1.51 -0.48,2.14 -0.32,0.63 -0.81,1.13 -1.45,1.5 -0.64,0.37 -1.42,0.55 -2.34,0.55 -1.23,0 -2.23,-0.29 -3.02,-0.86 -0.78,-0.57 -1.23,-1.35 -1.33,-2.34l2.17 0c0.11,0.39 0.36,0.71 0.74,0.94 0.38,0.23 0.84,0.35 1.38,0.35 0.63,0 1.15,-0.19 1.54,-0.57 0.39,-0.38 0.59,-0.95 0.59,-1.72l0 -1.34c-0.28,0.41 -0.67,0.74 -1.16,1.01 -0.49,0.27 -1.06,0.4 -1.69,0.4 -0.73,0 -1.39,-0.19 -1.99,-0.56 -0.6,-0.37 -1.08,-0.9 -1.43,-1.58 -0.35,-0.68 -0.52,-1.46 -0.52,-2.35 0,-0.87 0.17,-1.65 0.52,-2.32 0.35,-0.68 0.82,-1.19 1.42,-1.56 0.6,-0.36 1.26,-0.55 2,-0.55zm2.85 4.46c0,-0.53 -0.1,-0.98 -0.31,-1.36 -0.21,-0.38 -0.49,-0.67 -0.84,-0.87 -0.35,-0.2 -0.73,-0.3 -1.14,-0.3 -0.41,0 -0.78,0.1 -1.12,0.3 -0.34,0.2 -0.62,0.49 -0.83,0.86 -0.21,0.38 -0.32,0.83 -0.32,1.35 0,0.52 0.11,0.97 0.32,1.36 0.21,0.39 0.49,0.69 0.84,0.9 0.35,0.21 0.72,0.31 1.11,0.31 0.4,0 0.78,-0.1 1.14,-0.3 0.35,-0.2 0.63,-0.49 0.84,-0.87 0.21,-0.38 0.31,-0.83 0.31,-1.36z"/>
  <path id="_16" class="fil0" d="M116.01 34.15c0,0.31 -0.02,0.59 -0.06,0.84l-6.31 0c0.05,0.62 0.27,1.11 0.65,1.46 0.38,0.35 0.86,0.53 1.42,0.53 0.81,0 1.39,-0.35 1.73,-1.04l2.35 0c-0.25,0.83 -0.73,1.51 -1.43,2.05 -0.71,0.53 -1.57,0.8 -2.6,0.8 -0.83,0 -1.58,-0.18 -2.24,-0.55 -0.66,-0.37 -1.17,-0.89 -1.54,-1.57 -0.37,-0.68 -0.55,-1.45 -0.55,-2.34 0,-0.89 0.18,-1.68 0.55,-2.35 0.36,-0.68 0.87,-1.19 1.53,-1.56 0.65,-0.36 1.41,-0.55 2.26,-0.55 0.82,0 1.56,0.18 2.2,0.53 0.65,0.35 1.15,0.85 1.51,1.5 0.36,0.65 0.54,1.39 0.54,2.24zm-2.26 -0.62c-0.01,-0.56 -0.21,-1.01 -0.61,-1.35 -0.39,-0.34 -0.88,-0.51 -1.45,-0.51 -0.54,0 -0.99,0.16 -1.36,0.49 -0.37,0.33 -0.59,0.78 -0.68,1.36l4.1 0z"/>
  <path id="_17" class="fil0" d="M5.8 58.51c-0.76,0 -1.44,-0.13 -2.05,-0.39 -0.61,-0.26 -1.09,-0.63 -1.44,-1.12 -0.35,-0.49 -0.53,-1.06 -0.55,-1.73l2.34 0c0.03,0.45 0.19,0.8 0.48,1.06 0.29,0.26 0.68,0.39 1.18,0.39 0.51,0 0.91,-0.12 1.2,-0.37 0.29,-0.24 0.44,-0.56 0.44,-0.96 0,-0.32 -0.1,-0.59 -0.3,-0.79 -0.2,-0.21 -0.44,-0.37 -0.74,-0.49 -0.3,-0.12 -0.7,-0.25 -1.22,-0.4 -0.71,-0.21 -1.28,-0.41 -1.72,-0.62 -0.44,-0.2 -0.82,-0.51 -1.14,-0.92 -0.32,-0.41 -0.48,-0.96 -0.48,-1.64 0,-0.64 0.16,-1.21 0.48,-1.68 0.32,-0.48 0.77,-0.84 1.36,-1.1 0.58,-0.25 1.25,-0.38 1.99,-0.38 1.12,0 2.03,0.27 2.73,0.82 0.7,0.55 1.09,1.31 1.16,2.28l-2.4 0c-0.02,-0.37 -0.18,-0.68 -0.48,-0.93 -0.3,-0.24 -0.69,-0.37 -1.18,-0.37 -0.43,0 -0.77,0.11 -1.02,0.33 -0.25,0.22 -0.38,0.53 -0.38,0.95 0,0.29 0.1,0.53 0.29,0.72 0.19,0.19 0.43,0.35 0.72,0.47 0.29,0.12 0.69,0.26 1.21,0.41 0.71,0.21 1.28,0.42 1.73,0.62 0.45,0.21 0.83,0.52 1.15,0.93 0.32,0.42 0.48,0.96 0.48,1.64 0,0.58 -0.15,1.12 -0.45,1.62 -0.3,0.5 -0.74,0.9 -1.32,1.19 -0.58,0.3 -1.27,0.44 -2.07,0.44z"/>
  <path id="_18" class="fil0" d="M14.08 51.56l0 4.18c0,0.29 0.07,0.5 0.21,0.63 0.14,0.13 0.38,0.2 0.71,0.2l1.01 0 0 1.84 -1.37 0c-1.84,0 -2.76,-0.89 -2.76,-2.68l0 -4.16 -1.03 0 0 -1.79 1.03 0 0 -2.14 2.2 0 0 2.14 1.93 0 0 1.79 -1.93 0z"/>
  <path id="_19" class="fil0" d="M19.77 51.11c0.28,-0.46 0.65,-0.82 1.1,-1.08 0.45,-0.26 0.97,-0.39 1.55,-0.39l0 2.29 -0.58 0c-0.69,0 -1.2,0.16 -1.55,0.48 -0.35,0.32 -0.52,0.88 -0.52,1.68l0 4.3 -2.18 0 0 -8.63 2.18 0 0 1.34z"/>
  <path id="_20" class="fil0" d="M31.91 53.9c0,0.31 -0.02,0.59 -0.06,0.84l-6.31 0c0.05,0.62 0.27,1.11 0.65,1.46 0.38,0.35 0.86,0.53 1.42,0.53 0.81,0 1.39,-0.35 1.73,-1.04l2.35 0c-0.25,0.83 -0.73,1.51 -1.43,2.05 -0.71,0.53 -1.57,0.8 -2.6,0.8 -0.83,0 -1.58,-0.18 -2.24,-0.55 -0.66,-0.37 -1.17,-0.89 -1.54,-1.57 -0.37,-0.68 -0.55,-1.45 -0.55,-2.34 0,-0.89 0.18,-1.68 0.55,-2.35 0.36,-0.68 0.87,-1.19 1.53,-1.56 0.65,-0.36 1.41,-0.55 2.26,-0.55 0.82,0 1.56,0.18 2.2,0.53 0.65,0.35 1.15,0.85 1.51,1.5 0.36,0.65 0.54,1.39 0.54,2.24zm-2.26 -0.62c-0.01,-0.56 -0.21,-1.01 -0.61,-1.35 -0.39,-0.34 -0.88,-0.51 -1.45,-0.51 -0.54,0 -0.99,0.16 -1.36,0.49 -0.37,0.33 -0.59,0.78 -0.68,1.36l4.1 0z"/>
  <path id="_21" class="fil0" d="M41.52 53.9c0,0.31 -0.02,0.59 -0.06,0.84l-6.31 0c0.05,0.62 0.27,1.11 0.65,1.46 0.38,0.35 0.86,0.53 1.42,0.53 0.81,0 1.39,-0.35 1.73,-1.04l2.35 0c-0.25,0.83 -0.73,1.51 -1.43,2.05 -0.71,0.53 -1.57,0.8 -2.6,0.8 -0.83,0 -1.58,-0.18 -2.24,-0.55 -0.66,-0.37 -1.17,-0.89 -1.54,-1.57 -0.37,-0.68 -0.55,-1.45 -0.55,-2.34 0,-0.89 0.18,-1.68 0.55,-2.35 0.36,-0.68 0.87,-1.19 1.53,-1.56 0.65,-0.36 1.41,-0.55 2.26,-0.55 0.82,0 1.56,0.18 2.2,0.53 0.65,0.35 1.15,0.85 1.51,1.5 0.36,0.65 0.54,1.39 0.54,2.24zm-2.26 -0.62c-0.01,-0.56 -0.21,-1.01 -0.61,-1.35 -0.39,-0.34 -0.88,-0.51 -1.45,-0.51 -0.54,0 -0.99,0.16 -1.36,0.49 -0.37,0.33 -0.59,0.78 -0.68,1.36l4.1 0z"/>
  <path id="_22" class="fil0" d="M45.65 51.56l0 4.18c0,0.29 0.07,0.5 0.21,0.63 0.14,0.13 0.38,0.2 0.71,0.2l1.01 0 0 1.84 -1.37 0c-1.84,0 -2.76,-0.89 -2.76,-2.68l0 -4.16 -1.03 0 0 -1.79 1.03 0 0 -2.14 2.2 0 0 2.14 1.93 0 0 1.79 -1.93 0z"/>
  <polygon id="_23" class="fil0" points="50.75,56.44 49,60.63 48.05,60.63 49.19,56.44 "/>
  <polygon id="_24" class="fil0" points="57.95,57.25 61.75,57.25 61.75,58.4 56.53,58.4 56.53,47.54 57.95,47.54 "/>
  <path id="_25" class="fil0" d="M66.98 58.54c-0.8,0 -1.52,-0.18 -2.17,-0.55 -0.65,-0.36 -1.16,-0.88 -1.53,-1.55 -0.37,-0.67 -0.55,-1.45 -0.55,-2.33 0,-0.87 0.19,-1.64 0.57,-2.31 0.38,-0.67 0.9,-1.18 1.55,-1.54 0.65,-0.36 1.39,-0.54 2.2,-0.54 0.81,0 1.54,0.18 2.2,0.54 0.65,0.36 1.17,0.87 1.55,1.53 0.38,0.66 0.57,1.44 0.57,2.32 0,0.88 -0.19,1.66 -0.58,2.33 -0.39,0.67 -0.92,1.19 -1.58,1.55 -0.66,0.36 -1.4,0.55 -2.21,0.55zm0 -1.25c0.51,0 0.99,-0.12 1.43,-0.36 0.45,-0.24 0.81,-0.6 1.08,-1.08 0.28,-0.48 0.41,-1.06 0.41,-1.75 0,-0.69 -0.14,-1.27 -0.41,-1.75 -0.27,-0.48 -0.62,-0.83 -1.06,-1.07 -0.44,-0.23 -0.91,-0.35 -1.42,-0.35 -0.52,0 -0.99,0.12 -1.43,0.35 -0.43,0.23 -0.78,0.59 -1.04,1.07 -0.26,0.48 -0.39,1.06 -0.39,1.75 0,0.7 0.13,1.28 0.38,1.76 0.25,0.48 0.59,0.83 1.02,1.07 0.43,0.23 0.89,0.35 1.4,0.35z"/>
  <path id="_26" class="fil0" d="M77.39 49.71c1.04,0 1.88,0.31 2.52,0.94 0.64,0.63 0.97,1.53 0.97,2.72l0 5.03 -1.4 0 0 -4.83c0,-0.85 -0.21,-1.5 -0.64,-1.96 -0.43,-0.45 -1.01,-0.68 -1.75,-0.68 -0.75,0 -1.34,0.23 -1.78,0.7 -0.44,0.47 -0.66,1.15 -0.66,2.04l0 4.72 -1.42 0 0 -8.54 1.42 0 0 1.22c0.28,-0.44 0.66,-0.77 1.15,-1.01 0.48,-0.24 1.02,-0.36 1.6,-0.36z"/>
  <path id="_27" class="fil0" d="M82.68 54.1c0,-0.87 0.18,-1.64 0.53,-2.3 0.35,-0.66 0.84,-1.17 1.46,-1.53 0.62,-0.36 1.31,-0.55 2.08,-0.55 0.66,0 1.28,0.15 1.85,0.46 0.57,0.31 1.01,0.71 1.31,1.21l0 -4.52 1.43 0 0 11.53 -1.43 0 0 -1.6c-0.28,0.51 -0.7,0.93 -1.25,1.25 -0.55,0.33 -1.19,0.49 -1.93,0.49 -0.76,0 -1.45,-0.19 -2.06,-0.56 -0.62,-0.37 -1.1,-0.9 -1.46,-1.57 -0.35,-0.68 -0.53,-1.44 -0.53,-2.31zm7.23 0.02c0,-0.64 -0.13,-1.21 -0.39,-1.68 -0.26,-0.48 -0.61,-0.84 -1.05,-1.1 -0.44,-0.25 -0.93,-0.38 -1.46,-0.38 -0.53,0 -1.01,0.12 -1.45,0.37 -0.44,0.25 -0.78,0.61 -1.04,1.09 -0.26,0.48 -0.39,1.04 -0.39,1.68 0,0.65 0.13,1.22 0.39,1.71 0.26,0.48 0.61,0.85 1.04,1.11 0.44,0.25 0.92,0.38 1.45,0.38 0.53,0 1.02,-0.13 1.46,-0.38 0.44,-0.25 0.79,-0.62 1.05,-1.11 0.26,-0.48 0.39,-1.05 0.39,-1.69z"/>
  <path id="_28" class="fil0" d="M97.47 58.54c-0.8,0 -1.52,-0.18 -2.17,-0.55 -0.65,-0.36 -1.16,-0.88 -1.53,-1.55 -0.37,-0.67 -0.55,-1.45 -0.55,-2.33 0,-0.87 0.19,-1.64 0.57,-2.31 0.38,-0.67 0.9,-1.18 1.55,-1.54 0.65,-0.36 1.39,-0.54 2.2,-0.54 0.81,0 1.54,0.18 2.2,0.54 0.65,0.36 1.17,0.87 1.55,1.53 0.38,0.66 0.57,1.44 0.57,2.32 0,0.88 -0.19,1.66 -0.58,2.33 -0.39,0.67 -0.92,1.19 -1.58,1.55 -0.66,0.36 -1.4,0.55 -2.21,0.55zm0 -1.25c0.51,0 0.99,-0.12 1.43,-0.36 0.45,-0.24 0.81,-0.6 1.08,-1.08 0.28,-0.48 0.41,-1.06 0.41,-1.75 0,-0.69 -0.14,-1.27 -0.41,-1.75 -0.27,-0.48 -0.62,-0.83 -1.06,-1.07 -0.44,-0.23 -0.91,-0.35 -1.42,-0.35 -0.52,0 -0.99,0.12 -1.43,0.35 -0.43,0.23 -0.78,0.59 -1.04,1.07 -0.26,0.48 -0.39,1.06 -0.39,1.75 0,0.7 0.13,1.28 0.38,1.76 0.25,0.48 0.59,0.83 1.02,1.07 0.43,0.23 0.89,0.35 1.4,0.35z"/>
  <path id="_29" class="fil0" d="M107.87 49.71c1.04,0 1.88,0.31 2.52,0.94 0.64,0.63 0.97,1.53 0.97,2.72l0 5.03 -1.4 0 0 -4.83c0,-0.85 -0.21,-1.5 -0.64,-1.96 -0.43,-0.45 -1.01,-0.68 -1.75,-0.68 -0.75,0 -1.34,0.23 -1.78,0.7 -0.44,0.47 -0.66,1.15 -0.66,2.04l0 4.72 -1.42 0 0 -8.54 1.42 0 0 1.22c0.28,-0.44 0.66,-0.77 1.15,-1.01 0.48,-0.24 1.02,-0.36 1.6,-0.36z"/>
  <polygon id="_30" class="fil0" points="115.15,56.44 113.41,60.63 112.46,60.63 113.59,56.44 "/>
  <path id="_31" class="fil0" d="M5.62 78.26c-0.72,0 -1.36,-0.13 -1.92,-0.38 -0.57,-0.25 -1.01,-0.61 -1.33,-1.06 -0.32,-0.45 -0.49,-0.97 -0.5,-1.57l1.51 0c0.05,0.51 0.26,0.94 0.63,1.29 0.37,0.35 0.91,0.52 1.61,0.52 0.68,0 1.21,-0.17 1.6,-0.51 0.39,-0.34 0.58,-0.77 0.58,-1.3 0,-0.42 -0.11,-0.75 -0.34,-1.01 -0.23,-0.26 -0.51,-0.46 -0.86,-0.59 -0.34,-0.14 -0.81,-0.28 -1.39,-0.44 -0.72,-0.19 -1.29,-0.37 -1.72,-0.56 -0.43,-0.19 -0.8,-0.48 -1.11,-0.88 -0.31,-0.4 -0.46,-0.94 -0.46,-1.61 0,-0.59 0.15,-1.12 0.45,-1.57 0.3,-0.46 0.72,-0.81 1.27,-1.06 0.55,-0.25 1.17,-0.37 1.88,-0.37 1.02,0 1.85,0.25 2.5,0.76 0.65,0.51 1.02,1.18 1.1,2.03l-1.56 0c-0.05,-0.42 -0.27,-0.78 -0.65,-1.1 -0.38,-0.32 -0.89,-0.48 -1.53,-0.48 -0.59,0 -1.08,0.15 -1.45,0.46 -0.37,0.31 -0.56,0.74 -0.56,1.29 0,0.39 0.11,0.72 0.33,0.97 0.22,0.25 0.5,0.44 0.83,0.57 0.33,0.13 0.79,0.28 1.38,0.44 0.72,0.2 1.29,0.39 1.73,0.58 0.44,0.19 0.81,0.49 1.12,0.89 0.31,0.4 0.47,0.94 0.47,1.63 0,0.53 -0.14,1.03 -0.42,1.5 -0.28,0.47 -0.7,0.85 -1.25,1.14 -0.55,0.29 -1.2,0.44 -1.95,0.44z"/>
  <polygon id="_32" class="fil0" points="24.97,67.29 21.82,78.15 20.23,78.15 17.71,69.41 15.09,78.15 13.52,78.17 10.48,67.29 11.99,67.29 14.36,76.5 16.98,67.29 18.57,67.29 21.06,76.47 23.44,67.29 "/>
  <polygon id="_33" class="fil0" points="25.92,68.18 25.92,66.88 28.85,66.88 28.85,78.15 27.42,78.15 27.42,68.18 "/>
  <path id="_34" class="fil0" d="M38.78 70.47c0,0.9 -0.31,1.65 -0.93,2.25 -0.62,0.6 -1.56,0.9 -2.83,0.9l-2.09 0 0 4.53 -1.42 0 0 -10.86 3.51 0c1.23,0 2.16,0.3 2.8,0.89 0.64,0.59 0.96,1.36 0.96,2.29zm-3.76 1.98c0.79,0 1.37,-0.17 1.75,-0.51 0.37,-0.34 0.56,-0.83 0.56,-1.46 0,-1.34 -0.77,-2.01 -2.31,-2.01l-2.09 0 0 3.99 2.09 0z"/>
  <path id="_35" class="fil0" d="M44.44 69.72c0.07,-0.96 0.44,-1.7 1.11,-2.24 0.66,-0.54 1.53,-0.81 2.59,-0.81 0.71,0 1.32,0.13 1.83,0.38 0.51,0.25 0.9,0.6 1.17,1.04 0.26,0.44 0.4,0.93 0.4,1.48 0,0.64 -0.18,1.2 -0.55,1.67 -0.37,0.47 -0.85,0.77 -1.44,0.9l0 0.08c0.68,0.17 1.21,0.49 1.61,0.98 0.39,0.49 0.59,1.13 0.59,1.92 0,0.59 -0.14,1.12 -0.41,1.6 -0.27,0.47 -0.68,0.84 -1.22,1.11 -0.54,0.27 -1.19,0.4 -1.95,0.4 -1.1,0 -2.01,-0.29 -2.71,-0.86 -0.71,-0.58 -1.1,-1.39 -1.18,-2.45l1.37 0c0.07,0.62 0.33,1.13 0.76,1.53 0.44,0.39 1.02,0.59 1.75,0.59 0.73,0 1.28,-0.19 1.66,-0.57 0.38,-0.38 0.57,-0.87 0.57,-1.47 0,-0.78 -0.26,-1.34 -0.78,-1.68 -0.52,-0.34 -1.3,-0.51 -2.35,-0.51l-0.36 0 0 -1.18 0.37 0c0.96,-0.01 1.68,-0.17 2.17,-0.48 0.49,-0.31 0.73,-0.78 0.73,-1.43 0,-0.55 -0.18,-0.99 -0.54,-1.32 -0.36,-0.33 -0.87,-0.5 -1.53,-0.5 -0.64,0 -1.16,0.17 -1.56,0.5 -0.39,0.33 -0.63,0.78 -0.7,1.34l-1.39 0z"/>
  <path id="_36" class="fil0" d="M60.3 75.74l-4.74 0 -0.87 2.42 -1.5 0 3.93 -10.8 1.64 0 3.91 10.8 -1.5 0 -0.87 -2.42zm-0.41 -1.15l-1.96 -5.49 -1.96 5.49 3.93 0z"/>
  <path id="_37" class="fil0" d="M70.8 75.74l-4.74 0 -0.87 2.42 -1.5 0 3.93 -10.8 1.64 0 3.91 10.8 -1.5 0 -0.87 -2.42zm-0.41 -1.15l-1.96 -5.49 -1.96 5.49 3.93 0z"/>
  <g id="_3253808053648">
   <path class="fil1" d="M12.5 6.25c0,3.45 -6.25,12.56 -6.25,12.56 0,0 -6.25,-9.11 -6.25,-12.56 0,-3.45 2.8,-6.25 6.25,-6.25 3.45,0 6.25,2.8 6.25,6.25z"/>
   <path class="fil2" d="M9.19 5.97c0,1.62 -1.32,2.94 -2.94,2.94 -1.62,0 -2.94,-1.32 -2.94,-2.94 0,-1.62 1.32,-2.94 2.94,-2.94 1.62,0 2.94,1.32 2.94,2.94z"/>
   <path class="fil3" d="M1.07 6.8c0,-3 2.43,-5.43 5.43,-5.43 1.75,0 3.31,0.83 4.3,2.12 -0.94,-1.63 -2.7,-2.72 -4.71,-2.72 -3,0 -5.43,2.43 -5.43,5.43 0,1.25 0.42,2.39 1.13,3.31 -0.46,-0.8 -0.72,-1.72 -0.72,-2.71z"/>
   <path class="fil4" d="M4.78 16.42c0.85,1.43 1.47,2.39 1.47,2.39 0,0 6.25,-9.11 6.25,-12.56 0,-0.18 -0.01,-0.36 -0.02,-0.54 -0.25,0.96 -0.6,1.89 -1.02,2.78 -1.18,2.46 -2.93,4.04 -4.8,6.04 -0.6,0.64 -1.23,1.28 -1.88,1.88z"/>
  </g>
 </g>
</svg>
