<?xml version="1.0" encoding="UTF-8"?>
<!DOCTYPE svg PUBLIC "-//W3C//DTD SVG 1.1//EN" "http://www.w3.org/Graphics/SVG/1.1/DTD/svg11.dtd">
<!-- Creator: CorelDRAW 2021 (64-Bit) -->
<svg xmlns="http://www.w3.org/2000/svg" xml:space="preserve" width="183.492mm" height="72.0739mm" version="1.1" style="shape-rendering:geometricPrecision; text-rendering:geometricPrecision; image-rendering:optimizeQuality; fill-rule:evenodd; clip-rule:evenodd"
viewBox="0 0 2854.6 1121.26"
 xmlns:xlink="http://www.w3.org/1999/xlink"
 xmlns:xodm="http://www.corel.com/coreldraw/odm/2003">
 <defs>
  <style type="text/css">
   <![CDATA[
    .str0 {stroke:black;stroke-width:1.19;stroke-linecap:round;stroke-linejoin:round;stroke-miterlimit:22.9256}
    .fil2 {fill:none;fill-rule:nonzero}
    .fil1 {fill:black;fill-rule:nonzero}
    .fil0 {fill:url(#id0)}
   ]]>
  </style>
  <linearGradient id="id0" gradientUnits="userSpaceOnUse" x1="1207.3" y1="-100.82" x2="1647.3" y2="1222.08">
   <stop offset="0" style="stop-opacity:1; stop-color:#936729"/>
   <stop offset="0.239216" style="stop-opacity:1; stop-color:#FBF6A1"/>
   <stop offset="0.388235" style="stop-opacity:1; stop-color:#FBF6A1"/>
   <stop offset="0.568627" style="stop-opacity:1; stop-color:#F4E1AE"/>
   <stop offset="1" style="stop-opacity:1; stop-color:#936729"/>
  </linearGradient>
 </defs>
 <g id="Layer_x0020_1">
  <metadata id="CorelCorpID_0Corel-Layer"/>
  <path class="fil0" d="M-0 0l2854.6 0 0 560.63c0,308.35 -252.28,560.63 -560.63,560.63l-1733.34 0c-308.35,0 -560.63,-252.28 -560.63,-560.63l0 -560.63z"/>
  <path class="fil1" d="M1265.67 550.07l0 97.42 -39.24 -36.5c-2.74,6.77 -6.5,12.81 -11.25,18.11 -4.21,4.57 -9.74,8.69 -16.6,12.35 -6.86,3.66 -15.5,5.49 -25.93,5.49 -8.78,0 -17.47,-1.83 -26.07,-5.49 -8.6,-3.66 -16.33,-9.06 -23.19,-16.19 -6.86,-7.13 -12.44,-16.1 -16.74,-26.89 -4.3,-10.79 -6.45,-23.32 -6.45,-37.59 0,-12.99 2.06,-24.83 6.17,-35.54 4.11,-10.7 9.97,-19.85 17.56,-27.44 7.59,-7.59 16.79,-13.45 27.58,-17.56 10.79,-4.12 22.78,-6.17 35.95,-6.17 7.68,0 15.05,0.78 22.09,2.33 7.04,1.56 13.58,3.66 19.62,6.31 6.04,2.65 11.39,5.76 16.05,9.33 4.67,3.57 8.28,7.36 10.84,11.39 2.93,3.48 4.39,7.5 4.39,12.08l0 0.27 0 0.27c-0.37,5.31 -2.42,9.83 -6.17,13.58 -3.75,3.75 -8.28,5.63 -13.58,5.63 -5.49,0 -10.15,-1.92 -14,-5.76 -3.84,-3.84 -5.76,-8.51 -5.76,-13.99 0,-4.21 -0.55,-8.55 -1.65,-13.04 -1.1,-4.48 -2.93,-8.6 -5.49,-12.35 -2.56,-3.75 -6.08,-6.82 -10.56,-9.19 -4.48,-2.38 -10.11,-3.57 -16.88,-3.57 -6.4,0 -12.35,1.69 -17.84,5.08 -5.49,3.38 -10.29,8.23 -14.41,14.54 -4.12,6.31 -7.5,13.95 -10.15,22.91 -2.65,8.96 -4.25,19.02 -4.8,30.19l126.5 0zm-126.78 9.6c0,16.47 2.24,30.05 6.72,40.75 4.48,10.7 10.06,18.8 16.74,24.28 6.68,5.49 13.9,8.46 21.68,8.92 7.77,0.46 15,-1.24 21.68,-5.08 6.68,-3.84 12.26,-9.7 16.74,-17.56 4.48,-7.87 6.72,-17.47 6.72,-28.81l0 -28.81 -90.28 0 0 6.31z"/>
  <path id="_1" class="fil1" d="M1453.09 560.49c0,14.45 -2.47,27.12 -7.41,38.01 -4.94,10.89 -11.52,19.94 -19.76,27.17 -8.23,7.23 -17.56,12.67 -27.99,16.33 -10.43,3.66 -21.04,5.49 -31.83,5.49 -10.79,0 -21.4,-1.83 -31.83,-5.49 -10.43,-3.66 -19.76,-9.1 -27.99,-16.33 -8.23,-7.23 -14.82,-16.28 -19.76,-27.17 -4.94,-10.88 -7.41,-23.55 -7.41,-38.01 0,-14.45 2.47,-27.07 7.41,-37.87 4.94,-10.79 11.53,-19.8 19.76,-27.03 8.23,-7.22 17.56,-12.67 27.99,-16.33 10.43,-3.66 21.04,-5.49 31.83,-5.49 10.79,0 21.4,1.83 31.83,5.49 10.43,3.66 19.76,9.1 27.99,16.33 8.23,7.23 14.82,16.24 19.76,27.03 4.94,10.79 7.41,23.42 7.41,37.87zm-37.04 0c0,-18.66 -2.47,-34.16 -7.41,-46.51 -4.94,-12.35 -11.11,-21.63 -18.52,-27.85 -7.41,-6.22 -15.41,-9.33 -24.01,-9.33 -8.6,0 -16.6,3.11 -24.01,9.33 -7.41,6.22 -13.58,15.5 -18.52,27.85 -4.94,12.35 -7.41,27.85 -7.41,46.51 0,18.66 2.47,34.21 7.41,46.65 4.94,12.44 11.11,21.77 18.52,27.99 7.41,6.22 15.41,9.33 24.01,9.33 8.6,0 16.6,-3.11 24.01,-9.33 7.41,-6.22 13.58,-15.55 18.52,-27.99 4.94,-12.44 7.41,-27.99 7.41,-46.65z"/>
  <path id="_2" class="fil1" d="M1596.89 645.56l-132.81 0 0 -1.37c0.55,-0.91 1.19,-2.56 1.92,-4.94 0.55,-2.01 1.05,-5.08 1.51,-9.19 0.46,-4.12 0.69,-9.65 0.69,-16.6l0 -104c0,-6.95 -0.23,-12.53 -0.69,-16.74 -0.46,-4.21 -0.96,-7.32 -1.51,-9.33 -0.73,-2.38 -1.37,-3.93 -1.92,-4.67l0 -1.65 44.73 0 0 1.65c-0.73,0.73 -1.46,2.29 -2.2,4.67 -0.55,2.01 -1.01,5.12 -1.37,9.33 -0.37,4.21 -0.55,9.79 -0.55,16.74l0 132.81 21.41 0c13.9,0 25.43,-1.69 34.58,-5.08 9.15,-3.38 16.37,-7.18 21.68,-11.39 6.22,-4.76 11.07,-10.24 14.54,-16.46l1.37 0 0 36.22 -1.37 0z"/>
  <path id="_3" class="fil1" d="M1649.57 645.56l-40.61 0 0 -1.37c0.55,-0.91 1.19,-2.56 1.92,-4.94 0.55,-2.01 1.05,-5.08 1.51,-9.19 0.46,-4.12 0.69,-9.65 0.69,-16.6l0 -104c0,-6.95 -0.23,-12.53 -0.69,-16.74 -0.46,-4.21 -0.96,-7.32 -1.51,-9.33 -0.73,-2.38 -1.37,-3.93 -1.92,-4.67l0 -1.65 53.23 0c15.55,0 29.13,2.42 40.75,7.27 11.62,4.85 21.22,11.21 28.81,19.07 7.59,7.87 13.26,16.88 17.01,27.03 3.75,10.15 5.63,20.54 5.63,31.15 0,10.43 -1.69,20.63 -5.08,30.6 -3.39,9.97 -8.69,18.93 -16.01,26.89 -7.27,7.96 -16.6,14.36 -27.9,19.21 -11.34,4.85 -24.93,7.27 -40.8,7.27l-15.05 0zm0 -3.29l3.29 0c11.85,0 21.82,-2.33 29.91,-7 8.1,-4.66 14.64,-10.75 19.53,-18.25 4.94,-7.5 8.42,-16.1 10.52,-25.8 2.1,-9.7 3.15,-19.67 3.15,-29.91 0,-10.06 -1.05,-19.94 -3.15,-29.64 -2.1,-9.7 -5.58,-18.3 -10.52,-25.8 -4.89,-7.5 -11.43,-13.58 -19.53,-18.25 -8.09,-4.66 -18.06,-7 -29.91,-7l-3.29 0 0 161.63z"/>
  <path id="_4" class="fil2 str0" d="M1265.67 550.07l0 97.42 -39.24 -36.5c-2.74,6.77 -6.5,12.81 -11.25,18.11 -4.21,4.57 -9.74,8.69 -16.6,12.35 -6.86,3.66 -15.5,5.49 -25.93,5.49 -8.78,0 -17.47,-1.83 -26.07,-5.49 -8.6,-3.66 -16.33,-9.06 -23.19,-16.19 -6.86,-7.13 -12.44,-16.1 -16.74,-26.89 -4.3,-10.79 -6.45,-23.32 -6.45,-37.59 0,-12.99 2.06,-24.83 6.17,-35.54 4.11,-10.7 9.97,-19.85 17.56,-27.44 7.59,-7.59 16.79,-13.45 27.58,-17.56 10.79,-4.12 22.78,-6.17 35.95,-6.17 7.68,0 15.05,0.78 22.09,2.33 7.04,1.56 13.58,3.66 19.62,6.31 6.04,2.65 11.39,5.76 16.05,9.33 4.67,3.57 8.28,7.36 10.84,11.39 2.93,3.48 4.39,7.5 4.39,12.08l0 0.27 0 0.27c-0.37,5.31 -2.42,9.83 -6.17,13.58 -3.75,3.75 -8.28,5.63 -13.58,5.63 -5.49,0 -10.15,-1.92 -14,-5.76 -3.84,-3.84 -5.76,-8.51 -5.76,-13.99 0,-4.21 -0.55,-8.55 -1.65,-13.04 -1.1,-4.48 -2.93,-8.6 -5.49,-12.35 -2.56,-3.75 -6.08,-6.82 -10.56,-9.19 -4.48,-2.38 -10.11,-3.57 -16.88,-3.57 -6.4,0 -12.35,1.69 -17.84,5.08 -5.49,3.38 -10.29,8.23 -14.41,14.54 -4.12,6.31 -7.5,13.95 -10.15,22.91 -2.65,8.96 -4.25,19.02 -4.8,30.19l126.5 0zm-126.78 9.6c0,16.47 2.24,30.05 6.72,40.75 4.48,10.7 10.06,18.8 16.74,24.28 6.68,5.49 13.9,8.46 21.68,8.92 7.77,0.46 15,-1.24 21.68,-5.08 6.68,-3.84 12.26,-9.7 16.74,-17.56 4.48,-7.87 6.72,-17.47 6.72,-28.81l0 -28.81 -90.28 0 0 6.31z"/>
  <path id="_5" class="fil2 str0" d="M1453.09 560.49c0,14.45 -2.47,27.12 -7.41,38.01 -4.94,10.89 -11.52,19.94 -19.76,27.17 -8.23,7.23 -17.56,12.67 -27.99,16.33 -10.43,3.66 -21.04,5.49 -31.83,5.49 -10.79,0 -21.4,-1.83 -31.83,-5.49 -10.43,-3.66 -19.76,-9.1 -27.99,-16.33 -8.23,-7.23 -14.82,-16.28 -19.76,-27.17 -4.94,-10.88 -7.41,-23.55 -7.41,-38.01 0,-14.45 2.47,-27.07 7.41,-37.87 4.94,-10.79 11.53,-19.8 19.76,-27.03 8.23,-7.22 17.56,-12.67 27.99,-16.33 10.43,-3.66 21.04,-5.49 31.83,-5.49 10.79,0 21.4,1.83 31.83,5.49 10.43,3.66 19.76,9.1 27.99,16.33 8.23,7.23 14.82,16.24 19.76,27.03 4.94,10.79 7.41,23.42 7.41,37.87zm-37.04 0c0,-18.66 -2.47,-34.16 -7.41,-46.51 -4.94,-12.35 -11.11,-21.63 -18.52,-27.85 -7.41,-6.22 -15.41,-9.33 -24.01,-9.33 -8.6,0 -16.6,3.11 -24.01,9.33 -7.41,6.22 -13.58,15.5 -18.52,27.85 -4.94,12.35 -7.41,27.85 -7.41,46.51 0,18.66 2.47,34.21 7.41,46.65 4.94,12.44 11.11,21.77 18.52,27.99 7.41,6.22 15.41,9.33 24.01,9.33 8.6,0 16.6,-3.11 24.01,-9.33 7.41,-6.22 13.58,-15.55 18.52,-27.99 4.94,-12.44 7.41,-27.99 7.41,-46.65z"/>
  <path id="_6" class="fil2 str0" d="M1596.89 645.56l-132.81 0 0 -1.37c0.55,-0.91 1.19,-2.56 1.92,-4.94 0.55,-2.01 1.05,-5.08 1.51,-9.19 0.46,-4.12 0.69,-9.65 0.69,-16.6l0 -104c0,-6.95 -0.23,-12.53 -0.69,-16.74 -0.46,-4.21 -0.96,-7.32 -1.51,-9.33 -0.73,-2.38 -1.37,-3.93 -1.92,-4.67l0 -1.65 44.73 0 0 1.65c-0.73,0.73 -1.46,2.29 -2.2,4.67 -0.55,2.01 -1.01,5.12 -1.37,9.33 -0.37,4.21 -0.55,9.79 -0.55,16.74l0 132.81 21.41 0c13.9,0 25.43,-1.69 34.58,-5.08 9.15,-3.38 16.37,-7.18 21.68,-11.39 6.22,-4.76 11.07,-10.24 14.54,-16.46l1.37 0 0 36.22 -1.37 0z"/>
  <path id="_7" class="fil2 str0" d="M1649.57 645.56l-40.61 0 0 -1.37c0.55,-0.91 1.19,-2.56 1.92,-4.94 0.55,-2.01 1.05,-5.08 1.51,-9.19 0.46,-4.12 0.69,-9.65 0.69,-16.6l0 -104c0,-6.95 -0.23,-12.53 -0.69,-16.74 -0.46,-4.21 -0.96,-7.32 -1.51,-9.33 -0.73,-2.38 -1.37,-3.93 -1.92,-4.67l0 -1.65 53.23 0c15.55,0 29.13,2.42 40.75,7.27 11.62,4.85 21.22,11.21 28.81,19.07 7.59,7.87 13.26,16.88 17.01,27.03 3.75,10.15 5.63,20.54 5.63,31.15 0,10.43 -1.69,20.63 -5.08,30.6 -3.39,9.97 -8.69,18.93 -16.01,26.89 -7.27,7.96 -16.6,14.36 -27.9,19.21 -11.34,4.85 -24.93,7.27 -40.8,7.27l-15.05 0zm0 -3.29l3.29 0c11.85,0 21.82,-2.33 29.91,-7 8.1,-4.66 14.64,-10.75 19.53,-18.25 4.94,-7.5 8.42,-16.1 10.52,-25.8 2.1,-9.7 3.15,-19.67 3.15,-29.91 0,-10.06 -1.05,-19.94 -3.15,-29.64 -2.1,-9.7 -5.58,-18.3 -10.52,-25.8 -4.89,-7.5 -11.43,-13.58 -19.53,-18.25 -8.09,-4.66 -18.06,-7 -29.91,-7l-3.29 0 0 161.63z"/>
 </g>
</svg>
