<?xml version="1.0" encoding="UTF-8"?>
<!DOCTYPE svg PUBLIC "-//W3C//DTD SVG 1.1//EN" "http://www.w3.org/Graphics/SVG/1.1/DTD/svg11.dtd">
<!-- Creator: CorelDRAW 2021 (64-Bit) -->
<svg xmlns="http://www.w3.org/2000/svg" xml:space="preserve" width="183.492mm" height="72.0739mm" version="1.1" style="shape-rendering:geometricPrecision; text-rendering:geometricPrecision; image-rendering:optimizeQuality; fill-rule:evenodd; clip-rule:evenodd"
viewBox="0 0 4464.69 1753.69"
 xmlns:xlink="http://www.w3.org/1999/xlink"
 xmlns:xodm="http://www.corel.com/coreldraw/odm/2003">
 <defs>
  <style type="text/css">
   <![CDATA[
    .str0 {stroke:black;stroke-width:1.85;stroke-linecap:round;stroke-linejoin:round;stroke-miterlimit:22.9256}
    .fil2 {fill:none;fill-rule:nonzero}
    .fil1 {fill:black;fill-rule:nonzero}
    .fil0 {fill:url(#id0)}
   ]]>
  </style>
  <linearGradient id="id0" gradientUnits="userSpaceOnUse" x1="1888.26" y1="-157.68" x2="2576.43" y2="1911.37">
   <stop offset="0" style="stop-opacity:1; stop-color:#A1A1A1"/>
   <stop offset="0.239216" style="stop-opacity:1; stop-color:#ABABAB"/>
   <stop offset="0.388235" style="stop-opacity:1; stop-color:white"/>
   <stop offset="0.568627" style="stop-opacity:1; stop-color:#A6A6A6"/>
   <stop offset="1" style="stop-opacity:1; stop-color:#8F8F8F"/>
  </linearGradient>
 </defs>
 <g id="Layer_x0020_1">
  <metadata id="CorelCorpID_0Corel-Layer"/>
  <path class="fil0" d="M-0 0l4464.69 0 0 876.85c0,482.26 -394.58,876.84 -876.84,876.84l-2711 0c-482.26,0 -876.84,-394.58 -876.84,-876.84l0 -876.85z"/>
  <path class="fil1" d="M1392 746.8c20.89,0 38.77,2.08 53.65,6.22 14.88,4.15 27.04,9.8 36.48,16.95 9.44,7.15 16.38,15.45 20.82,24.89 4.43,9.44 6.65,19.6 6.65,30.47 0,10.87 -2.72,21.1 -8.16,30.69 -5.44,9.59 -13.02,17.88 -22.89,24.89 -9.87,7.01 -21.75,12.59 -35.77,16.74 -13.95,4.15 -29.54,6.22 -46.64,6.22l-55.65 0 0 56.22c0,10.87 0.29,19.53 0.86,25.97 0.57,6.44 1.29,11.23 2.15,14.38 1,3.72 2,6.29 3,7.73l0 2.15 -69.53 0 0 -2.15c0.86,-1.43 1.86,-4.01 3,-7.73 0.86,-3.15 1.64,-7.94 2.36,-14.38 0.72,-6.44 1.07,-15.09 1.07,-25.97l0 -162.66c0,-10.87 -0.36,-19.53 -1.07,-25.96 -0.72,-6.44 -1.5,-11.23 -2.36,-14.38 -1.15,-3.72 -2.15,-6.29 -3,-7.73l0 -2.14 115.02 -0.43zm-29.68 151.93c16.81,0 30.9,-1.86 42.35,-5.58 11.37,-3.72 20.53,-8.87 27.54,-15.45 7.01,-6.58 11.94,-14.31 14.95,-23.18 3,-8.87 4.51,-18.6 4.51,-29.19 0,-10.59 -1.29,-20.31 -3.86,-29.18 -2.58,-8.87 -6.65,-16.52 -12.38,-22.96 -5.72,-6.44 -13.16,-11.52 -22.46,-15.24 -9.23,-3.72 -20.6,-5.58 -33.98,-5.58l-33.76 0c-0.86,2.29 -1.86,6.73 -3,13.3 -1.14,6.58 -1.72,17.17 -1.72,31.76l0 101.29 21.82 0z"/>
  <path id="_1" class="fil1" d="M1734.49 1010.32l-207.73 0 0 -2.15c0.86,-1.43 1.86,-4.01 3,-7.73 0.86,-3.15 1.64,-7.94 2.36,-14.38 0.72,-6.44 1.07,-15.09 1.07,-25.97l0 -162.66c0,-10.87 -0.36,-19.6 -1.07,-26.18 -0.72,-6.58 -1.5,-11.44 -2.36,-14.59 -1.15,-3.72 -2.15,-6.15 -3,-7.3l0 -2.57 69.96 0 0 2.57c-1.14,1.15 -2.29,3.58 -3.43,7.3 -0.86,3.15 -1.57,8.01 -2.15,14.59 -0.57,6.58 -0.86,15.31 -0.86,26.18l0 207.73 33.48 0c21.75,0 39.77,-2.64 54.08,-7.94 14.3,-5.29 25.61,-11.23 33.9,-17.81 9.73,-7.44 17.31,-16.02 22.75,-25.75l2.15 0 0 56.65 -2.15 0z"/>
  <path id="_2" class="fil1" d="M1960.24 916.33c9.44,23.75 17.45,41.77 24.03,54.08 6.58,12.3 11.87,21.31 15.88,27.04 4.87,6.58 8.58,10.16 11.16,10.73l0 2.15 -79.83 0 0 -2.15c1.72,-0.57 2.58,-2.72 2.58,-6.44 0,-3.15 -0.93,-7.94 -2.79,-14.38 -1.86,-6.44 -5.37,-15.52 -10.52,-27.25l-15.88 -37.77 -86.69 0 -13.74 38.2c-4.01,10.87 -5.58,19.46 -4.72,25.75 0.86,6.29 2.43,11.02 4.72,14.16 2.86,3.72 6.58,6.29 11.16,7.73l0 2.15 -62.23 0 0 -2.15c6.01,-1.43 11.73,-4.01 17.17,-7.73 4.86,-3.15 9.87,-7.94 15.02,-14.38 5.15,-6.44 9.73,-15.09 13.73,-25.97l0 0.86 78.54 -224.04 10.73 0 71.67 179.4zm-58.37 -0.86l-43.78 -105.58 -37.34 105.58 81.12 0z"/>
  <path id="_3" class="fil1" d="M2186.85 746.8l2.15 0 0 57.08 -2.15 0c-4.58,-7.73 -10.59,-14.88 -18.03,-21.46 -6.58,-5.72 -15.23,-11.3 -25.96,-16.74 -10.73,-5.44 -24.25,-9.3 -40.56,-11.59 -0.86,2.86 -1.72,7.58 -2.57,14.16 -0.86,6.58 -1.29,16.31 -1.29,29.18l0 162.66c0,10.87 0.28,19.53 0.86,25.97 0.57,6.44 1.29,11.23 2.15,14.38 1.15,3.72 2.29,6.29 3.43,7.73l0 2.15 -69.96 0 0 -2.15c0.86,-1.43 1.86,-4.01 3,-7.73 0.86,-3.15 1.64,-7.94 2.36,-14.38 0.72,-6.44 1.07,-15.09 1.07,-25.97l0 -162.66c0,-12.88 -0.43,-22.53 -1.29,-28.97 -0.86,-6.44 -1.72,-11.09 -2.58,-13.95 -16.31,2.29 -29.68,6.15 -40.13,11.59 -10.44,5.44 -18.81,11.02 -25.11,16.74 -7.44,6.58 -13.16,13.59 -17.17,21.03l-2.15 0 0 -57.08 2.15 0 231.76 0z"/>
  <path id="_4" class="fil1" d="M2276.12 1010.32l-69.96 0 0 -2.15c0.86,-1.43 1.86,-4.01 3,-7.73 0.86,-3.15 1.64,-7.94 2.36,-14.38 0.72,-6.44 1.07,-15.09 1.07,-25.97l0 -162.66c0,-10.87 -0.36,-19.6 -1.07,-26.18 -0.72,-6.58 -1.5,-11.44 -2.36,-14.59 -1.15,-3.72 -2.15,-6.15 -3,-7.3l0 -2.57 69.96 0 0 2.57c-1.14,1.15 -2.29,3.58 -3.43,7.3 -0.86,3.15 -1.57,8.01 -2.15,14.59 -0.57,6.58 -0.86,15.31 -0.86,26.18l0 162.66c0,10.87 0.29,19.53 0.86,25.97 0.57,6.44 1.29,11.23 2.15,14.38 1.14,3.72 2.29,6.29 3.43,7.73l0 2.15z"/>
  <path id="_5" class="fil1" d="M2354.24 1010.32l-61.37 0 0 -2.15c5.15,-1.43 9.73,-4.01 13.73,-7.73 3.43,-3.15 6.65,-7.94 9.66,-14.38 3,-6.44 4.51,-15.09 4.51,-25.97l0 -162.66c0,-10.87 -1.5,-19.6 -4.51,-26.18 -3,-6.58 -6.22,-11.44 -9.66,-14.59 -4.01,-3.72 -8.58,-6.15 -13.73,-7.3l0 -2.57 82.4 0 148.5 180.69 0 -130.04c0,-10.87 -1.5,-19.6 -4.51,-26.18 -3,-6.58 -6.22,-11.44 -9.66,-14.59 -4.01,-3.72 -8.58,-6.15 -13.73,-7.3l0 -2.57 61.37 0 0 2.57c-5.44,1.15 -10.16,3.58 -14.16,7.3 -3.44,3.15 -6.58,8.01 -9.44,14.59 -2.86,6.58 -4.29,15.31 -4.29,26.18l0 219.32 -5.58 0 -194.85 -239.92c-0.57,3.15 -1.14,6.37 -1.72,9.66 -0.57,3.29 -0.86,6.94 -0.86,10.94l0 162.66c0,10.87 1.43,19.53 4.29,25.97 2.86,6.44 6.01,11.23 9.44,14.38 4.01,3.72 8.73,6.29 14.16,7.73l0 2.15z"/>
  <path id="_6" class="fil1" d="M2686.43 1012.9c-15.16,0 -29.4,-2.86 -42.7,-8.58 -13.3,-5.72 -24.96,-13.52 -34.98,-23.39 -10.01,-9.87 -17.88,-21.46 -23.61,-34.76 -5.72,-13.3 -8.58,-27.54 -8.58,-42.7l0 -106.01c0,-10.87 -0.36,-19.6 -1.07,-26.18 -0.72,-6.58 -1.5,-11.44 -2.36,-14.59 -1.15,-3.72 -2.15,-6.15 -3,-7.3l0 -2.57 69.96 0 0 2.57c-1.14,1.15 -2.29,3.58 -3.43,7.3 -0.86,3.15 -1.57,8.01 -2.15,14.59 -0.57,6.58 -0.86,15.31 -0.86,26.18l0 112.45c0,20.31 3.86,36.77 11.59,49.36 7.73,12.59 17.45,21.75 29.18,27.47 11.73,5.72 24.32,8.08 37.77,7.08 13.45,-1 26.04,-5.01 37.77,-12.02 11.73,-7.01 21.46,-16.88 29.18,-29.61 7.73,-12.73 11.59,-27.97 11.59,-45.71l0 -109.01c0,-10.87 -1.5,-19.6 -4.51,-26.18 -3,-6.58 -6.22,-11.44 -9.66,-14.59 -4.01,-3.72 -8.58,-6.15 -13.74,-7.3l0 -2.57 61.37 0 0 2.57c-5.44,1.15 -10.16,3.58 -14.16,7.3 -3.72,3.15 -7.01,8.01 -9.87,14.59 -2.86,6.58 -4.29,15.31 -4.29,26.18l0 106.01c0,15.17 -2.86,29.4 -8.58,42.7 -5.72,13.3 -13.52,24.89 -23.39,34.76 -9.87,9.87 -21.46,17.67 -34.76,23.39 -13.3,5.72 -27.54,8.58 -42.7,8.58z"/>
  <path id="_7" class="fil1" d="M3176.13 960.11c1.14,10.87 2.43,19.53 3.86,25.97 1.43,6.44 2.72,11.23 3.86,14.38 1.14,3.72 2.43,6.29 3.86,7.73l0 2.15 -69.53 0 -0.43 -2.15c1.14,-1.43 2,-4.01 2.57,-7.73 0.57,-3.15 0.86,-7.94 0.86,-14.38 0,-6.44 -0.57,-15.09 -1.72,-25.97l-24.89 -165.24 -97.86 221.89 -5.15 0 -118.45 -221.03c0,0 -0.36,2.43 -1.07,7.3 -0.72,4.86 -1.64,11.16 -2.79,18.88 -1.14,7.73 -2.5,16.45 -4.08,26.18 -1.57,9.73 -3.08,19.74 -4.51,30.04 -3.43,24.03 -7.44,51.36 -12.02,81.97 -1.43,10.87 -1,19.53 1.29,25.97 2.29,6.44 5.01,11.23 8.15,14.38 3.72,3.72 8.16,6.29 13.3,7.73l0 2.15 -61.37 0 0 -2.15c5.15,-1.43 10.01,-4.01 14.59,-7.73 4.01,-3.15 7.73,-7.94 11.16,-14.38 3.43,-6.44 5.87,-15.09 7.3,-25.97l24.46 -162.66c1.14,-10.87 0.64,-19.6 -1.5,-26.18 -2.15,-6.58 -4.79,-11.44 -7.94,-14.59 -3.72,-3.72 -8.15,-6.15 -13.3,-7.3l0 -2.57 61.37 0.86 108.16 201.29 90.99 -202.15 47.64 0 0 2.57c-1.15,1.15 -2,3.58 -2.58,7.3 -0.57,3.15 -0.86,8.01 -0.86,14.59 0,6.58 0.72,15.31 2.15,26.18l24.47 162.66z"/>
  <path id="_8" class="fil2 str0" d="M1392 746.8c20.89,0 38.77,2.08 53.65,6.22 14.88,4.15 27.04,9.8 36.48,16.95 9.44,7.15 16.38,15.45 20.82,24.89 4.43,9.44 6.65,19.6 6.65,30.47 0,10.87 -2.72,21.1 -8.16,30.69 -5.44,9.59 -13.02,17.88 -22.89,24.89 -9.87,7.01 -21.75,12.59 -35.77,16.74 -13.95,4.15 -29.54,6.22 -46.64,6.22l-55.65 0 0 56.22c0,10.87 0.29,19.53 0.86,25.97 0.57,6.44 1.29,11.23 2.15,14.38 1,3.72 2,6.29 3,7.73l0 2.15 -69.53 0 0 -2.15c0.86,-1.43 1.86,-4.01 3,-7.73 0.86,-3.15 1.64,-7.94 2.36,-14.38 0.72,-6.44 1.07,-15.09 1.07,-25.97l0 -162.66c0,-10.87 -0.36,-19.53 -1.07,-25.96 -0.72,-6.44 -1.5,-11.23 -2.36,-14.38 -1.15,-3.72 -2.15,-6.29 -3,-7.73l0 -2.14 115.02 -0.43zm-29.68 151.93c16.81,0 30.9,-1.86 42.35,-5.58 11.37,-3.72 20.53,-8.87 27.54,-15.45 7.01,-6.58 11.94,-14.31 14.95,-23.18 3,-8.87 4.51,-18.6 4.51,-29.19 0,-10.59 -1.29,-20.31 -3.86,-29.18 -2.58,-8.87 -6.65,-16.52 -12.38,-22.96 -5.72,-6.44 -13.16,-11.52 -22.46,-15.24 -9.23,-3.72 -20.6,-5.58 -33.98,-5.58l-33.76 0c-0.86,2.29 -1.86,6.73 -3,13.3 -1.14,6.58 -1.72,17.17 -1.72,31.76l0 101.29 21.82 0z"/>
  <path id="_9" class="fil2 str0" d="M1734.49 1010.32l-207.73 0 0 -2.15c0.86,-1.43 1.86,-4.01 3,-7.73 0.86,-3.15 1.64,-7.94 2.36,-14.38 0.72,-6.44 1.07,-15.09 1.07,-25.97l0 -162.66c0,-10.87 -0.36,-19.6 -1.07,-26.18 -0.72,-6.58 -1.5,-11.44 -2.36,-14.59 -1.15,-3.72 -2.15,-6.15 -3,-7.3l0 -2.57 69.96 0 0 2.57c-1.14,1.15 -2.29,3.58 -3.43,7.3 -0.86,3.15 -1.57,8.01 -2.15,14.59 -0.57,6.58 -0.86,15.31 -0.86,26.18l0 207.73 33.48 0c21.75,0 39.77,-2.64 54.08,-7.94 14.3,-5.29 25.61,-11.23 33.9,-17.81 9.73,-7.44 17.31,-16.02 22.75,-25.75l2.15 0 0 56.65 -2.15 0z"/>
  <path id="_10" class="fil2 str0" d="M1960.24 916.33c9.44,23.75 17.45,41.77 24.03,54.08 6.58,12.3 11.87,21.31 15.88,27.04 4.87,6.58 8.58,10.16 11.16,10.73l0 2.15 -79.83 0 0 -2.15c1.72,-0.57 2.58,-2.72 2.58,-6.44 0,-3.15 -0.93,-7.94 -2.79,-14.38 -1.86,-6.44 -5.37,-15.52 -10.52,-27.25l-15.88 -37.77 -86.69 0 -13.74 38.2c-4.01,10.87 -5.58,19.46 -4.72,25.75 0.86,6.29 2.43,11.02 4.72,14.16 2.86,3.72 6.58,6.29 11.16,7.73l0 2.15 -62.23 0 0 -2.15c6.01,-1.43 11.73,-4.01 17.17,-7.73 4.86,-3.15 9.87,-7.94 15.02,-14.38 5.15,-6.44 9.73,-15.09 13.73,-25.97l0 0.86 78.54 -224.04 10.73 0 71.67 179.4zm-58.37 -0.86l-43.78 -105.58 -37.34 105.58 81.12 0z"/>
  <path id="_11" class="fil2 str0" d="M2186.85 746.8l2.15 0 0 57.08 -2.15 0c-4.58,-7.73 -10.59,-14.88 -18.03,-21.46 -6.58,-5.72 -15.23,-11.3 -25.96,-16.74 -10.73,-5.44 -24.25,-9.3 -40.56,-11.59 -0.86,2.86 -1.72,7.58 -2.57,14.16 -0.86,6.58 -1.29,16.31 -1.29,29.18l0 162.66c0,10.87 0.28,19.53 0.86,25.97 0.57,6.44 1.29,11.23 2.15,14.38 1.15,3.72 2.29,6.29 3.43,7.73l0 2.15 -69.96 0 0 -2.15c0.86,-1.43 1.86,-4.01 3,-7.73 0.86,-3.15 1.64,-7.94 2.36,-14.38 0.72,-6.44 1.07,-15.09 1.07,-25.97l0 -162.66c0,-12.88 -0.43,-22.53 -1.29,-28.97 -0.86,-6.44 -1.72,-11.09 -2.58,-13.95 -16.31,2.29 -29.68,6.15 -40.13,11.59 -10.44,5.44 -18.81,11.02 -25.11,16.74 -7.44,6.58 -13.16,13.59 -17.17,21.03l-2.15 0 0 -57.08 2.15 0 231.76 0z"/>
  <path id="_12" class="fil2 str0" d="M2276.12 1010.32l-69.96 0 0 -2.15c0.86,-1.43 1.86,-4.01 3,-7.73 0.86,-3.15 1.64,-7.94 2.36,-14.38 0.72,-6.44 1.07,-15.09 1.07,-25.97l0 -162.66c0,-10.87 -0.36,-19.6 -1.07,-26.18 -0.72,-6.58 -1.5,-11.44 -2.36,-14.59 -1.15,-3.72 -2.15,-6.15 -3,-7.3l0 -2.57 69.96 0 0 2.57c-1.14,1.15 -2.29,3.58 -3.43,7.3 -0.86,3.15 -1.57,8.01 -2.15,14.59 -0.57,6.58 -0.86,15.31 -0.86,26.18l0 162.66c0,10.87 0.29,19.53 0.86,25.97 0.57,6.44 1.29,11.23 2.15,14.38 1.14,3.72 2.29,6.29 3.43,7.73l0 2.15z"/>
  <path id="_13" class="fil2 str0" d="M2354.24 1010.32l-61.37 0 0 -2.15c5.15,-1.43 9.73,-4.01 13.73,-7.73 3.43,-3.15 6.65,-7.94 9.66,-14.38 3,-6.44 4.51,-15.09 4.51,-25.97l0 -162.66c0,-10.87 -1.5,-19.6 -4.51,-26.18 -3,-6.58 -6.22,-11.44 -9.66,-14.59 -4.01,-3.72 -8.58,-6.15 -13.73,-7.3l0 -2.57 82.4 0 148.5 180.69 0 -130.04c0,-10.87 -1.5,-19.6 -4.51,-26.18 -3,-6.58 -6.22,-11.44 -9.66,-14.59 -4.01,-3.72 -8.58,-6.15 -13.73,-7.3l0 -2.57 61.37 0 0 2.57c-5.44,1.15 -10.16,3.58 -14.16,7.3 -3.44,3.15 -6.58,8.01 -9.44,14.59 -2.86,6.58 -4.29,15.31 -4.29,26.18l0 219.32 -5.58 0 -194.85 -239.92c-0.57,3.15 -1.14,6.37 -1.72,9.66 -0.57,3.29 -0.86,6.94 -0.86,10.94l0 162.66c0,10.87 1.43,19.53 4.29,25.97 2.86,6.44 6.01,11.23 9.44,14.38 4.01,3.72 8.73,6.29 14.16,7.73l0 2.15z"/>
  <path id="_14" class="fil2 str0" d="M2686.43 1012.9c-15.16,0 -29.4,-2.86 -42.7,-8.58 -13.3,-5.72 -24.96,-13.52 -34.98,-23.39 -10.01,-9.87 -17.88,-21.46 -23.61,-34.76 -5.72,-13.3 -8.58,-27.54 -8.58,-42.7l0 -106.01c0,-10.87 -0.36,-19.6 -1.07,-26.18 -0.72,-6.58 -1.5,-11.44 -2.36,-14.59 -1.15,-3.72 -2.15,-6.15 -3,-7.3l0 -2.57 69.96 0 0 2.57c-1.14,1.15 -2.29,3.58 -3.43,7.3 -0.86,3.15 -1.57,8.01 -2.15,14.59 -0.57,6.58 -0.86,15.31 -0.86,26.18l0 112.45c0,20.31 3.86,36.77 11.59,49.36 7.73,12.59 17.45,21.75 29.18,27.47 11.73,5.72 24.32,8.08 37.77,7.08 13.45,-1 26.04,-5.01 37.77,-12.02 11.73,-7.01 21.46,-16.88 29.18,-29.61 7.73,-12.73 11.59,-27.97 11.59,-45.71l0 -109.01c0,-10.87 -1.5,-19.6 -4.51,-26.18 -3,-6.58 -6.22,-11.44 -9.66,-14.59 -4.01,-3.72 -8.58,-6.15 -13.74,-7.3l0 -2.57 61.37 0 0 2.57c-5.44,1.15 -10.16,3.58 -14.16,7.3 -3.72,3.15 -7.01,8.01 -9.87,14.59 -2.86,6.58 -4.29,15.31 -4.29,26.18l0 106.01c0,15.17 -2.86,29.4 -8.58,42.7 -5.72,13.3 -13.52,24.89 -23.39,34.76 -9.87,9.87 -21.46,17.67 -34.76,23.39 -13.3,5.72 -27.54,8.58 -42.7,8.58z"/>
  <path id="_15" class="fil2 str0" d="M3176.13 960.11c1.14,10.87 2.43,19.53 3.86,25.97 1.43,6.44 2.72,11.23 3.86,14.38 1.14,3.72 2.43,6.29 3.86,7.73l0 2.15 -69.53 0 -0.43 -2.15c1.14,-1.43 2,-4.01 2.57,-7.73 0.57,-3.15 0.86,-7.94 0.86,-14.38 0,-6.44 -0.57,-15.09 -1.72,-25.97l-24.89 -165.24 -97.86 221.89 -5.15 0 -118.45 -221.03c0,0 -0.36,2.43 -1.07,7.3 -0.72,4.86 -1.64,11.16 -2.79,18.88 -1.14,7.73 -2.5,16.45 -4.08,26.18 -1.57,9.73 -3.08,19.74 -4.51,30.04 -3.43,24.03 -7.44,51.36 -12.02,81.97 -1.43,10.87 -1,19.53 1.29,25.97 2.29,6.44 5.01,11.23 8.15,14.38 3.72,3.72 8.16,6.29 13.3,7.73l0 2.15 -61.37 0 0 -2.15c5.15,-1.43 10.01,-4.01 14.59,-7.73 4.01,-3.15 7.73,-7.94 11.16,-14.38 3.43,-6.44 5.87,-15.09 7.3,-25.97l24.46 -162.66c1.14,-10.87 0.64,-19.6 -1.5,-26.18 -2.15,-6.58 -4.79,-11.44 -7.94,-14.59 -3.72,-3.72 -8.15,-6.15 -13.3,-7.3l0 -2.57 61.37 0.86 108.16 201.29 90.99 -202.15 47.64 0 0 2.57c-1.15,1.15 -2,3.58 -2.58,7.3 -0.57,3.15 -0.86,8.01 -0.86,14.59 0,6.58 0.72,15.31 2.15,26.18l24.47 162.66z"/>
 </g>
</svg>
