<?xml version="1.0" encoding="UTF-8"?>
<!DOCTYPE svg PUBLIC "-//W3C//DTD SVG 1.1//EN" "http://www.w3.org/Graphics/SVG/1.1/DTD/svg11.dtd">
<!-- Creator: CorelDRAW 2021 (64-Bit) -->
<svg xmlns="http://www.w3.org/2000/svg" xml:space="preserve" width="183.492mm" height="72.0739mm" version="1.1" style="shape-rendering:geometricPrecision; text-rendering:geometricPrecision; image-rendering:optimizeQuality; fill-rule:evenodd; clip-rule:evenodd"
viewBox="0 0 2119.22 832.41"
 xmlns:xlink="http://www.w3.org/1999/xlink"
 xmlns:xodm="http://www.corel.com/coreldraw/odm/2003">
 <defs>
  <style type="text/css">
   <![CDATA[
    .str0 {stroke:black;stroke-width:0.88;stroke-linecap:round;stroke-linejoin:round;stroke-miterlimit:22.9256}
    .fil2 {fill:none;fill-rule:nonzero}
    .fil1 {fill:black;fill-rule:nonzero}
    .fil0 {fill:url(#id0)}
   ]]>
  </style>
  <linearGradient id="id0" gradientUnits="userSpaceOnUse" x1="896.29" y1="-74.85" x2="1222.94" y2="907.26">
   <stop offset="0" style="stop-opacity:1; stop-color:#BFBFBF"/>
   <stop offset="0.239216" style="stop-opacity:1; stop-color:#B8B8B8"/>
   <stop offset="0.388235" style="stop-opacity:1; stop-color:#EBEBEB"/>
   <stop offset="0.568627" style="stop-opacity:1; stop-color:#E6E6E6"/>
   <stop offset="1" style="stop-opacity:1; stop-color:#C9C9C9"/>
  </linearGradient>
 </defs>
 <g id="Layer_x0020_1">
  <metadata id="CorelCorpID_0Corel-Layer"/>
  <path class="fil0" d="M-0 0l2119.22 0 0 416.21c0,228.91 -187.29,416.21 -416.21,416.21l-1286.81 0c-228.91,0 -416.21,-187.29 -416.21,-416.21l0 -416.21z"/>
  <path class="fil1" d="M826.25 480.28c-8.01,0 -15.45,-0.81 -22.31,-2.44 -6.86,-1.63 -12.83,-3.84 -17.93,-6.62 -5.09,-2.78 -9.1,-6.04 -12.02,-9.78 -2.92,-3.73 -4.38,-7.78 -4.38,-12.12l0 -0.2 0 -0.2c0.14,-3.94 1.63,-7.3 4.48,-10.08 2.85,-2.78 6.25,-4.18 10.19,-4.18 4.07,0 7.54,1.46 10.39,4.38 2.85,2.92 4.28,6.35 4.28,10.29 0,3.12 0.58,6.32 1.73,9.57 1.15,3.26 2.92,6.21 5.3,8.86 2.38,2.65 5.4,4.79 9.07,6.42 3.67,1.63 8.01,2.44 13.04,2.44 3.94,0 7.4,-0.92 10.39,-2.75 2.99,-1.83 5.47,-4.07 7.44,-6.72 1.97,-2.65 3.43,-5.47 4.38,-8.45 0.95,-2.99 1.43,-5.64 1.43,-7.94 0,-5.3 -1.9,-9.61 -5.7,-12.94 -3.8,-3.33 -8.52,-6.18 -14.16,-8.56 -5.64,-2.38 -11.75,-4.62 -18.33,-6.72 -6.59,-2.11 -12.7,-4.69 -18.33,-7.74 -5.64,-3.06 -10.36,-6.89 -14.16,-11.51 -3.8,-4.62 -5.7,-10.66 -5.7,-18.13 0,-4.35 1.02,-8.52 3.06,-12.53 2.04,-4.01 5.06,-7.57 9.07,-10.7 4.01,-3.12 8.96,-5.6 14.87,-7.44 5.91,-1.83 12.73,-2.75 20.47,-2.75 8.01,0 15.04,0.75 21.09,2.24 6.04,1.49 11.1,3.5 15.18,6.01 4.07,2.51 7.3,5.4 9.68,8.66 2.38,3.26 3.9,6.59 4.58,9.98 0.41,1.22 0.61,2.51 0.61,3.87l0 0.2 0 0.2c-0.27,3.94 -1.8,7.3 -4.58,10.08 -2.78,2.78 -6.15,4.18 -10.08,4.18 -4.07,0 -7.54,-1.43 -10.39,-4.28 -2.85,-2.85 -4.28,-6.32 -4.28,-10.39 0,-3.12 -0.27,-6.35 -0.82,-9.68 -0.54,-3.33 -1.56,-6.38 -3.05,-9.17 -1.49,-2.78 -3.6,-5.06 -6.32,-6.82 -2.72,-1.77 -6.18,-2.65 -10.39,-2.65 -7.06,0 -12.43,2.1 -16.09,6.32 -3.67,4.21 -5.5,9.57 -5.5,16.09 0,6.52 1.9,11.68 5.7,15.48 3.8,3.8 8.59,6.96 14.36,9.47 5.77,2.51 12.02,4.72 18.74,6.62 6.72,1.9 12.97,4.28 18.74,7.13 5.77,2.85 10.56,6.48 14.36,10.9 3.8,4.41 5.7,10.42 5.7,18.03 0,3.94 -1.12,8.01 -3.36,12.22 -2.24,4.21 -5.6,8.08 -10.08,11.61 -4.48,3.53 -10.08,6.45 -16.81,8.76 -6.72,2.31 -14.57,3.46 -23.53,3.46z"/>
  <path id="_1" class="fil1" d="M921.39 479.05l-33.21 0 0 -1.02c0.41,-0.68 0.88,-1.9 1.43,-3.67 0.41,-1.49 0.78,-3.77 1.12,-6.82 0.34,-3.06 0.51,-7.16 0.51,-12.33l0 -77.21c0,-5.16 -0.17,-9.3 -0.51,-12.43 -0.34,-3.12 -0.71,-5.43 -1.12,-6.93 -0.54,-1.77 -1.02,-2.92 -1.43,-3.46l0 -1.22 33.21 0 0 1.22c-0.54,0.54 -1.09,1.7 -1.63,3.46 -0.41,1.49 -0.75,3.8 -1.02,6.93 -0.27,3.12 -0.41,7.27 -0.41,12.43l0 77.21c0,5.16 0.14,9.27 0.41,12.33 0.27,3.06 0.61,5.33 1.02,6.82 0.54,1.77 1.09,2.99 1.63,3.67l0 1.02z"/>
  <path id="_2" class="fil1" d="M1027.93 479.05l-98.6 0 0 -1.02c0.41,-0.68 0.88,-1.9 1.43,-3.67 0.41,-1.49 0.78,-3.77 1.12,-6.82 0.34,-3.06 0.51,-7.16 0.51,-12.33l0 -77.21c0,-5.16 -0.17,-9.3 -0.51,-12.43 -0.34,-3.12 -0.71,-5.43 -1.12,-6.93 -0.54,-1.77 -1.02,-2.92 -1.43,-3.46l0 -1.22 33.21 0 0 1.22c-0.54,0.54 -1.09,1.7 -1.63,3.46 -0.41,1.49 -0.75,3.8 -1.02,6.93 -0.27,3.12 -0.41,7.27 -0.41,12.43l0 98.6 15.89 0c10.32,0 18.88,-1.26 25.67,-3.77 6.79,-2.51 12.15,-5.33 16.09,-8.45 4.62,-3.53 8.22,-7.61 10.8,-12.22l1.02 0 0 26.89 -1.02 0z"/>
  <path id="_3" class="fil1" d="M1016.53 378.01c-1.9,-5.16 -3.6,-9.3 -5.09,-12.43 -1.49,-3.12 -2.78,-5.43 -3.87,-6.93 -1.22,-1.77 -2.24,-2.92 -3.06,-3.46l0 -1.22 33.61 0 0 1.22c-0.41,0.54 -0.48,1.7 -0.2,3.46 0.27,1.49 0.78,3.8 1.53,6.93 0.75,3.12 2.14,7.27 4.18,12.43l25.87 69.88 21.19 -70.28c1.49,-5.16 2,-9.2 1.53,-12.12 -0.47,-2.92 -1.32,-5.13 -2.55,-6.62 -1.49,-1.76 -3.33,-2.99 -5.5,-3.67l0.41 -1.22 29.13 0 -0.41 1.22c-2.72,0.68 -5.3,1.9 -7.74,3.67 -2.17,1.49 -4.41,3.77 -6.72,6.83 -2.31,3.05 -4.21,7.16 -5.7,12.32l-31.58 102.67 -5.7 0 -39.32 -102.67z"/>
  <path id="_4" class="fil1" d="M1225.74 479.05l-103.9 0 0 -1.02c0.41,-0.68 0.88,-1.9 1.43,-3.67 0.41,-1.49 0.78,-3.77 1.12,-6.82 0.34,-3.06 0.51,-7.16 0.51,-12.33l0 -77.21c0,-5.16 -0.17,-9.27 -0.51,-12.32 -0.34,-3.06 -0.71,-5.33 -1.12,-6.83 -0.54,-1.76 -1.02,-2.99 -1.43,-3.67l0 -1.02 101.25 0 -9.57 26.89 -1.02 0c-0.82,-4.62 -2.85,-8.69 -6.11,-12.22 -1.49,-1.49 -3.26,-2.99 -5.3,-4.48 -2.04,-1.49 -4.55,-2.82 -7.54,-3.97 -2.99,-1.15 -6.45,-2.07 -10.39,-2.75 -3.94,-0.68 -8.49,-1.02 -13.65,-1.02l-17.52 0 0 60.91 31.98 0c5.16,0 9.27,-0.68 12.33,-2.04 3.06,-1.36 5.33,-2.85 6.82,-4.48 1.77,-1.9 2.99,-4.14 3.67,-6.72l1.02 0 0 29.13 -1.02 0c-0.68,-2.45 -1.9,-4.69 -3.67,-6.72 -1.49,-1.63 -3.77,-3.16 -6.82,-4.58 -3.06,-1.43 -7.16,-2.14 -12.33,-2.14l-31.98 0 0 56.63 21.19 0c10.32,0 18.37,-1.26 24.14,-3.77 5.77,-2.51 10.08,-5.33 12.94,-8.45 3.39,-3.53 5.43,-7.61 6.11,-12.22l1.02 0 9.37 26.89 -1.02 0z"/>
  <path id="_5" class="fil1" d="M1332.09 455.22c3.53,5.7 6.38,10.08 8.56,13.14 2.17,3.05 3.94,5.33 5.3,6.82 1.49,1.63 2.72,2.58 3.67,2.85l0 1.02 -37.28 0 0 -1.02c0.68,-0.68 0.88,-1.9 0.61,-3.67 -0.27,-1.49 -1.02,-3.77 -2.24,-6.82 -1.22,-3.06 -3.36,-7.16 -6.48,-12.33l-16.03 -26.69 -23.33 0 0 26.69c0,5.16 0.14,9.27 0.41,12.33 0.27,3.06 0.61,5.33 1.02,6.82 0.48,1.77 0.95,2.99 1.43,3.67l0 1.02 -33 0 0 -1.02c0.41,-0.68 0.88,-1.9 1.43,-3.67 0.41,-1.49 0.78,-3.77 1.12,-6.82 0.34,-3.06 0.51,-7.16 0.51,-12.33l0 -77.21c0,-5.16 -0.17,-9.27 -0.51,-12.32 -0.34,-3.06 -0.71,-5.33 -1.12,-6.83 -0.54,-1.76 -1.02,-2.99 -1.43,-3.67l0 -1.02 54.8 -0.2 -0.2 0c9.91,0 18.4,0.99 25.47,2.95 7.06,1.97 12.83,4.65 17.32,8.05 4.48,3.4 7.78,7.33 9.88,11.82 2.1,4.48 3.16,9.3 3.16,14.46 0,7.74 -2.72,14.63 -8.15,20.68 -5.43,6.04 -13.04,10.49 -22.82,13.34l17.93 29.95zm-56.87 -29.13c7.98,0 14.67,-0.88 20.1,-2.65 5.4,-1.77 9.74,-4.21 13.07,-7.33 3.33,-3.12 5.67,-6.79 7.1,-11 1.43,-4.21 2.14,-8.83 2.14,-13.85 0,-5.03 -0.61,-9.64 -1.83,-13.85 -1.22,-4.21 -3.16,-7.84 -5.87,-10.9 -2.72,-3.06 -6.21,-5.47 -10.56,-7.23 -4.31,-1.76 -9.68,-2.65 -16.03,-2.65l-16.23 0c-0.41,1.09 -0.88,3.19 -1.43,6.32 -0.54,3.12 -0.82,8.15 -0.82,15.08l0 48.08 10.36 0z"/>
  <path id="_6" class="fil2 str0" d="M826.25 480.28c-8.01,0 -15.45,-0.81 -22.31,-2.44 -6.86,-1.63 -12.83,-3.84 -17.93,-6.62 -5.09,-2.78 -9.1,-6.04 -12.02,-9.78 -2.92,-3.73 -4.38,-7.78 -4.38,-12.12l0 -0.2 0 -0.2c0.14,-3.94 1.63,-7.3 4.48,-10.08 2.85,-2.78 6.25,-4.18 10.19,-4.18 4.07,0 7.54,1.46 10.39,4.38 2.85,2.92 4.28,6.35 4.28,10.29 0,3.12 0.58,6.32 1.73,9.57 1.15,3.26 2.92,6.21 5.3,8.86 2.38,2.65 5.4,4.79 9.07,6.42 3.67,1.63 8.01,2.44 13.04,2.44 3.94,0 7.4,-0.92 10.39,-2.75 2.99,-1.83 5.47,-4.07 7.44,-6.72 1.97,-2.65 3.43,-5.47 4.38,-8.45 0.95,-2.99 1.43,-5.64 1.43,-7.94 0,-5.3 -1.9,-9.61 -5.7,-12.94 -3.8,-3.33 -8.52,-6.18 -14.16,-8.56 -5.64,-2.38 -11.75,-4.62 -18.33,-6.72 -6.59,-2.11 -12.7,-4.69 -18.33,-7.74 -5.64,-3.06 -10.36,-6.89 -14.16,-11.51 -3.8,-4.62 -5.7,-10.66 -5.7,-18.13 0,-4.35 1.02,-8.52 3.06,-12.53 2.04,-4.01 5.06,-7.57 9.07,-10.7 4.01,-3.12 8.96,-5.6 14.87,-7.44 5.91,-1.83 12.73,-2.75 20.47,-2.75 8.01,0 15.04,0.75 21.09,2.24 6.04,1.49 11.1,3.5 15.18,6.01 4.07,2.51 7.3,5.4 9.68,8.66 2.38,3.26 3.9,6.59 4.58,9.98 0.41,1.22 0.61,2.51 0.61,3.87l0 0.2 0 0.2c-0.27,3.94 -1.8,7.3 -4.58,10.08 -2.78,2.78 -6.15,4.18 -10.08,4.18 -4.07,0 -7.54,-1.43 -10.39,-4.28 -2.85,-2.85 -4.28,-6.32 -4.28,-10.39 0,-3.12 -0.27,-6.35 -0.82,-9.68 -0.54,-3.33 -1.56,-6.38 -3.05,-9.17 -1.49,-2.78 -3.6,-5.06 -6.32,-6.82 -2.72,-1.77 -6.18,-2.65 -10.39,-2.65 -7.06,0 -12.43,2.1 -16.09,6.32 -3.67,4.21 -5.5,9.57 -5.5,16.09 0,6.52 1.9,11.68 5.7,15.48 3.8,3.8 8.59,6.96 14.36,9.47 5.77,2.51 12.02,4.72 18.74,6.62 6.72,1.9 12.97,4.28 18.74,7.13 5.77,2.85 10.56,6.48 14.36,10.9 3.8,4.41 5.7,10.42 5.7,18.03 0,3.94 -1.12,8.01 -3.36,12.22 -2.24,4.21 -5.6,8.08 -10.08,11.61 -4.48,3.53 -10.08,6.45 -16.81,8.76 -6.72,2.31 -14.57,3.46 -23.53,3.46z"/>
  <path id="_7" class="fil2 str0" d="M921.39 479.05l-33.21 0 0 -1.02c0.41,-0.68 0.88,-1.9 1.43,-3.67 0.41,-1.49 0.78,-3.77 1.12,-6.82 0.34,-3.06 0.51,-7.16 0.51,-12.33l0 -77.21c0,-5.16 -0.17,-9.3 -0.51,-12.43 -0.34,-3.12 -0.71,-5.43 -1.12,-6.93 -0.54,-1.77 -1.02,-2.92 -1.43,-3.46l0 -1.22 33.21 0 0 1.22c-0.54,0.54 -1.09,1.7 -1.63,3.46 -0.41,1.49 -0.75,3.8 -1.02,6.93 -0.27,3.12 -0.41,7.27 -0.41,12.43l0 77.21c0,5.16 0.14,9.27 0.41,12.33 0.27,3.06 0.61,5.33 1.02,6.82 0.54,1.77 1.09,2.99 1.63,3.67l0 1.02z"/>
  <path id="_8" class="fil2 str0" d="M1027.93 479.05l-98.6 0 0 -1.02c0.41,-0.68 0.88,-1.9 1.43,-3.67 0.41,-1.49 0.78,-3.77 1.12,-6.82 0.34,-3.06 0.51,-7.16 0.51,-12.33l0 -77.21c0,-5.16 -0.17,-9.3 -0.51,-12.43 -0.34,-3.12 -0.71,-5.43 -1.12,-6.93 -0.54,-1.77 -1.02,-2.92 -1.43,-3.46l0 -1.22 33.21 0 0 1.22c-0.54,0.54 -1.09,1.7 -1.63,3.46 -0.41,1.49 -0.75,3.8 -1.02,6.93 -0.27,3.12 -0.41,7.27 -0.41,12.43l0 98.6 15.89 0c10.32,0 18.88,-1.26 25.67,-3.77 6.79,-2.51 12.15,-5.33 16.09,-8.45 4.62,-3.53 8.22,-7.61 10.8,-12.22l1.02 0 0 26.89 -1.02 0z"/>
  <path id="_9" class="fil2 str0" d="M1016.53 378.01c-1.9,-5.16 -3.6,-9.3 -5.09,-12.43 -1.49,-3.12 -2.78,-5.43 -3.87,-6.93 -1.22,-1.77 -2.24,-2.92 -3.06,-3.46l0 -1.22 33.61 0 0 1.22c-0.41,0.54 -0.48,1.7 -0.2,3.46 0.27,1.49 0.78,3.8 1.53,6.93 0.75,3.12 2.14,7.27 4.18,12.43l25.87 69.88 21.19 -70.28c1.49,-5.16 2,-9.2 1.53,-12.12 -0.47,-2.92 -1.32,-5.13 -2.55,-6.62 -1.49,-1.76 -3.33,-2.99 -5.5,-3.67l0.41 -1.22 29.13 0 -0.41 1.22c-2.72,0.68 -5.3,1.9 -7.74,3.67 -2.17,1.49 -4.41,3.77 -6.72,6.83 -2.31,3.05 -4.21,7.16 -5.7,12.32l-31.58 102.67 -5.7 0 -39.32 -102.67z"/>
  <path id="_10" class="fil2 str0" d="M1225.74 479.05l-103.9 0 0 -1.02c0.41,-0.68 0.88,-1.9 1.43,-3.67 0.41,-1.49 0.78,-3.77 1.12,-6.82 0.34,-3.06 0.51,-7.16 0.51,-12.33l0 -77.21c0,-5.16 -0.17,-9.27 -0.51,-12.32 -0.34,-3.06 -0.71,-5.33 -1.12,-6.83 -0.54,-1.76 -1.02,-2.99 -1.43,-3.67l0 -1.02 101.25 0 -9.57 26.89 -1.02 0c-0.82,-4.62 -2.85,-8.69 -6.11,-12.22 -1.49,-1.49 -3.26,-2.99 -5.3,-4.48 -2.04,-1.49 -4.55,-2.82 -7.54,-3.97 -2.99,-1.15 -6.45,-2.07 -10.39,-2.75 -3.94,-0.68 -8.49,-1.02 -13.65,-1.02l-17.52 0 0 60.91 31.98 0c5.16,0 9.27,-0.68 12.33,-2.04 3.06,-1.36 5.33,-2.85 6.82,-4.48 1.77,-1.9 2.99,-4.14 3.67,-6.72l1.02 0 0 29.13 -1.02 0c-0.68,-2.45 -1.9,-4.69 -3.67,-6.72 -1.49,-1.63 -3.77,-3.16 -6.82,-4.58 -3.06,-1.43 -7.16,-2.14 -12.33,-2.14l-31.98 0 0 56.63 21.19 0c10.32,0 18.37,-1.26 24.14,-3.77 5.77,-2.51 10.08,-5.33 12.94,-8.45 3.39,-3.53 5.43,-7.61 6.11,-12.22l1.02 0 9.37 26.89 -1.02 0z"/>
  <path id="_11" class="fil2 str0" d="M1332.09 455.22c3.53,5.7 6.38,10.08 8.56,13.14 2.17,3.05 3.94,5.33 5.3,6.82 1.49,1.63 2.72,2.58 3.67,2.85l0 1.02 -37.28 0 0 -1.02c0.68,-0.68 0.88,-1.9 0.61,-3.67 -0.27,-1.49 -1.02,-3.77 -2.24,-6.82 -1.22,-3.06 -3.36,-7.16 -6.48,-12.33l-16.03 -26.69 -23.33 0 0 26.69c0,5.16 0.14,9.27 0.41,12.33 0.27,3.06 0.61,5.33 1.02,6.82 0.48,1.77 0.95,2.99 1.43,3.67l0 1.02 -33 0 0 -1.02c0.41,-0.68 0.88,-1.9 1.43,-3.67 0.41,-1.49 0.78,-3.77 1.12,-6.82 0.34,-3.06 0.51,-7.16 0.51,-12.33l0 -77.21c0,-5.16 -0.17,-9.27 -0.51,-12.32 -0.34,-3.06 -0.71,-5.33 -1.12,-6.83 -0.54,-1.76 -1.02,-2.99 -1.43,-3.67l0 -1.02 54.8 -0.2 -0.2 0c9.91,0 18.4,0.99 25.47,2.95 7.06,1.97 12.83,4.65 17.32,8.05 4.48,3.4 7.78,7.33 9.88,11.82 2.1,4.48 3.16,9.3 3.16,14.46 0,7.74 -2.72,14.63 -8.15,20.68 -5.43,6.04 -13.04,10.49 -22.82,13.34l17.93 29.95zm-56.87 -29.13c7.98,0 14.67,-0.88 20.1,-2.65 5.4,-1.77 9.74,-4.21 13.07,-7.33 3.33,-3.12 5.67,-6.79 7.1,-11 1.43,-4.21 2.14,-8.83 2.14,-13.85 0,-5.03 -0.61,-9.64 -1.83,-13.85 -1.22,-4.21 -3.16,-7.84 -5.87,-10.9 -2.72,-3.06 -6.21,-5.47 -10.56,-7.23 -4.31,-1.76 -9.68,-2.65 -16.03,-2.65l-16.23 0c-0.41,1.09 -0.88,3.19 -1.43,6.32 -0.54,3.12 -0.82,8.15 -0.82,15.08l0 48.08 10.36 0z"/>
 </g>
</svg>
