<?xml version="1.0" encoding="UTF-8"?>
<!DOCTYPE svg PUBLIC "-//W3C//DTD SVG 1.1//EN" "http://www.w3.org/Graphics/SVG/1.1/DTD/svg11.dtd">
<!-- Creator: CorelDRAW 2021 (64-Bit) -->
<svg xmlns="http://www.w3.org/2000/svg" xml:space="preserve" width="46.9294mm" height="13.3846mm" version="1.1" style="shape-rendering:geometricPrecision; text-rendering:geometricPrecision; image-rendering:optimizeQuality; fill-rule:evenodd; clip-rule:evenodd"
viewBox="0 0 103.65 29.56"
 xmlns:xlink="http://www.w3.org/1999/xlink"
 xmlns:xodm="http://www.corel.com/coreldraw/odm/2003">
 <defs>
  <style type="text/css">
   <![CDATA[
    .fil0 {fill:black;fill-rule:nonzero}
   ]]>
  </style>
 </defs>
 <g id="Layer_x0020_1">
  <metadata id="CorelCorpID_0Corel-Layer"/>
  <g id="_2619159855840">
   <path class="fil0" d="M23.73 0.1l-18.27 0c-3.01,0 -5.45,2.44 -5.46,5.44l0 18.31c0.01,3 2.45,5.44 5.46,5.44l18.27 0c3.01,0 5.46,-2.45 5.46,-5.46l0 -18.27c0,-3.01 -2.45,-5.46 -5.46,-5.46zm4.4 23.73c0,2.43 -1.97,4.4 -4.4,4.4l-18.27 0c-2.43,0 -4.4,-1.97 -4.4,-4.4l0 -18.27c0,-2.43 1.97,-4.4 4.4,-4.4l18.27 0c2.43,0 4.4,1.97 4.4,4.4l0 18.27z"/>
   <path class="fil0" d="M21.92 4.25c-1.73,0 -3.13,1.4 -3.13,3.13l0 7.31c0,3.13 -1.06,4.18 -4.18,4.18 -1.73,0 -3.13,1.4 -3.13,3.13 0,1.73 1.4,3.13 3.13,3.13 1.73,0 3.13,-1.4 3.13,-3.13 0,-3.13 1.06,-4.18 4.18,-4.18 1.73,0 3.13,-1.4 3.13,-3.13l0 -7.31c0,-1.73 -1.4,-3.13 -3.13,-3.13l0 0z"/>
   <path class="fil0" d="M47.47 3.24l-1.38 1c-0.77,-1.71 -2.46,-2.68 -4.41,-2.68 -2.77,0 -5.21,1.91 -5.21,5.43 0,3.52 2.39,5.41 5.19,5.41 1.99,0 3.72,-0.97 4.46,-2.72l1.4 0.98c-1.17,2.04 -3.32,3.3 -5.92,3.3 -3.7,0 -6.89,-2.64 -6.89,-7 0,-4.36 3.28,-6.98 6.92,-6.98 2.41,0 4.7,1.13 5.83,3.24z"/>
   <polygon class="fil0" points="50.25,0.31 50.25,13.7 48.58,13.7 48.58,0.31 "/>
   <path class="fil0" d="M60.75 8.8c0,0.22 0,0.46 -0.04,0.71l-7.45 0c0.2,2 1.48,3.01 3.12,3.01 1.46,0 2.44,-0.6 2.99,-1.86l1.26 1.07c-0.86,1.55 -2.57,2.24 -4.28,2.24 -2.9,0 -4.81,-2.06 -4.81,-4.99 0,-2.93 1.97,-5.07 4.68,-5.07 2.72,0 4.54,1.99 4.54,4.88l0 0zm-1.8 -0.6c0,-1.73 -1.09,-2.81 -2.77,-2.81 -1.42,0 -2.62,0.95 -2.88,2.81l5.65 0z"/>
   <path class="fil0" d="M64.74 8.42c2.99,-0.53 3.39,-0.66 3.39,-1.62 0,-1.09 -1.04,-1.51 -2.22,-1.51 -1.42,0 -2.51,0.77 -2.51,2.28l-1.53 -0.6c0.2,-1.8 1.9,-3.04 4.05,-3.04 2.41,0 3.88,1.13 3.88,3.19l0 4.83 0.29 1.77 -1.46 0 -0.42 -1.26c-0.77,1.06 -2.02,1.53 -3.37,1.53 -1.86,0 -3.17,-1.07 -3.17,-2.7 0,-1.62 1.22,-2.53 3.08,-2.86l0 0zm0.46 4.23c1.88,0 2.93,-1.2 2.93,-2.77l0 -1.02c-0.31,0.29 -0.87,0.36 -2.92,0.76 -1.02,0.2 -1.77,0.6 -1.77,1.57 0,0.82 0.64,1.46 1.75,1.46z"/>
   <path class="fil0" d="M72.98 4.23l0 1.62c0.73,-1.4 2.02,-1.8 3.01,-1.8 0.26,0 0.44,0.02 0.67,0.07l0 1.71c-0.29,-0.07 -0.57,-0.11 -0.86,-0.11 -1.62,0 -2.82,0.93 -2.82,3.39l0 4.59 -1.68 0 0 -9.47 1.68 0z"/>
   <path class="fil0" d="M42.79 15.9l0 9.13c0,2.79 -1.66,4.54 -4.17,4.54 -2.52,0 -4.12,-1.69 -4.12,-4.1l0 -0.47 1.68 -0.82 0 0.76c0,1.84 0.75,3.04 2.44,3.04 1.69,0 2.44,-1.17 2.44,-3.01l0 -9.07 1.73 0 0 0z"/>
   <path class="fil0" d="M52.54 29.29l-1.68 0 0 -1.29c-0.67,1.09 -1.73,1.57 -3.03,1.57 -2.2,0 -3.53,-1.38 -3.53,-3.68l0 -6.07 1.68 0 0 5.83c0,1.64 0.75,2.46 2.22,2.46 1.68,0 2.66,-1.15 2.66,-3.12l0 -5.17 1.68 0 0 9.48z"/>
   <path class="fil0" d="M55.73 19.81l0 1.35c0.66,-1.09 1.68,-1.64 3.13,-1.64 2.3,0 3.61,1.46 3.61,3.92l0 5.85 -1.68 0 0 -5.59c0,-1.77 -0.78,-2.64 -2.31,-2.64 -1.71,0 -2.75,1.13 -2.75,3.13l0 5.1 -1.68 0 0 -9.48 1.68 0 0 0z"/>
   <path class="fil0" d="M72.92 22.06l-1.48 0.91c-0.35,-1.24 -1.51,-1.91 -2.77,-1.91 -1.97,0 -3.3,1.38 -3.3,3.48 0,2.09 1.26,3.48 3.3,3.48 1.33,0 2.5,-0.82 2.82,-1.89l1.42 0.91c-0.64,1.46 -2.31,2.53 -4.25,2.53 -2.95,0 -5.01,-2 -5.01,-5.03 0,-3.03 2.11,-5.03 5.01,-5.03 1.97,0 3.65,1.08 4.25,2.55l0 0z"/>
   <path class="fil0" d="M76.84 16.3l0 3.52 2.71 0 0 1.49 -2.71 0 0 5.19c0,1.29 0.53,1.49 1.55,1.49 0.25,0 0.71,-0.07 0.98,-0.13l0 1.48c-0.29,0.11 -0.97,0.18 -1.24,0.18 -1.91,0 -2.97,-0.77 -2.97,-2.81l0 -5.41 -1.68 0 0 -1.49 1.68 0 0 -2.26 1.68 -1.26z"/>
   <path class="fil0" d="M82.79 19.81l0 9.48 -1.68 0 0 -9.48 1.68 0zm-1.92 -2.95c0,-0.61 0.49,-1.1 1.1,-1.1 0.61,0 1.1,0.49 1.1,1.1 0,0.61 -0.49,1.1 -1.1,1.1 -0.61,0 -1.1,-0.49 -1.1,-1.1z"/>
   <path class="fil0" d="M94.13 24.53c0,2.97 -2.22,5.03 -5.08,5.03 -2.86,0 -5.05,-2.06 -5.05,-5.03 0,-2.97 2.2,-5.03 5.05,-5.03 2.84,0 5.08,2.06 5.08,5.03zm-5.08 3.48c1.95,0 3.35,-1.37 3.35,-3.48 0,-2.11 -1.4,-3.48 -3.35,-3.48 -1.95,0 -3.33,1.39 -3.33,3.48 0,2.1 1.42,3.48 3.33,3.48z"/>
   <path class="fil0" d="M96.91 19.81l0 1.35c0.66,-1.09 1.68,-1.64 3.13,-1.64 2.3,0 3.61,1.46 3.61,3.92l0 5.85 -1.68 0 0 -5.59c0,-1.77 -0.78,-2.64 -2.31,-2.64 -1.71,0 -2.75,1.13 -2.75,3.13l0 5.1 -1.68 0 0 -9.48 1.68 0 0 0z"/>
  </g>
 </g>
</svg>
