<svg width="250" height="112" viewBox="0 0 250 112" fill="none" xmlns="http://www.w3.org/2000/svg">
<g clip-path="url(#clip0_1208_2)">
<path d="M0 0.796627C1.65402 0.531169 3.28506 0.398438 4.89315 0.398438C6.45526 0.398438 8.06335 0.531169 9.71738 0.796627V35.6381C9.71738 37.0095 9.7863 38.1156 9.92412 38.9562C10.1079 39.7968 10.3606 40.4605 10.6822 40.9472C11.0498 41.3896 11.5092 41.6993 12.0606 41.8762C12.6119 42.0533 13.3011 42.1417 14.1281 42.1417C14.4956 42.1417 14.8862 42.1196 15.2997 42.0754C15.7591 42.0312 16.1956 41.9649 16.6091 41.8762C17.1145 43.6903 17.3672 45.4599 17.3672 47.1856C17.3672 47.5395 17.3672 47.8711 17.3672 48.1809C17.3672 48.4464 17.3213 48.7562 17.2294 49.1102C16.4943 49.3312 15.5983 49.486 14.5416 49.5747C13.5308 49.6631 12.5889 49.7073 11.716 49.7073C8.17821 49.7073 5.32962 48.7783 3.17021 46.92C1.05674 45.0175 0 41.9428 0 37.6953V0.796627Z" fill="#2BB451"/>
<path d="M30.4077 35.0415C30.5915 37.6962 31.5565 39.6208 33.3024 40.8154C35.0482 42.01 37.3453 42.6071 40.1941 42.6071C41.7562 42.6071 43.3412 42.4745 44.9494 42.2089C46.6032 41.8994 48.1656 41.4788 49.6356 40.948C50.1412 41.8328 50.5777 42.8948 50.945 44.1335C51.3127 45.3723 51.5194 46.6995 51.5653 48.1154C47.9818 49.4426 43.9385 50.1064 39.4359 50.1064C36.128 50.1064 33.2794 49.664 30.89 48.7792C28.547 47.8941 26.6172 46.6774 25.1011 45.1292C23.6308 43.5364 22.5282 41.656 21.793 39.4882C21.1039 37.3201 20.7593 34.9531 20.7593 32.3871C20.7593 29.8653 21.1268 27.4982 21.862 25.286C22.5971 23.0739 23.6768 21.1493 25.1011 19.5123C26.5713 17.8753 28.3632 16.5923 30.4768 15.6632C32.6362 14.6898 35.14 14.2031 37.9885 14.2031C40.4697 14.2031 42.675 14.6234 44.6047 15.4641C46.5344 16.3047 48.1656 17.455 49.498 18.915C50.8762 20.375 51.91 22.1226 52.5991 24.1578C53.2882 26.1487 53.633 28.2946 53.633 30.5951C53.633 31.4357 53.5871 32.2766 53.495 33.1172C53.4491 33.9135 53.3803 34.5549 53.2882 35.0415H30.4077ZM44.398 28.4715C44.3062 26.3478 43.6859 24.6445 42.5371 23.3615C41.4344 22.0342 39.8724 21.3705 37.8509 21.3705C35.5535 21.3705 33.8077 21.9899 32.613 23.2287C31.4185 24.4675 30.7065 26.2151 30.4768 28.4715H44.398Z" fill="#2BB451"/>
<path d="M63.6621 22.1658H58.011C57.873 21.4579 57.7813 20.8164 57.7351 20.2412C57.6892 19.6661 57.6663 19.0688 57.6663 18.4493C57.6663 17.8742 57.6892 17.3212 57.7351 16.7902C57.7813 16.2593 57.873 15.6621 58.011 14.9984H63.6621V13.3393C63.6621 11.2156 63.9836 9.33529 64.6268 7.69829C65.3163 6.01705 66.281 4.62339 67.5216 3.51733C68.7621 2.367 70.2321 1.50426 71.9321 0.929105C73.678 0.309701 75.5848 0 77.6524 0C79.0307 0 80.1795 0.0663656 81.0983 0.199096C82.063 0.287581 83.0968 0.486675 84.1995 0.796376C84.1077 2.2564 83.9468 3.58368 83.7171 4.77824C83.5333 5.92857 83.2118 7.0789 82.7521 8.2292C82.2468 8.14072 81.7186 8.05224 81.1671 7.96376C80.616 7.83101 79.8807 7.76467 78.9618 7.76467C77.3536 7.76467 76.0442 8.14072 75.0336 8.89286C74.0227 9.60073 73.4713 11.1492 73.3795 13.5384V14.9984H81.6495C81.7874 15.7063 81.8792 16.3478 81.9254 16.923C81.9713 17.4981 81.9942 18.0954 81.9942 18.7148C81.9942 19.29 81.9713 19.843 81.9254 20.3739C81.8792 20.9048 81.7874 21.5021 81.6495 22.1658H73.3795V49.3089C71.7254 49.5744 70.1174 49.7071 68.5554 49.7071C66.9471 49.7071 65.3163 49.5744 63.6621 49.3089V22.1658Z" fill="#2BB451"/>
<path d="M89.6086 22.165H85.1289L84.7842 20.8377L97.6718 4.97656H99.2568V14.9976H107.596C107.734 15.6613 107.826 16.2586 107.872 16.7895C107.918 17.3204 107.941 17.8734 107.941 18.4486C107.941 19.068 107.918 19.6653 107.872 20.2404C107.826 20.8156 107.734 21.4571 107.596 22.165H99.2568V35.637C99.2568 37.0084 99.3718 38.1146 99.6015 38.9552C99.8312 39.7958 100.153 40.4595 100.566 40.9461C101.026 41.4327 101.577 41.7646 102.22 41.9418C102.864 42.1186 103.622 42.207 104.495 42.207C105.184 42.207 105.85 42.1628 106.493 42.0744C107.182 41.9418 107.78 41.8309 108.285 41.7425C108.607 42.5831 108.837 43.4679 108.974 44.3972C109.112 45.282 109.181 46.0784 109.181 46.7863C109.181 47.2729 109.158 47.6932 109.112 48.0472C109.112 48.357 109.089 48.6665 109.043 48.9762C106.93 49.4628 104.747 49.7063 102.496 49.7063C98.3151 49.7063 95.1218 48.7773 92.9165 46.919C90.7112 45.0164 89.6086 41.9418 89.6086 37.6943V22.165Z" fill="#2BB451"/>
<path d="M130.119 50.1064C127.224 50.1064 124.697 49.664 122.538 48.7792C120.425 47.8499 118.656 46.589 117.231 44.9962C115.853 43.3593 114.796 41.4567 114.061 39.2889C113.372 37.1212 113.027 34.7762 113.027 32.2542C113.027 29.7324 113.372 27.3655 114.061 25.1533C114.796 22.9411 115.853 21.0387 117.231 19.4459C118.656 17.8089 120.425 16.5259 122.538 15.5968C124.697 14.6677 127.224 14.2031 130.119 14.2031C133.014 14.2031 135.541 14.6677 137.7 15.5968C139.859 16.5259 141.651 17.8089 143.076 19.4459C144.5 21.0387 145.556 22.9411 146.246 25.1533C146.935 27.3655 147.279 29.7324 147.279 32.2542C147.279 34.7762 146.935 37.1212 146.246 39.2889C145.556 41.4567 144.5 43.3593 143.076 44.9962C141.651 46.589 139.859 47.8499 137.7 48.7792C135.541 49.664 133.014 50.1064 130.119 50.1064ZM130.119 42.939C132.692 42.939 134.53 42.0321 135.632 40.218C136.781 38.3599 137.355 35.7052 137.355 32.2542C137.355 28.8034 136.781 26.1709 135.632 24.3569C134.53 22.4987 132.692 21.5696 130.119 21.5696C127.592 21.5696 125.754 22.4987 124.606 24.3569C123.503 26.1709 122.951 28.8034 122.951 32.2542C122.951 35.7052 123.503 38.3599 124.606 40.218C125.754 42.0321 127.592 42.939 130.119 42.939Z" fill="#2BB451"/>
<path d="M149.178 15.0661C150.281 14.8449 151.292 14.7122 152.21 14.6679C153.175 14.6237 154.002 14.6016 154.692 14.6016C155.61 14.6016 156.529 14.6237 157.448 14.6679C158.367 14.7122 159.217 14.8228 159.998 14.9998L167.786 40.5501L175.436 14.9998C176.217 14.867 177.044 14.7786 177.917 14.7343C178.789 14.6458 179.662 14.6016 180.535 14.6016C181.225 14.6016 182.006 14.6237 182.879 14.6679C183.798 14.7122 184.831 14.8449 185.98 15.0661L172.472 49.3102C171.599 49.4429 170.68 49.5316 169.715 49.5758C168.751 49.62 167.947 49.6421 167.303 49.6421C166.614 49.6421 165.833 49.62 164.96 49.5758C164.087 49.5316 163.26 49.4208 162.479 49.2439L149.178 15.0661Z" fill="#2BB451"/>
<path d="M197.586 35.0415C197.77 37.6962 198.735 39.6208 200.481 40.8154C202.227 42.01 204.524 42.6071 207.373 42.6071C208.935 42.6071 210.52 42.4745 212.128 42.2089C213.782 41.8994 215.344 41.4788 216.815 40.948C217.32 41.8328 217.756 42.8948 218.124 44.1335C218.491 45.3723 218.698 46.6995 218.744 48.1154C215.161 49.4426 211.117 50.1064 206.615 50.1064C203.307 50.1064 200.458 49.664 198.069 48.7792C195.726 47.8941 193.796 46.6774 192.28 45.1292C190.81 43.5364 189.707 41.656 188.972 39.4882C188.283 37.3201 187.938 34.9531 187.938 32.3871C187.938 29.8653 188.306 27.4982 189.041 25.286C189.776 23.0739 190.856 21.1493 192.28 19.5123C193.75 17.8753 195.542 16.5923 197.656 15.6632C199.815 14.6898 202.319 14.2031 205.168 14.2031C207.649 14.2031 209.854 14.6234 211.784 15.4641C213.713 16.3047 215.344 17.455 216.677 18.915C218.055 20.375 219.089 22.1226 219.778 24.1578C220.467 26.1487 220.812 28.2946 220.812 30.5951C220.812 31.4357 220.766 32.2766 220.674 33.1172C220.628 33.9135 220.559 34.5549 220.467 35.0415H197.586ZM211.577 28.4715C211.485 26.3478 210.865 24.6445 209.716 23.3615C208.614 22.0342 207.051 21.3705 205.03 21.3705C202.732 21.3705 200.986 21.9899 199.792 23.2287C198.597 24.4675 197.885 26.2151 197.656 28.4715H211.577Z" fill="#2BB451"/>
<path d="M228.498 14.9998C229.187 14.867 229.83 14.7786 230.427 14.7343C231.07 14.6458 231.76 14.6016 232.495 14.6016C233.184 14.6016 233.85 14.6458 234.493 14.7343C235.183 14.8228 235.849 14.9334 236.492 15.0661C236.63 15.2873 236.745 15.6192 236.837 16.0616C236.975 16.4598 237.089 16.9022 237.181 17.3889C237.273 17.8313 237.342 18.2959 237.388 18.7826C237.48 19.225 237.549 19.601 237.595 19.9107C238.606 18.5392 239.846 17.3225 241.316 16.2607C242.787 15.1546 244.624 14.6016 246.83 14.6016C247.289 14.6016 247.818 14.6237 248.415 14.6679C249.012 14.7122 249.448 14.7786 249.724 14.867C249.816 15.3095 249.885 15.8183 249.931 16.3934C249.977 16.9686 250 17.5658 250 18.1853C250 18.9374 249.954 19.7559 249.862 20.6407C249.816 21.5256 249.701 22.3662 249.518 23.1626C249.012 23.0741 248.438 23.0299 247.795 23.0299C247.197 23.0299 246.83 23.0299 246.692 23.0299C245.911 23.0299 245.038 23.1184 244.073 23.2953C243.108 23.428 242.189 23.8262 241.316 24.4899C240.443 25.1535 239.708 26.149 239.111 27.4763C238.56 28.8036 238.284 30.6617 238.284 33.0508V49.3766C237.457 49.5092 236.63 49.5979 235.803 49.6421C234.976 49.6863 234.172 49.7084 233.391 49.7084C232.61 49.7084 231.806 49.6863 230.979 49.6421C230.198 49.5979 229.37 49.5092 228.498 49.3766V14.9998Z" fill="#2BB451"/>
<path d="M23.2201 88.1103C23.7142 88.9691 24.1259 89.978 24.4552 91.1372C24.7846 92.2537 24.9493 93.5844 24.9493 95.1303C23.3025 95.817 21.7586 96.2465 20.3176 96.4183C18.8766 96.6329 17.3739 96.7402 15.8094 96.7402C13.1334 96.7402 10.8072 96.311 8.83106 95.4522C6.85488 94.5506 5.20806 93.3268 3.89062 91.7812C2.61432 90.2356 1.64682 88.4109 0.988091 86.3071C0.329365 84.1602 0 81.8418 0 79.3516C0 76.9044 0.308779 74.6287 0.926335 72.5249C1.58506 70.421 2.55257 68.5748 3.82885 66.9862C5.14629 65.3976 6.77253 64.1526 8.70756 63.251C10.6426 62.3494 12.8864 61.8984 15.4389 61.8984C16.3446 61.8984 17.1681 61.92 17.9091 61.963C18.6914 62.0057 19.4324 62.0918 20.1324 62.2206C20.8322 62.3494 21.5321 62.5209 22.232 62.7358C22.9319 62.9504 23.7142 63.2295 24.5787 63.5728C24.5787 64.5605 24.4552 65.6767 24.2082 66.9219C23.9612 68.1242 23.5701 69.2834 23.0349 70.3995C21.7997 69.9701 20.7087 69.6913 19.7618 69.5625C18.8561 69.3906 17.8062 69.3049 16.6123 69.3049C14.0597 69.3049 12.1247 70.185 10.8072 71.9451C9.53094 73.6626 8.89282 76.1313 8.89282 79.3516C8.89282 82.8292 9.59271 85.3624 10.9925 86.9511C12.3923 88.5397 14.2861 89.334 16.674 89.334C17.2916 89.334 17.8474 89.334 18.3414 89.334C18.8766 89.291 19.3913 89.2267 19.8853 89.1407C20.3794 89.0549 20.8734 88.9261 21.3674 88.7543C21.9027 88.5827 22.5202 88.3679 23.2201 88.1103Z" fill="#2BB451"/>
<path d="M30.5449 62.6676C32.027 62.41 33.4885 62.2812 34.9296 62.2812C36.3705 62.2812 37.832 62.41 39.314 62.6676V80.3141C39.314 82.0743 39.4376 83.5341 39.6846 84.6933C39.9729 85.8098 40.3846 86.7114 40.9199 87.3984C41.4961 88.0424 42.1961 88.5146 43.0193 88.8152C43.8429 89.0728 44.8105 89.2016 45.922 89.2016C47.4452 89.2016 48.7217 89.0513 49.7508 88.7507V62.6676C51.2329 62.41 52.674 62.2812 54.0737 62.2812C55.5146 62.2812 56.9764 62.41 58.4585 62.6676V94.6758C57.1408 95.148 55.3911 95.5989 53.209 96.0283C51.0682 96.5005 48.8246 96.7366 46.4779 96.7366C44.3782 96.7366 42.3608 96.565 40.4258 96.2214C38.4908 95.878 36.7823 95.1479 35.2999 94.0318C33.859 92.9153 32.7064 91.284 31.8417 89.1371C30.977 86.9905 30.5449 84.1351 30.5449 80.5717V62.6676Z" fill="#2BB451"/>
<path d="M66.4414 62.6676C67.0588 62.5388 67.6352 62.4531 68.1705 62.4101C68.7467 62.3243 69.3643 62.2812 70.0232 62.2812C70.6405 62.2812 71.2376 62.3243 71.8141 62.4101C72.4317 62.4958 73.0285 62.6034 73.6049 62.7322C73.7285 62.9468 73.8314 63.2689 73.9138 63.698C74.0373 64.0844 74.1402 64.5139 74.2226 64.986C74.3049 65.4155 74.3667 65.8664 74.4079 66.3386C74.4902 66.768 74.552 67.1329 74.5932 67.4335C75.4988 66.1025 76.6105 64.9218 77.9279 63.8914C79.2452 62.818 80.892 62.2812 82.8682 62.2812C83.2799 62.2812 83.7535 62.3028 84.2888 62.3458C84.8238 62.3885 85.2149 62.4531 85.462 62.5389C85.5443 62.9683 85.6061 63.462 85.6473 64.0202C85.6885 64.5784 85.7091 65.1579 85.7091 65.7591C85.7091 66.4889 85.6679 67.2832 85.5855 68.1418C85.5443 69.0007 85.4414 69.8165 85.2767 70.5893C84.8238 70.5032 84.3093 70.4605 83.7329 70.4605C83.1976 70.4605 82.8682 70.4605 82.7446 70.4605C82.0449 70.4605 81.2626 70.5463 80.3982 70.7181C79.5335 70.8469 78.7099 71.2333 77.9279 71.8773C77.1455 72.5213 76.487 73.4874 75.9517 74.7754C75.4576 76.0634 75.2105 77.8666 75.2105 80.1853V96.0283C74.4696 96.1571 73.7285 96.2429 72.9873 96.2859C72.2464 96.3287 71.5258 96.3502 70.8258 96.3502C70.1261 96.3502 69.4055 96.3287 68.6643 96.2859C67.9646 96.2429 67.2235 96.1571 66.4414 96.0283V62.6676Z" fill="#2BB451"/>
<path d="M91.2883 62.6676C91.906 62.5388 92.4824 62.4531 93.0174 62.4101C93.5939 62.3243 94.2116 62.2812 94.8704 62.2812C95.4877 62.2812 96.0848 62.3243 96.6613 62.4101C97.2786 62.4958 97.8757 62.6034 98.4522 62.7322C98.5757 62.9468 98.6786 63.2689 98.761 63.698C98.8845 64.0844 98.9875 64.5139 99.0695 64.986C99.1519 65.4155 99.2136 65.8664 99.2548 66.3386C99.3372 66.768 99.3989 67.1329 99.4401 67.4335C100.346 66.1025 101.457 64.9218 102.775 63.8914C104.092 62.818 105.739 62.2812 107.715 62.2812C108.127 62.2812 108.601 62.3028 109.136 62.3458C109.671 62.3885 110.062 62.4531 110.309 62.5389C110.392 62.9683 110.453 63.462 110.495 64.0202C110.536 64.5784 110.556 65.1579 110.556 65.7591C110.556 66.4889 110.515 67.2832 110.433 68.1418C110.392 69.0007 110.289 69.8165 110.124 70.5893C109.671 70.5032 109.156 70.4605 108.58 70.4605C108.045 70.4605 107.715 70.4605 107.592 70.4605C106.892 70.4605 106.11 70.5463 105.245 70.7181C104.381 70.8469 103.557 71.2333 102.775 71.8773C101.993 72.5213 101.334 73.4874 100.799 74.7754C100.305 76.0634 100.058 77.8666 100.058 80.1853V96.0283C99.3166 96.1571 98.5757 96.2429 97.8345 96.2859C97.0933 96.3287 96.373 96.3502 95.673 96.3502C94.9733 96.3502 94.2527 96.3287 93.5116 96.2859C92.8119 96.2429 92.0707 96.1571 91.2883 96.0283V62.6676Z" fill="#2BB451"/>
<path d="M122.209 82.1209C122.374 84.6969 123.238 86.5647 124.803 87.7239C126.367 88.8831 128.426 89.4628 130.979 89.4628C132.378 89.4628 133.799 89.334 135.239 89.0764C136.722 88.7758 138.121 88.3679 139.439 87.8527C139.892 88.7115 140.283 89.7419 140.612 90.9442C140.942 92.1461 141.127 93.4344 141.168 94.8082C137.957 96.0962 134.334 96.7402 130.299 96.7402C127.335 96.7402 124.782 96.311 122.641 95.4522C120.542 94.5936 118.813 93.4129 117.454 91.91C116.136 90.3644 115.148 88.5397 114.49 86.4359C113.872 84.332 113.563 82.0349 113.563 79.5446C113.563 77.0974 113.893 74.8005 114.551 72.6537C115.21 70.5068 116.178 68.6394 117.454 67.0507C118.771 65.4621 120.377 64.2168 122.271 63.3152C124.206 62.3706 126.45 61.8984 129.002 61.8984C131.225 61.8984 133.201 62.3064 134.931 63.1222C136.66 63.9377 138.121 65.0542 139.315 66.471C140.551 67.8878 141.477 69.5837 142.094 71.5587C142.712 73.491 143.021 75.5733 143.021 77.806C143.021 78.6218 142.98 79.4373 142.897 80.2532C142.856 81.026 142.794 81.6485 142.712 82.1209H122.209ZM134.746 75.7449C134.663 73.6841 134.107 72.0312 133.078 70.7859C132.09 69.4979 130.69 68.8539 128.879 68.8539C126.82 68.8539 125.256 69.4549 124.185 70.6571C123.115 71.8594 122.477 73.5553 122.271 75.7449H134.746Z" fill="#2BB451"/>
<path d="M149.908 62.6712C150.484 62.5424 151.061 62.4567 151.637 62.4136C152.214 62.3279 152.852 62.2848 153.551 62.2848C154.251 62.2848 154.869 62.3279 155.404 62.4136C155.939 62.4567 156.495 62.5424 157.071 62.6712C157.195 62.8858 157.298 63.208 157.38 63.6374C157.504 64.0238 157.607 64.4532 157.689 64.9254C157.771 65.3548 157.833 65.784 157.874 66.2134C157.957 66.6428 158.019 67.0077 158.06 67.3083C158.471 66.6643 158.966 66.0203 159.542 65.376C160.118 64.732 160.777 64.1526 161.518 63.6374C162.3 63.1222 163.165 62.7143 164.112 62.4136C165.059 62.0703 166.109 61.8984 167.261 61.8984C170.884 61.8984 173.601 62.9288 175.413 64.9896C177.266 67.0507 178.192 70.2923 178.192 74.7145V95.9674C176.71 96.225 175.248 96.3538 173.807 96.3538C172.366 96.3538 170.905 96.225 169.423 95.9674V77.162C169.423 74.8433 169.073 73.0616 168.373 71.8163C167.714 70.5714 166.541 69.9489 164.853 69.9489C164.153 69.9489 163.432 70.0562 162.691 70.2707C161.95 70.4856 161.271 70.9147 160.654 71.5587C160.077 72.16 159.604 73.0186 159.233 74.135C158.863 75.2512 158.677 76.711 158.677 78.5142V95.9674C157.195 96.225 155.734 96.3538 154.293 96.3538C152.852 96.3538 151.39 96.225 149.908 95.9674V62.6712Z" fill="#2BB451"/>
<path d="M207.582 88.1103C208.076 88.9691 208.488 89.978 208.817 91.1372C209.147 92.2537 209.311 93.5844 209.311 95.1303C207.665 95.817 206.121 96.2465 204.68 96.4183C203.239 96.6329 201.736 96.7402 200.172 96.7402C197.496 96.7402 195.169 96.311 193.193 95.4522C191.217 94.5506 189.57 93.3268 188.253 91.7812C186.976 90.2356 186.009 88.4109 185.35 86.3071C184.692 84.1602 184.362 81.8418 184.362 79.3516C184.362 76.9044 184.671 74.6287 185.288 72.5249C185.947 70.421 186.915 68.5748 188.191 66.9862C189.508 65.3976 191.135 64.1526 193.07 63.251C195.005 62.3494 197.248 61.8984 199.801 61.8984C200.707 61.8984 201.53 61.92 202.271 61.963C203.053 62.0057 203.795 62.0918 204.495 62.2206C205.194 62.3494 205.894 62.5209 206.594 62.7358C207.294 62.9504 208.076 63.2295 208.941 63.5728C208.941 64.5605 208.818 65.6767 208.571 66.9219C208.323 68.1242 207.932 69.2834 207.397 70.3995C206.162 69.9701 205.071 69.6913 204.124 69.5625C203.218 69.3906 202.168 69.3049 200.974 69.3049C198.422 69.3049 196.487 70.185 195.169 71.9451C193.893 73.6626 193.255 76.1313 193.255 79.3516C193.255 82.8292 193.955 85.3624 195.355 86.9511C196.755 88.5397 198.648 89.334 201.036 89.334C201.654 89.334 202.21 89.334 202.704 89.334C203.239 89.291 203.753 89.2267 204.248 89.1407C204.742 89.0549 205.236 88.9261 205.73 88.7543C206.265 88.5827 206.882 88.3679 207.582 88.1103Z" fill="#2BB451"/>
<path d="M211.758 62.6676C212.705 62.4531 213.528 62.3458 214.228 62.3458C214.969 62.3028 215.648 62.2812 216.266 62.2812C217.089 62.2812 217.933 62.3028 218.798 62.3458C219.662 62.3885 220.445 62.4958 221.144 62.6676L227.814 91.7134L235.348 62.6676C236.707 62.41 238.107 62.2812 239.548 62.2812C240.165 62.2812 240.824 62.3028 241.524 62.3458C242.224 62.3458 243.088 62.4531 244.118 62.6676L232.199 103.821C231.705 105.453 231.108 106.805 230.408 107.878C229.749 108.952 228.988 109.789 228.123 110.39C227.258 110.991 226.291 111.399 225.22 111.614C224.15 111.871 222.997 112 221.762 112C220.609 112 219.559 111.914 218.613 111.743C217.707 111.614 216.801 111.42 215.895 111.163C215.854 110.948 215.833 110.755 215.833 110.583C215.833 110.455 215.833 110.304 215.833 110.132C215.833 109.102 215.936 108.115 216.142 107.17C216.389 106.268 216.678 105.388 217.007 104.529C217.377 104.658 217.871 104.766 218.489 104.851C219.106 104.98 219.724 105.045 220.342 105.045C220.836 105.045 221.33 105.002 221.824 104.916C222.318 104.873 222.791 104.68 223.244 104.336C223.738 104.036 224.191 103.542 224.603 102.855C225.015 102.168 225.385 101.202 225.714 99.9569L226.764 95.9638C226.311 96.0068 225.797 96.0283 225.22 96.0283C224.685 96.0711 224.129 96.0926 223.553 96.0926C223.1 96.0926 222.668 96.0926 222.256 96.0926C221.844 96.0926 221.474 96.0498 221.144 95.9638L211.758 62.6676Z" fill="#2BB451"/>
</g>
<defs>
<clipPath id="clip0_1208_2">
<rect width="250" height="112" fill="white"/>
</clipPath>
</defs>
</svg>
